<?xml version="1.0" encoding="utf-8" standalone="no"?>
<!DOCTYPE svg PUBLIC "-//W3C//DTD SVG 1.1//EN"
  "http://www.w3.org/Graphics/SVG/1.1/DTD/svg11.dtd">
<svg xmlns:xlink="http://www.w3.org/1999/xlink" width="864pt" height="504pt" viewBox="0 0 864 504" xmlns="http://www.w3.org/2000/svg" version="1.1">
 <metadata>
  <rdf:RDF xmlns:dc="http://purl.org/dc/elements/1.1/" xmlns:cc="http://creativecommons.org/ns#" xmlns:rdf="http://www.w3.org/1999/02/22-rdf-syntax-ns#">
   <cc:Work>
    <dc:type rdf:resource="http://purl.org/dc/dcmitype/StillImage"/>
    <dc:date>2023-05-23T15:32:24.046035</dc:date>
    <dc:format>image/svg+xml</dc:format>
    <dc:creator>
     <cc:Agent>
      <dc:title>Matplotlib v3.7.1, https://matplotlib.org/</dc:title>
     </cc:Agent>
    </dc:creator>
   </cc:Work>
  </rdf:RDF>
 </metadata>
 <defs>
  <style type="text/css">*{stroke-linejoin: round; stroke-linecap: butt}</style>
 </defs>
 <g id="figure_1">
  <g id="patch_1">
   <path d="M 0 504 
L 864 504 
L 864 0 
L 0 0 
z
" style="fill: #ffffff"/>
  </g>
  <g id="axes_1">
   <g id="patch_2">
    <path d="M 108 448.56 
L 777.6 448.56 
L 777.6 60.48 
L 108 60.48 
z
" style="fill: #ffffff"/>
   </g>
   <g id="matplotlib.axis_1">
    <g id="xtick_1">
     <g id="line2d_1">
      <path d="M 156.716462 448.56 
L 156.716462 60.48 
" clip-path="url(#p18d1b2ead2)" style="fill: none; stroke: #b0b0b0; stroke-width: 0.8; stroke-linecap: square"/>
     </g>
     <g id="line2d_2">
      <defs>
       <path id="m9b50979eb9" d="M 0 0 
L 0 3.5 
" style="stroke: #000000; stroke-width: 0.8"/>
      </defs>
      <g>
       <use xlink:href="#m9b50979eb9" x="156.716462" y="448.56" style="stroke: #000000; stroke-width: 0.8"/>
      </g>
     </g>
     <g id="text_1">
      <!-- $\mathdefault{2.0}$ -->
      <g transform="translate(147.367936 465.937725) scale(0.15 -0.15)">
       <defs>
        <path id="CMR17-32" d="M 2669 989 
L 2554 989 
C 2490 536 2438 459 2413 420 
C 2381 369 1920 369 1830 369 
L 602 369 
C 832 619 1280 1072 1824 1597 
C 2214 1967 2669 2402 2669 3035 
C 2669 3790 2067 4224 1395 4224 
C 691 4224 262 3604 262 3030 
C 262 2780 448 2748 525 2748 
C 589 2748 781 2787 781 3010 
C 781 3207 614 3264 525 3264 
C 486 3264 448 3258 422 3245 
C 544 3790 915 4058 1306 4058 
C 1862 4058 2227 3617 2227 3035 
C 2227 2479 1901 2000 1536 1584 
L 262 146 
L 262 0 
L 2515 0 
L 2669 989 
z
" transform="scale(0.015625)"/>
        <path id="CMMI12-3a" d="M 1178 307 
C 1178 492 1024 619 870 619 
C 685 619 557 466 557 313 
C 557 128 710 0 864 0 
C 1050 0 1178 153 1178 307 
z
" transform="scale(0.015625)"/>
        <path id="CMR17-30" d="M 2688 2025 
C 2688 2416 2682 3080 2413 3591 
C 2176 4039 1798 4198 1466 4198 
C 1158 4198 768 4058 525 3597 
C 269 3118 243 2524 243 2025 
C 243 1661 250 1106 448 619 
C 723 -39 1216 -128 1466 -128 
C 1760 -128 2208 -7 2470 600 
C 2662 1042 2688 1559 2688 2025 
z
M 1466 -26 
C 1056 -26 813 325 723 812 
C 653 1188 653 1738 653 2096 
C 653 2588 653 2997 736 3387 
C 858 3929 1216 4096 1466 4096 
C 1728 4096 2067 3923 2189 3400 
C 2272 3036 2278 2607 2278 2096 
C 2278 1680 2278 1169 2202 792 
C 2067 95 1690 -26 1466 -26 
z
" transform="scale(0.015625)"/>
       </defs>
       <use xlink:href="#CMR17-32" transform="scale(0.996264)"/>
       <use xlink:href="#CMMI12-3a" transform="translate(45.690477 0) scale(0.996264)"/>
       <use xlink:href="#CMR17-30" transform="translate(72.787654 0) scale(0.996264)"/>
      </g>
     </g>
    </g>
    <g id="xtick_2">
     <g id="line2d_3">
      <path d="M 278.583784 448.56 
L 278.583784 60.48 
" clip-path="url(#p18d1b2ead2)" style="fill: none; stroke: #b0b0b0; stroke-width: 0.8; stroke-linecap: square"/>
     </g>
     <g id="line2d_4">
      <g>
       <use xlink:href="#m9b50979eb9" x="278.583784" y="448.56" style="stroke: #000000; stroke-width: 0.8"/>
      </g>
     </g>
     <g id="text_2">
      <!-- $\mathdefault{2.2}$ -->
      <g transform="translate(269.235258 465.937725) scale(0.15 -0.15)">
       <use xlink:href="#CMR17-32" transform="scale(0.996264)"/>
       <use xlink:href="#CMMI12-3a" transform="translate(45.690477 0) scale(0.996264)"/>
       <use xlink:href="#CMR17-32" transform="translate(72.787654 0) scale(0.996264)"/>
      </g>
     </g>
    </g>
    <g id="xtick_3">
     <g id="line2d_5">
      <path d="M 400.451106 448.56 
L 400.451106 60.48 
" clip-path="url(#p18d1b2ead2)" style="fill: none; stroke: #b0b0b0; stroke-width: 0.8; stroke-linecap: square"/>
     </g>
     <g id="line2d_6">
      <g>
       <use xlink:href="#m9b50979eb9" x="400.451106" y="448.56" style="stroke: #000000; stroke-width: 0.8"/>
      </g>
     </g>
     <g id="text_3">
      <!-- $\mathdefault{2.4}$ -->
      <g transform="translate(391.10258 465.937725) scale(0.15 -0.15)">
       <defs>
        <path id="CMR17-34" d="M 2150 4122 
C 2150 4256 2144 4256 2029 4256 
L 128 1254 
L 128 1088 
L 1779 1088 
L 1779 457 
C 1779 224 1766 160 1318 160 
L 1197 160 
L 1197 0 
C 1402 0 1747 0 1965 0 
C 2182 0 2528 0 2733 0 
L 2733 160 
L 2611 160 
C 2163 160 2150 224 2150 457 
L 2150 1088 
L 2803 1088 
L 2803 1254 
L 2150 1254 
L 2150 4122 
z
M 1798 3703 
L 1798 1254 
L 256 1254 
L 1798 3703 
z
" transform="scale(0.015625)"/>
       </defs>
       <use xlink:href="#CMR17-32" transform="scale(0.996264)"/>
       <use xlink:href="#CMMI12-3a" transform="translate(45.690477 0) scale(0.996264)"/>
       <use xlink:href="#CMR17-34" transform="translate(72.787654 0) scale(0.996264)"/>
      </g>
     </g>
    </g>
    <g id="xtick_4">
     <g id="line2d_7">
      <path d="M 522.318428 448.56 
L 522.318428 60.48 
" clip-path="url(#p18d1b2ead2)" style="fill: none; stroke: #b0b0b0; stroke-width: 0.8; stroke-linecap: square"/>
     </g>
     <g id="line2d_8">
      <g>
       <use xlink:href="#m9b50979eb9" x="522.318428" y="448.56" style="stroke: #000000; stroke-width: 0.8"/>
      </g>
     </g>
     <g id="text_4">
      <!-- $\mathdefault{2.6}$ -->
      <g transform="translate(512.969901 465.937725) scale(0.15 -0.15)">
       <defs>
        <path id="CMR17-36" d="M 678 2176 
C 678 3690 1395 4032 1811 4032 
C 1946 4032 2272 4009 2400 3776 
C 2298 3776 2106 3776 2106 3553 
C 2106 3381 2246 3323 2336 3323 
C 2394 3323 2566 3348 2566 3560 
C 2566 3954 2246 4179 1805 4179 
C 1043 4179 243 3390 243 1984 
C 243 253 966 -128 1478 -128 
C 2099 -128 2688 427 2688 1283 
C 2688 2081 2170 2662 1517 2662 
C 1126 2662 838 2407 678 1960 
L 678 2176 
z
M 1478 25 
C 691 25 691 1200 691 1436 
C 691 1896 909 2560 1504 2560 
C 1613 2560 1926 2560 2138 2120 
C 2253 1870 2253 1609 2253 1289 
C 2253 944 2253 690 2118 434 
C 1978 171 1773 25 1478 25 
z
" transform="scale(0.015625)"/>
       </defs>
       <use xlink:href="#CMR17-32" transform="scale(0.996264)"/>
       <use xlink:href="#CMMI12-3a" transform="translate(45.690477 0) scale(0.996264)"/>
       <use xlink:href="#CMR17-36" transform="translate(72.787654 0) scale(0.996264)"/>
      </g>
     </g>
    </g>
    <g id="xtick_5">
     <g id="line2d_9">
      <path d="M 644.185749 448.56 
L 644.185749 60.48 
" clip-path="url(#p18d1b2ead2)" style="fill: none; stroke: #b0b0b0; stroke-width: 0.8; stroke-linecap: square"/>
     </g>
     <g id="line2d_10">
      <g>
       <use xlink:href="#m9b50979eb9" x="644.185749" y="448.56" style="stroke: #000000; stroke-width: 0.8"/>
      </g>
     </g>
     <g id="text_5">
      <!-- $\mathdefault{2.8}$ -->
      <g transform="translate(634.837223 465.937725) scale(0.15 -0.15)">
       <defs>
        <path id="CMR17-38" d="M 1741 2264 
C 2144 2467 2554 2773 2554 3263 
C 2554 3841 1990 4179 1472 4179 
C 890 4179 378 3759 378 3180 
C 378 3021 416 2747 666 2505 
C 730 2442 998 2251 1171 2130 
C 883 1983 211 1634 211 934 
C 211 279 838 -128 1459 -128 
C 2144 -128 2720 362 2720 1010 
C 2720 1590 2330 1857 2074 2029 
L 1741 2264 
z
M 902 2822 
C 851 2854 595 3051 595 3351 
C 595 3739 998 4032 1459 4032 
C 1965 4032 2336 3676 2336 3262 
C 2336 2669 1670 2331 1638 2331 
C 1632 2331 1626 2331 1574 2370 
L 902 2822 
z
M 2080 1519 
C 2176 1449 2483 1240 2483 851 
C 2483 381 2010 25 1472 25 
C 890 25 448 438 448 940 
C 448 1443 838 1862 1280 2060 
L 2080 1519 
z
" transform="scale(0.015625)"/>
       </defs>
       <use xlink:href="#CMR17-32" transform="scale(0.996264)"/>
       <use xlink:href="#CMMI12-3a" transform="translate(45.690477 0) scale(0.996264)"/>
       <use xlink:href="#CMR17-38" transform="translate(72.787654 0) scale(0.996264)"/>
      </g>
     </g>
    </g>
    <g id="xtick_6">
     <g id="line2d_11">
      <path d="M 766.053071 448.56 
L 766.053071 60.48 
" clip-path="url(#p18d1b2ead2)" style="fill: none; stroke: #b0b0b0; stroke-width: 0.8; stroke-linecap: square"/>
     </g>
     <g id="line2d_12">
      <g>
       <use xlink:href="#m9b50979eb9" x="766.053071" y="448.56" style="stroke: #000000; stroke-width: 0.8"/>
      </g>
     </g>
     <g id="text_6">
      <!-- $\mathdefault{3.0}$ -->
      <g transform="translate(756.704545 465.937725) scale(0.15 -0.15)">
       <defs>
        <path id="CMR17-33" d="M 1414 2157 
C 1984 2157 2234 1662 2234 1090 
C 2234 320 1824 25 1453 25 
C 1114 25 563 194 390 693 
C 422 680 454 680 486 680 
C 640 680 755 782 755 948 
C 755 1133 614 1216 486 1216 
C 378 1216 211 1165 211 926 
C 211 335 787 -128 1466 -128 
C 2176 -128 2720 430 2720 1085 
C 2720 1707 2208 2157 1600 2227 
C 2086 2328 2554 2756 2554 3329 
C 2554 3820 2048 4179 1472 4179 
C 890 4179 378 3829 378 3329 
C 378 3110 544 3072 627 3072 
C 762 3072 877 3155 877 3321 
C 877 3486 762 3569 627 3569 
C 602 3569 570 3569 544 3557 
C 730 3959 1235 4032 1459 4032 
C 1683 4032 2106 3925 2106 3320 
C 2106 3143 2080 2828 1862 2550 
C 1670 2304 1453 2304 1242 2284 
C 1210 2284 1062 2269 1037 2269 
C 992 2263 966 2257 966 2208 
C 966 2163 973 2157 1101 2157 
L 1414 2157 
z
" transform="scale(0.015625)"/>
       </defs>
       <use xlink:href="#CMR17-33" transform="scale(0.996264)"/>
       <use xlink:href="#CMMI12-3a" transform="translate(45.690477 0) scale(0.996264)"/>
       <use xlink:href="#CMR17-30" transform="translate(72.787654 0) scale(0.996264)"/>
      </g>
     </g>
    </g>
    <g id="text_7">
     <!-- Zeit t in s -->
     <g transform="translate(412.477438 483.221194) scale(0.15 -0.15)">
      <defs>
       <path id="CMSS17-5a" d="M 3341 4155 
L 3341 4416 
L 416 4416 
L 416 4015 
L 1613 4015 
C 1690 4015 1766 4015 1843 4015 
L 2662 4015 
L 333 274 
L 333 0 
L 3373 0 
L 3373 414 
L 2803 414 
C 2272 414 1734 414 1203 414 
L 1011 414 
L 3341 4155 
z
" transform="scale(0.015625)"/>
       <path id="CMSS17-65" d="M 2502 1377 
C 2502 1590 2490 2003 2285 2345 
C 2061 2713 1696 2816 1421 2816 
C 755 2816 192 2188 192 1375 
C 192 582 774 -64 1510 -64 
C 1798 -64 2150 19 2470 248 
C 2470 274 2458 414 2451 420 
C 2451 433 2432 630 2432 656 
C 2125 407 1773 325 1517 325 
C 1107 325 666 667 646 1377 
L 2502 1377 
z
M 698 1728 
C 781 2084 1062 2421 1421 2421 
C 1517 2421 1965 2421 2080 1728 
L 698 1728 
z
" transform="scale(0.015625)"/>
       <path id="CMSS17-69" d="M 979 4183 
L 442 4183 
L 442 3648 
L 979 3648 
L 979 4183 
z
M 947 2739 
L 474 2739 
L 474 0 
L 947 0 
L 947 2739 
z
" transform="scale(0.015625)"/>
       <path id="CMSS17-74" d="M 1069 2368 
L 1901 2368 
L 1901 2737 
L 1069 2737 
L 1069 3520 
L 614 3520 
L 614 2737 
L 109 2737 
L 109 2368 
L 602 2368 
L 602 749 
C 602 384 685 -64 1107 -64 
C 1427 -64 1722 25 2003 172 
L 1901 548 
C 1747 414 1562 337 1363 337 
C 1082 337 1069 696 1069 856 
L 1069 2368 
z
" transform="scale(0.015625)"/>
       <path id="CMSS17-6e" d="M 2618 1877 
C 2618 2283 2522 2816 1798 2816 
C 1389 2816 1120 2606 941 2389 
L 941 2758 
L 474 2758 
L 474 0 
L 960 0 
L 960 1559 
C 960 1964 1114 2428 1549 2428 
C 2112 2428 2131 2048 2131 1829 
L 2131 0 
L 2618 0 
L 2618 1877 
z
" transform="scale(0.015625)"/>
       <path id="CMSS17-73" d="M 2061 2627 
C 1683 2807 1389 2807 1197 2807 
C 742 2807 198 2648 198 2003 
C 198 1359 902 1218 1094 1179 
C 1389 1122 1715 1058 1715 740 
C 1715 337 1254 337 1171 337 
C 915 337 563 407 243 638 
L 166 210 
C 531 0 883 -64 1178 -64 
C 1965 -64 2163 416 2163 781 
C 2163 1094 1984 1305 1862 1401 
C 1651 1568 1574 1587 1050 1696 
C 960 1709 646 1779 646 2066 
C 646 2432 1050 2432 1139 2432 
C 1555 2432 1811 2303 1984 2208 
L 2061 2627 
z
" transform="scale(0.015625)"/>
      </defs>
      <use xlink:href="#CMSS17-5a" transform="scale(0.996264)"/>
      <use xlink:href="#CMSS17-65" transform="translate(57.253333 0) scale(0.996264)"/>
      <use xlink:href="#CMSS17-69" transform="translate(98.892155 0) scale(0.996264)"/>
      <use xlink:href="#CMSS17-74" transform="translate(121.072878 0) scale(0.996264)"/>
      <use xlink:href="#CMSS17-74" transform="translate(186.133557 0) scale(0.996264)"/>
      <use xlink:href="#CMSS17-69" transform="translate(251.194237 0) scale(0.996264)"/>
      <use xlink:href="#CMSS17-6e" transform="translate(273.37496 0) scale(0.996264)"/>
      <use xlink:href="#CMSS17-73" transform="translate(352.809016 0) scale(0.996264)"/>
     </g>
    </g>
   </g>
   <g id="matplotlib.axis_2">
    <g id="ytick_1">
     <g id="line2d_13">
      <path d="M 108 401.727866 
L 777.6 401.727866 
" clip-path="url(#p18d1b2ead2)" style="fill: none; stroke: #b0b0b0; stroke-width: 0.8; stroke-linecap: square"/>
     </g>
     <g id="line2d_14">
      <defs>
       <path id="mc019ae76ff" d="M 0 0 
L -3.5 0 
" style="stroke: #000000; stroke-width: 0.8"/>
      </defs>
      <g>
       <use xlink:href="#mc019ae76ff" x="108" y="401.727866" style="stroke: #000000; stroke-width: 0.8"/>
      </g>
     </g>
     <g id="text_8">
      <!-- $\mathdefault{−0.10}$ -->
      <g transform="translate(63.363594 406.916728) scale(0.15 -0.15)">
       <defs>
        <path id="CMSY10-0" d="M 4218 1472 
C 4326 1472 4442 1472 4442 1600 
C 4442 1728 4326 1728 4218 1728 
L 755 1728 
C 646 1728 531 1728 531 1600 
C 531 1472 646 1472 755 1472 
L 4218 1472 
z
" transform="scale(0.015625)"/>
        <path id="CMR17-31" d="M 1702 4058 
C 1702 4192 1696 4192 1606 4192 
C 1357 3916 979 3827 621 3827 
C 602 3827 570 3827 563 3808 
C 557 3795 557 3782 557 3648 
C 755 3648 1088 3686 1344 3839 
L 1344 461 
C 1344 236 1331 160 781 160 
L 589 160 
L 589 0 
C 896 0 1216 0 1523 0 
C 1830 0 2150 0 2458 0 
L 2458 160 
L 2266 160 
C 1715 160 1702 230 1702 458 
L 1702 4058 
z
" transform="scale(0.015625)"/>
       </defs>
       <use xlink:href="#CMSY10-0" transform="scale(0.996264)"/>
       <use xlink:href="#CMR17-30" transform="translate(77.487468 0) scale(0.996264)"/>
       <use xlink:href="#CMMI12-3a" transform="translate(123.177945 0) scale(0.996264)"/>
       <use xlink:href="#CMR17-31" transform="translate(150.275122 0) scale(0.996264)"/>
       <use xlink:href="#CMR17-30" transform="translate(195.965599 0) scale(0.996264)"/>
      </g>
     </g>
    </g>
    <g id="ytick_2">
     <g id="line2d_15">
      <path d="M 108 330.662735 
L 777.6 330.662735 
" clip-path="url(#p18d1b2ead2)" style="fill: none; stroke: #b0b0b0; stroke-width: 0.8; stroke-linecap: square"/>
     </g>
     <g id="line2d_16">
      <g>
       <use xlink:href="#mc019ae76ff" x="108" y="330.662735" style="stroke: #000000; stroke-width: 0.8"/>
      </g>
     </g>
     <g id="text_9">
      <!-- $\mathdefault{−0.05}$ -->
      <g transform="translate(63.363594 335.851597) scale(0.15 -0.15)">
       <defs>
        <path id="CMR17-35" d="M 730 3692 
C 794 3666 1056 3584 1325 3584 
C 1920 3584 2246 3911 2432 4100 
C 2432 4157 2432 4192 2394 4192 
C 2387 4192 2374 4192 2323 4163 
C 2099 4058 1837 3973 1517 3973 
C 1325 3973 1037 3999 723 4139 
C 653 4171 640 4171 634 4171 
C 602 4171 595 4164 595 4037 
L 595 2203 
C 595 2089 595 2057 659 2057 
C 691 2057 704 2070 736 2114 
C 941 2401 1222 2522 1542 2522 
C 1766 2522 2246 2382 2246 1289 
C 2246 1085 2246 715 2054 421 
C 1894 159 1645 25 1370 25 
C 947 25 518 320 403 814 
C 429 807 480 795 506 795 
C 589 795 749 840 749 1038 
C 749 1210 627 1280 506 1280 
C 358 1280 262 1190 262 1011 
C 262 454 704 -128 1382 -128 
C 2042 -128 2669 440 2669 1264 
C 2669 2030 2170 2624 1549 2624 
C 1222 2624 947 2503 730 2274 
L 730 3692 
z
" transform="scale(0.015625)"/>
       </defs>
       <use xlink:href="#CMSY10-0" transform="scale(0.996264)"/>
       <use xlink:href="#CMR17-30" transform="translate(77.487468 0) scale(0.996264)"/>
       <use xlink:href="#CMMI12-3a" transform="translate(123.177945 0) scale(0.996264)"/>
       <use xlink:href="#CMR17-30" transform="translate(150.275122 0) scale(0.996264)"/>
       <use xlink:href="#CMR17-35" transform="translate(195.965599 0) scale(0.996264)"/>
      </g>
     </g>
    </g>
    <g id="ytick_3">
     <g id="line2d_17">
      <path d="M 108 259.597604 
L 777.6 259.597604 
" clip-path="url(#p18d1b2ead2)" style="fill: none; stroke: #b0b0b0; stroke-width: 0.8; stroke-linecap: square"/>
     </g>
     <g id="line2d_18">
      <g>
       <use xlink:href="#mc019ae76ff" x="108" y="259.597604" style="stroke: #000000; stroke-width: 0.8"/>
      </g>
     </g>
     <g id="text_10">
      <!-- $\mathdefault{0.00}$ -->
      <g transform="translate(74.98671 264.786466) scale(0.15 -0.15)">
       <use xlink:href="#CMR17-30" transform="scale(0.996264)"/>
       <use xlink:href="#CMMI12-3a" transform="translate(45.690477 0) scale(0.996264)"/>
       <use xlink:href="#CMR17-30" transform="translate(72.787654 0) scale(0.996264)"/>
       <use xlink:href="#CMR17-30" transform="translate(118.478131 0) scale(0.996264)"/>
      </g>
     </g>
    </g>
    <g id="ytick_4">
     <g id="line2d_19">
      <path d="M 108 188.532473 
L 777.6 188.532473 
" clip-path="url(#p18d1b2ead2)" style="fill: none; stroke: #b0b0b0; stroke-width: 0.8; stroke-linecap: square"/>
     </g>
     <g id="line2d_20">
      <g>
       <use xlink:href="#mc019ae76ff" x="108" y="188.532473" style="stroke: #000000; stroke-width: 0.8"/>
      </g>
     </g>
     <g id="text_11">
      <!-- $\mathdefault{0.05}$ -->
      <g transform="translate(74.98671 193.721335) scale(0.15 -0.15)">
       <use xlink:href="#CMR17-30" transform="scale(0.996264)"/>
       <use xlink:href="#CMMI12-3a" transform="translate(45.690477 0) scale(0.996264)"/>
       <use xlink:href="#CMR17-30" transform="translate(72.787654 0) scale(0.996264)"/>
       <use xlink:href="#CMR17-35" transform="translate(118.478131 0) scale(0.996264)"/>
      </g>
     </g>
    </g>
    <g id="ytick_5">
     <g id="line2d_21">
      <path d="M 108 117.467342 
L 777.6 117.467342 
" clip-path="url(#p18d1b2ead2)" style="fill: none; stroke: #b0b0b0; stroke-width: 0.8; stroke-linecap: square"/>
     </g>
     <g id="line2d_22">
      <g>
       <use xlink:href="#mc019ae76ff" x="108" y="117.467342" style="stroke: #000000; stroke-width: 0.8"/>
      </g>
     </g>
     <g id="text_12">
      <!-- $\mathdefault{0.10}$ -->
      <g transform="translate(74.98671 122.656204) scale(0.15 -0.15)">
       <use xlink:href="#CMR17-30" transform="scale(0.996264)"/>
       <use xlink:href="#CMMI12-3a" transform="translate(45.690477 0) scale(0.996264)"/>
       <use xlink:href="#CMR17-31" transform="translate(72.787654 0) scale(0.996264)"/>
       <use xlink:href="#CMR17-30" transform="translate(118.478131 0) scale(0.996264)"/>
      </g>
     </g>
    </g>
    <g id="text_13">
     <!-- Strom $I$ in A -->
     <g transform="translate(56.45785 294.595387) rotate(-90) scale(0.15 -0.15)">
      <defs>
       <path id="CMSS17-53" d="M 2797 4169 
C 2515 4334 2208 4480 1690 4480 
C 864 4480 333 3879 333 3266 
C 333 3025 403 2753 653 2475 
C 902 2196 1184 2121 1542 2033 
C 1690 1994 1939 1924 1984 1906 
C 2342 1767 2515 1444 2515 1140 
C 2515 742 2202 318 1645 318 
C 1453 318 890 318 358 819 
L 269 318 
C 794 -64 1363 -128 1651 -128 
C 2438 -128 3002 488 3002 1186 
C 3002 1440 2925 1763 2656 2061 
C 2394 2347 2163 2410 1638 2549 
C 1338 2626 1146 2677 986 2873 
C 877 3013 819 3146 819 3317 
C 819 3673 1126 4060 1690 4060 
C 1971 4060 2336 4002 2707 3660 
L 2797 4169 
z
" transform="scale(0.015625)"/>
       <path id="CMSS17-72" d="M 954 1363 
C 954 1965 1395 2368 1958 2368 
L 1958 2789 
C 1549 2789 1165 2585 934 2253 
L 934 2758 
L 480 2758 
L 480 0 
L 954 0 
L 954 1363 
z
" transform="scale(0.015625)"/>
       <path id="CMSS17-6f" d="M 2829 1356 
C 2829 2176 2221 2816 1504 2816 
C 768 2816 173 2157 173 1356 
C 173 544 787 -64 1498 -64 
C 2227 -64 2829 563 2829 1356 
z
M 1504 337 
C 1050 337 659 709 659 1408 
C 659 2151 1114 2427 1498 2427 
C 1914 2427 2342 2126 2342 1408 
C 2342 683 1926 337 1504 337 
z
" transform="scale(0.015625)"/>
       <path id="CMSS17-6d" d="M 4288 1877 
C 4288 2308 4179 2816 3462 2816 
C 2982 2816 2694 2516 2566 2331 
C 2451 2670 2182 2816 1798 2816 
C 1363 2816 1088 2568 941 2389 
L 941 2758 
L 474 2758 
L 474 0 
L 960 0 
L 960 1559 
C 960 1939 1101 2428 1555 2428 
C 2138 2428 2138 2016 2138 1829 
L 2138 0 
L 2624 0 
L 2624 1559 
C 2624 1939 2765 2428 3219 2428 
C 3802 2428 3802 2016 3802 1829 
L 3802 0 
L 4288 0 
L 4288 1877 
z
" transform="scale(0.015625)"/>
       <path id="CMMI12-49" d="M 2355 3880 
C 2413 4103 2426 4167 2893 4167 
C 3034 4167 3085 4167 3085 4288 
C 3085 4352 3014 4352 2995 4352 
C 2880 4352 2739 4352 2624 4352 
L 1837 4352 
C 1709 4352 1562 4352 1434 4352 
C 1382 4352 1312 4352 1312 4231 
C 1312 4167 1363 4167 1491 4167 
C 1888 4167 1888 4116 1888 4046 
C 1888 4002 1875 3963 1862 3906 
L 998 472 
C 941 249 928 185 461 185 
C 320 185 262 185 262 64 
C 262 0 326 0 358 0 
C 474 0 614 0 730 0 
L 1517 0 
C 1645 0 1786 0 1914 0 
C 1965 0 2042 0 2042 115 
C 2042 185 2003 185 1862 185 
C 1466 185 1466 236 1466 312 
C 1466 325 1466 357 1491 459 
L 2355 3880 
z
" transform="scale(0.015625)"/>
       <path id="CMSS17-41" d="M 2272 4416 
L 1722 4416 
L 166 0 
L 653 0 
L 1101 1280 
L 2816 1280 
L 3270 0 
L 3827 0 
L 2272 4416 
z
M 2694 1637 
L 1222 1637 
C 1530 2528 1914 3638 1958 3925 
L 1965 3925 
C 2010 3663 2138 3281 2246 2956 
L 2694 1637 
z
" transform="scale(0.015625)"/>
      </defs>
      <use xlink:href="#CMSS17-53" transform="scale(0.996264)"/>
      <use xlink:href="#CMSS17-74" transform="translate(52.048516 0) scale(0.996264)"/>
      <use xlink:href="#CMSS17-72" transform="translate(85.880083 0) scale(0.996264)"/>
      <use xlink:href="#CMSS17-6f" transform="translate(117.789855 0) scale(0.996264)"/>
      <use xlink:href="#CMSS17-6d" transform="translate(164.633479 0) scale(0.996264)"/>
      <use xlink:href="#CMMI12-49" transform="translate(270.091846 0) scale(0.996264)"/>
      <use xlink:href="#CMSS17-69" transform="translate(352.177473 0) scale(0.996264)"/>
      <use xlink:href="#CMSS17-6e" transform="translate(374.358196 0) scale(0.996264)"/>
      <use xlink:href="#CMSS17-41" transform="translate(453.792252 0) scale(0.996264)"/>
     </g>
    </g>
   </g>
   <g id="line2d_23">
    <path d="M 138.436364 259.597604 
L 747.163636 259.597604 
L 747.163636 259.597604 
" clip-path="url(#p18d1b2ead2)" style="fill: none; stroke: #ff0000; stroke-width: 2; stroke-linecap: square"/>
   </g>
   <g id="line2d_24">
    <path d="M 138.436364 78.12 
L 139.655037 79.566886 
L 140.264373 80.129722 
L 141.483047 83.108772 
L 142.092383 84.163379 
L 142.70172 86.156045 
L 143.311057 87.713793 
L 145.748403 97.398549 
L 146.35774 100.276687 
L 146.967076 102.46265 
L 147.576413 104.048824 
L 148.185749 106.30301 
L 148.795086 107.900554 
L 149.404423 110.117786 
L 151.232432 117.773206 
L 151.841769 119.672635 
L 154.888452 131.581872 
L 155.497789 133.239253 
L 156.107125 135.278111 
L 157.325799 140.760075 
L 158.544472 144.666526 
L 160.981818 153.582641 
L 162.200491 157.206963 
L 165.247174 169.119753 
L 166.465848 173.781341 
L 167.075184 174.826709 
L 169.512531 184.040872 
L 171.340541 189.977511 
L 172.559214 193.305207 
L 173.777887 196.156908 
L 174.387224 197.41334 
L 175.605897 202.208389 
L 176.215233 204.154294 
L 177.433907 209.45291 
L 180.48059 219.519002 
L 181.089926 221.034821 
L 181.699263 223.414792 
L 182.3086 225.301429 
L 182.917936 227.947184 
L 183.527273 230.010773 
L 184.136609 232.75872 
L 184.745946 234.861963 
L 185.355283 236.411752 
L 185.964619 238.673186 
L 186.573956 240.316212 
L 187.183292 241.613862 
L 187.792629 243.64135 
L 188.401966 245.067485 
L 189.011302 247.167061 
L 189.620639 248.618254 
L 190.229975 249.517981 
L 190.839312 251.136205 
L 191.448649 252.146723 
L 192.057985 253.828423 
L 192.667322 256.048597 
L 193.276658 257.673345 
L 193.885995 259.834198 
L 194.495332 261.233068 
L 195.104668 263.173104 
L 195.714005 265.542671 
L 196.323342 267.060551 
L 196.932678 269.044576 
L 197.542015 270.209959 
L 198.151351 271.871376 
L 198.760688 273.926892 
L 199.370025 275.253252 
L 199.979361 277.021352 
L 200.588698 279.138241 
L 201.198034 280.339099 
L 201.807371 281.955404 
L 203.026044 286.098359 
L 203.635381 287.30135 
L 204.244717 288.854265 
L 204.854054 289.495983 
L 205.463391 290.695989 
L 206.072727 292.230996 
L 206.682064 292.842725 
L 207.2914 293.868763 
L 208.510074 296.845823 
L 209.11941 298.66637 
L 209.728747 299.450929 
L 210.338084 300.555281 
L 210.94742 301.912909 
L 211.556757 303.588483 
L 212.166093 304.222526 
L 212.77543 305.172951 
L 213.384767 306.375231 
L 213.994103 306.588284 
L 214.60344 307.164338 
L 215.212776 308.033465 
L 215.822113 309.135543 
L 216.43145 309.233613 
L 217.040786 309.683313 
L 217.650123 309.34149 
L 218.259459 309.436717 
L 218.868796 309.88997 
L 219.478133 309.447661 
L 220.087469 310.636439 
L 220.696806 310.791645 
L 221.306143 311.273751 
L 221.915479 312.020077 
L 223.134152 314.097737 
L 224.352826 316.877094 
L 224.962162 317.186085 
L 225.571499 317.745368 
L 226.790172 319.422931 
L 228.008845 321.591839 
L 229.227518 324.022124 
L 229.836855 324.185432 
L 230.446192 325.752987 
L 231.055528 326.097226 
L 232.274201 327.257436 
L 233.492875 328.837356 
L 234.102211 330.90862 
L 234.711548 331.618845 
L 235.320885 333.567309 
L 235.930221 334.233047 
L 236.539558 336.133613 
L 237.148894 336.668307 
L 237.758231 338.438681 
L 238.367568 338.845032 
L 238.976904 340.489621 
L 240.195577 341.112294 
L 241.414251 341.903533 
L 243.24226 343.432286 
L 243.851597 345.127758 
L 244.460934 345.415145 
L 245.679607 348.192513 
L 246.89828 350.249848 
L 248.116953 351.813423 
L 249.335627 353.000921 
L 249.944963 353.459576 
L 250.5543 352.655829 
L 251.163636 353.183843 
L 251.772973 352.436238 
L 252.38231 353.008739 
L 252.991646 352.296097 
L 254.210319 353.447353 
L 255.428993 354.277962 
L 256.647666 354.814361 
L 257.866339 355.12449 
L 259.694349 355.276711 
L 261.522359 355.321056 
L 263.959705 355.094358 
L 265.787715 354.783946 
L 267.006388 356.78585 
L 268.225061 358.017125 
L 269.443735 358.68002 
L 270.662408 358.927753 
L 271.271744 360.118947 
L 271.881081 359.848331 
L 272.490418 360.784543 
L 273.099754 361.488088 
L 273.709091 361.992935 
L 274.318428 362.328504 
L 274.927764 363.706599 
L 275.537101 364.750262 
L 276.146437 365.508527 
L 276.755774 366.024317 
L 277.365111 367.520238 
L 277.974447 368.629707 
L 278.583784 369.449941 
L 279.19312 369.990178 
L 279.802457 371.479703 
L 280.411794 372.556908 
L 281.02113 373.284473 
L 281.630467 373.716407 
L 282.239803 375.08569 
L 282.84914 376.033557 
L 283.458477 376.625103 
L 284.067813 378.102405 
L 284.67715 379.151184 
L 285.286486 380.991913 
L 285.895823 382.287999 
L 286.50516 383.123156 
L 287.114496 383.570298 
L 287.723833 384.878181 
L 288.33317 385.701826 
L 288.942506 386.118125 
L 289.551843 387.379531 
L 290.161179 388.14405 
L 290.770516 389.709757 
L 291.379853 390.712486 
L 291.989189 391.241495 
L 292.598526 392.559753 
L 293.207862 393.334931 
L 293.817199 393.654298 
L 294.426536 393.593751 
L 295.035872 394.40432 
L 295.645209 394.743016 
L 296.254545 394.688154 
L 296.863882 395.5226 
L 297.473219 395.875226 
L 298.082555 397.011557 
L 298.691892 397.601682 
L 299.301229 397.734858 
L 299.910565 398.674339 
L 300.519902 399.08737 
L 301.129238 400.247152 
L 301.738575 400.829744 
L 302.347912 402.115881 
L 302.957248 402.815162 
L 303.566585 404.185298 
L 304.175921 404.915847 
L 304.785258 406.294511 
L 305.394595 407.016533 
L 306.003931 407.185668 
L 306.613268 408.085352 
L 307.222604 408.393775 
L 307.831941 409.395793 
L 308.441278 409.779545 
L 309.050614 409.671526 
L 309.659951 409.137116 
L 310.269287 409.438432 
L 310.878624 409.243714 
L 311.487961 409.823605 
L 312.097297 409.854874 
L 312.706634 409.429904 
L 313.315971 409.81792 
L 313.925307 409.688581 
L 314.534644 409.131431 
L 315.14398 409.431326 
L 315.753317 409.233765 
L 316.362654 408.625447 
L 316.97199 408.865647 
L 317.581327 408.621183 
L 318.190663 409.1627 
L 318.8 409.164121 
L 319.409337 408.717832 
L 320.018673 409.088792 
L 320.62801 408.949504 
L 321.237346 409.591933 
L 321.846683 409.674368 
L 322.45602 410.478826 
L 323.065356 410.686336 
L 323.674693 410.400654 
L 324.284029 410.892425 
L 324.893366 410.838415 
L 325.502703 411.517798 
L 326.112039 411.614447 
L 326.721376 411.226431 
L 327.330713 411.644294 
L 327.940049 411.524904 
L 328.549386 410.959226 
L 329.158722 410.031115 
L 329.768059 409.99274 
L 330.377396 409.505233 
L 330.986732 408.649609 
L 331.596069 408.682299 
L 332.205405 408.260172 
L 332.814742 408.652452 
L 333.424079 408.545854 
L 334.033415 408.012866 
L 334.642752 408.315603 
L 335.252088 408.122306 
L 335.861425 408.70504 
L 336.470762 408.739151 
L 337.080098 408.319867 
L 337.689435 408.712147 
L 338.298771 408.588493 
L 338.908108 409.223816 
L 339.517445 409.311936 
L 340.126781 408.932448 
L 340.736118 409.354575 
L 341.345455 409.252242 
L 341.954791 409.900356 
L 342.564128 409.978527 
L 343.173464 409.586248 
L 343.782801 409.989898 
L 344.392138 409.866244 
L 345.001474 409.30483 
L 345.610811 409.586248 
L 346.220147 409.364524 
L 346.829484 409.913147 
L 347.438821 409.908883 
L 348.048157 410.633748 
L 348.657494 410.770193 
L 349.26683 411.603076 
L 349.876167 411.821957 
L 350.485504 411.529168 
L 351.09484 412.002462 
L 351.704177 411.932818 
L 352.313514 412.588039 
L 352.92285 412.651997 
L 353.532187 412.227028 
L 354.141523 412.586618 
L 354.75086 412.406112 
L 355.360197 411.779318 
L 355.969533 411.972615 
L 356.57887 411.659928 
L 357.188206 410.927957 
L 357.797543 411.053032 
L 358.40688 410.689179 
L 359.016216 411.109884 
L 359.625553 410.991916 
L 360.234889 411.611604 
L 360.844226 411.652822 
L 361.453563 411.21506 
L 362.062899 411.570386 
L 362.672236 411.391302 
L 363.281572 411.958402 
L 363.890909 411.964087 
L 364.500246 412.681845 
L 365.109582 412.795549 
L 365.718919 413.595742 
L 366.328256 413.771984 
L 366.937592 414.614816 
L 367.546929 414.819484 
L 368.156265 414.494006 
L 368.765602 414.917554 
L 369.374939 414.77116 
L 369.984275 415.351051 
L 370.593612 415.333995 
L 371.202948 414.820905 
L 371.812285 413.901322 
L 372.421622 413.838785 
L 373.030958 413.29869 
L 373.640295 412.369158 
L 374.249631 412.306621 
L 374.858968 411.779318 
L 375.468305 410.869684 
L 376.077641 410.845522 
L 376.686978 410.359436 
L 377.296314 410.680651 
L 377.905651 410.48309 
L 378.514988 409.856295 
L 379.124324 410.063805 
L 379.733661 409.775281 
L 380.342998 410.264209 
L 380.952334 410.205936 
L 381.561671 409.695688 
L 382.171007 410.011217 
L 382.780344 409.812235 
L 383.389681 410.376492 
L 383.999017 410.380756 
L 384.608354 409.921675 
L 385.21769 410.269894 
L 385.827027 410.095074 
L 386.436364 410.676387 
L 387.0457 410.692021 
L 387.655037 410.241468 
L 388.264373 410.601058 
L 388.87371 410.436187 
L 389.483047 409.837818 
L 390.092383 410.070912 
L 390.70172 409.803707 
L 391.311057 409.125746 
L 391.920393 409.297723 
L 392.52973 408.986458 
L 393.139066 409.462594 
L 393.748403 409.401478 
L 394.35774 408.905444 
L 394.967076 409.230922 
L 395.576413 409.047574 
L 396.185749 409.630308 
L 396.795086 409.655892 
L 397.404423 410.409182 
L 398.013759 410.569789 
L 398.623096 411.426835 
L 399.232432 411.667035 
L 399.841769 411.396987 
L 400.451106 411.898707 
L 401.060442 411.843276 
L 401.669779 412.51271 
L 402.279115 412.592303 
L 402.888452 412.181546 
L 403.497789 412.555349 
L 404.107125 412.389056 
L 404.716462 411.777896 
L 405.325799 411.988249 
L 405.935135 411.689776 
L 406.544472 410.983388 
L 407.153808 411.122676 
L 407.763145 410.773035 
L 408.372482 410.022588 
L 408.981818 410.132028 
L 409.591155 409.766753 
L 410.200491 410.195987 
L 410.809828 410.093653 
L 411.419165 410.737503 
L 412.028501 410.811411 
L 412.637838 410.419131 
L 413.247174 410.822781 
L 413.856511 411.881651 
L 414.465848 412.290987 
L 415.075184 412.158805 
L 415.684521 412.765702 
L 416.293857 412.794128 
L 416.903194 413.528941 
L 417.512531 413.656858 
L 418.121867 413.283056 
L 418.731204 413.69097 
L 419.340541 413.548839 
L 419.949877 414.140101 
L 420.559214 414.145786 
L 421.16855 413.66965 
L 421.777887 413.982337 
L 422.387224 413.760613 
L 422.99656 413.096865 
L 423.605897 413.260315 
L 424.215233 412.919202 
L 424.82457 412.17444 
L 425.433907 412.276774 
L 426.043243 411.895864 
L 426.65258 412.302357 
L 427.261916 412.171597 
L 427.871253 411.597391 
L 428.48059 411.84754 
L 429.089926 411.590284 
L 429.699263 412.101953 
L 430.3086 412.060736 
L 430.917936 411.571807 
L 431.527273 411.894443 
L 432.136609 412.885091 
L 432.745946 413.234732 
L 433.355283 413.054226 
L 433.964619 413.621326 
L 434.573956 413.615641 
L 435.183292 414.323449 
L 435.792629 414.431468 
L 436.401966 414.04061 
L 437.011302 414.437154 
L 437.620639 414.287917 
L 438.229975 414.874915 
L 438.839312 414.879179 
L 439.448649 414.403042 
L 440.057985 413.533205 
L 440.667322 413.528941 
L 441.276658 413.054226 
L 441.885995 412.195759 
L 442.495332 412.212815 
L 443.104668 411.776475 
L 443.714005 410.959226 
L 444.323342 411.021763 
L 444.932678 410.622377 
L 445.542015 411.031712 
L 446.151351 410.922272 
L 446.760688 410.382177 
L 447.370025 410.677808 
L 447.979361 410.475983 
L 448.588698 411.051611 
L 449.198034 411.089986 
L 449.807371 411.860332 
L 450.416708 412.045101 
L 451.026044 411.745206 
L 451.635381 412.231292 
L 452.244717 412.180125 
L 452.854054 412.869457 
L 453.463391 412.98174 
L 454.072727 412.615044 
L 454.682064 413.041434 
L 455.2914 412.947628 
L 455.900737 412.413219 
L 456.510074 412.704586 
L 457.11941 412.492812 
L 457.728747 413.049962 
L 458.338084 413.054226 
L 458.94742 412.602252 
L 459.556757 412.961841 
L 460.166093 412.805498 
L 460.77543 413.406709 
L 461.384767 413.460719 
L 461.994103 413.049962 
L 462.60344 413.443663 
L 463.212776 413.312903 
L 463.822113 412.751489 
L 464.43145 413.024379 
L 465.040786 412.798392 
L 465.650123 412.161648 
L 466.259459 412.376265 
L 466.868796 412.10906 
L 467.478133 412.64347 
L 468.087469 412.640627 
L 468.696806 413.379704 
L 469.306143 413.541733 
L 469.915479 414.41157 
L 470.524816 414.67309 
L 471.134152 414.43289 
L 471.743489 414.963035 
L 472.352826 414.943137 
L 472.962162 415.652367 
L 473.571499 415.790234 
L 474.180835 415.443436 
L 474.790172 415.882618 
L 475.399509 415.783127 
L 476.008845 416.425556 
L 476.618182 416.492357 
L 477.227518 416.081601 
L 477.836855 416.465352 
L 478.446192 416.318958 
L 479.055528 416.920169 
L 479.664865 416.967072 
L 480.274201 416.540681 
L 480.883538 415.727696 
L 481.492875 415.78597 
L 482.102211 415.378056 
L 482.711548 415.776021 
L 483.320885 415.650946 
L 483.930221 416.280583 
L 484.539558 416.344542 
L 485.148894 417.126258 
L 485.758231 417.328083 
L 486.367568 417.035295 
L 486.976904 417.52138 
L 487.586241 417.461686 
L 488.195577 418.138226 
L 488.804914 418.233453 
L 489.414251 417.84828 
L 490.023587 418.253351 
L 490.632924 418.124013 
L 491.24226 417.55407 
L 491.851597 417.831224 
L 492.460934 417.603816 
L 493.07027 416.961387 
L 493.679607 417.166055 
L 494.288943 416.884637 
L 494.89828 417.39062 
L 495.507617 417.35793 
L 496.116953 416.880373 
L 496.72629 417.224328 
L 497.335627 417.062299 
L 497.944963 416.502306 
L 498.5543 416.786567 
L 499.163636 416.581899 
L 499.772973 417.158948 
L 500.38231 417.195902 
L 500.991646 416.785145 
L 501.600983 417.191638 
L 502.210319 417.089304 
L 502.819656 417.75021 
L 503.428993 417.853965 
L 504.038329 418.706747 
L 504.647666 418.966845 
L 505.257002 418.735173 
L 505.866339 419.285217 
L 506.475676 419.292323 
L 507.085012 418.851719 
L 507.694349 419.229786 
L 508.303686 419.096184 
L 508.913022 419.728663 
L 509.522359 419.803992 
L 510.131695 419.445824 
L 510.741032 419.894956 
L 511.350369 419.822469 
L 511.959705 419.322171 
L 512.569042 419.656177 
L 513.178378 419.492727 
L 513.787715 420.10673 
L 514.397052 420.173531 
L 515.006388 419.788358 
L 515.615725 420.217591 
L 516.225061 420.163582 
L 516.834398 420.869969 
L 517.443735 421.016363 
L 518.053071 420.697992 
L 518.662408 421.185498 
L 519.271744 421.149966 
L 519.881081 421.869145 
L 520.490418 422.021224 
L 521.099754 421.707116 
L 521.709091 422.193202 
L 522.318428 422.186095 
L 522.927764 422.929437 
L 523.537101 423.104257 
L 524.146437 422.807205 
L 524.755774 423.310346 
L 525.365111 423.286184 
L 525.974447 424.011048 
L 526.583784 424.167391 
L 527.19312 425.03865 
L 527.802457 425.310119 
L 528.411794 425.118243 
L 529.02113 425.703819 
L 529.630467 425.740773 
L 530.239803 426.512541 
L 530.84914 426.700153 
L 531.458477 426.404522 
L 532.067813 426.899135 
L 532.67715 426.857917 
L 533.286486 426.374674 
L 533.895823 426.715787 
L 534.50516 426.592134 
L 535.114496 426.052039 
L 535.723833 426.357619 
L 536.33317 426.177113 
L 536.942506 425.594379 
L 537.551843 425.872954 
L 538.161179 425.673972 
L 538.770516 426.27234 
L 539.379853 426.33772 
L 539.989189 425.963918 
L 540.598526 426.461374 
L 541.207862 426.451425 
L 541.817199 427.211821 
L 542.426536 427.41791 
L 543.035872 427.164918 
L 543.645209 427.720648 
L 544.254545 427.757602 
L 544.863882 428.55211 
L 545.473219 428.783782 
L 546.082555 428.547846 
L 546.691892 429.161849 
L 547.301229 429.249969 
L 547.910565 430.089959 
L 548.519902 430.360007 
L 549.129238 430.158182 
L 549.738575 430.755129 
L 550.347912 430.824773 
L 550.957248 430.458077 
L 551.566585 430.92 
L 552.175921 430.880204 
L 552.785258 430.479396 
L 553.394595 429.740319 
L 554.003931 429.912296 
L 554.613268 429.653619 
L 555.222604 429.042459 
L 555.831941 428.144196 
L 557.050614 425.709505 
L 557.659951 424.26404 
L 558.269287 423.903029 
L 558.878624 423.316031 
L 560.097297 421.4925 
L 561.315971 419.090498 
L 563.753317 413.504779 
L 565.581327 409.358839 
L 566.190663 408.042713 
L 566.8 407.946064 
L 567.409337 407.676017 
L 568.62801 406.742221 
L 569.846683 405.457364 
L 570.45602 404.735342 
L 571.065356 405.238483 
L 571.674693 404.321743 
L 572.284029 404.610267 
L 572.893366 404.708337 
L 573.502703 404.651485 
L 574.721376 404.185298 
L 575.330713 403.822866 
L 575.940049 404.584684 
L 577.158722 405.454521 
L 577.768059 405.642133 
L 578.377396 405.679087 
L 579.596069 405.414725 
L 580.814742 404.839097 
L 582.033415 404.082964 
L 582.642752 404.851889 
L 583.252088 404.299002 
L 583.861425 404.952801 
L 584.470762 405.418988 
L 585.080098 405.727411 
L 586.298771 405.97756 
L 587.517445 405.882333 
L 589.954791 405.330868 
L 590.564128 406.36984 
L 591.173464 407.184246 
L 592.392138 408.281492 
L 593.610811 408.854277 
L 594.829484 409.071736 
L 595.438821 410.383598 
L 596.048157 410.248575 
L 597.26683 412.12043 
L 598.485504 413.264579 
L 599.704177 413.902744 
L 602.141523 414.515325 
L 603.969533 414.739891 
L 607.625553 415.078161 
L 608.234889 414.070457 
L 608.844226 413.280213 
L 609.453563 412.681845 
L 610.062899 412.248347 
L 610.672236 411.959823 
L 611.890909 411.740942 
L 612.500246 410.59253 
L 613.109582 409.739748 
L 613.718919 409.287774 
L 614.328256 409.048995 
L 614.937592 408.992143 
L 615.546929 409.091634 
L 616.156265 408.135098 
L 616.765602 407.505461 
L 617.374939 407.152978 
L 617.984275 407.036431 
L 618.593612 407.120288 
L 619.202948 406.186492 
L 619.812285 405.774314 
L 620.421622 405.659189 
L 621.030958 405.794212 
L 621.640295 406.142431 
L 622.249631 406.668313 
L 622.858968 406.155223 
L 623.468305 405.976139 
L 624.077641 406.081315 
L 624.686978 406.423849 
L 625.296314 406.966787 
L 625.905651 406.669735 
L 626.514988 406.716638 
L 627.124324 407.053486 
L 627.733661 407.631957 
L 628.342998 407.225464 
L 628.952334 407.198459 
L 629.561671 407.491248 
L 630.171007 408.04982 
L 630.780344 407.644748 
L 631.389681 407.63622 
L 631.999017 408.162102 
L 632.608354 407.774087 
L 633.21769 407.823832 
L 633.827027 408.243117 
L 634.436364 407.782615 
L 635.0457 407.789721 
L 635.655037 408.189107 
L 636.264373 408.916814 
L 636.87371 408.729202 
L 637.483047 408.97793 
L 638.092383 408.62829 
L 638.70172 408.788897 
L 639.311057 409.375895 
L 639.920393 409.132852 
L 640.52973 408.209005 
L 641.139066 407.921902 
L 641.748403 406.985264 
L 642.35774 406.70811 
L 642.967076 406.985264 
L 643.576413 406.540396 
L 644.185749 406.939782 
L 644.795086 406.644151 
L 645.404423 405.784263 
L 646.013759 405.656346 
L 646.623096 404.954222 
L 647.232432 404.976963 
L 647.841769 404.419813 
L 648.451106 403.392211 
L 649.060442 403.177594 
L 649.669779 402.456994 
L 650.279115 402.789579 
L 650.888452 402.580647 
L 651.497789 403.116478 
L 652.107125 403.088052 
L 652.716462 402.600545 
L 653.325799 402.928866 
L 653.935135 402.752625 
L 654.544472 402.168469 
L 655.153808 402.444202 
L 656.372482 401.982279 
L 656.981818 402.587754 
L 657.591155 402.735569 
L 658.200491 402.512425 
L 658.809828 401.990806 
L 659.419165 402.422882 
L 660.028501 402.461258 
L 660.637838 402.184104 
L 661.247174 401.654953 
L 662.465848 402.5508 
L 663.075184 402.685823 
L 663.684521 402.577804 
L 664.293857 403.46754 
L 664.903194 403.999107 
L 665.512531 404.239307 
L 666.121867 404.246414 
L 666.731204 404.070172 
L 668.559214 403.207442 
L 670.387224 402.560749 
L 672.215233 401.864311 
L 673.433907 399.365945 
L 674.043243 398.465123 
L 674.65258 398.179299 
L 675.261916 398.063605 
L 675.871253 396.915477 
L 676.48059 396.118695 
L 677.089926 395.629909 
L 677.699263 395.411028 
L 678.3086 395.428368 
L 678.917936 394.466999 
L 679.527273 393.900041 
L 680.136609 393.675049 
L 680.745946 394.203632 
L 681.355283 393.788327 
L 681.964619 393.79387 
L 682.573956 392.974631 
L 683.183292 392.677579 
L 683.792629 391.641449 
L 684.401966 390.014484 
L 685.011302 389.10883 
L 685.620639 387.633518 
L 687.448649 381.919313 
L 688.057985 380.87892 
L 689.276658 377.848134 
L 691.104668 372.002743 
L 692.323342 367.8406 
L 694.760688 362.162922 
L 695.979361 359.768454 
L 697.198034 357.780904 
L 698.416708 356.238791 
L 699.635381 356.381916 
L 700.854054 356.909646 
L 702.072727 357.813594 
L 703.2914 359.078127 
L 704.510074 360.683488 
L 706.338084 365.686189 
L 708.77543 373.059481 
L 710.60344 379.039896 
L 716.696806 407.759874 
L 718.524816 348.563899 
L 720.352826 295.3671 
L 722.180835 247.48468 
L 722.790172 232.587169 
L 726.446192 239.043152 
L 728.883538 242.833481 
L 730.711548 245.319908 
L 732.539558 247.497799 
L 734.367568 249.383498 
L 736.195577 251.002063 
L 738.023587 252.382077 
L 740.460934 253.901065 
L 742.89828 255.112271 
L 745.335627 256.073057 
L 747.163636 256.659018 
L 747.163636 256.659018 
" clip-path="url(#p18d1b2ead2)" style="fill: none; stroke-dasharray: 7.4,3.2; stroke-dashoffset: 0; stroke: #008000; stroke-width: 2"/>
   </g>
   <g id="patch_3">
    <path d="M 108 448.56 
L 108 60.48 
" style="fill: none; stroke: #000000; stroke-width: 0.8; stroke-linejoin: miter; stroke-linecap: square"/>
   </g>
   <g id="patch_4">
    <path d="M 777.6 448.56 
L 777.6 60.48 
" style="fill: none; stroke: #000000; stroke-width: 0.8; stroke-linejoin: miter; stroke-linecap: square"/>
   </g>
   <g id="patch_5">
    <path d="M 108 448.56 
L 777.6 448.56 
" style="fill: none; stroke: #000000; stroke-width: 0.8; stroke-linejoin: miter; stroke-linecap: square"/>
   </g>
   <g id="patch_6">
    <path d="M 108 60.48 
L 777.6 60.48 
" style="fill: none; stroke: #000000; stroke-width: 0.8; stroke-linejoin: miter; stroke-linecap: square"/>
   </g>
   <g id="text_14">
    <!-- \textbf{Energieoptimale Stromverlauf - offener Regelkreis} -->
    <g transform="translate(272.442199 54.48) scale(0.15 -0.15)">
     <defs>
      <path id="CMSSBX10-45" d="M 1523 2016 
L 3206 2016 
C 3405 2016 3514 2062 3514 2320 
C 3514 2560 3430 2624 3206 2624 
L 1523 2624 
L 1523 3814 
L 1837 3814 
C 2336 3814 2842 3814 3341 3814 
C 3565 3814 3712 3814 3712 4122 
L 3712 4173 
C 3712 4377 3667 4480 3405 4480 
L 890 4480 
C 659 4480 582 4409 582 4170 
L 582 316 
C 582 84 653 6 890 6 
L 3501 6 
C 3744 6 3808 88 3808 310 
L 3808 400 
C 3808 704 3661 704 3450 704 
C 3117 704 2790 704 2458 704 
C 2298 704 1638 704 1523 704 
L 1523 2016 
z
" transform="scale(0.015625)"/>
      <path id="CMSSBX10-6e" d="M 3200 2096 
C 3200 2761 2918 3025 2266 3025 
C 1594 3025 1306 2535 1222 2360 
L 1216 2360 
L 1216 2687 
C 1216 2896 1171 3001 909 3001 
L 691 3001 
C 461 3001 384 2930 384 2690 
L 384 310 
C 384 78 454 0 691 0 
L 947 0 
C 1190 0 1254 84 1254 309 
L 1254 1735 
C 1254 2295 1626 2560 1958 2560 
C 2266 2560 2330 2411 2330 2082 
L 2330 309 
C 2330 103 2374 0 2637 0 
L 2893 0 
C 3136 0 3200 84 3200 309 
L 3200 2096 
z
" transform="scale(0.015625)"/>
      <path id="CMSSBX10-65" d="M 2758 1385 
C 2906 1385 3066 1385 3066 1678 
C 3066 2514 2682 3072 1728 3072 
C 704 3072 198 2491 198 1510 
C 198 452 806 -64 1811 -64 
C 2054 -64 2419 -32 2842 182 
C 2982 253 3027 272 3027 350 
C 3027 395 3008 582 3002 633 
C 2976 833 2970 839 2912 839 
C 2886 839 2874 839 2803 775 
C 2426 447 2042 402 1837 402 
C 1114 402 1037 974 1018 1385 
L 2758 1385 
z
M 1024 1728 
C 1043 2122 1171 2606 1728 2606 
C 2240 2606 2336 2231 2355 1728 
L 1024 1728 
z
" transform="scale(0.015625)"/>
      <path id="CMSSBX10-72" d="M 1242 1496 
C 1242 2115 1747 2368 2150 2368 
C 2266 2368 2278 2368 2278 2555 
L 2278 2860 
C 2278 2989 2278 3034 2163 3034 
C 1984 3034 1517 2970 1216 2271 
L 1210 2271 
L 1210 2690 
C 1210 2897 1165 3001 902 3001 
L 698 3001 
C 467 3001 390 2930 390 2690 
L 390 310 
C 390 78 461 0 698 0 
L 934 0 
C 1178 0 1242 84 1242 312 
L 1242 1496 
z
" transform="scale(0.015625)"/>
      <path id="CMSSBX10-67" d="M 1280 577 
C 1050 577 960 577 870 656 
C 845 681 736 779 736 949 
C 736 994 742 1007 749 1046 
C 1050 878 1427 878 1562 878 
C 1830 878 2848 878 2848 1950 
C 2848 2326 2707 2553 2650 2624 
C 2758 2624 2982 2624 3245 2553 
C 3270 2540 3315 2527 3334 2527 
C 3386 2527 3418 2566 3418 2611 
C 3418 2637 3386 2792 3373 2857 
C 3347 3012 3347 3025 3232 3025 
C 3034 3025 2714 2948 2470 2799 
C 2170 2999 1837 3025 1562 3025 
C 1293 3025 275 3025 275 1954 
C 275 1694 346 1370 589 1156 
C 416 915 416 663 416 630 
C 416 507 454 293 589 118 
C 493 79 160 -37 160 -451 
C 160 -652 256 -988 659 -1176 
C 1024 -1344 1453 -1344 1754 -1344 
C 2131 -1344 3354 -1344 3354 -429 
C 3354 577 2451 577 1587 577 
L 1280 577 
z
M 1562 1344 
C 1114 1344 1094 1591 1094 1949 
C 1094 2306 1114 2560 1562 2560 
C 2010 2560 2029 2313 2029 1955 
C 2029 1597 2010 1344 1562 1344 
z
M 1907 -128 
C 2426 -128 2694 -217 2694 -448 
C 2694 -879 1965 -879 1760 -879 
C 1504 -879 819 -879 819 -430 
C 819 -128 1018 -128 1165 -128 
L 1907 -128 
z
" transform="scale(0.015625)"/>
      <path id="CMSSBX10-69" d="M 653 4480 
C 448 4480 346 4441 346 4182 
L 346 3885 
C 346 3678 410 3594 646 3594 
L 979 3594 
C 1286 3594 1286 3730 1286 4034 
C 1286 4344 1286 4480 979 4480 
L 653 4480 
z
M 1242 2634 
C 1242 2841 1197 2944 934 2944 
L 698 2944 
C 467 2944 390 2873 390 2634 
L 390 292 
C 390 60 461 -18 698 -18 
L 934 -18 
C 1178 -18 1242 66 1242 292 
L 1242 2634 
z
" transform="scale(0.015625)"/>
      <path id="CMSSBX10-6f" d="M 3315 1459 
C 3315 2517 2803 3072 1760 3072 
C 691 3072 198 2497 198 1459 
C 198 407 749 -64 1754 -64 
C 2758 -64 3315 401 3315 1459 
z
M 1760 440 
C 1069 440 1069 1020 1069 1536 
C 1069 2033 1069 2606 1754 2606 
C 2445 2606 2445 2039 2445 1536 
C 2445 1027 2445 440 1760 440 
z
" transform="scale(0.015625)"/>
      <path id="CMSSBX10-70" d="M 1261 242 
C 1549 -82 1901 -82 1990 -82 
C 3347 -82 3347 1154 3347 1476 
C 3347 1791 3347 3008 2189 3008 
C 1811 3008 1472 2853 1242 2633 
C 1242 2872 1152 2937 934 2937 
L 698 2937 
C 467 2937 390 2866 390 2627 
L 390 -969 
C 390 -1202 461 -1280 698 -1280 
L 954 -1280 
C 1197 -1280 1261 -1195 1261 -966 
L 1261 242 
z
M 1261 2292 
C 1331 2356 1542 2504 1818 2504 
C 2470 2504 2477 1746 2477 1463 
C 2477 1206 2477 384 1754 384 
C 1606 384 1491 435 1414 492 
C 1261 602 1261 634 1261 750 
L 1261 2292 
z
" transform="scale(0.015625)"/>
      <path id="CMSSBX10-74" d="M 1395 2496 
L 1965 2496 
C 2042 2496 2272 2496 2272 2729 
C 2272 2962 2042 2962 1965 2962 
L 1395 2962 
L 1395 3498 
C 1395 3705 1350 3808 1088 3808 
L 890 3808 
C 659 3808 582 3737 582 3498 
L 582 2962 
L 435 2962 
C 365 2962 128 2962 128 2729 
C 128 2496 358 2496 435 2496 
L 563 2496 
L 563 864 
C 563 213 794 -64 1235 -64 
C 1293 -64 1574 -64 1907 39 
C 2016 72 2387 188 2387 311 
C 2387 330 2374 376 2336 510 
C 2304 639 2291 678 2234 678 
C 2202 678 2195 671 2157 632 
C 2086 582 1914 440 1645 440 
C 1491 440 1395 550 1395 975 
L 1395 2496 
z
" transform="scale(0.015625)"/>
      <path id="CMSSBX10-6d" d="M 5158 2096 
C 5158 2761 4877 3025 4224 3025 
C 3770 3025 3418 2812 3187 2386 
C 3085 3012 2541 3012 2272 3012 
C 2150 3012 1882 3012 1594 2803 
C 1395 2658 1267 2455 1222 2360 
L 1216 2360 
L 1216 2687 
C 1216 2896 1171 3001 909 3001 
L 691 3001 
C 461 3001 384 2930 384 2690 
L 384 310 
C 384 78 454 0 691 0 
L 947 0 
C 1190 0 1254 84 1254 309 
L 1254 1735 
C 1254 2315 1645 2560 1958 2560 
C 2266 2560 2336 2424 2336 2082 
L 2336 309 
C 2336 78 2406 0 2643 0 
L 2899 0 
C 3142 0 3206 84 3206 309 
L 3206 1735 
C 3206 2315 3597 2560 3910 2560 
C 4218 2560 4288 2424 4288 2082 
L 4288 309 
C 4288 78 4358 0 4595 0 
L 4851 0 
C 5094 0 5158 84 5158 309 
L 5158 2096 
z
" transform="scale(0.015625)"/>
      <path id="CMSSBX10-61" d="M 2970 2050 
C 2970 3072 1997 3072 1677 3072 
C 1376 3072 1056 3046 627 2868 
C 493 2811 461 2792 461 2722 
C 461 2677 499 2300 506 2248 
C 512 2209 544 2177 589 2177 
C 621 2177 640 2196 659 2216 
C 934 2508 1254 2651 1651 2651 
C 1997 2651 2099 2435 2099 2049 
L 2099 1820 
C 1875 1820 198 1820 198 868 
C 198 415 557 -64 1120 -64 
C 1338 -64 1818 1 2118 447 
L 2118 317 
C 2118 110 2163 7 2426 7 
L 2662 7 
C 2906 7 2970 91 2970 317 
L 2970 2050 
z
M 2099 988 
C 2099 402 1491 402 1472 402 
C 1203 402 1030 639 1030 889 
C 1030 1536 1920 1536 2099 1536 
L 2099 988 
z
" transform="scale(0.015625)"/>
      <path id="CMSSBX10-6c" d="M 1242 4170 
C 1242 4377 1197 4480 934 4480 
L 698 4480 
C 467 4480 390 4409 390 4170 
L 390 302 
C 390 70 461 -8 698 -8 
L 934 -8 
C 1178 -8 1242 76 1242 302 
L 1242 4170 
z
" transform="scale(0.015625)"/>
      <path id="CMSSBX10-53" d="M 1728 2867 
C 1587 2899 1190 3049 1190 3418 
C 1190 3968 1734 3968 1952 3968 
C 2310 3968 2630 3884 2944 3574 
C 3046 3477 3053 3471 3078 3471 
C 3117 3471 3149 3490 3168 3587 
L 3264 4152 
C 3277 4203 3277 4216 3277 4236 
C 3277 4288 3270 4295 3110 4380 
C 2656 4608 2278 4641 1952 4641 
C 1382 4641 390 4505 390 3290 
C 390 2829 627 2531 749 2401 
C 1075 2063 1376 1998 1875 1882 
C 2234 1798 2374 1765 2515 1635 
C 2579 1571 2714 1434 2714 1187 
C 2714 577 2163 577 1952 577 
C 1414 577 947 795 627 1083 
C 550 1159 538 1159 512 1159 
C 474 1159 442 1140 422 1042 
L 326 476 
C 314 424 314 411 314 392 
C 314 255 979 21 1011 8 
C 1440 -128 1786 -128 1952 -128 
C 2912 -128 3514 305 3514 1308 
C 3514 2033 2982 2576 2342 2725 
L 1728 2867 
z
" transform="scale(0.015625)"/>
      <path id="CMSSBX10-76" d="M 2995 2671 
C 3027 2762 3027 2775 3027 2794 
C 3027 2976 2867 2976 2771 2976 
L 2637 2976 
C 2368 2976 2298 2879 2240 2697 
L 1606 734 
L 973 2697 
C 928 2833 883 2976 576 2976 
L 422 2976 
C 326 2976 166 2976 166 2794 
C 166 2775 166 2762 198 2670 
L 960 273 
C 1050 0 1248 0 1363 0 
L 1830 0 
C 1946 0 2144 0 2234 273 
L 2995 2671 
z
" transform="scale(0.015625)"/>
      <path id="CMSSBX10-75" d="M 3200 2652 
C 3200 2859 3155 2962 2893 2962 
L 2637 2962 
C 2394 2962 2330 2878 2330 2653 
L 2330 1124 
C 2330 698 2106 330 1651 330 
C 1293 330 1254 421 1254 763 
L 1254 2653 
C 1254 2859 1210 2962 947 2962 
L 691 2962 
C 461 2962 384 2891 384 2653 
L 384 820 
C 384 130 755 -64 1421 -64 
C 1594 -64 2048 -64 2349 485 
L 2349 314 
C 2349 104 2394 0 2656 0 
L 2893 0 
C 3136 0 3200 84 3200 310 
L 3200 2652 
z
" transform="scale(0.015625)"/>
      <path id="CMSSBX10-66" d="M 1402 2496 
L 1709 2496 
C 1786 2496 2016 2496 2016 2729 
C 2016 2962 1786 2962 1709 2962 
L 1382 2962 
L 1382 3668 
C 1382 3837 1382 4096 1798 4096 
C 2003 4096 2131 4038 2259 3915 
C 2304 3863 2323 3850 2355 3850 
C 2438 3850 2438 3915 2438 4018 
L 2438 4316 
C 2438 4471 2432 4477 2214 4523 
C 2029 4561 1894 4561 1798 4561 
C 1318 4561 550 4452 550 3480 
L 550 2962 
C 416 2962 192 2962 192 2729 
C 192 2496 410 2496 550 2496 
L 550 310 
C 550 78 621 0 858 0 
L 1094 0 
C 1338 0 1402 84 1402 310 
L 1402 2496 
z
" transform="scale(0.015625)"/>
      <path id="CMSSBX10-2d" d="M 1645 1280 
C 1722 1280 1952 1280 1952 1513 
C 1952 1746 1722 1746 1645 1746 
L 384 1746 
C 307 1746 77 1746 77 1513 
C 77 1280 307 1280 384 1280 
L 1645 1280 
z
" transform="scale(0.015625)"/>
      <path id="CMSSBX10-b" d="M 1402 2496 
L 1715 2496 
C 1792 2496 2022 2496 2022 2729 
C 2022 2962 1792 2962 1715 2962 
L 1382 2962 
L 1382 3668 
C 1382 3837 1382 4096 1805 4096 
C 2010 4096 2138 4038 2266 3915 
C 2310 3863 2330 3850 2362 3850 
C 2445 3850 2445 3915 2445 4018 
L 2445 4316 
C 2445 4471 2438 4477 2221 4523 
C 2035 4561 1901 4561 1805 4561 
C 1261 4561 550 4413 550 3480 
L 550 2962 
C 416 2962 192 2962 192 2729 
C 192 2496 410 2496 550 2496 
L 550 310 
C 550 78 621 0 858 0 
L 1094 0 
C 1338 0 1402 84 1402 310 
L 1402 2496 
z
M 3354 2496 
L 3667 2496 
C 3744 2496 3974 2496 3974 2729 
C 3974 2962 3744 2962 3667 2962 
L 3334 2962 
L 3334 3668 
C 3334 3837 3334 4096 3757 4096 
C 3962 4096 4090 4038 4218 3915 
C 4262 3863 4282 3850 4314 3850 
C 4397 3850 4397 3915 4397 4018 
L 4397 4316 
C 4397 4471 4390 4477 4173 4523 
C 3987 4561 3853 4561 3757 4561 
C 3213 4561 2502 4413 2502 3481 
L 2502 310 
C 2502 103 2547 0 2810 0 
L 3046 0 
C 3290 0 3354 84 3354 310 
L 3354 2496 
z
" transform="scale(0.015625)"/>
      <path id="CMSSBX10-52" d="M 3091 2059 
C 3494 2156 4102 2402 4102 3205 
C 4102 4480 2714 4480 2426 4480 
L 890 4480 
C 659 4480 582 4409 582 4170 
L 582 298 
C 582 66 653 -12 890 -12 
L 1197 -12 
C 1440 -12 1504 71 1504 296 
L 1504 1984 
L 2214 1984 
L 3264 142 
C 3354 -12 3424 -12 3565 -12 
L 3942 -12 
C 4070 -12 4179 -12 4179 181 
L 3091 2059 
z
M 1504 2450 
L 1504 3924 
L 2336 3924 
C 3078 3924 3213 3623 3213 3191 
C 3213 2804 3123 2450 2336 2450 
L 1504 2450 
z
" transform="scale(0.015625)"/>
      <path id="CMSSBX10-6b" d="M 2003 1751 
L 2989 2676 
C 3066 2747 3085 2766 3085 2818 
C 3085 2954 2957 2954 2867 2954 
L 2496 2954 
C 2381 2954 2259 2954 2112 2818 
L 1190 1952 
L 1190 4170 
C 1190 4377 1146 4480 883 4480 
L 749 4480 
C 518 4480 442 4409 442 4170 
L 442 302 
C 442 70 512 -8 749 -8 
L 864 -8 
C 1107 -8 1171 76 1171 302 
L 1171 975 
L 1472 1253 
L 2304 154 
C 2413 11 2458 -8 2643 -8 
L 2950 -8 
C 3040 -8 3181 -8 3181 134 
C 3181 147 3181 192 3117 277 
L 2003 1751 
z
" transform="scale(0.015625)"/>
      <path id="CMSSBX10-73" d="M 2534 902 
C 2534 1267 2342 1496 2227 1600 
C 1971 1836 1747 1875 1478 1927 
C 1126 1992 870 2045 870 2299 
C 870 2566 1082 2619 1331 2619 
C 1760 2619 1990 2456 2157 2313 
C 2221 2248 2234 2248 2259 2248 
C 2323 2248 2336 2306 2342 2332 
C 2355 2384 2419 2747 2419 2779 
C 2419 2884 2080 2975 2010 3000 
C 1754 3072 1549 3072 1382 3072 
C 1094 3072 237 3072 237 2145 
C 237 1827 378 1633 550 1477 
C 774 1270 1024 1225 1389 1154 
C 1574 1121 1901 1062 1901 778 
C 1901 473 1651 427 1402 427 
C 1120 427 762 512 461 877 
C 429 909 410 928 371 928 
C 307 928 294 871 288 832 
C 275 743 198 378 198 313 
C 198 198 672 51 678 45 
C 1030 -64 1293 -64 1402 -64 
C 1728 -64 2534 -64 2534 902 
z
" transform="scale(0.015625)"/>
     </defs>
     <use xlink:href="#CMSSBX10-45" transform="scale(0.996264)"/>
     <use xlink:href="#CMSSBX10-6e" transform="translate(63.927295 0) scale(0.996264)"/>
     <use xlink:href="#CMSSBX10-65" transform="translate(119.829083 0) scale(0.996264)"/>
     <use xlink:href="#CMSSBX10-72" transform="translate(170.749536 0) scale(0.996264)"/>
     <use xlink:href="#CMSSBX10-67" transform="translate(207.832946 0) scale(0.996264)"/>
     <use xlink:href="#CMSSBX10-69" transform="translate(262.627771 0) scale(0.996264)"/>
     <use xlink:href="#CMSSBX10-65" transform="translate(288.08799 0) scale(0.996264)"/>
     <use xlink:href="#CMSSBX10-6f" transform="translate(339.008442 0) scale(0.996264)"/>
     <use xlink:href="#CMSSBX10-70" transform="translate(393.803267 0) scale(0.996264)"/>
     <use xlink:href="#CMSSBX10-74" transform="translate(449.705055 0) scale(0.996264)"/>
     <use xlink:href="#CMSSBX10-69" transform="translate(489.970959 0) scale(0.996264)"/>
     <use xlink:href="#CMSSBX10-6d" transform="translate(515.431177 0) scale(0.996264)"/>
     <use xlink:href="#CMSSBX10-61" transform="translate(601.774534 0) scale(0.996264)"/>
     <use xlink:href="#CMSSBX10-6c" transform="translate(654.078729 0) scale(0.996264)"/>
     <use xlink:href="#CMSSBX10-65" transform="translate(679.538948 0) scale(0.996264)"/>
     <use xlink:href="#CMSSBX10-53" transform="translate(766.989284 0) scale(0.996264)"/>
     <use xlink:href="#CMSSBX10-74" transform="translate(827.872422 0) scale(0.996264)"/>
     <use xlink:href="#CMSSBX10-72" transform="translate(868.138326 0) scale(0.996264)"/>
     <use xlink:href="#CMSSBX10-6f" transform="translate(905.221736 0) scale(0.996264)"/>
     <use xlink:href="#CMSSBX10-6d" transform="translate(960.016561 0) scale(0.996264)"/>
     <use xlink:href="#CMSSBX10-76" transform="translate(1046.359918 0) scale(0.996264)"/>
     <use xlink:href="#CMSSBX10-65" transform="translate(1096.173392 0) scale(0.996264)"/>
     <use xlink:href="#CMSSBX10-72" transform="translate(1147.093845 0) scale(0.996264)"/>
     <use xlink:href="#CMSSBX10-6c" transform="translate(1184.177255 0) scale(0.996264)"/>
     <use xlink:href="#CMSSBX10-61" transform="translate(1209.637474 0) scale(0.996264)"/>
     <use xlink:href="#CMSSBX10-75" transform="translate(1261.941669 0) scale(0.996264)"/>
     <use xlink:href="#CMSSBX10-66" transform="translate(1317.843457 0) scale(0.996264)"/>
     <use xlink:href="#CMSSBX10-2d" transform="translate(1387.859066 0) scale(0.996264)"/>
     <use xlink:href="#CMSSBX10-6f" transform="translate(1460.918832 0) scale(0.996264)"/>
     <use xlink:href="#CMSSBX10-b" transform="translate(1515.713657 0) scale(0.996264)"/>
     <use xlink:href="#CMSSBX10-65" transform="translate(1579.640952 0) scale(0.996264)"/>
     <use xlink:href="#CMSSBX10-6e" transform="translate(1630.561405 0) scale(0.996264)"/>
     <use xlink:href="#CMSSBX10-65" transform="translate(1686.463193 0) scale(0.996264)"/>
     <use xlink:href="#CMSSBX10-72" transform="translate(1737.383646 0) scale(0.996264)"/>
     <use xlink:href="#CMSSBX10-52" transform="translate(1810.996939 0) scale(0.996264)"/>
     <use xlink:href="#CMSSBX10-65" transform="translate(1881.012548 0) scale(0.996264)"/>
     <use xlink:href="#CMSSBX10-67" transform="translate(1931.933001 0) scale(0.996264)"/>
     <use xlink:href="#CMSSBX10-65" transform="translate(1986.727825 0) scale(0.996264)"/>
     <use xlink:href="#CMSSBX10-6c" transform="translate(2037.648278 0) scale(0.996264)"/>
     <use xlink:href="#CMSSBX10-6b" transform="translate(2063.108497 0) scale(0.996264)"/>
     <use xlink:href="#CMSSBX10-72" transform="translate(2115.966128 0) scale(0.996264)"/>
     <use xlink:href="#CMSSBX10-65" transform="translate(2153.049538 0) scale(0.996264)"/>
     <use xlink:href="#CMSSBX10-69" transform="translate(2203.969991 0) scale(0.996264)"/>
     <use xlink:href="#CMSSBX10-73" transform="translate(2229.43021 0) scale(0.996264)"/>
    </g>
   </g>
   <g id="legend_1">
    <g id="patch_7">
     <path d="M 533.746978 114.291489 
L 767.1 114.291489 
Q 770.1 114.291489 770.1 111.291489 
L 770.1 70.98 
Q 770.1 67.98 767.1 67.98 
L 533.746978 67.98 
Q 530.746978 67.98 530.746978 70.98 
L 530.746978 111.291489 
Q 530.746978 114.291489 533.746978 114.291489 
z
" style="fill: #ffffff; opacity: 0.8; stroke: #cccccc; stroke-linejoin: miter"/>
    </g>
    <g id="line2d_25">
     <path d="M 536.746978 79.23 
L 551.746978 79.23 
L 566.746978 79.23 
" style="fill: none; stroke: #ff0000; stroke-width: 2; stroke-linecap: square"/>
    </g>
    <g id="text_15">
     <!-- Referenzwert der Vorbereitung -->
     <g transform="translate(578.746978 84.48) scale(0.15 -0.15)">
      <defs>
       <path id="CMSS17-52" d="M 2522 2109 
L 2534 2115 
C 3533 2459 3539 3147 3539 3268 
C 3539 3873 2925 4453 2003 4453 
L 570 4453 
L 570 32 
L 1094 32 
L 1094 2048 
L 2035 2048 
L 3168 32 
L 3706 32 
L 2522 2109 
z
M 1094 2437 
L 1094 4096 
L 1933 4096 
C 2746 4096 3034 3637 3034 3267 
C 3034 2922 2778 2437 1933 2437 
L 1094 2437 
z
" transform="scale(0.015625)"/>
       <path id="CMSS17-66" d="M 1075 2368 
L 1722 2368 
L 1722 2737 
L 1062 2737 
L 1062 3559 
C 1062 4014 1408 4092 1606 4092 
C 1670 4092 1850 4092 2080 4009 
L 2080 4429 
C 1933 4461 1754 4480 1613 4480 
C 1018 4480 602 3993 602 3359 
L 602 2737 
L 160 2737 
L 160 2368 
L 602 2368 
L 602 0 
L 1075 0 
L 1075 2368 
z
" transform="scale(0.015625)"/>
       <path id="CMSS17-7a" d="M 2400 2502 
L 2400 2750 
L 250 2750 
L 250 2368 
L 1069 2368 
C 1146 2368 1222 2368 1299 2368 
L 1747 2368 
L 166 261 
L 166 0 
L 2419 0 
L 2419 395 
L 1549 395 
C 1472 395 1395 395 1318 395 
L 826 395 
L 2400 2502 
z
" transform="scale(0.015625)"/>
       <path id="CMSS17-77" d="M 4013 2752 
L 3526 2752 
L 3187 1601 
C 3117 1358 2918 685 2893 371 
L 2886 371 
C 2874 564 2765 1024 2586 1633 
L 2259 2752 
L 1818 2752 
L 1498 1658 
C 1338 1101 1216 627 1203 371 
L 1197 371 
C 1171 749 909 1633 870 1773 
L 582 2752 
L 83 2752 
L 915 0 
L 1402 0 
C 1734 1096 1990 1943 2010 2370 
C 2022 2160 2131 1707 2195 1484 
L 2618 0 
L 3181 0 
L 4013 2752 
z
" transform="scale(0.015625)"/>
       <path id="CMSS17-64" d="M 2611 4416 
L 2138 4416 
L 2138 2438 
C 1939 2603 1613 2756 1254 2756 
C 672 2756 211 2131 211 1347 
C 211 562 666 -64 1235 -64 
C 1677 -64 1971 172 2125 306 
L 2125 -13 
L 2611 -13 
L 2611 4416 
z
M 2125 836 
C 2125 747 2125 653 1926 482 
C 1798 375 1645 325 1498 325 
C 1152 325 698 576 698 1340 
C 698 2134 1210 2368 1562 2368 
C 1798 2368 1990 2254 2125 2065 
L 2125 836 
z
" transform="scale(0.015625)"/>
       <path id="CMSS17-56" d="M 3910 4416 
L 3411 4416 
L 2304 1362 
C 2272 1273 2074 688 2035 484 
L 2029 484 
C 1978 726 1773 1292 1664 1604 
L 922 3672 
L 646 4416 
L 83 4416 
L 1715 0 
L 2278 0 
L 3910 4416 
z
" transform="scale(0.015625)"/>
       <path id="CMSS17-62" d="M 954 4416 
L 480 4416 
L 480 -13 
L 966 -13 
L 966 274 
C 1210 38 1504 -64 1766 -64 
C 2381 -64 2880 549 2880 1352 
C 2880 2086 2496 2756 1926 2756 
C 1523 2756 1165 2591 954 2419 
L 954 4416 
z
M 966 2046 
C 1107 2222 1306 2368 1587 2368 
C 1965 2368 2394 2097 2394 1352 
C 2394 558 1882 325 1530 325 
C 1402 325 1267 356 1139 464 
C 966 615 966 709 966 797 
L 966 2046 
z
" transform="scale(0.015625)"/>
       <path id="CMSS17-75" d="M 2618 2739 
L 2131 2739 
L 2131 972 
C 2131 498 1786 306 1421 306 
C 998 306 960 447 960 709 
L 960 2739 
L 474 2739 
L 474 678 
C 474 179 646 -64 1088 -64 
C 1306 -64 1798 -13 2144 306 
L 2144 0 
L 2618 0 
L 2618 2739 
z
" transform="scale(0.015625)"/>
       <path id="CMSS17-67" d="M 2848 2808 
C 2483 2808 2170 2738 1914 2617 
C 1702 2777 1485 2808 1338 2808 
C 781 2808 358 2349 358 1814 
C 358 1468 550 1207 563 1195 
C 448 1035 384 863 384 672 
C 384 448 474 289 544 200 
C 211 -3 166 -314 166 -435 
C 166 -898 749 -1280 1498 -1280 
C 2253 -1280 2835 -898 2835 -428 
C 2835 448 1856 448 1587 448 
L 1069 448 
C 973 448 717 448 717 791 
C 717 921 774 1004 781 1010 
C 877 940 1075 832 1338 832 
C 1869 832 2310 1278 2310 1827 
C 2310 2132 2170 2355 2112 2432 
L 2131 2432 
C 2150 2432 2419 2432 2515 2432 
C 2720 2432 2739 2429 2918 2419 
L 2848 2808 
z
M 1338 1182 
C 1120 1182 813 1315 813 1823 
C 813 2375 1165 2464 1331 2464 
C 1549 2464 1856 2331 1856 1823 
C 1856 1271 1504 1182 1338 1182 
z
M 1581 -10 
C 1734 -10 2381 -10 2381 -442 
C 2381 -714 1984 -929 1504 -929 
C 1018 -929 621 -720 621 -435 
C 621 -403 621 -10 1062 -10 
L 1581 -10 
z
" transform="scale(0.015625)"/>
      </defs>
      <use xlink:href="#CMSS17-52" transform="scale(0.996264)"/>
      <use xlink:href="#CMSS17-65" transform="translate(60.416155 0) scale(0.996264)"/>
      <use xlink:href="#CMSS17-66" transform="translate(102.054977 0) scale(0.996264)"/>
      <use xlink:href="#CMSS17-65" transform="translate(130.681636 0) scale(0.996264)"/>
      <use xlink:href="#CMSS17-72" transform="translate(172.320458 0) scale(0.996264)"/>
      <use xlink:href="#CMSS17-65" transform="translate(204.23023 0) scale(0.996264)"/>
      <use xlink:href="#CMSS17-6e" transform="translate(245.869052 0) scale(0.996264)"/>
      <use xlink:href="#CMSS17-7a" transform="translate(294.073996 0) scale(0.996264)"/>
      <use xlink:href="#CMSS17-77" transform="translate(334.751867 0) scale(0.996264)"/>
      <use xlink:href="#CMSS17-65" transform="translate(395.968959 0) scale(0.996264)"/>
      <use xlink:href="#CMSS17-72" transform="translate(437.607781 0) scale(0.996264)"/>
      <use xlink:href="#CMSS17-74" transform="translate(469.517553 0) scale(0.996264)"/>
      <use xlink:href="#CMSS17-64" transform="translate(534.578233 0) scale(0.996264)"/>
      <use xlink:href="#CMSS17-65" transform="translate(582.783176 0) scale(0.996264)"/>
      <use xlink:href="#CMSS17-72" transform="translate(624.421998 0) scale(0.996264)"/>
      <use xlink:href="#CMSS17-56" transform="translate(687.560883 0) scale(0.996264)"/>
      <use xlink:href="#CMSS17-6f" transform="translate(747.176284 0) scale(0.996264)"/>
      <use xlink:href="#CMSS17-72" transform="translate(791.417454 0) scale(0.996264)"/>
      <use xlink:href="#CMSS17-62" transform="translate(823.327226 0) scale(0.996264)"/>
      <use xlink:href="#CMSS17-65" transform="translate(874.134608 0) scale(0.996264)"/>
      <use xlink:href="#CMSS17-72" transform="translate(915.77343 0) scale(0.996264)"/>
      <use xlink:href="#CMSS17-65" transform="translate(947.683203 0) scale(0.996264)"/>
      <use xlink:href="#CMSS17-69" transform="translate(989.322025 0) scale(0.996264)"/>
      <use xlink:href="#CMSS17-74" transform="translate(1011.502748 0) scale(0.996264)"/>
      <use xlink:href="#CMSS17-75" transform="translate(1045.334315 0) scale(0.996264)"/>
      <use xlink:href="#CMSS17-6e" transform="translate(1093.539258 0) scale(0.996264)"/>
      <use xlink:href="#CMSS17-67" transform="translate(1141.744201 0) scale(0.996264)"/>
     </g>
    </g>
    <g id="line2d_26">
     <path d="M 536.746978 100.135745 
L 551.746978 100.135745 
L 566.746978 100.135745 
" style="fill: none; stroke-dasharray: 7.4,3.2; stroke-dashoffset: 0; stroke: #008000; stroke-width: 2"/>
    </g>
    <g id="text_16">
     <!-- Messung -->
     <g transform="translate(578.746978 105.385745) scale(0.15 -0.15)">
      <defs>
       <path id="CMSS17-4d" d="M 3194 2371 
L 2886 1473 
C 2835 1307 2662 791 2624 587 
L 2618 587 
C 2598 715 2560 849 2458 1174 
C 2400 1365 2336 1562 2272 1741 
L 1325 4416 
L 576 4416 
L 576 0 
L 1075 0 
L 1075 3900 
L 1082 3900 
C 1082 3894 1139 3613 1530 2499 
L 2374 96 
L 2848 96 
L 3610 2231 
C 3661 2378 3821 2843 3891 3066 
C 3955 3257 4115 3728 4154 3913 
L 4160 3913 
L 4160 0 
L 4666 0 
L 4666 4416 
L 3923 4416 
L 3194 2371 
z
" transform="scale(0.015625)"/>
      </defs>
      <use xlink:href="#CMSS17-4d" transform="scale(0.996264)"/>
      <use xlink:href="#CMSS17-65" transform="translate(81.67603 0) scale(0.996264)"/>
      <use xlink:href="#CMSS17-73" transform="translate(123.314852 0) scale(0.996264)"/>
      <use xlink:href="#CMSS17-73" transform="translate(159.228394 0) scale(0.996264)"/>
      <use xlink:href="#CMSS17-75" transform="translate(195.141936 0) scale(0.996264)"/>
      <use xlink:href="#CMSS17-6e" transform="translate(243.346879 0) scale(0.996264)"/>
      <use xlink:href="#CMSS17-67" transform="translate(291.551822 0) scale(0.996264)"/>
     </g>
    </g>
   </g>
  </g>
 </g>
 <defs>
  <clipPath id="p18d1b2ead2">
   <rect x="108" y="60.48" width="669.6" height="388.08"/>
  </clipPath>
 </defs>
</svg>
