<?xml version="1.0" encoding="utf-8" standalone="no"?>
<!DOCTYPE svg PUBLIC "-//W3C//DTD SVG 1.1//EN"
  "http://www.w3.org/Graphics/SVG/1.1/DTD/svg11.dtd">
<svg xmlns:xlink="http://www.w3.org/1999/xlink" width="864pt" height="504pt" viewBox="0 0 864 504" xmlns="http://www.w3.org/2000/svg" version="1.1">
 <metadata>
  <rdf:RDF xmlns:dc="http://purl.org/dc/elements/1.1/" xmlns:cc="http://creativecommons.org/ns#" xmlns:rdf="http://www.w3.org/1999/02/22-rdf-syntax-ns#">
   <cc:Work>
    <dc:type rdf:resource="http://purl.org/dc/dcmitype/StillImage"/>
    <dc:date>2023-05-22T19:29:46.850389</dc:date>
    <dc:format>image/svg+xml</dc:format>
    <dc:creator>
     <cc:Agent>
      <dc:title>Matplotlib v3.7.1, https://matplotlib.org/</dc:title>
     </cc:Agent>
    </dc:creator>
   </cc:Work>
  </rdf:RDF>
 </metadata>
 <defs>
  <style type="text/css">*{stroke-linejoin: round; stroke-linecap: butt}</style>
 </defs>
 <g id="figure_1">
  <g id="patch_1">
   <path d="M 0 504 
L 864 504 
L 864 0 
L 0 0 
z
" style="fill: #ffffff"/>
  </g>
  <g id="axes_1">
   <g id="patch_2">
    <path d="M 108 448.56 
L 777.6 448.56 
L 777.6 60.48 
L 108 60.48 
z
" style="fill: #ffffff"/>
   </g>
   <g id="matplotlib.axis_1">
    <g id="xtick_1">
     <g id="line2d_1">
      <path d="M 185.268743 448.56 
L 185.268743 60.48 
" clip-path="url(#pdda398b532)" style="fill: none; stroke: #b0b0b0; stroke-width: 0.8; stroke-linecap: square"/>
     </g>
     <g id="line2d_2">
      <defs>
       <path id="m3577c90ba6" d="M 0 0 
L 0 3.5 
" style="stroke: #000000; stroke-width: 0.8"/>
      </defs>
      <g>
       <use xlink:href="#m3577c90ba6" x="185.268743" y="448.56" style="stroke: #000000; stroke-width: 0.8"/>
      </g>
     </g>
     <g id="text_1">
      <!-- $\mathdefault{4}$ -->
      <g transform="translate(181.610625 465.937725) scale(0.15 -0.15)">
       <defs>
        <path id="CMR17-34" d="M 2150 4122 
C 2150 4256 2144 4256 2029 4256 
L 128 1254 
L 128 1088 
L 1779 1088 
L 1779 457 
C 1779 224 1766 160 1318 160 
L 1197 160 
L 1197 0 
C 1402 0 1747 0 1965 0 
C 2182 0 2528 0 2733 0 
L 2733 160 
L 2611 160 
C 2163 160 2150 224 2150 457 
L 2150 1088 
L 2803 1088 
L 2803 1254 
L 2150 1254 
L 2150 4122 
z
M 1798 3703 
L 1798 1254 
L 256 1254 
L 1798 3703 
z
" transform="scale(0.015625)"/>
       </defs>
       <use xlink:href="#CMR17-34" transform="scale(0.996264)"/>
      </g>
     </g>
    </g>
    <g id="xtick_2">
     <g id="line2d_3">
      <path d="M 278.933503 448.56 
L 278.933503 60.48 
" clip-path="url(#pdda398b532)" style="fill: none; stroke: #b0b0b0; stroke-width: 0.8; stroke-linecap: square"/>
     </g>
     <g id="line2d_4">
      <g>
       <use xlink:href="#m3577c90ba6" x="278.933503" y="448.56" style="stroke: #000000; stroke-width: 0.8"/>
      </g>
     </g>
     <g id="text_2">
      <!-- $\mathdefault{5}$ -->
      <g transform="translate(275.275384 465.937725) scale(0.15 -0.15)">
       <defs>
        <path id="CMR17-35" d="M 730 3692 
C 794 3666 1056 3584 1325 3584 
C 1920 3584 2246 3911 2432 4100 
C 2432 4157 2432 4192 2394 4192 
C 2387 4192 2374 4192 2323 4163 
C 2099 4058 1837 3973 1517 3973 
C 1325 3973 1037 3999 723 4139 
C 653 4171 640 4171 634 4171 
C 602 4171 595 4164 595 4037 
L 595 2203 
C 595 2089 595 2057 659 2057 
C 691 2057 704 2070 736 2114 
C 941 2401 1222 2522 1542 2522 
C 1766 2522 2246 2382 2246 1289 
C 2246 1085 2246 715 2054 421 
C 1894 159 1645 25 1370 25 
C 947 25 518 320 403 814 
C 429 807 480 795 506 795 
C 589 795 749 840 749 1038 
C 749 1210 627 1280 506 1280 
C 358 1280 262 1190 262 1011 
C 262 454 704 -128 1382 -128 
C 2042 -128 2669 440 2669 1264 
C 2669 2030 2170 2624 1549 2624 
C 1222 2624 947 2503 730 2274 
L 730 3692 
z
" transform="scale(0.015625)"/>
       </defs>
       <use xlink:href="#CMR17-35" transform="scale(0.996264)"/>
      </g>
     </g>
    </g>
    <g id="xtick_3">
     <g id="line2d_5">
      <path d="M 372.598263 448.56 
L 372.598263 60.48 
" clip-path="url(#pdda398b532)" style="fill: none; stroke: #b0b0b0; stroke-width: 0.8; stroke-linecap: square"/>
     </g>
     <g id="line2d_6">
      <g>
       <use xlink:href="#m3577c90ba6" x="372.598263" y="448.56" style="stroke: #000000; stroke-width: 0.8"/>
      </g>
     </g>
     <g id="text_3">
      <!-- $\mathdefault{6}$ -->
      <g transform="translate(368.940144 465.937725) scale(0.15 -0.15)">
       <defs>
        <path id="CMR17-36" d="M 678 2176 
C 678 3690 1395 4032 1811 4032 
C 1946 4032 2272 4009 2400 3776 
C 2298 3776 2106 3776 2106 3553 
C 2106 3381 2246 3323 2336 3323 
C 2394 3323 2566 3348 2566 3560 
C 2566 3954 2246 4179 1805 4179 
C 1043 4179 243 3390 243 1984 
C 243 253 966 -128 1478 -128 
C 2099 -128 2688 427 2688 1283 
C 2688 2081 2170 2662 1517 2662 
C 1126 2662 838 2407 678 1960 
L 678 2176 
z
M 1478 25 
C 691 25 691 1200 691 1436 
C 691 1896 909 2560 1504 2560 
C 1613 2560 1926 2560 2138 2120 
C 2253 1870 2253 1609 2253 1289 
C 2253 944 2253 690 2118 434 
C 1978 171 1773 25 1478 25 
z
" transform="scale(0.015625)"/>
       </defs>
       <use xlink:href="#CMR17-36" transform="scale(0.996264)"/>
      </g>
     </g>
    </g>
    <g id="xtick_4">
     <g id="line2d_7">
      <path d="M 466.263022 448.56 
L 466.263022 60.48 
" clip-path="url(#pdda398b532)" style="fill: none; stroke: #b0b0b0; stroke-width: 0.8; stroke-linecap: square"/>
     </g>
     <g id="line2d_8">
      <g>
       <use xlink:href="#m3577c90ba6" x="466.263022" y="448.56" style="stroke: #000000; stroke-width: 0.8"/>
      </g>
     </g>
     <g id="text_4">
      <!-- $\mathdefault{7}$ -->
      <g transform="translate(462.604903 465.937725) scale(0.15 -0.15)">
       <defs>
        <path id="CMR17-37" d="M 2886 3941 
L 2886 4081 
L 1382 4081 
C 634 4081 621 4165 595 4288 
L 480 4288 
L 294 3094 
L 410 3094 
C 429 3215 474 3540 550 3661 
C 589 3712 1062 3712 1171 3712 
L 2579 3712 
L 1869 2661 
C 1395 1954 1069 999 1069 165 
C 1069 89 1069 -128 1299 -128 
C 1530 -128 1530 89 1530 171 
L 1530 465 
C 1530 1508 1709 2196 2003 2636 
L 2886 3941 
z
" transform="scale(0.015625)"/>
       </defs>
       <use xlink:href="#CMR17-37" transform="scale(0.996264)"/>
      </g>
     </g>
    </g>
    <g id="xtick_5">
     <g id="line2d_9">
      <path d="M 559.927782 448.56 
L 559.927782 60.48 
" clip-path="url(#pdda398b532)" style="fill: none; stroke: #b0b0b0; stroke-width: 0.8; stroke-linecap: square"/>
     </g>
     <g id="line2d_10">
      <g>
       <use xlink:href="#m3577c90ba6" x="559.927782" y="448.56" style="stroke: #000000; stroke-width: 0.8"/>
      </g>
     </g>
     <g id="text_5">
      <!-- $\mathdefault{8}$ -->
      <g transform="translate(556.269663 465.937725) scale(0.15 -0.15)">
       <defs>
        <path id="CMR17-38" d="M 1741 2264 
C 2144 2467 2554 2773 2554 3263 
C 2554 3841 1990 4179 1472 4179 
C 890 4179 378 3759 378 3180 
C 378 3021 416 2747 666 2505 
C 730 2442 998 2251 1171 2130 
C 883 1983 211 1634 211 934 
C 211 279 838 -128 1459 -128 
C 2144 -128 2720 362 2720 1010 
C 2720 1590 2330 1857 2074 2029 
L 1741 2264 
z
M 902 2822 
C 851 2854 595 3051 595 3351 
C 595 3739 998 4032 1459 4032 
C 1965 4032 2336 3676 2336 3262 
C 2336 2669 1670 2331 1638 2331 
C 1632 2331 1626 2331 1574 2370 
L 902 2822 
z
M 2080 1519 
C 2176 1449 2483 1240 2483 851 
C 2483 381 2010 25 1472 25 
C 890 25 448 438 448 940 
C 448 1443 838 1862 1280 2060 
L 2080 1519 
z
" transform="scale(0.015625)"/>
       </defs>
       <use xlink:href="#CMR17-38" transform="scale(0.996264)"/>
      </g>
     </g>
    </g>
    <g id="xtick_6">
     <g id="line2d_11">
      <path d="M 653.592542 448.56 
L 653.592542 60.48 
" clip-path="url(#pdda398b532)" style="fill: none; stroke: #b0b0b0; stroke-width: 0.8; stroke-linecap: square"/>
     </g>
     <g id="line2d_12">
      <g>
       <use xlink:href="#m3577c90ba6" x="653.592542" y="448.56" style="stroke: #000000; stroke-width: 0.8"/>
      </g>
     </g>
     <g id="text_6">
      <!-- $\mathdefault{9}$ -->
      <g transform="translate(649.934423 465.937725) scale(0.15 -0.15)">
       <defs>
        <path id="CMR17-39" d="M 2253 1864 
C 2253 464 1670 31 1190 31 
C 1043 31 685 31 538 294 
C 704 268 826 357 826 518 
C 826 692 685 749 595 749 
C 538 749 365 723 365 506 
C 365 71 742 -128 1203 -128 
C 1939 -128 2688 674 2688 2073 
C 2688 3817 1971 4179 1485 4179 
C 851 4179 243 3628 243 2778 
C 243 1991 762 1408 1414 1408 
C 1952 1408 2189 1903 2253 2112 
L 2253 1864 
z
M 1427 1510 
C 1254 1510 1011 1542 813 1922 
C 678 2169 678 2461 678 2771 
C 678 3146 678 3405 858 3684 
C 947 3817 1114 4032 1485 4032 
C 2240 4032 2240 2885 2240 2632 
C 2240 2182 2035 1510 1427 1510 
z
" transform="scale(0.015625)"/>
       </defs>
       <use xlink:href="#CMR17-39" transform="scale(0.996264)"/>
      </g>
     </g>
    </g>
    <g id="xtick_7">
     <g id="line2d_13">
      <path d="M 747.257301 448.56 
L 747.257301 60.48 
" clip-path="url(#pdda398b532)" style="fill: none; stroke: #b0b0b0; stroke-width: 0.8; stroke-linecap: square"/>
     </g>
     <g id="line2d_14">
      <g>
       <use xlink:href="#m3577c90ba6" x="747.257301" y="448.56" style="stroke: #000000; stroke-width: 0.8"/>
      </g>
     </g>
     <g id="text_7">
      <!-- $\mathdefault{10}$ -->
      <g transform="translate(739.941063 465.937725) scale(0.15 -0.15)">
       <defs>
        <path id="CMR17-31" d="M 1702 4058 
C 1702 4192 1696 4192 1606 4192 
C 1357 3916 979 3827 621 3827 
C 602 3827 570 3827 563 3808 
C 557 3795 557 3782 557 3648 
C 755 3648 1088 3686 1344 3839 
L 1344 461 
C 1344 236 1331 160 781 160 
L 589 160 
L 589 0 
C 896 0 1216 0 1523 0 
C 1830 0 2150 0 2458 0 
L 2458 160 
L 2266 160 
C 1715 160 1702 230 1702 458 
L 1702 4058 
z
" transform="scale(0.015625)"/>
        <path id="CMR17-30" d="M 2688 2025 
C 2688 2416 2682 3080 2413 3591 
C 2176 4039 1798 4198 1466 4198 
C 1158 4198 768 4058 525 3597 
C 269 3118 243 2524 243 2025 
C 243 1661 250 1106 448 619 
C 723 -39 1216 -128 1466 -128 
C 1760 -128 2208 -7 2470 600 
C 2662 1042 2688 1559 2688 2025 
z
M 1466 -26 
C 1056 -26 813 325 723 812 
C 653 1188 653 1738 653 2096 
C 653 2588 653 2997 736 3387 
C 858 3929 1216 4096 1466 4096 
C 1728 4096 2067 3923 2189 3400 
C 2272 3036 2278 2607 2278 2096 
C 2278 1680 2278 1169 2202 792 
C 2067 95 1690 -26 1466 -26 
z
" transform="scale(0.015625)"/>
       </defs>
       <use xlink:href="#CMR17-31" transform="scale(0.996264)"/>
       <use xlink:href="#CMR17-30" transform="translate(45.690477 0) scale(0.996264)"/>
      </g>
     </g>
    </g>
    <g id="text_8">
     <!-- Zeit t in s -->
     <g transform="translate(412.477438 483.221194) scale(0.15 -0.15)">
      <defs>
       <path id="CMSS17-5a" d="M 3341 4155 
L 3341 4416 
L 416 4416 
L 416 4015 
L 1613 4015 
C 1690 4015 1766 4015 1843 4015 
L 2662 4015 
L 333 274 
L 333 0 
L 3373 0 
L 3373 414 
L 2803 414 
C 2272 414 1734 414 1203 414 
L 1011 414 
L 3341 4155 
z
" transform="scale(0.015625)"/>
       <path id="CMSS17-65" d="M 2502 1377 
C 2502 1590 2490 2003 2285 2345 
C 2061 2713 1696 2816 1421 2816 
C 755 2816 192 2188 192 1375 
C 192 582 774 -64 1510 -64 
C 1798 -64 2150 19 2470 248 
C 2470 274 2458 414 2451 420 
C 2451 433 2432 630 2432 656 
C 2125 407 1773 325 1517 325 
C 1107 325 666 667 646 1377 
L 2502 1377 
z
M 698 1728 
C 781 2084 1062 2421 1421 2421 
C 1517 2421 1965 2421 2080 1728 
L 698 1728 
z
" transform="scale(0.015625)"/>
       <path id="CMSS17-69" d="M 979 4183 
L 442 4183 
L 442 3648 
L 979 3648 
L 979 4183 
z
M 947 2739 
L 474 2739 
L 474 0 
L 947 0 
L 947 2739 
z
" transform="scale(0.015625)"/>
       <path id="CMSS17-74" d="M 1069 2368 
L 1901 2368 
L 1901 2737 
L 1069 2737 
L 1069 3520 
L 614 3520 
L 614 2737 
L 109 2737 
L 109 2368 
L 602 2368 
L 602 749 
C 602 384 685 -64 1107 -64 
C 1427 -64 1722 25 2003 172 
L 1901 548 
C 1747 414 1562 337 1363 337 
C 1082 337 1069 696 1069 856 
L 1069 2368 
z
" transform="scale(0.015625)"/>
       <path id="CMSS17-6e" d="M 2618 1877 
C 2618 2283 2522 2816 1798 2816 
C 1389 2816 1120 2606 941 2389 
L 941 2758 
L 474 2758 
L 474 0 
L 960 0 
L 960 1559 
C 960 1964 1114 2428 1549 2428 
C 2112 2428 2131 2048 2131 1829 
L 2131 0 
L 2618 0 
L 2618 1877 
z
" transform="scale(0.015625)"/>
       <path id="CMSS17-73" d="M 2061 2627 
C 1683 2807 1389 2807 1197 2807 
C 742 2807 198 2648 198 2003 
C 198 1359 902 1218 1094 1179 
C 1389 1122 1715 1058 1715 740 
C 1715 337 1254 337 1171 337 
C 915 337 563 407 243 638 
L 166 210 
C 531 0 883 -64 1178 -64 
C 1965 -64 2163 416 2163 781 
C 2163 1094 1984 1305 1862 1401 
C 1651 1568 1574 1587 1050 1696 
C 960 1709 646 1779 646 2066 
C 646 2432 1050 2432 1139 2432 
C 1555 2432 1811 2303 1984 2208 
L 2061 2627 
z
" transform="scale(0.015625)"/>
      </defs>
      <use xlink:href="#CMSS17-5a" transform="scale(0.996264)"/>
      <use xlink:href="#CMSS17-65" transform="translate(57.253333 0) scale(0.996264)"/>
      <use xlink:href="#CMSS17-69" transform="translate(98.892155 0) scale(0.996264)"/>
      <use xlink:href="#CMSS17-74" transform="translate(121.072878 0) scale(0.996264)"/>
      <use xlink:href="#CMSS17-74" transform="translate(186.133557 0) scale(0.996264)"/>
      <use xlink:href="#CMSS17-69" transform="translate(251.194237 0) scale(0.996264)"/>
      <use xlink:href="#CMSS17-6e" transform="translate(273.37496 0) scale(0.996264)"/>
      <use xlink:href="#CMSS17-73" transform="translate(352.809016 0) scale(0.996264)"/>
     </g>
    </g>
   </g>
   <g id="matplotlib.axis_2">
    <g id="ytick_1">
     <g id="line2d_15">
      <path d="M 108 436.531191 
L 777.6 436.531191 
" clip-path="url(#pdda398b532)" style="fill: none; stroke: #b0b0b0; stroke-width: 0.8; stroke-linecap: square"/>
     </g>
     <g id="line2d_16">
      <defs>
       <path id="md275becffe" d="M 0 0 
L -3.5 0 
" style="stroke: #000000; stroke-width: 0.8"/>
      </defs>
      <g>
       <use xlink:href="#md275becffe" x="108" y="436.531191" style="stroke: #000000; stroke-width: 0.8"/>
      </g>
     </g>
     <g id="text_9">
      <!-- $\mathdefault{−2.0}$ -->
      <g transform="translate(70.679832 441.720053) scale(0.15 -0.15)">
       <defs>
        <path id="CMSY10-0" d="M 4218 1472 
C 4326 1472 4442 1472 4442 1600 
C 4442 1728 4326 1728 4218 1728 
L 755 1728 
C 646 1728 531 1728 531 1600 
C 531 1472 646 1472 755 1472 
L 4218 1472 
z
" transform="scale(0.015625)"/>
        <path id="CMR17-32" d="M 2669 989 
L 2554 989 
C 2490 536 2438 459 2413 420 
C 2381 369 1920 369 1830 369 
L 602 369 
C 832 619 1280 1072 1824 1597 
C 2214 1967 2669 2402 2669 3035 
C 2669 3790 2067 4224 1395 4224 
C 691 4224 262 3604 262 3030 
C 262 2780 448 2748 525 2748 
C 589 2748 781 2787 781 3010 
C 781 3207 614 3264 525 3264 
C 486 3264 448 3258 422 3245 
C 544 3790 915 4058 1306 4058 
C 1862 4058 2227 3617 2227 3035 
C 2227 2479 1901 2000 1536 1584 
L 262 146 
L 262 0 
L 2515 0 
L 2669 989 
z
" transform="scale(0.015625)"/>
        <path id="CMMI12-3a" d="M 1178 307 
C 1178 492 1024 619 870 619 
C 685 619 557 466 557 313 
C 557 128 710 0 864 0 
C 1050 0 1178 153 1178 307 
z
" transform="scale(0.015625)"/>
       </defs>
       <use xlink:href="#CMSY10-0" transform="scale(0.996264)"/>
       <use xlink:href="#CMR17-32" transform="translate(77.487468 0) scale(0.996264)"/>
       <use xlink:href="#CMMI12-3a" transform="translate(123.177945 0) scale(0.996264)"/>
       <use xlink:href="#CMR17-30" transform="translate(150.275122 0) scale(0.996264)"/>
      </g>
     </g>
    </g>
    <g id="ytick_2">
     <g id="line2d_17">
      <path d="M 108 391.044882 
L 777.6 391.044882 
" clip-path="url(#pdda398b532)" style="fill: none; stroke: #b0b0b0; stroke-width: 0.8; stroke-linecap: square"/>
     </g>
     <g id="line2d_18">
      <g>
       <use xlink:href="#md275becffe" x="108" y="391.044882" style="stroke: #000000; stroke-width: 0.8"/>
      </g>
     </g>
     <g id="text_10">
      <!-- $\mathdefault{−1.5}$ -->
      <g transform="translate(70.679832 396.233744) scale(0.15 -0.15)">
       <use xlink:href="#CMSY10-0" transform="scale(0.996264)"/>
       <use xlink:href="#CMR17-31" transform="translate(77.487468 0) scale(0.996264)"/>
       <use xlink:href="#CMMI12-3a" transform="translate(123.177945 0) scale(0.996264)"/>
       <use xlink:href="#CMR17-35" transform="translate(150.275122 0) scale(0.996264)"/>
      </g>
     </g>
    </g>
    <g id="ytick_3">
     <g id="line2d_19">
      <path d="M 108 345.558573 
L 777.6 345.558573 
" clip-path="url(#pdda398b532)" style="fill: none; stroke: #b0b0b0; stroke-width: 0.8; stroke-linecap: square"/>
     </g>
     <g id="line2d_20">
      <g>
       <use xlink:href="#md275becffe" x="108" y="345.558573" style="stroke: #000000; stroke-width: 0.8"/>
      </g>
     </g>
     <g id="text_11">
      <!-- $\mathdefault{−1.0}$ -->
      <g transform="translate(70.679832 350.747435) scale(0.15 -0.15)">
       <use xlink:href="#CMSY10-0" transform="scale(0.996264)"/>
       <use xlink:href="#CMR17-31" transform="translate(77.487468 0) scale(0.996264)"/>
       <use xlink:href="#CMMI12-3a" transform="translate(123.177945 0) scale(0.996264)"/>
       <use xlink:href="#CMR17-30" transform="translate(150.275122 0) scale(0.996264)"/>
      </g>
     </g>
    </g>
    <g id="ytick_4">
     <g id="line2d_21">
      <path d="M 108 300.072264 
L 777.6 300.072264 
" clip-path="url(#pdda398b532)" style="fill: none; stroke: #b0b0b0; stroke-width: 0.8; stroke-linecap: square"/>
     </g>
     <g id="line2d_22">
      <g>
       <use xlink:href="#md275becffe" x="108" y="300.072264" style="stroke: #000000; stroke-width: 0.8"/>
      </g>
     </g>
     <g id="text_12">
      <!-- $\mathdefault{−0.5}$ -->
      <g transform="translate(70.679832 305.261127) scale(0.15 -0.15)">
       <use xlink:href="#CMSY10-0" transform="scale(0.996264)"/>
       <use xlink:href="#CMR17-30" transform="translate(77.487468 0) scale(0.996264)"/>
       <use xlink:href="#CMMI12-3a" transform="translate(123.177945 0) scale(0.996264)"/>
       <use xlink:href="#CMR17-35" transform="translate(150.275122 0) scale(0.996264)"/>
      </g>
     </g>
    </g>
    <g id="ytick_5">
     <g id="line2d_23">
      <path d="M 108 254.585955 
L 777.6 254.585955 
" clip-path="url(#pdda398b532)" style="fill: none; stroke: #b0b0b0; stroke-width: 0.8; stroke-linecap: square"/>
     </g>
     <g id="line2d_24">
      <g>
       <use xlink:href="#md275becffe" x="108" y="254.585955" style="stroke: #000000; stroke-width: 0.8"/>
      </g>
     </g>
     <g id="text_13">
      <!-- $\mathdefault{0.0}$ -->
      <g transform="translate(82.302948 259.774818) scale(0.15 -0.15)">
       <use xlink:href="#CMR17-30" transform="scale(0.996264)"/>
       <use xlink:href="#CMMI12-3a" transform="translate(45.690477 0) scale(0.996264)"/>
       <use xlink:href="#CMR17-30" transform="translate(72.787654 0) scale(0.996264)"/>
      </g>
     </g>
    </g>
    <g id="ytick_6">
     <g id="line2d_25">
      <path d="M 108 209.099646 
L 777.6 209.099646 
" clip-path="url(#pdda398b532)" style="fill: none; stroke: #b0b0b0; stroke-width: 0.8; stroke-linecap: square"/>
     </g>
     <g id="line2d_26">
      <g>
       <use xlink:href="#md275becffe" x="108" y="209.099646" style="stroke: #000000; stroke-width: 0.8"/>
      </g>
     </g>
     <g id="text_14">
      <!-- $\mathdefault{0.5}$ -->
      <g transform="translate(82.302948 214.288509) scale(0.15 -0.15)">
       <use xlink:href="#CMR17-30" transform="scale(0.996264)"/>
       <use xlink:href="#CMMI12-3a" transform="translate(45.690477 0) scale(0.996264)"/>
       <use xlink:href="#CMR17-35" transform="translate(72.787654 0) scale(0.996264)"/>
      </g>
     </g>
    </g>
    <g id="ytick_7">
     <g id="line2d_27">
      <path d="M 108 163.613337 
L 777.6 163.613337 
" clip-path="url(#pdda398b532)" style="fill: none; stroke: #b0b0b0; stroke-width: 0.8; stroke-linecap: square"/>
     </g>
     <g id="line2d_28">
      <g>
       <use xlink:href="#md275becffe" x="108" y="163.613337" style="stroke: #000000; stroke-width: 0.8"/>
      </g>
     </g>
     <g id="text_15">
      <!-- $\mathdefault{1.0}$ -->
      <g transform="translate(82.302948 168.8022) scale(0.15 -0.15)">
       <use xlink:href="#CMR17-31" transform="scale(0.996264)"/>
       <use xlink:href="#CMMI12-3a" transform="translate(45.690477 0) scale(0.996264)"/>
       <use xlink:href="#CMR17-30" transform="translate(72.787654 0) scale(0.996264)"/>
      </g>
     </g>
    </g>
    <g id="ytick_8">
     <g id="line2d_29">
      <path d="M 108 118.127028 
L 777.6 118.127028 
" clip-path="url(#pdda398b532)" style="fill: none; stroke: #b0b0b0; stroke-width: 0.8; stroke-linecap: square"/>
     </g>
     <g id="line2d_30">
      <g>
       <use xlink:href="#md275becffe" x="108" y="118.127028" style="stroke: #000000; stroke-width: 0.8"/>
      </g>
     </g>
     <g id="text_16">
      <!-- $\mathdefault{1.5}$ -->
      <g transform="translate(82.302948 123.315891) scale(0.15 -0.15)">
       <use xlink:href="#CMR17-31" transform="scale(0.996264)"/>
       <use xlink:href="#CMMI12-3a" transform="translate(45.690477 0) scale(0.996264)"/>
       <use xlink:href="#CMR17-35" transform="translate(72.787654 0) scale(0.996264)"/>
      </g>
     </g>
    </g>
    <g id="ytick_9">
     <g id="line2d_31">
      <path d="M 108 72.640719 
L 777.6 72.640719 
" clip-path="url(#pdda398b532)" style="fill: none; stroke: #b0b0b0; stroke-width: 0.8; stroke-linecap: square"/>
     </g>
     <g id="line2d_32">
      <g>
       <use xlink:href="#md275becffe" x="108" y="72.640719" style="stroke: #000000; stroke-width: 0.8"/>
      </g>
     </g>
     <g id="text_17">
      <!-- $\mathdefault{2.0}$ -->
      <g transform="translate(82.302948 77.829582) scale(0.15 -0.15)">
       <use xlink:href="#CMR17-32" transform="scale(0.996264)"/>
       <use xlink:href="#CMMI12-3a" transform="translate(45.690477 0) scale(0.996264)"/>
       <use xlink:href="#CMR17-30" transform="translate(72.787654 0) scale(0.996264)"/>
      </g>
     </g>
    </g>
    <g id="text_18">
     <!-- Strom $I$ in A -->
     <g transform="translate(63.774088 294.595387) rotate(-90) scale(0.15 -0.15)">
      <defs>
       <path id="CMSS17-53" d="M 2797 4169 
C 2515 4334 2208 4480 1690 4480 
C 864 4480 333 3879 333 3266 
C 333 3025 403 2753 653 2475 
C 902 2196 1184 2121 1542 2033 
C 1690 1994 1939 1924 1984 1906 
C 2342 1767 2515 1444 2515 1140 
C 2515 742 2202 318 1645 318 
C 1453 318 890 318 358 819 
L 269 318 
C 794 -64 1363 -128 1651 -128 
C 2438 -128 3002 488 3002 1186 
C 3002 1440 2925 1763 2656 2061 
C 2394 2347 2163 2410 1638 2549 
C 1338 2626 1146 2677 986 2873 
C 877 3013 819 3146 819 3317 
C 819 3673 1126 4060 1690 4060 
C 1971 4060 2336 4002 2707 3660 
L 2797 4169 
z
" transform="scale(0.015625)"/>
       <path id="CMSS17-72" d="M 954 1363 
C 954 1965 1395 2368 1958 2368 
L 1958 2789 
C 1549 2789 1165 2585 934 2253 
L 934 2758 
L 480 2758 
L 480 0 
L 954 0 
L 954 1363 
z
" transform="scale(0.015625)"/>
       <path id="CMSS17-6f" d="M 2829 1356 
C 2829 2176 2221 2816 1504 2816 
C 768 2816 173 2157 173 1356 
C 173 544 787 -64 1498 -64 
C 2227 -64 2829 563 2829 1356 
z
M 1504 337 
C 1050 337 659 709 659 1408 
C 659 2151 1114 2427 1498 2427 
C 1914 2427 2342 2126 2342 1408 
C 2342 683 1926 337 1504 337 
z
" transform="scale(0.015625)"/>
       <path id="CMSS17-6d" d="M 4288 1877 
C 4288 2308 4179 2816 3462 2816 
C 2982 2816 2694 2516 2566 2331 
C 2451 2670 2182 2816 1798 2816 
C 1363 2816 1088 2568 941 2389 
L 941 2758 
L 474 2758 
L 474 0 
L 960 0 
L 960 1559 
C 960 1939 1101 2428 1555 2428 
C 2138 2428 2138 2016 2138 1829 
L 2138 0 
L 2624 0 
L 2624 1559 
C 2624 1939 2765 2428 3219 2428 
C 3802 2428 3802 2016 3802 1829 
L 3802 0 
L 4288 0 
L 4288 1877 
z
" transform="scale(0.015625)"/>
       <path id="CMMI12-49" d="M 2355 3880 
C 2413 4103 2426 4167 2893 4167 
C 3034 4167 3085 4167 3085 4288 
C 3085 4352 3014 4352 2995 4352 
C 2880 4352 2739 4352 2624 4352 
L 1837 4352 
C 1709 4352 1562 4352 1434 4352 
C 1382 4352 1312 4352 1312 4231 
C 1312 4167 1363 4167 1491 4167 
C 1888 4167 1888 4116 1888 4046 
C 1888 4002 1875 3963 1862 3906 
L 998 472 
C 941 249 928 185 461 185 
C 320 185 262 185 262 64 
C 262 0 326 0 358 0 
C 474 0 614 0 730 0 
L 1517 0 
C 1645 0 1786 0 1914 0 
C 1965 0 2042 0 2042 115 
C 2042 185 2003 185 1862 185 
C 1466 185 1466 236 1466 312 
C 1466 325 1466 357 1491 459 
L 2355 3880 
z
" transform="scale(0.015625)"/>
       <path id="CMSS17-41" d="M 2272 4416 
L 1722 4416 
L 166 0 
L 653 0 
L 1101 1280 
L 2816 1280 
L 3270 0 
L 3827 0 
L 2272 4416 
z
M 2694 1637 
L 1222 1637 
C 1530 2528 1914 3638 1958 3925 
L 1965 3925 
C 2010 3663 2138 3281 2246 2956 
L 2694 1637 
z
" transform="scale(0.015625)"/>
      </defs>
      <use xlink:href="#CMSS17-53" transform="scale(0.996264)"/>
      <use xlink:href="#CMSS17-74" transform="translate(52.048516 0) scale(0.996264)"/>
      <use xlink:href="#CMSS17-72" transform="translate(85.880083 0) scale(0.996264)"/>
      <use xlink:href="#CMSS17-6f" transform="translate(117.789855 0) scale(0.996264)"/>
      <use xlink:href="#CMSS17-6d" transform="translate(164.633479 0) scale(0.996264)"/>
      <use xlink:href="#CMMI12-49" transform="translate(270.091846 0) scale(0.996264)"/>
      <use xlink:href="#CMSS17-69" transform="translate(352.177473 0) scale(0.996264)"/>
      <use xlink:href="#CMSS17-6e" transform="translate(374.358196 0) scale(0.996264)"/>
      <use xlink:href="#CMSS17-41" transform="translate(453.792252 0) scale(0.996264)"/>
     </g>
    </g>
   </g>
   <g id="line2d_33">
    <path d="M 138.436364 254.585955 
L 747.163636 254.585955 
L 747.163636 254.585955 
" clip-path="url(#pdda398b532)" style="fill: none; stroke: #ff0000; stroke-width: 2; stroke-linecap: square"/>
   </g>
   <g id="line2d_34">
    <path d="M 138.436364 254.585955 
L 155.951674 254.585957 
L 156.794657 93.040419 
L 156.888321 78.12 
L 158.667952 185.980138 
L 159.604599 229.805287 
L 160.447582 259.641322 
L 161.1969 279.340423 
L 161.946218 293.596924 
L 162.695536 303.728272 
L 163.35119 310.042681 
L 164.100508 315.286798 
L 164.943491 319.591986 
L 165.31815 320.869423 
L 166.067468 329.687399 
L 166.254797 331.510854 
L 167.004115 352.515249 
L 167.472439 361.111252 
L 168.034428 367.704038 
L 168.315422 369.336996 
L 168.596416 370.004735 
L 168.877411 370.278563 
L 169.06474 370.25491 
L 169.626729 367.472057 
L 170.188717 363.557506 
L 171.125365 354.050867 
L 174.497296 314.308114 
L 176.183262 298.062861 
L 178.150222 283.09086 
L 180.210846 271.399332 
L 181.803147 263.32715 
L 182.83346 259.617387 
L 183.863772 256.951316 
L 184.519425 255.967793 
L 185.175079 255.411706 
L 185.830732 255.080693 
L 187.329368 254.718481 
L 189.389993 254.59195 
L 215.054137 254.585907 
L 698.738956 254.585954 
L 699.581938 416.059623 
L 699.675603 430.92 
L 701.361569 328.200634 
L 702.298217 283.190112 
L 703.141199 252.179902 
L 703.984182 229.443853 
L 704.7335 214.94964 
L 705.389154 205.823631 
L 706.138472 198.394352 
L 706.794125 193.749563 
L 707.637108 189.487314 
L 708.199096 186.54617 
L 709.135744 174.000227 
L 709.885062 153.694593 
L 710.259721 147.363808 
L 710.82171 140.791946 
L 711.009039 139.597476 
L 711.383698 138.561298 
L 711.571028 138.433026 
L 711.758357 138.511263 
L 711.852022 138.571305 
L 712.507675 142.133792 
L 712.975999 145.705377 
L 714.474635 161.553717 
L 715.598612 175.138294 
L 717.003584 191.943757 
L 718.31489 205.11732 
L 720.094521 219.944128 
L 721.874151 231.593263 
L 725.339747 248.489534 
L 726.089065 250.676189 
L 727.119378 252.89693 
L 727.681366 253.526097 
L 728.524349 254.062624 
L 729.741991 254.396942 
L 730.959633 254.534925 
L 733.582246 254.597701 
L 739.295797 254.592915 
L 747.163636 254.586901 
L 747.163636 254.586901 
" clip-path="url(#pdda398b532)" style="fill: none; stroke-dasharray: 7.4,3.2; stroke-dashoffset: 0; stroke: #008000; stroke-width: 2"/>
   </g>
   <g id="patch_3">
    <path d="M 108 448.56 
L 108 60.48 
" style="fill: none; stroke: #000000; stroke-width: 0.8; stroke-linejoin: miter; stroke-linecap: square"/>
   </g>
   <g id="patch_4">
    <path d="M 777.6 448.56 
L 777.6 60.48 
" style="fill: none; stroke: #000000; stroke-width: 0.8; stroke-linejoin: miter; stroke-linecap: square"/>
   </g>
   <g id="patch_5">
    <path d="M 108 448.56 
L 777.6 448.56 
" style="fill: none; stroke: #000000; stroke-width: 0.8; stroke-linejoin: miter; stroke-linecap: square"/>
   </g>
   <g id="patch_6">
    <path d="M 108 60.48 
L 777.6 60.48 
" style="fill: none; stroke: #000000; stroke-width: 0.8; stroke-linejoin: miter; stroke-linecap: square"/>
   </g>
   <g id="text_19">
    <!-- \textbf{allgemein quadratische Stromverlauf - offener Regelkreis} -->
    <g transform="translate(249.469904 54.48) scale(0.15 -0.15)">
     <defs>
      <path id="CMSSBX10-61" d="M 2970 2050 
C 2970 3072 1997 3072 1677 3072 
C 1376 3072 1056 3046 627 2868 
C 493 2811 461 2792 461 2722 
C 461 2677 499 2300 506 2248 
C 512 2209 544 2177 589 2177 
C 621 2177 640 2196 659 2216 
C 934 2508 1254 2651 1651 2651 
C 1997 2651 2099 2435 2099 2049 
L 2099 1820 
C 1875 1820 198 1820 198 868 
C 198 415 557 -64 1120 -64 
C 1338 -64 1818 1 2118 447 
L 2118 317 
C 2118 110 2163 7 2426 7 
L 2662 7 
C 2906 7 2970 91 2970 317 
L 2970 2050 
z
M 2099 988 
C 2099 402 1491 402 1472 402 
C 1203 402 1030 639 1030 889 
C 1030 1536 1920 1536 2099 1536 
L 2099 988 
z
" transform="scale(0.015625)"/>
      <path id="CMSSBX10-6c" d="M 1242 4170 
C 1242 4377 1197 4480 934 4480 
L 698 4480 
C 467 4480 390 4409 390 4170 
L 390 302 
C 390 70 461 -8 698 -8 
L 934 -8 
C 1178 -8 1242 76 1242 302 
L 1242 4170 
z
" transform="scale(0.015625)"/>
      <path id="CMSSBX10-67" d="M 1280 577 
C 1050 577 960 577 870 656 
C 845 681 736 779 736 949 
C 736 994 742 1007 749 1046 
C 1050 878 1427 878 1562 878 
C 1830 878 2848 878 2848 1950 
C 2848 2326 2707 2553 2650 2624 
C 2758 2624 2982 2624 3245 2553 
C 3270 2540 3315 2527 3334 2527 
C 3386 2527 3418 2566 3418 2611 
C 3418 2637 3386 2792 3373 2857 
C 3347 3012 3347 3025 3232 3025 
C 3034 3025 2714 2948 2470 2799 
C 2170 2999 1837 3025 1562 3025 
C 1293 3025 275 3025 275 1954 
C 275 1694 346 1370 589 1156 
C 416 915 416 663 416 630 
C 416 507 454 293 589 118 
C 493 79 160 -37 160 -451 
C 160 -652 256 -988 659 -1176 
C 1024 -1344 1453 -1344 1754 -1344 
C 2131 -1344 3354 -1344 3354 -429 
C 3354 577 2451 577 1587 577 
L 1280 577 
z
M 1562 1344 
C 1114 1344 1094 1591 1094 1949 
C 1094 2306 1114 2560 1562 2560 
C 2010 2560 2029 2313 2029 1955 
C 2029 1597 2010 1344 1562 1344 
z
M 1907 -128 
C 2426 -128 2694 -217 2694 -448 
C 2694 -879 1965 -879 1760 -879 
C 1504 -879 819 -879 819 -430 
C 819 -128 1018 -128 1165 -128 
L 1907 -128 
z
" transform="scale(0.015625)"/>
      <path id="CMSSBX10-65" d="M 2758 1385 
C 2906 1385 3066 1385 3066 1678 
C 3066 2514 2682 3072 1728 3072 
C 704 3072 198 2491 198 1510 
C 198 452 806 -64 1811 -64 
C 2054 -64 2419 -32 2842 182 
C 2982 253 3027 272 3027 350 
C 3027 395 3008 582 3002 633 
C 2976 833 2970 839 2912 839 
C 2886 839 2874 839 2803 775 
C 2426 447 2042 402 1837 402 
C 1114 402 1037 974 1018 1385 
L 2758 1385 
z
M 1024 1728 
C 1043 2122 1171 2606 1728 2606 
C 2240 2606 2336 2231 2355 1728 
L 1024 1728 
z
" transform="scale(0.015625)"/>
      <path id="CMSSBX10-6d" d="M 5158 2096 
C 5158 2761 4877 3025 4224 3025 
C 3770 3025 3418 2812 3187 2386 
C 3085 3012 2541 3012 2272 3012 
C 2150 3012 1882 3012 1594 2803 
C 1395 2658 1267 2455 1222 2360 
L 1216 2360 
L 1216 2687 
C 1216 2896 1171 3001 909 3001 
L 691 3001 
C 461 3001 384 2930 384 2690 
L 384 310 
C 384 78 454 0 691 0 
L 947 0 
C 1190 0 1254 84 1254 309 
L 1254 1735 
C 1254 2315 1645 2560 1958 2560 
C 2266 2560 2336 2424 2336 2082 
L 2336 309 
C 2336 78 2406 0 2643 0 
L 2899 0 
C 3142 0 3206 84 3206 309 
L 3206 1735 
C 3206 2315 3597 2560 3910 2560 
C 4218 2560 4288 2424 4288 2082 
L 4288 309 
C 4288 78 4358 0 4595 0 
L 4851 0 
C 5094 0 5158 84 5158 309 
L 5158 2096 
z
" transform="scale(0.015625)"/>
      <path id="CMSSBX10-69" d="M 653 4480 
C 448 4480 346 4441 346 4182 
L 346 3885 
C 346 3678 410 3594 646 3594 
L 979 3594 
C 1286 3594 1286 3730 1286 4034 
C 1286 4344 1286 4480 979 4480 
L 653 4480 
z
M 1242 2634 
C 1242 2841 1197 2944 934 2944 
L 698 2944 
C 467 2944 390 2873 390 2634 
L 390 292 
C 390 60 461 -18 698 -18 
L 934 -18 
C 1178 -18 1242 66 1242 292 
L 1242 2634 
z
" transform="scale(0.015625)"/>
      <path id="CMSSBX10-6e" d="M 3200 2096 
C 3200 2761 2918 3025 2266 3025 
C 1594 3025 1306 2535 1222 2360 
L 1216 2360 
L 1216 2687 
C 1216 2896 1171 3001 909 3001 
L 691 3001 
C 461 3001 384 2930 384 2690 
L 384 310 
C 384 78 454 0 691 0 
L 947 0 
C 1190 0 1254 84 1254 309 
L 1254 1735 
C 1254 2295 1626 2560 1958 2560 
C 2266 2560 2330 2411 2330 2082 
L 2330 309 
C 2330 103 2374 0 2637 0 
L 2893 0 
C 3136 0 3200 84 3200 309 
L 3200 2096 
z
" transform="scale(0.015625)"/>
      <path id="CMSSBX10-71" d="M 3194 2698 
C 3194 2905 3149 3008 2886 3008 
L 2650 3008 
C 2406 3008 2342 2924 2342 2698 
L 2342 2575 
C 2061 3008 1683 3008 1574 3008 
C 339 3008 237 1972 237 1457 
C 237 954 339 -82 1530 -82 
C 1869 -82 2106 47 2323 300 
L 2323 -966 
C 2323 -1175 2368 -1280 2630 -1280 
L 2886 -1280 
C 3130 -1280 3194 -1196 3194 -969 
L 3194 2698 
z
M 2342 731 
C 2227 570 2054 384 1760 384 
C 1107 384 1107 1200 1107 1450 
C 1107 1707 1107 2504 1824 2504 
C 1926 2504 2061 2478 2176 2356 
C 2342 2195 2342 2080 2342 2002 
L 2342 731 
z
" transform="scale(0.015625)"/>
      <path id="CMSSBX10-75" d="M 3200 2652 
C 3200 2859 3155 2962 2893 2962 
L 2637 2962 
C 2394 2962 2330 2878 2330 2653 
L 2330 1124 
C 2330 698 2106 330 1651 330 
C 1293 330 1254 421 1254 763 
L 1254 2653 
C 1254 2859 1210 2962 947 2962 
L 691 2962 
C 461 2962 384 2891 384 2653 
L 384 820 
C 384 130 755 -64 1421 -64 
C 1594 -64 2048 -64 2349 485 
L 2349 314 
C 2349 104 2394 0 2656 0 
L 2893 0 
C 3136 0 3200 84 3200 310 
L 3200 2652 
z
" transform="scale(0.015625)"/>
      <path id="CMSSBX10-64" d="M 3194 4170 
C 3194 4377 3149 4480 2886 4480 
L 2650 4480 
C 2406 4480 2342 4396 2342 4170 
L 2342 2702 
C 2054 2980 1734 3025 1536 3025 
C 237 3025 237 1782 237 1465 
C 237 1167 237 -82 1504 -82 
C 1773 -82 2048 -5 2323 294 
C 2323 57 2413 -8 2630 -8 
L 2886 -8 
C 3130 -8 3194 76 3194 302 
L 3194 4170 
z
M 2323 798 
C 2323 687 2323 629 2138 500 
C 1978 396 1830 384 1754 384 
C 1107 384 1107 980 1107 1465 
C 1107 1951 1107 2560 1824 2560 
C 2010 2560 2182 2495 2323 2359 
L 2323 798 
z
" transform="scale(0.015625)"/>
      <path id="CMSSBX10-72" d="M 1242 1496 
C 1242 2115 1747 2368 2150 2368 
C 2266 2368 2278 2368 2278 2555 
L 2278 2860 
C 2278 2989 2278 3034 2163 3034 
C 1984 3034 1517 2970 1216 2271 
L 1210 2271 
L 1210 2690 
C 1210 2897 1165 3001 902 3001 
L 698 3001 
C 467 3001 390 2930 390 2690 
L 390 310 
C 390 78 461 0 698 0 
L 934 0 
C 1178 0 1242 84 1242 312 
L 1242 1496 
z
" transform="scale(0.015625)"/>
      <path id="CMSSBX10-74" d="M 1395 2496 
L 1965 2496 
C 2042 2496 2272 2496 2272 2729 
C 2272 2962 2042 2962 1965 2962 
L 1395 2962 
L 1395 3498 
C 1395 3705 1350 3808 1088 3808 
L 890 3808 
C 659 3808 582 3737 582 3498 
L 582 2962 
L 435 2962 
C 365 2962 128 2962 128 2729 
C 128 2496 358 2496 435 2496 
L 563 2496 
L 563 864 
C 563 213 794 -64 1235 -64 
C 1293 -64 1574 -64 1907 39 
C 2016 72 2387 188 2387 311 
C 2387 330 2374 376 2336 510 
C 2304 639 2291 678 2234 678 
C 2202 678 2195 671 2157 632 
C 2086 582 1914 440 1645 440 
C 1491 440 1395 550 1395 975 
L 1395 2496 
z
" transform="scale(0.015625)"/>
      <path id="CMSSBX10-73" d="M 2534 902 
C 2534 1267 2342 1496 2227 1600 
C 1971 1836 1747 1875 1478 1927 
C 1126 1992 870 2045 870 2299 
C 870 2566 1082 2619 1331 2619 
C 1760 2619 1990 2456 2157 2313 
C 2221 2248 2234 2248 2259 2248 
C 2323 2248 2336 2306 2342 2332 
C 2355 2384 2419 2747 2419 2779 
C 2419 2884 2080 2975 2010 3000 
C 1754 3072 1549 3072 1382 3072 
C 1094 3072 237 3072 237 2145 
C 237 1827 378 1633 550 1477 
C 774 1270 1024 1225 1389 1154 
C 1574 1121 1901 1062 1901 778 
C 1901 473 1651 427 1402 427 
C 1120 427 762 512 461 877 
C 429 909 410 928 371 928 
C 307 928 294 871 288 832 
C 275 743 198 378 198 313 
C 198 198 672 51 678 45 
C 1030 -64 1293 -64 1402 -64 
C 1728 -64 2534 -64 2534 902 
z
" transform="scale(0.015625)"/>
      <path id="CMSSBX10-63" d="M 2925 330 
C 2925 402 2899 698 2886 782 
C 2886 801 2874 866 2810 866 
C 2784 866 2771 866 2707 801 
C 2598 704 2298 440 1773 440 
C 1107 440 1107 1092 1107 1503 
C 1107 2026 1139 2568 1792 2568 
C 2208 2568 2381 2464 2611 2271 
C 2688 2200 2701 2200 2726 2200 
C 2790 2200 2803 2258 2810 2284 
C 2822 2336 2886 2697 2886 2729 
C 2886 2787 2842 2813 2733 2865 
C 2426 3007 2234 3072 1786 3072 
C 832 3072 237 2620 237 1491 
C 237 420 787 -64 1754 -64 
C 1926 -64 2310 -64 2739 159 
C 2918 258 2925 265 2925 330 
z
" transform="scale(0.015625)"/>
      <path id="CMSSBX10-68" d="M 3200 2094 
C 3200 2760 2918 3025 2266 3025 
C 1626 3025 1331 2579 1242 2398 
L 1235 2398 
L 1235 4170 
C 1235 4377 1190 4480 928 4480 
L 691 4480 
C 461 4480 384 4409 384 4170 
L 384 302 
C 384 70 454 -8 691 -8 
L 947 -8 
C 1190 -8 1254 76 1254 302 
L 1254 1732 
C 1254 2294 1626 2560 1958 2560 
C 2266 2560 2330 2411 2330 2081 
L 2330 302 
C 2330 95 2374 -8 2637 -8 
L 2893 -8 
C 3136 -8 3200 76 3200 302 
L 3200 2094 
z
" transform="scale(0.015625)"/>
      <path id="CMSSBX10-53" d="M 1728 2867 
C 1587 2899 1190 3049 1190 3418 
C 1190 3968 1734 3968 1952 3968 
C 2310 3968 2630 3884 2944 3574 
C 3046 3477 3053 3471 3078 3471 
C 3117 3471 3149 3490 3168 3587 
L 3264 4152 
C 3277 4203 3277 4216 3277 4236 
C 3277 4288 3270 4295 3110 4380 
C 2656 4608 2278 4641 1952 4641 
C 1382 4641 390 4505 390 3290 
C 390 2829 627 2531 749 2401 
C 1075 2063 1376 1998 1875 1882 
C 2234 1798 2374 1765 2515 1635 
C 2579 1571 2714 1434 2714 1187 
C 2714 577 2163 577 1952 577 
C 1414 577 947 795 627 1083 
C 550 1159 538 1159 512 1159 
C 474 1159 442 1140 422 1042 
L 326 476 
C 314 424 314 411 314 392 
C 314 255 979 21 1011 8 
C 1440 -128 1786 -128 1952 -128 
C 2912 -128 3514 305 3514 1308 
C 3514 2033 2982 2576 2342 2725 
L 1728 2867 
z
" transform="scale(0.015625)"/>
      <path id="CMSSBX10-6f" d="M 3315 1459 
C 3315 2517 2803 3072 1760 3072 
C 691 3072 198 2497 198 1459 
C 198 407 749 -64 1754 -64 
C 2758 -64 3315 401 3315 1459 
z
M 1760 440 
C 1069 440 1069 1020 1069 1536 
C 1069 2033 1069 2606 1754 2606 
C 2445 2606 2445 2039 2445 1536 
C 2445 1027 2445 440 1760 440 
z
" transform="scale(0.015625)"/>
      <path id="CMSSBX10-76" d="M 2995 2671 
C 3027 2762 3027 2775 3027 2794 
C 3027 2976 2867 2976 2771 2976 
L 2637 2976 
C 2368 2976 2298 2879 2240 2697 
L 1606 734 
L 973 2697 
C 928 2833 883 2976 576 2976 
L 422 2976 
C 326 2976 166 2976 166 2794 
C 166 2775 166 2762 198 2670 
L 960 273 
C 1050 0 1248 0 1363 0 
L 1830 0 
C 1946 0 2144 0 2234 273 
L 2995 2671 
z
" transform="scale(0.015625)"/>
      <path id="CMSSBX10-66" d="M 1402 2496 
L 1709 2496 
C 1786 2496 2016 2496 2016 2729 
C 2016 2962 1786 2962 1709 2962 
L 1382 2962 
L 1382 3668 
C 1382 3837 1382 4096 1798 4096 
C 2003 4096 2131 4038 2259 3915 
C 2304 3863 2323 3850 2355 3850 
C 2438 3850 2438 3915 2438 4018 
L 2438 4316 
C 2438 4471 2432 4477 2214 4523 
C 2029 4561 1894 4561 1798 4561 
C 1318 4561 550 4452 550 3480 
L 550 2962 
C 416 2962 192 2962 192 2729 
C 192 2496 410 2496 550 2496 
L 550 310 
C 550 78 621 0 858 0 
L 1094 0 
C 1338 0 1402 84 1402 310 
L 1402 2496 
z
" transform="scale(0.015625)"/>
      <path id="CMSSBX10-2d" d="M 1645 1280 
C 1722 1280 1952 1280 1952 1513 
C 1952 1746 1722 1746 1645 1746 
L 384 1746 
C 307 1746 77 1746 77 1513 
C 77 1280 307 1280 384 1280 
L 1645 1280 
z
" transform="scale(0.015625)"/>
      <path id="CMSSBX10-b" d="M 1402 2496 
L 1715 2496 
C 1792 2496 2022 2496 2022 2729 
C 2022 2962 1792 2962 1715 2962 
L 1382 2962 
L 1382 3668 
C 1382 3837 1382 4096 1805 4096 
C 2010 4096 2138 4038 2266 3915 
C 2310 3863 2330 3850 2362 3850 
C 2445 3850 2445 3915 2445 4018 
L 2445 4316 
C 2445 4471 2438 4477 2221 4523 
C 2035 4561 1901 4561 1805 4561 
C 1261 4561 550 4413 550 3480 
L 550 2962 
C 416 2962 192 2962 192 2729 
C 192 2496 410 2496 550 2496 
L 550 310 
C 550 78 621 0 858 0 
L 1094 0 
C 1338 0 1402 84 1402 310 
L 1402 2496 
z
M 3354 2496 
L 3667 2496 
C 3744 2496 3974 2496 3974 2729 
C 3974 2962 3744 2962 3667 2962 
L 3334 2962 
L 3334 3668 
C 3334 3837 3334 4096 3757 4096 
C 3962 4096 4090 4038 4218 3915 
C 4262 3863 4282 3850 4314 3850 
C 4397 3850 4397 3915 4397 4018 
L 4397 4316 
C 4397 4471 4390 4477 4173 4523 
C 3987 4561 3853 4561 3757 4561 
C 3213 4561 2502 4413 2502 3481 
L 2502 310 
C 2502 103 2547 0 2810 0 
L 3046 0 
C 3290 0 3354 84 3354 310 
L 3354 2496 
z
" transform="scale(0.015625)"/>
      <path id="CMSSBX10-52" d="M 3091 2059 
C 3494 2156 4102 2402 4102 3205 
C 4102 4480 2714 4480 2426 4480 
L 890 4480 
C 659 4480 582 4409 582 4170 
L 582 298 
C 582 66 653 -12 890 -12 
L 1197 -12 
C 1440 -12 1504 71 1504 296 
L 1504 1984 
L 2214 1984 
L 3264 142 
C 3354 -12 3424 -12 3565 -12 
L 3942 -12 
C 4070 -12 4179 -12 4179 181 
L 3091 2059 
z
M 1504 2450 
L 1504 3924 
L 2336 3924 
C 3078 3924 3213 3623 3213 3191 
C 3213 2804 3123 2450 2336 2450 
L 1504 2450 
z
" transform="scale(0.015625)"/>
      <path id="CMSSBX10-6b" d="M 2003 1751 
L 2989 2676 
C 3066 2747 3085 2766 3085 2818 
C 3085 2954 2957 2954 2867 2954 
L 2496 2954 
C 2381 2954 2259 2954 2112 2818 
L 1190 1952 
L 1190 4170 
C 1190 4377 1146 4480 883 4480 
L 749 4480 
C 518 4480 442 4409 442 4170 
L 442 302 
C 442 70 512 -8 749 -8 
L 864 -8 
C 1107 -8 1171 76 1171 302 
L 1171 975 
L 1472 1253 
L 2304 154 
C 2413 11 2458 -8 2643 -8 
L 2950 -8 
C 3040 -8 3181 -8 3181 134 
C 3181 147 3181 192 3117 277 
L 2003 1751 
z
" transform="scale(0.015625)"/>
     </defs>
     <use xlink:href="#CMSSBX10-61" transform="scale(0.996264)"/>
     <use xlink:href="#CMSSBX10-6c" transform="translate(52.304195 0) scale(0.996264)"/>
     <use xlink:href="#CMSSBX10-6c" transform="translate(77.764414 0) scale(0.996264)"/>
     <use xlink:href="#CMSSBX10-67" transform="translate(103.224632 0) scale(0.996264)"/>
     <use xlink:href="#CMSSBX10-65" transform="translate(158.019457 0) scale(0.996264)"/>
     <use xlink:href="#CMSSBX10-6d" transform="translate(208.93991 0) scale(0.996264)"/>
     <use xlink:href="#CMSSBX10-65" transform="translate(295.283267 0) scale(0.996264)"/>
     <use xlink:href="#CMSSBX10-69" transform="translate(346.20372 0) scale(0.996264)"/>
     <use xlink:href="#CMSSBX10-6e" transform="translate(371.663938 0) scale(0.996264)"/>
     <use xlink:href="#CMSSBX10-71" transform="translate(464.095609 0) scale(0.996264)"/>
     <use xlink:href="#CMSSBX10-75" transform="translate(519.997397 0) scale(0.996264)"/>
     <use xlink:href="#CMSSBX10-61" transform="translate(575.899185 0) scale(0.996264)"/>
     <use xlink:href="#CMSSBX10-64" transform="translate(628.20338 0) scale(0.996264)"/>
     <use xlink:href="#CMSSBX10-72" transform="translate(684.105168 0) scale(0.996264)"/>
     <use xlink:href="#CMSSBX10-61" transform="translate(721.188579 0) scale(0.996264)"/>
     <use xlink:href="#CMSSBX10-74" transform="translate(773.492774 0) scale(0.996264)"/>
     <use xlink:href="#CMSSBX10-69" transform="translate(813.758677 0) scale(0.996264)"/>
     <use xlink:href="#CMSSBX10-73" transform="translate(839.218896 0) scale(0.996264)"/>
     <use xlink:href="#CMSSBX10-63" transform="translate(881.228261 0) scale(0.996264)"/>
     <use xlink:href="#CMSSBX10-68" transform="translate(929.934772 0) scale(0.996264)"/>
     <use xlink:href="#CMSSBX10-65" transform="translate(985.83656 0) scale(0.996264)"/>
     <use xlink:href="#CMSSBX10-53" transform="translate(1073.286896 0) scale(0.996264)"/>
     <use xlink:href="#CMSSBX10-74" transform="translate(1134.170034 0) scale(0.996264)"/>
     <use xlink:href="#CMSSBX10-72" transform="translate(1174.435938 0) scale(0.996264)"/>
     <use xlink:href="#CMSSBX10-6f" transform="translate(1211.519348 0) scale(0.996264)"/>
     <use xlink:href="#CMSSBX10-6d" transform="translate(1266.314173 0) scale(0.996264)"/>
     <use xlink:href="#CMSSBX10-76" transform="translate(1352.65753 0) scale(0.996264)"/>
     <use xlink:href="#CMSSBX10-65" transform="translate(1402.471004 0) scale(0.996264)"/>
     <use xlink:href="#CMSSBX10-72" transform="translate(1453.391457 0) scale(0.996264)"/>
     <use xlink:href="#CMSSBX10-6c" transform="translate(1490.474867 0) scale(0.996264)"/>
     <use xlink:href="#CMSSBX10-61" transform="translate(1515.935086 0) scale(0.996264)"/>
     <use xlink:href="#CMSSBX10-75" transform="translate(1568.239281 0) scale(0.996264)"/>
     <use xlink:href="#CMSSBX10-66" transform="translate(1624.141069 0) scale(0.996264)"/>
     <use xlink:href="#CMSSBX10-2d" transform="translate(1694.156678 0) scale(0.996264)"/>
     <use xlink:href="#CMSSBX10-6f" transform="translate(1767.216444 0) scale(0.996264)"/>
     <use xlink:href="#CMSSBX10-b" transform="translate(1822.011269 0) scale(0.996264)"/>
     <use xlink:href="#CMSSBX10-65" transform="translate(1885.938564 0) scale(0.996264)"/>
     <use xlink:href="#CMSSBX10-6e" transform="translate(1936.859017 0) scale(0.996264)"/>
     <use xlink:href="#CMSSBX10-65" transform="translate(1992.760805 0) scale(0.996264)"/>
     <use xlink:href="#CMSSBX10-72" transform="translate(2043.681258 0) scale(0.996264)"/>
     <use xlink:href="#CMSSBX10-52" transform="translate(2117.294551 0) scale(0.996264)"/>
     <use xlink:href="#CMSSBX10-65" transform="translate(2187.31016 0) scale(0.996264)"/>
     <use xlink:href="#CMSSBX10-67" transform="translate(2238.230613 0) scale(0.996264)"/>
     <use xlink:href="#CMSSBX10-65" transform="translate(2293.025437 0) scale(0.996264)"/>
     <use xlink:href="#CMSSBX10-6c" transform="translate(2343.94589 0) scale(0.996264)"/>
     <use xlink:href="#CMSSBX10-6b" transform="translate(2369.406109 0) scale(0.996264)"/>
     <use xlink:href="#CMSSBX10-72" transform="translate(2422.26374 0) scale(0.996264)"/>
     <use xlink:href="#CMSSBX10-65" transform="translate(2459.34715 0) scale(0.996264)"/>
     <use xlink:href="#CMSSBX10-69" transform="translate(2510.267603 0) scale(0.996264)"/>
     <use xlink:href="#CMSSBX10-73" transform="translate(2535.727822 0) scale(0.996264)"/>
    </g>
   </g>
   <g id="legend_1">
    <g id="patch_7">
     <path d="M 533.746978 114.291489 
L 767.1 114.291489 
Q 770.1 114.291489 770.1 111.291489 
L 770.1 70.98 
Q 770.1 67.98 767.1 67.98 
L 533.746978 67.98 
Q 530.746978 67.98 530.746978 70.98 
L 530.746978 111.291489 
Q 530.746978 114.291489 533.746978 114.291489 
z
" style="fill: #ffffff; opacity: 0.8; stroke: #cccccc; stroke-linejoin: miter"/>
    </g>
    <g id="line2d_35">
     <path d="M 536.746978 79.23 
L 551.746978 79.23 
L 566.746978 79.23 
" style="fill: none; stroke: #ff0000; stroke-width: 2; stroke-linecap: square"/>
    </g>
    <g id="text_20">
     <!-- Referenzwert der Vorbereitung -->
     <g transform="translate(578.746978 84.48) scale(0.15 -0.15)">
      <defs>
       <path id="CMSS17-52" d="M 2522 2109 
L 2534 2115 
C 3533 2459 3539 3147 3539 3268 
C 3539 3873 2925 4453 2003 4453 
L 570 4453 
L 570 32 
L 1094 32 
L 1094 2048 
L 2035 2048 
L 3168 32 
L 3706 32 
L 2522 2109 
z
M 1094 2437 
L 1094 4096 
L 1933 4096 
C 2746 4096 3034 3637 3034 3267 
C 3034 2922 2778 2437 1933 2437 
L 1094 2437 
z
" transform="scale(0.015625)"/>
       <path id="CMSS17-66" d="M 1075 2368 
L 1722 2368 
L 1722 2737 
L 1062 2737 
L 1062 3559 
C 1062 4014 1408 4092 1606 4092 
C 1670 4092 1850 4092 2080 4009 
L 2080 4429 
C 1933 4461 1754 4480 1613 4480 
C 1018 4480 602 3993 602 3359 
L 602 2737 
L 160 2737 
L 160 2368 
L 602 2368 
L 602 0 
L 1075 0 
L 1075 2368 
z
" transform="scale(0.015625)"/>
       <path id="CMSS17-7a" d="M 2400 2502 
L 2400 2750 
L 250 2750 
L 250 2368 
L 1069 2368 
C 1146 2368 1222 2368 1299 2368 
L 1747 2368 
L 166 261 
L 166 0 
L 2419 0 
L 2419 395 
L 1549 395 
C 1472 395 1395 395 1318 395 
L 826 395 
L 2400 2502 
z
" transform="scale(0.015625)"/>
       <path id="CMSS17-77" d="M 4013 2752 
L 3526 2752 
L 3187 1601 
C 3117 1358 2918 685 2893 371 
L 2886 371 
C 2874 564 2765 1024 2586 1633 
L 2259 2752 
L 1818 2752 
L 1498 1658 
C 1338 1101 1216 627 1203 371 
L 1197 371 
C 1171 749 909 1633 870 1773 
L 582 2752 
L 83 2752 
L 915 0 
L 1402 0 
C 1734 1096 1990 1943 2010 2370 
C 2022 2160 2131 1707 2195 1484 
L 2618 0 
L 3181 0 
L 4013 2752 
z
" transform="scale(0.015625)"/>
       <path id="CMSS17-64" d="M 2611 4416 
L 2138 4416 
L 2138 2438 
C 1939 2603 1613 2756 1254 2756 
C 672 2756 211 2131 211 1347 
C 211 562 666 -64 1235 -64 
C 1677 -64 1971 172 2125 306 
L 2125 -13 
L 2611 -13 
L 2611 4416 
z
M 2125 836 
C 2125 747 2125 653 1926 482 
C 1798 375 1645 325 1498 325 
C 1152 325 698 576 698 1340 
C 698 2134 1210 2368 1562 2368 
C 1798 2368 1990 2254 2125 2065 
L 2125 836 
z
" transform="scale(0.015625)"/>
       <path id="CMSS17-56" d="M 3910 4416 
L 3411 4416 
L 2304 1362 
C 2272 1273 2074 688 2035 484 
L 2029 484 
C 1978 726 1773 1292 1664 1604 
L 922 3672 
L 646 4416 
L 83 4416 
L 1715 0 
L 2278 0 
L 3910 4416 
z
" transform="scale(0.015625)"/>
       <path id="CMSS17-62" d="M 954 4416 
L 480 4416 
L 480 -13 
L 966 -13 
L 966 274 
C 1210 38 1504 -64 1766 -64 
C 2381 -64 2880 549 2880 1352 
C 2880 2086 2496 2756 1926 2756 
C 1523 2756 1165 2591 954 2419 
L 954 4416 
z
M 966 2046 
C 1107 2222 1306 2368 1587 2368 
C 1965 2368 2394 2097 2394 1352 
C 2394 558 1882 325 1530 325 
C 1402 325 1267 356 1139 464 
C 966 615 966 709 966 797 
L 966 2046 
z
" transform="scale(0.015625)"/>
       <path id="CMSS17-75" d="M 2618 2739 
L 2131 2739 
L 2131 972 
C 2131 498 1786 306 1421 306 
C 998 306 960 447 960 709 
L 960 2739 
L 474 2739 
L 474 678 
C 474 179 646 -64 1088 -64 
C 1306 -64 1798 -13 2144 306 
L 2144 0 
L 2618 0 
L 2618 2739 
z
" transform="scale(0.015625)"/>
       <path id="CMSS17-67" d="M 2848 2808 
C 2483 2808 2170 2738 1914 2617 
C 1702 2777 1485 2808 1338 2808 
C 781 2808 358 2349 358 1814 
C 358 1468 550 1207 563 1195 
C 448 1035 384 863 384 672 
C 384 448 474 289 544 200 
C 211 -3 166 -314 166 -435 
C 166 -898 749 -1280 1498 -1280 
C 2253 -1280 2835 -898 2835 -428 
C 2835 448 1856 448 1587 448 
L 1069 448 
C 973 448 717 448 717 791 
C 717 921 774 1004 781 1010 
C 877 940 1075 832 1338 832 
C 1869 832 2310 1278 2310 1827 
C 2310 2132 2170 2355 2112 2432 
L 2131 2432 
C 2150 2432 2419 2432 2515 2432 
C 2720 2432 2739 2429 2918 2419 
L 2848 2808 
z
M 1338 1182 
C 1120 1182 813 1315 813 1823 
C 813 2375 1165 2464 1331 2464 
C 1549 2464 1856 2331 1856 1823 
C 1856 1271 1504 1182 1338 1182 
z
M 1581 -10 
C 1734 -10 2381 -10 2381 -442 
C 2381 -714 1984 -929 1504 -929 
C 1018 -929 621 -720 621 -435 
C 621 -403 621 -10 1062 -10 
L 1581 -10 
z
" transform="scale(0.015625)"/>
      </defs>
      <use xlink:href="#CMSS17-52" transform="scale(0.996264)"/>
      <use xlink:href="#CMSS17-65" transform="translate(60.416155 0) scale(0.996264)"/>
      <use xlink:href="#CMSS17-66" transform="translate(102.054977 0) scale(0.996264)"/>
      <use xlink:href="#CMSS17-65" transform="translate(130.681636 0) scale(0.996264)"/>
      <use xlink:href="#CMSS17-72" transform="translate(172.320458 0) scale(0.996264)"/>
      <use xlink:href="#CMSS17-65" transform="translate(204.23023 0) scale(0.996264)"/>
      <use xlink:href="#CMSS17-6e" transform="translate(245.869052 0) scale(0.996264)"/>
      <use xlink:href="#CMSS17-7a" transform="translate(294.073996 0) scale(0.996264)"/>
      <use xlink:href="#CMSS17-77" transform="translate(334.751867 0) scale(0.996264)"/>
      <use xlink:href="#CMSS17-65" transform="translate(395.968959 0) scale(0.996264)"/>
      <use xlink:href="#CMSS17-72" transform="translate(437.607781 0) scale(0.996264)"/>
      <use xlink:href="#CMSS17-74" transform="translate(469.517553 0) scale(0.996264)"/>
      <use xlink:href="#CMSS17-64" transform="translate(534.578233 0) scale(0.996264)"/>
      <use xlink:href="#CMSS17-65" transform="translate(582.783176 0) scale(0.996264)"/>
      <use xlink:href="#CMSS17-72" transform="translate(624.421998 0) scale(0.996264)"/>
      <use xlink:href="#CMSS17-56" transform="translate(687.560883 0) scale(0.996264)"/>
      <use xlink:href="#CMSS17-6f" transform="translate(747.176284 0) scale(0.996264)"/>
      <use xlink:href="#CMSS17-72" transform="translate(791.417454 0) scale(0.996264)"/>
      <use xlink:href="#CMSS17-62" transform="translate(823.327226 0) scale(0.996264)"/>
      <use xlink:href="#CMSS17-65" transform="translate(874.134608 0) scale(0.996264)"/>
      <use xlink:href="#CMSS17-72" transform="translate(915.77343 0) scale(0.996264)"/>
      <use xlink:href="#CMSS17-65" transform="translate(947.683203 0) scale(0.996264)"/>
      <use xlink:href="#CMSS17-69" transform="translate(989.322025 0) scale(0.996264)"/>
      <use xlink:href="#CMSS17-74" transform="translate(1011.502748 0) scale(0.996264)"/>
      <use xlink:href="#CMSS17-75" transform="translate(1045.334315 0) scale(0.996264)"/>
      <use xlink:href="#CMSS17-6e" transform="translate(1093.539258 0) scale(0.996264)"/>
      <use xlink:href="#CMSS17-67" transform="translate(1141.744201 0) scale(0.996264)"/>
     </g>
    </g>
    <g id="line2d_36">
     <path d="M 536.746978 100.135745 
L 551.746978 100.135745 
L 566.746978 100.135745 
" style="fill: none; stroke-dasharray: 7.4,3.2; stroke-dashoffset: 0; stroke: #008000; stroke-width: 2"/>
    </g>
    <g id="text_21">
     <!-- Messung -->
     <g transform="translate(578.746978 105.385745) scale(0.15 -0.15)">
      <defs>
       <path id="CMSS17-4d" d="M 3194 2371 
L 2886 1473 
C 2835 1307 2662 791 2624 587 
L 2618 587 
C 2598 715 2560 849 2458 1174 
C 2400 1365 2336 1562 2272 1741 
L 1325 4416 
L 576 4416 
L 576 0 
L 1075 0 
L 1075 3900 
L 1082 3900 
C 1082 3894 1139 3613 1530 2499 
L 2374 96 
L 2848 96 
L 3610 2231 
C 3661 2378 3821 2843 3891 3066 
C 3955 3257 4115 3728 4154 3913 
L 4160 3913 
L 4160 0 
L 4666 0 
L 4666 4416 
L 3923 4416 
L 3194 2371 
z
" transform="scale(0.015625)"/>
      </defs>
      <use xlink:href="#CMSS17-4d" transform="scale(0.996264)"/>
      <use xlink:href="#CMSS17-65" transform="translate(81.67603 0) scale(0.996264)"/>
      <use xlink:href="#CMSS17-73" transform="translate(123.314852 0) scale(0.996264)"/>
      <use xlink:href="#CMSS17-73" transform="translate(159.228394 0) scale(0.996264)"/>
      <use xlink:href="#CMSS17-75" transform="translate(195.141936 0) scale(0.996264)"/>
      <use xlink:href="#CMSS17-6e" transform="translate(243.346879 0) scale(0.996264)"/>
      <use xlink:href="#CMSS17-67" transform="translate(291.551822 0) scale(0.996264)"/>
     </g>
    </g>
   </g>
  </g>
 </g>
 <defs>
  <clipPath id="pdda398b532">
   <rect x="108" y="60.48" width="669.6" height="388.08"/>
  </clipPath>
 </defs>
</svg>
