<?xml version="1.0" encoding="utf-8" standalone="no"?>
<!DOCTYPE svg PUBLIC "-//W3C//DTD SVG 1.1//EN"
  "http://www.w3.org/Graphics/SVG/1.1/DTD/svg11.dtd">
<svg xmlns:xlink="http://www.w3.org/1999/xlink" width="864pt" height="504pt" viewBox="0 0 864 504" xmlns="http://www.w3.org/2000/svg" version="1.1">
 <metadata>
  <rdf:RDF xmlns:dc="http://purl.org/dc/elements/1.1/" xmlns:cc="http://creativecommons.org/ns#" xmlns:rdf="http://www.w3.org/1999/02/22-rdf-syntax-ns#">
   <cc:Work>
    <dc:type rdf:resource="http://purl.org/dc/dcmitype/StillImage"/>
    <dc:date>2023-06-14T09:31:15.137236</dc:date>
    <dc:format>image/svg+xml</dc:format>
    <dc:creator>
     <cc:Agent>
      <dc:title>Matplotlib v3.7.1, https://matplotlib.org/</dc:title>
     </cc:Agent>
    </dc:creator>
   </cc:Work>
  </rdf:RDF>
 </metadata>
 <defs>
  <style type="text/css">*{stroke-linejoin: round; stroke-linecap: butt}</style>
 </defs>
 <g id="figure_1">
  <g id="patch_1">
   <path d="M 0 504 
L 864 504 
L 864 0 
L 0 0 
z
" style="fill: #ffffff"/>
  </g>
  <g id="axes_1">
   <g id="patch_2">
    <path d="M 108 448.56 
L 777.6 448.56 
L 777.6 60.48 
L 108 60.48 
z
" style="fill: #ffffff"/>
   </g>
   <g id="matplotlib.axis_1">
    <g id="xtick_1">
     <g id="line2d_1">
      <path d="M 239.947304 448.56 
L 239.947304 60.48 
" clip-path="url(#p55ebbe9361)" style="fill: none; stroke: #b0b0b0; stroke-width: 0.8; stroke-linecap: square"/>
     </g>
     <g id="line2d_2">
      <defs>
       <path id="m515a7b6ee6" d="M 0 0 
L 0 3.5 
" style="stroke: #000000; stroke-width: 0.8"/>
      </defs>
      <g>
       <use xlink:href="#m515a7b6ee6" x="239.947304" y="448.56" style="stroke: #000000; stroke-width: 0.8"/>
      </g>
     </g>
     <g id="text_1">
      <!-- $\mathdefault{8.5}$ -->
      <g transform="translate(223.360366 474.931799) scale(0.28 -0.28)">
       <defs>
        <path id="CMR17-38" d="M 1741 2264 
C 2144 2467 2554 2773 2554 3263 
C 2554 3841 1990 4179 1472 4179 
C 890 4179 378 3759 378 3180 
C 378 3021 416 2747 666 2505 
C 730 2442 998 2251 1171 2130 
C 883 1983 211 1634 211 934 
C 211 279 838 -128 1459 -128 
C 2144 -128 2720 362 2720 1010 
C 2720 1590 2330 1857 2074 2029 
L 1741 2264 
z
M 902 2822 
C 851 2854 595 3051 595 3351 
C 595 3739 998 4032 1459 4032 
C 1965 4032 2336 3676 2336 3262 
C 2336 2669 1670 2331 1638 2331 
C 1632 2331 1626 2331 1574 2370 
L 902 2822 
z
M 2080 1519 
C 2176 1449 2483 1240 2483 851 
C 2483 381 2010 25 1472 25 
C 890 25 448 438 448 940 
C 448 1443 838 1862 1280 2060 
L 2080 1519 
z
" transform="scale(0.015625)"/>
        <path id="CMMI12-3a" d="M 1178 307 
C 1178 492 1024 619 870 619 
C 685 619 557 466 557 313 
C 557 128 710 0 864 0 
C 1050 0 1178 153 1178 307 
z
" transform="scale(0.015625)"/>
        <path id="CMR17-35" d="M 730 3692 
C 794 3666 1056 3584 1325 3584 
C 1920 3584 2246 3911 2432 4100 
C 2432 4157 2432 4192 2394 4192 
C 2387 4192 2374 4192 2323 4163 
C 2099 4058 1837 3973 1517 3973 
C 1325 3973 1037 3999 723 4139 
C 653 4171 640 4171 634 4171 
C 602 4171 595 4164 595 4037 
L 595 2203 
C 595 2089 595 2057 659 2057 
C 691 2057 704 2070 736 2114 
C 941 2401 1222 2522 1542 2522 
C 1766 2522 2246 2382 2246 1289 
C 2246 1085 2246 715 2054 421 
C 1894 159 1645 25 1370 25 
C 947 25 518 320 403 814 
C 429 807 480 795 506 795 
C 589 795 749 840 749 1038 
C 749 1210 627 1280 506 1280 
C 358 1280 262 1190 262 1011 
C 262 454 704 -128 1382 -128 
C 2042 -128 2669 440 2669 1264 
C 2669 2030 2170 2624 1549 2624 
C 1222 2624 947 2503 730 2274 
L 730 3692 
z
" transform="scale(0.015625)"/>
       </defs>
       <use xlink:href="#CMR17-38" transform="scale(0.996264)"/>
       <use xlink:href="#CMMI12-3a" transform="translate(45.690477 0) scale(0.996264)"/>
       <use xlink:href="#CMR17-35" transform="translate(72.787654 0) scale(0.996264)"/>
      </g>
     </g>
    </g>
    <g id="xtick_2">
     <g id="line2d_3">
      <path d="M 409.132205 448.56 
L 409.132205 60.48 
" clip-path="url(#p55ebbe9361)" style="fill: none; stroke: #b0b0b0; stroke-width: 0.8; stroke-linecap: square"/>
     </g>
     <g id="line2d_4">
      <g>
       <use xlink:href="#m515a7b6ee6" x="409.132205" y="448.56" style="stroke: #000000; stroke-width: 0.8"/>
      </g>
     </g>
     <g id="text_2">
      <!-- $\mathdefault{9.0}$ -->
      <g transform="translate(392.545266 474.931799) scale(0.28 -0.28)">
       <defs>
        <path id="CMR17-39" d="M 2253 1864 
C 2253 464 1670 31 1190 31 
C 1043 31 685 31 538 294 
C 704 268 826 357 826 518 
C 826 692 685 749 595 749 
C 538 749 365 723 365 506 
C 365 71 742 -128 1203 -128 
C 1939 -128 2688 674 2688 2073 
C 2688 3817 1971 4179 1485 4179 
C 851 4179 243 3628 243 2778 
C 243 1991 762 1408 1414 1408 
C 1952 1408 2189 1903 2253 2112 
L 2253 1864 
z
M 1427 1510 
C 1254 1510 1011 1542 813 1922 
C 678 2169 678 2461 678 2771 
C 678 3146 678 3405 858 3684 
C 947 3817 1114 4032 1485 4032 
C 2240 4032 2240 2885 2240 2632 
C 2240 2182 2035 1510 1427 1510 
z
" transform="scale(0.015625)"/>
        <path id="CMR17-30" d="M 2688 2025 
C 2688 2416 2682 3080 2413 3591 
C 2176 4039 1798 4198 1466 4198 
C 1158 4198 768 4058 525 3597 
C 269 3118 243 2524 243 2025 
C 243 1661 250 1106 448 619 
C 723 -39 1216 -128 1466 -128 
C 1760 -128 2208 -7 2470 600 
C 2662 1042 2688 1559 2688 2025 
z
M 1466 -26 
C 1056 -26 813 325 723 812 
C 653 1188 653 1738 653 2096 
C 653 2588 653 2997 736 3387 
C 858 3929 1216 4096 1466 4096 
C 1728 4096 2067 3923 2189 3400 
C 2272 3036 2278 2607 2278 2096 
C 2278 1680 2278 1169 2202 792 
C 2067 95 1690 -26 1466 -26 
z
" transform="scale(0.015625)"/>
       </defs>
       <use xlink:href="#CMR17-39" transform="scale(0.996264)"/>
       <use xlink:href="#CMMI12-3a" transform="translate(45.690477 0) scale(0.996264)"/>
       <use xlink:href="#CMR17-30" transform="translate(72.787654 0) scale(0.996264)"/>
      </g>
     </g>
    </g>
    <g id="xtick_3">
     <g id="line2d_5">
      <path d="M 578.317105 448.56 
L 578.317105 60.48 
" clip-path="url(#p55ebbe9361)" style="fill: none; stroke: #b0b0b0; stroke-width: 0.8; stroke-linecap: square"/>
     </g>
     <g id="line2d_6">
      <g>
       <use xlink:href="#m515a7b6ee6" x="578.317105" y="448.56" style="stroke: #000000; stroke-width: 0.8"/>
      </g>
     </g>
     <g id="text_3">
      <!-- $\mathdefault{9.5}$ -->
      <g transform="translate(561.730167 474.931799) scale(0.28 -0.28)">
       <use xlink:href="#CMR17-39" transform="scale(0.996264)"/>
       <use xlink:href="#CMMI12-3a" transform="translate(45.690477 0) scale(0.996264)"/>
       <use xlink:href="#CMR17-35" transform="translate(72.787654 0) scale(0.996264)"/>
      </g>
     </g>
    </g>
    <g id="xtick_4">
     <g id="line2d_7">
      <path d="M 747.502006 448.56 
L 747.502006 60.48 
" clip-path="url(#p55ebbe9361)" style="fill: none; stroke: #b0b0b0; stroke-width: 0.8; stroke-linecap: square"/>
     </g>
     <g id="line2d_8">
      <g>
       <use xlink:href="#m515a7b6ee6" x="747.502006" y="448.56" style="stroke: #000000; stroke-width: 0.8"/>
      </g>
     </g>
     <g id="text_4">
      <!-- $\mathdefault{10.0}$ -->
      <g transform="translate(724.518401 474.931799) scale(0.28 -0.28)">
       <defs>
        <path id="CMR17-31" d="M 1702 4058 
C 1702 4192 1696 4192 1606 4192 
C 1357 3916 979 3827 621 3827 
C 602 3827 570 3827 563 3808 
C 557 3795 557 3782 557 3648 
C 755 3648 1088 3686 1344 3839 
L 1344 461 
C 1344 236 1331 160 781 160 
L 589 160 
L 589 0 
C 896 0 1216 0 1523 0 
C 1830 0 2150 0 2458 0 
L 2458 160 
L 2266 160 
C 1715 160 1702 230 1702 458 
L 1702 4058 
z
" transform="scale(0.015625)"/>
       </defs>
       <use xlink:href="#CMR17-31" transform="scale(0.996264)"/>
       <use xlink:href="#CMR17-30" transform="translate(45.690477 0) scale(0.996264)"/>
       <use xlink:href="#CMMI12-3a" transform="translate(91.380954 0) scale(0.996264)"/>
       <use xlink:href="#CMR17-30" transform="translate(118.478131 0) scale(0.996264)"/>
      </g>
     </g>
    </g>
    <g id="text_5">
     <!-- Zeit t in s -->
     <g transform="translate(388.378873 503.729478) scale(0.28 -0.28)">
      <defs>
       <path id="CMSS17-5a" d="M 3341 4155 
L 3341 4416 
L 416 4416 
L 416 4015 
L 1613 4015 
C 1690 4015 1766 4015 1843 4015 
L 2662 4015 
L 333 274 
L 333 0 
L 3373 0 
L 3373 414 
L 2803 414 
C 2272 414 1734 414 1203 414 
L 1011 414 
L 3341 4155 
z
" transform="scale(0.015625)"/>
       <path id="CMSS17-65" d="M 2502 1377 
C 2502 1590 2490 2003 2285 2345 
C 2061 2713 1696 2816 1421 2816 
C 755 2816 192 2188 192 1375 
C 192 582 774 -64 1510 -64 
C 1798 -64 2150 19 2470 248 
C 2470 274 2458 414 2451 420 
C 2451 433 2432 630 2432 656 
C 2125 407 1773 325 1517 325 
C 1107 325 666 667 646 1377 
L 2502 1377 
z
M 698 1728 
C 781 2084 1062 2421 1421 2421 
C 1517 2421 1965 2421 2080 1728 
L 698 1728 
z
" transform="scale(0.015625)"/>
       <path id="CMSS17-69" d="M 979 4183 
L 442 4183 
L 442 3648 
L 979 3648 
L 979 4183 
z
M 947 2739 
L 474 2739 
L 474 0 
L 947 0 
L 947 2739 
z
" transform="scale(0.015625)"/>
       <path id="CMSS17-74" d="M 1069 2368 
L 1901 2368 
L 1901 2737 
L 1069 2737 
L 1069 3520 
L 614 3520 
L 614 2737 
L 109 2737 
L 109 2368 
L 602 2368 
L 602 749 
C 602 384 685 -64 1107 -64 
C 1427 -64 1722 25 2003 172 
L 1901 548 
C 1747 414 1562 337 1363 337 
C 1082 337 1069 696 1069 856 
L 1069 2368 
z
" transform="scale(0.015625)"/>
       <path id="CMSS17-6e" d="M 2618 1877 
C 2618 2283 2522 2816 1798 2816 
C 1389 2816 1120 2606 941 2389 
L 941 2758 
L 474 2758 
L 474 0 
L 960 0 
L 960 1559 
C 960 1964 1114 2428 1549 2428 
C 2112 2428 2131 2048 2131 1829 
L 2131 0 
L 2618 0 
L 2618 1877 
z
" transform="scale(0.015625)"/>
       <path id="CMSS17-73" d="M 2061 2627 
C 1683 2807 1389 2807 1197 2807 
C 742 2807 198 2648 198 2003 
C 198 1359 902 1218 1094 1179 
C 1389 1122 1715 1058 1715 740 
C 1715 337 1254 337 1171 337 
C 915 337 563 407 243 638 
L 166 210 
C 531 0 883 -64 1178 -64 
C 1965 -64 2163 416 2163 781 
C 2163 1094 1984 1305 1862 1401 
C 1651 1568 1574 1587 1050 1696 
C 960 1709 646 1779 646 2066 
C 646 2432 1050 2432 1139 2432 
C 1555 2432 1811 2303 1984 2208 
L 2061 2627 
z
" transform="scale(0.015625)"/>
      </defs>
      <use xlink:href="#CMSS17-5a" transform="scale(0.996264)"/>
      <use xlink:href="#CMSS17-65" transform="translate(57.253333 0) scale(0.996264)"/>
      <use xlink:href="#CMSS17-69" transform="translate(98.892155 0) scale(0.996264)"/>
      <use xlink:href="#CMSS17-74" transform="translate(121.072878 0) scale(0.996264)"/>
      <use xlink:href="#CMSS17-74" transform="translate(186.133557 0) scale(0.996264)"/>
      <use xlink:href="#CMSS17-69" transform="translate(251.194237 0) scale(0.996264)"/>
      <use xlink:href="#CMSS17-6e" transform="translate(273.37496 0) scale(0.996264)"/>
      <use xlink:href="#CMSS17-73" transform="translate(352.809016 0) scale(0.996264)"/>
     </g>
    </g>
   </g>
   <g id="matplotlib.axis_2">
    <g id="ytick_1">
     <g id="line2d_9">
      <path d="M 108 408.336634 
L 777.6 408.336634 
" clip-path="url(#p55ebbe9361)" style="fill: none; stroke: #b0b0b0; stroke-width: 0.8; stroke-linecap: square"/>
     </g>
     <g id="line2d_10">
      <defs>
       <path id="m80ce63b8b8" d="M 0 0 
L -3.5 0 
" style="stroke: #000000; stroke-width: 0.8"/>
      </defs>
      <g>
       <use xlink:href="#m80ce63b8b8" x="108" y="408.336634" style="stroke: #000000; stroke-width: 0.8"/>
      </g>
     </g>
     <g id="text_6">
      <!-- $\mathdefault{−0.2}$ -->
      <g transform="translate(46.129638 418.022534) scale(0.28 -0.28)">
       <defs>
        <path id="CMSY10-0" d="M 4218 1472 
C 4326 1472 4442 1472 4442 1600 
C 4442 1728 4326 1728 4218 1728 
L 755 1728 
C 646 1728 531 1728 531 1600 
C 531 1472 646 1472 755 1472 
L 4218 1472 
z
" transform="scale(0.015625)"/>
        <path id="CMR17-32" d="M 2669 989 
L 2554 989 
C 2490 536 2438 459 2413 420 
C 2381 369 1920 369 1830 369 
L 602 369 
C 832 619 1280 1072 1824 1597 
C 2214 1967 2669 2402 2669 3035 
C 2669 3790 2067 4224 1395 4224 
C 691 4224 262 3604 262 3030 
C 262 2780 448 2748 525 2748 
C 589 2748 781 2787 781 3010 
C 781 3207 614 3264 525 3264 
C 486 3264 448 3258 422 3245 
C 544 3790 915 4058 1306 4058 
C 1862 4058 2227 3617 2227 3035 
C 2227 2479 1901 2000 1536 1584 
L 262 146 
L 262 0 
L 2515 0 
L 2669 989 
z
" transform="scale(0.015625)"/>
       </defs>
       <use xlink:href="#CMSY10-0" transform="scale(0.996264)"/>
       <use xlink:href="#CMR17-30" transform="translate(77.487468 0) scale(0.996264)"/>
       <use xlink:href="#CMMI12-3a" transform="translate(123.177945 0) scale(0.996264)"/>
       <use xlink:href="#CMR17-32" transform="translate(150.275122 0) scale(0.996264)"/>
      </g>
     </g>
    </g>
    <g id="ytick_2">
     <g id="line2d_11">
      <path d="M 108 329.799456 
L 777.6 329.799456 
" clip-path="url(#p55ebbe9361)" style="fill: none; stroke: #b0b0b0; stroke-width: 0.8; stroke-linecap: square"/>
     </g>
     <g id="line2d_12">
      <g>
       <use xlink:href="#m80ce63b8b8" x="108" y="329.799456" style="stroke: #000000; stroke-width: 0.8"/>
      </g>
     </g>
     <g id="text_7">
      <!-- $\mathdefault{−0.1}$ -->
      <g transform="translate(46.129638 339.485355) scale(0.28 -0.28)">
       <use xlink:href="#CMSY10-0" transform="scale(0.996264)"/>
       <use xlink:href="#CMR17-30" transform="translate(77.487468 0) scale(0.996264)"/>
       <use xlink:href="#CMMI12-3a" transform="translate(123.177945 0) scale(0.996264)"/>
       <use xlink:href="#CMR17-31" transform="translate(150.275122 0) scale(0.996264)"/>
      </g>
     </g>
    </g>
    <g id="ytick_3">
     <g id="line2d_13">
      <path d="M 108 251.262278 
L 777.6 251.262278 
" clip-path="url(#p55ebbe9361)" style="fill: none; stroke: #b0b0b0; stroke-width: 0.8; stroke-linecap: square"/>
     </g>
     <g id="line2d_14">
      <g>
       <use xlink:href="#m80ce63b8b8" x="108" y="251.262278" style="stroke: #000000; stroke-width: 0.8"/>
      </g>
     </g>
     <g id="text_8">
      <!-- $\mathdefault{0.0}$ -->
      <g transform="translate(67.826123 260.948177) scale(0.28 -0.28)">
       <use xlink:href="#CMR17-30" transform="scale(0.996264)"/>
       <use xlink:href="#CMMI12-3a" transform="translate(45.690477 0) scale(0.996264)"/>
       <use xlink:href="#CMR17-30" transform="translate(72.787654 0) scale(0.996264)"/>
      </g>
     </g>
    </g>
    <g id="ytick_4">
     <g id="line2d_15">
      <path d="M 108 172.7251 
L 777.6 172.7251 
" clip-path="url(#p55ebbe9361)" style="fill: none; stroke: #b0b0b0; stroke-width: 0.8; stroke-linecap: square"/>
     </g>
     <g id="line2d_16">
      <g>
       <use xlink:href="#m80ce63b8b8" x="108" y="172.7251" style="stroke: #000000; stroke-width: 0.8"/>
      </g>
     </g>
     <g id="text_9">
      <!-- $\mathdefault{0.1}$ -->
      <g transform="translate(67.826123 182.410999) scale(0.28 -0.28)">
       <use xlink:href="#CMR17-30" transform="scale(0.996264)"/>
       <use xlink:href="#CMMI12-3a" transform="translate(45.690477 0) scale(0.996264)"/>
       <use xlink:href="#CMR17-31" transform="translate(72.787654 0) scale(0.996264)"/>
      </g>
     </g>
    </g>
    <g id="ytick_5">
     <g id="line2d_17">
      <path d="M 108 94.187921 
L 777.6 94.187921 
" clip-path="url(#p55ebbe9361)" style="fill: none; stroke: #b0b0b0; stroke-width: 0.8; stroke-linecap: square"/>
     </g>
     <g id="line2d_18">
      <g>
       <use xlink:href="#m80ce63b8b8" x="108" y="94.187921" style="stroke: #000000; stroke-width: 0.8"/>
      </g>
     </g>
     <g id="text_10">
      <!-- $\mathdefault{0.2}$ -->
      <g transform="translate(67.826123 103.873821) scale(0.28 -0.28)">
       <use xlink:href="#CMR17-30" transform="scale(0.996264)"/>
       <use xlink:href="#CMMI12-3a" transform="translate(45.690477 0) scale(0.996264)"/>
       <use xlink:href="#CMR17-32" transform="translate(72.787654 0) scale(0.996264)"/>
      </g>
     </g>
    </g>
    <g id="text_11">
     <!-- Strom $I$ in A -->
     <g transform="translate(36.703757 326.761371) rotate(-90) scale(0.28 -0.28)">
      <defs>
       <path id="CMSS17-53" d="M 2797 4169 
C 2515 4334 2208 4480 1690 4480 
C 864 4480 333 3879 333 3266 
C 333 3025 403 2753 653 2475 
C 902 2196 1184 2121 1542 2033 
C 1690 1994 1939 1924 1984 1906 
C 2342 1767 2515 1444 2515 1140 
C 2515 742 2202 318 1645 318 
C 1453 318 890 318 358 819 
L 269 318 
C 794 -64 1363 -128 1651 -128 
C 2438 -128 3002 488 3002 1186 
C 3002 1440 2925 1763 2656 2061 
C 2394 2347 2163 2410 1638 2549 
C 1338 2626 1146 2677 986 2873 
C 877 3013 819 3146 819 3317 
C 819 3673 1126 4060 1690 4060 
C 1971 4060 2336 4002 2707 3660 
L 2797 4169 
z
" transform="scale(0.015625)"/>
       <path id="CMSS17-72" d="M 954 1363 
C 954 1965 1395 2368 1958 2368 
L 1958 2789 
C 1549 2789 1165 2585 934 2253 
L 934 2758 
L 480 2758 
L 480 0 
L 954 0 
L 954 1363 
z
" transform="scale(0.015625)"/>
       <path id="CMSS17-6f" d="M 2829 1356 
C 2829 2176 2221 2816 1504 2816 
C 768 2816 173 2157 173 1356 
C 173 544 787 -64 1498 -64 
C 2227 -64 2829 563 2829 1356 
z
M 1504 337 
C 1050 337 659 709 659 1408 
C 659 2151 1114 2427 1498 2427 
C 1914 2427 2342 2126 2342 1408 
C 2342 683 1926 337 1504 337 
z
" transform="scale(0.015625)"/>
       <path id="CMSS17-6d" d="M 4288 1877 
C 4288 2308 4179 2816 3462 2816 
C 2982 2816 2694 2516 2566 2331 
C 2451 2670 2182 2816 1798 2816 
C 1363 2816 1088 2568 941 2389 
L 941 2758 
L 474 2758 
L 474 0 
L 960 0 
L 960 1559 
C 960 1939 1101 2428 1555 2428 
C 2138 2428 2138 2016 2138 1829 
L 2138 0 
L 2624 0 
L 2624 1559 
C 2624 1939 2765 2428 3219 2428 
C 3802 2428 3802 2016 3802 1829 
L 3802 0 
L 4288 0 
L 4288 1877 
z
" transform="scale(0.015625)"/>
       <path id="CMMI12-49" d="M 2355 3880 
C 2413 4103 2426 4167 2893 4167 
C 3034 4167 3085 4167 3085 4288 
C 3085 4352 3014 4352 2995 4352 
C 2880 4352 2739 4352 2624 4352 
L 1837 4352 
C 1709 4352 1562 4352 1434 4352 
C 1382 4352 1312 4352 1312 4231 
C 1312 4167 1363 4167 1491 4167 
C 1888 4167 1888 4116 1888 4046 
C 1888 4002 1875 3963 1862 3906 
L 998 472 
C 941 249 928 185 461 185 
C 320 185 262 185 262 64 
C 262 0 326 0 358 0 
C 474 0 614 0 730 0 
L 1517 0 
C 1645 0 1786 0 1914 0 
C 1965 0 2042 0 2042 115 
C 2042 185 2003 185 1862 185 
C 1466 185 1466 236 1466 312 
C 1466 325 1466 357 1491 459 
L 2355 3880 
z
" transform="scale(0.015625)"/>
       <path id="CMSS17-41" d="M 2272 4416 
L 1722 4416 
L 166 0 
L 653 0 
L 1101 1280 
L 2816 1280 
L 3270 0 
L 3827 0 
L 2272 4416 
z
M 2694 1637 
L 1222 1637 
C 1530 2528 1914 3638 1958 3925 
L 1965 3925 
C 2010 3663 2138 3281 2246 2956 
L 2694 1637 
z
" transform="scale(0.015625)"/>
      </defs>
      <use xlink:href="#CMSS17-53" transform="scale(0.996264)"/>
      <use xlink:href="#CMSS17-74" transform="translate(52.048516 0) scale(0.996264)"/>
      <use xlink:href="#CMSS17-72" transform="translate(85.880083 0) scale(0.996264)"/>
      <use xlink:href="#CMSS17-6f" transform="translate(117.789855 0) scale(0.996264)"/>
      <use xlink:href="#CMSS17-6d" transform="translate(164.633479 0) scale(0.996264)"/>
      <use xlink:href="#CMMI12-49" transform="translate(270.091846 0) scale(0.996264)"/>
      <use xlink:href="#CMSS17-69" transform="translate(352.177473 0) scale(0.996264)"/>
      <use xlink:href="#CMSS17-6e" transform="translate(374.358196 0) scale(0.996264)"/>
      <use xlink:href="#CMSS17-41" transform="translate(453.792252 0) scale(0.996264)"/>
     </g>
    </g>
   </g>
   <g id="line2d_19">
    <path d="M 138.436364 251.262278 
L 747.163636 251.262278 
L 747.163636 251.262278 
" clip-path="url(#p55ebbe9361)" style="fill: none; stroke: #ff0000; stroke-width: 2; stroke-linecap: square"/>
   </g>
   <g id="line2d_20">
    <path d="M 138.436364 251.262278 
L 249.421658 251.2634 
L 250.775138 78.12 
L 252.128617 90.713437 
L 254.158836 107.423007 
L 255.173945 114.658637 
L 256.189055 121.549489 
L 257.542534 129.308962 
L 258.219273 132.890257 
L 258.896013 136.203741 
L 260.249492 142.567608 
L 261.602971 147.535085 
L 261.941341 148.508161 
L 262.956451 152.448371 
L 263.97156 155.744576 
L 264.30993 156.661891 
L 264.986669 158.969313 
L 265.325039 159.623527 
L 266.340149 162.524691 
L 266.678518 163.266867 
L 267.693628 166.18845 
L 268.031998 166.878792 
L 268.708737 168.555561 
L 269.047107 169.53649 
L 269.385477 170.115309 
L 269.723847 171.010633 
L 270.062216 171.549398 
L 270.400586 172.402312 
L 270.738956 172.852565 
L 271.077326 173.618617 
L 271.415696 174.027482 
L 271.754065 174.753087 
L 272.092435 175.078073 
L 272.430805 175.722314 
L 272.769175 176.666488 
L 273.107545 177.158366 
L 273.445914 177.925596 
L 273.784284 178.257808 
L 274.122654 178.921919 
L 274.461024 179.163577 
L 274.799394 179.707447 
L 275.137763 180.495411 
L 275.476133 180.861551 
L 275.814503 181.496132 
L 276.152873 181.691061 
L 276.491243 182.174379 
L 276.829612 182.928336 
L 277.167982 183.211855 
L 277.506352 183.75761 
L 277.844722 183.859394 
L 278.183092 184.282552 
L 279.536571 186.692701 
L 279.874941 186.811135 
L 280.21331 187.191491 
L 281.905159 190.012625 
L 282.243529 190.196716 
L 282.581899 190.606052 
L 283.597008 192.157554 
L 284.273748 193.175317 
L 284.612118 193.895895 
L 284.950488 194.090354 
L 285.627227 195.021883 
L 285.965597 195.689449 
L 286.303967 195.824847 
L 286.980706 196.629853 
L 287.319076 197.231841 
L 287.657446 197.299854 
L 287.995816 197.558241 
L 288.672555 198.507834 
L 289.010925 199.165897 
L 289.349295 199.242942 
L 289.687665 199.493005 
L 290.364404 200.40867 
L 290.702774 200.366259 
L 291.041144 200.508804 
L 291.717884 201.2392 
L 292.056253 201.772153 
L 292.394623 201.724796 
L 292.732993 201.852026 
L 293.409733 202.546373 
L 293.748102 203.041786 
L 294.086472 202.952881 
L 294.424842 203.054509 
L 295.101582 203.650841 
L 295.439951 204.09599 
L 295.778321 203.974493 
L 296.116691 204.024443 
L 296.793431 204.519777 
L 297.47017 205.417849 
L 297.80854 205.302557 
L 298.14691 205.346223 
L 298.82365 205.831426 
L 299.500389 206.657637 
L 299.838759 206.5147 
L 300.177129 206.527344 
L 300.853868 206.912883 
L 301.530608 207.66417 
L 301.868978 208.123848 
L 302.207348 207.966616 
L 302.545717 207.96803 
L 303.222457 208.307154 
L 303.899197 208.975269 
L 304.914306 210.331685 
L 305.252676 210.842491 
L 305.591046 210.708271 
L 306.267785 210.784687 
L 306.944525 211.2135 
L 307.959634 212.234798 
L 310.328223 215.228399 
L 311.004962 214.881972 
L 311.681702 214.892967 
L 312.358442 215.162114 
L 313.373551 215.844131 
L 315.74214 217.902276 
L 317.772358 219.568678 
L 318.110728 219.815206 
L 318.449098 220.705818 
L 319.464207 221.056565 
L 320.140947 222.499686 
L 320.817687 222.343868 
L 321.156056 222.959599 
L 322.171166 222.656289 
L 323.186275 222.574532 
L 323.524645 222.578773 
L 323.863015 223.248695 
L 324.878124 223.043163 
L 325.893234 222.993449 
L 326.569973 224.203785 
L 327.246713 225.037065 
L 327.923452 225.583134 
L 328.600192 225.924928 
L 329.615301 226.163523 
L 330.968781 226.173969 
L 332.998999 225.890921 
L 337.736177 225.068401 
L 338.412916 226.166901 
L 339.089656 226.865096 
L 339.766395 227.270898 
L 340.443135 227.465748 
L 341.458244 227.491666 
L 342.134984 227.395929 
L 342.811724 228.434662 
L 343.488463 229.033193 
L 344.165203 229.311451 
L 344.841942 229.366191 
L 345.857052 229.171497 
L 347.210531 228.63501 
L 351.947708 226.475316 
L 352.624448 227.421375 
L 353.301188 227.980167 
L 353.977927 228.259131 
L 354.654667 228.339239 
L 355.669776 228.214836 
L 357.023255 227.798668 
L 357.699995 228.733417 
L 358.376735 229.250192 
L 359.053474 229.465855 
L 359.730214 229.471274 
L 360.745323 229.223253 
L 362.437172 228.475187 
L 363.790651 227.792777 
L 364.467391 228.651974 
L 365.144131 229.118563 
L 365.82087 229.303126 
L 366.49761 229.290874 
L 367.512719 229.034136 
L 369.204568 228.297771 
L 371.234787 227.312837 
L 371.911527 228.198186 
L 372.588266 228.693285 
L 373.265006 228.909105 
L 373.941745 228.927404 
L 374.956855 228.716374 
L 376.648704 228.048023 
L 377.325443 228.933216 
L 378.002183 229.408837 
L 378.678923 229.5923 
L 379.355662 229.570466 
L 380.370772 229.291816 
L 382.062621 228.508879 
L 384.431209 227.305454 
L 385.107949 228.1835 
L 385.784688 228.674121 
L 386.461428 228.8868 
L 387.138168 228.903607 
L 388.153277 228.691478 
L 389.845126 228.024462 
L 390.521866 227.717931 
L 391.198605 228.602653 
L 391.875345 229.086834 
L 392.552084 229.284198 
L 393.228824 229.280114 
L 394.243933 229.030916 
L 395.597413 228.460893 
L 396.274152 229.326451 
L 396.950892 229.778433 
L 397.627632 229.935743 
L 398.304371 229.88705 
L 399.319481 229.568424 
L 401.01133 228.724856 
L 401.349699 228.539195 
L 402.026439 229.359751 
L 402.703179 229.780239 
L 403.379918 229.915951 
L 404.056658 229.8532 
L 405.071767 229.52303 
L 406.763616 228.675849 
L 410.147314 226.931539 
L 410.824054 227.830946 
L 411.500793 228.345758 
L 412.177533 228.583961 
L 412.854273 228.626606 
L 413.869382 228.452254 
L 415.561231 227.842334 
L 416.237971 227.555988 
L 416.91471 228.459479 
L 417.59145 228.960861 
L 418.268189 229.174011 
L 418.944929 229.184299 
L 419.960038 228.954421 
L 421.651887 228.249 
L 424.358846 226.987221 
L 425.035585 227.895897 
L 425.373955 227.541851 
L 426.050695 228.130173 
L 426.727434 228.42508 
L 427.404174 228.511785 
L 428.419283 228.385576 
L 429.772763 227.955506 
L 432.141351 226.996175 
L 432.818091 227.923149 
L 433.49483 228.455945 
L 434.17157 228.705379 
L 434.84831 228.754229 
L 435.863419 228.583097 
L 437.555268 227.969564 
L 438.232008 227.680626 
L 438.908747 228.581055 
L 439.585487 229.079609 
L 440.262226 229.289853 
L 440.938966 229.297707 
L 441.954075 229.064687 
L 443.645925 228.355967 
L 444.322664 229.225295 
L 444.999404 229.686701 
L 445.676143 229.856656 
L 446.352883 229.823356 
L 447.367992 229.529391 
L 449.059841 228.728548 
L 450.75169 227.847046 
L 451.42843 228.705379 
L 452.10517 229.17456 
L 452.781909 229.365484 
L 453.458649 229.361086 
L 454.473758 229.119584 
L 456.165607 228.4122 
L 459.210935 227.029317 
L 459.887675 227.955192 
L 460.564415 228.49325 
L 461.241154 228.752894 
L 461.917894 228.814703 
L 462.933003 228.66721 
L 464.624852 228.096795 
L 466.655071 227.282207 
L 467.331811 228.216564 
L 468.00855 228.758785 
L 468.68529 229.017643 
L 469.362029 229.077567 
L 470.377139 228.923398 
L 471.392248 228.601396 
L 472.068988 229.533789 
L 472.745727 230.042239 
L 473.422467 230.24942 
L 474.099207 230.244001 
L 475.114316 229.983101 
L 475.791056 229.707592 
L 476.467795 230.581632 
L 477.144535 231.027645 
L 477.821274 231.169719 
L 478.498014 231.100842 
L 479.513123 230.747739 
L 481.204972 229.8532 
L 484.250301 228.207061 
L 484.92704 227.897939 
L 485.60378 228.809598 
L 486.280519 229.338389 
L 486.957259 229.595441 
L 487.972368 229.63738 
L 488.987478 229.431927 
L 491.017697 228.725563 
L 491.694436 229.661177 
L 492.371176 230.199078 
L 493.047916 230.447884 
L 493.724655 230.498305 
L 494.739765 230.329528 
L 495.416504 231.312578 
L 496.093244 231.846395 
L 496.769983 232.060409 
L 497.446723 232.052006 
L 498.461832 231.773827 
L 500.153681 230.984214 
L 500.830421 231.826525 
L 501.507161 232.266648 
L 502.1839 232.422151 
L 503.19901 232.309058 
L 504.552489 231.80964 
L 509.289666 229.74474 
L 509.628036 229.639265 
L 510.304775 230.637472 
L 510.981515 231.256188 
L 511.658255 231.602223 
L 512.673364 231.782466 
L 514.026843 231.664267 
L 514.703583 232.719414 
L 515.380322 233.354702 
L 516.057062 233.677725 
L 516.733802 233.79663 
L 517.748911 233.71558 
L 518.425651 234.755726 
L 519.10239 235.348368 
L 519.77913 235.624112 
L 520.455869 235.682151 
L 521.470979 235.510626 
L 523.162828 234.936755 
L 524.177937 234.555614 
L 524.854677 235.523113 
L 525.531416 236.095492 
L 526.208156 236.411918 
L 527.223265 236.549673 
L 528.576745 236.417023 
L 530.606963 236.049705 
L 531.283703 237.143335 
L 531.960443 237.854646 
L 532.975552 238.447759 
L 533.990661 238.692481 
L 535.68251 238.783741 
L 538.051099 238.872567 
L 539.742948 239.149882 
L 541.096427 239.539976 
L 542.449907 240.089736 
L 544.141756 240.995976 
L 545.495235 241.903002 
L 545.833605 242.137122 
L 546.510344 241.501363 
L 547.187084 241.26316 
L 547.863823 241.417957 
L 548.540563 241.775851 
L 549.555672 242.735025 
L 549.894042 242.441689 
L 550.570782 242.360638 
L 551.247521 242.65531 
L 552.262631 243.781525 
L 552.601001 244.23796 
L 552.93937 244.150461 
L 553.27774 244.200254 
L 553.95448 244.628447 
L 554.969589 246.125514 
L 555.646329 247.462924 
L 555.984699 247.570284 
L 556.661438 248.165604 
L 557.676548 250.095569 
L 558.691657 252.104079 
L 559.368397 253.108137 
L 560.383506 255.797549 
L 560.721876 256.798583 
L 561.398615 258.137917 
L 562.075355 259.92807 
L 564.782313 270.408385 
L 565.797423 276.321449 
L 566.135793 277.980233 
L 567.489272 289.356422 
L 568.842751 306.976552 
L 570.19623 341.139439 
L 571.549709 396.561555 
L 572.903189 430.92 
L 574.595038 419.931863 
L 575.610147 410.675472 
L 575.948517 409.078811 
L 576.625256 406.80673 
L 576.963626 405.451178 
L 577.301996 405.945177 
L 577.640366 406.233409 
L 578.993845 409.556317 
L 580.347324 414.902342 
L 581.024064 417.146935 
L 582.039173 422.191378 
L 582.377543 423.645887 
L 583.731022 249.661918 
L 585.422871 249.782292 
L 595.235596 250.905494 
L 597.942554 251.040004 
L 598.619294 249.872617 
L 599.296033 249.110281 
L 599.972773 248.645128 
L 600.649512 248.395553 
L 601.664622 248.295159 
L 603.018101 248.460747 
L 605.38669 249.060347 
L 609.108757 249.97598 
L 612.154086 250.483985 
L 615.876153 250.85495 
L 620.613331 251.087838 
L 628.395836 251.21986 
L 628.734206 251.222399 
L 629.410945 252.419539 
L 630.087685 253.208343 
L 630.764425 253.697009 
L 631.441164 253.96746 
L 632.456274 254.094855 
L 633.809753 253.958459 
L 636.178342 253.395646 
L 639.900409 252.51376 
L 642.945738 252.020594 
L 646.667805 251.659484 
L 651.743352 251.422372 
L 659.864228 251.298863 
L 682.535004 251.262858 
L 747.163636 251.262278 
L 747.163636 251.262278 
" clip-path="url(#p55ebbe9361)" style="fill: none; stroke-dasharray: 7.4,3.2; stroke-dashoffset: 0; stroke: #008000; stroke-width: 2"/>
   </g>
   <g id="patch_3">
    <path d="M 108 448.56 
L 108 60.48 
" style="fill: none; stroke: #000000; stroke-width: 0.8; stroke-linejoin: miter; stroke-linecap: square"/>
   </g>
   <g id="patch_4">
    <path d="M 777.6 448.56 
L 777.6 60.48 
" style="fill: none; stroke: #000000; stroke-width: 0.8; stroke-linejoin: miter; stroke-linecap: square"/>
   </g>
   <g id="patch_5">
    <path d="M 108 448.56 
L 777.6 448.56 
" style="fill: none; stroke: #000000; stroke-width: 0.8; stroke-linejoin: miter; stroke-linecap: square"/>
   </g>
   <g id="patch_6">
    <path d="M 108 60.48 
L 777.6 60.48 
" style="fill: none; stroke: #000000; stroke-width: 0.8; stroke-linejoin: miter; stroke-linecap: square"/>
   </g>
   <g id="text_12">
    <!-- \textbf{Energieoptimale Stromverlauf - offener Regelkreis} -->
    <g transform="translate(102.084154 54.48) scale(0.3 -0.3)">
     <defs>
      <path id="CMSSBX10-45" d="M 1523 2016 
L 3206 2016 
C 3405 2016 3514 2062 3514 2320 
C 3514 2560 3430 2624 3206 2624 
L 1523 2624 
L 1523 3814 
L 1837 3814 
C 2336 3814 2842 3814 3341 3814 
C 3565 3814 3712 3814 3712 4122 
L 3712 4173 
C 3712 4377 3667 4480 3405 4480 
L 890 4480 
C 659 4480 582 4409 582 4170 
L 582 316 
C 582 84 653 6 890 6 
L 3501 6 
C 3744 6 3808 88 3808 310 
L 3808 400 
C 3808 704 3661 704 3450 704 
C 3117 704 2790 704 2458 704 
C 2298 704 1638 704 1523 704 
L 1523 2016 
z
" transform="scale(0.015625)"/>
      <path id="CMSSBX10-6e" d="M 3200 2096 
C 3200 2761 2918 3025 2266 3025 
C 1594 3025 1306 2535 1222 2360 
L 1216 2360 
L 1216 2687 
C 1216 2896 1171 3001 909 3001 
L 691 3001 
C 461 3001 384 2930 384 2690 
L 384 310 
C 384 78 454 0 691 0 
L 947 0 
C 1190 0 1254 84 1254 309 
L 1254 1735 
C 1254 2295 1626 2560 1958 2560 
C 2266 2560 2330 2411 2330 2082 
L 2330 309 
C 2330 103 2374 0 2637 0 
L 2893 0 
C 3136 0 3200 84 3200 309 
L 3200 2096 
z
" transform="scale(0.015625)"/>
      <path id="CMSSBX10-65" d="M 2758 1385 
C 2906 1385 3066 1385 3066 1678 
C 3066 2514 2682 3072 1728 3072 
C 704 3072 198 2491 198 1510 
C 198 452 806 -64 1811 -64 
C 2054 -64 2419 -32 2842 182 
C 2982 253 3027 272 3027 350 
C 3027 395 3008 582 3002 633 
C 2976 833 2970 839 2912 839 
C 2886 839 2874 839 2803 775 
C 2426 447 2042 402 1837 402 
C 1114 402 1037 974 1018 1385 
L 2758 1385 
z
M 1024 1728 
C 1043 2122 1171 2606 1728 2606 
C 2240 2606 2336 2231 2355 1728 
L 1024 1728 
z
" transform="scale(0.015625)"/>
      <path id="CMSSBX10-72" d="M 1242 1496 
C 1242 2115 1747 2368 2150 2368 
C 2266 2368 2278 2368 2278 2555 
L 2278 2860 
C 2278 2989 2278 3034 2163 3034 
C 1984 3034 1517 2970 1216 2271 
L 1210 2271 
L 1210 2690 
C 1210 2897 1165 3001 902 3001 
L 698 3001 
C 467 3001 390 2930 390 2690 
L 390 310 
C 390 78 461 0 698 0 
L 934 0 
C 1178 0 1242 84 1242 312 
L 1242 1496 
z
" transform="scale(0.015625)"/>
      <path id="CMSSBX10-67" d="M 1280 577 
C 1050 577 960 577 870 656 
C 845 681 736 779 736 949 
C 736 994 742 1007 749 1046 
C 1050 878 1427 878 1562 878 
C 1830 878 2848 878 2848 1950 
C 2848 2326 2707 2553 2650 2624 
C 2758 2624 2982 2624 3245 2553 
C 3270 2540 3315 2527 3334 2527 
C 3386 2527 3418 2566 3418 2611 
C 3418 2637 3386 2792 3373 2857 
C 3347 3012 3347 3025 3232 3025 
C 3034 3025 2714 2948 2470 2799 
C 2170 2999 1837 3025 1562 3025 
C 1293 3025 275 3025 275 1954 
C 275 1694 346 1370 589 1156 
C 416 915 416 663 416 630 
C 416 507 454 293 589 118 
C 493 79 160 -37 160 -451 
C 160 -652 256 -988 659 -1176 
C 1024 -1344 1453 -1344 1754 -1344 
C 2131 -1344 3354 -1344 3354 -429 
C 3354 577 2451 577 1587 577 
L 1280 577 
z
M 1562 1344 
C 1114 1344 1094 1591 1094 1949 
C 1094 2306 1114 2560 1562 2560 
C 2010 2560 2029 2313 2029 1955 
C 2029 1597 2010 1344 1562 1344 
z
M 1907 -128 
C 2426 -128 2694 -217 2694 -448 
C 2694 -879 1965 -879 1760 -879 
C 1504 -879 819 -879 819 -430 
C 819 -128 1018 -128 1165 -128 
L 1907 -128 
z
" transform="scale(0.015625)"/>
      <path id="CMSSBX10-69" d="M 653 4480 
C 448 4480 346 4441 346 4182 
L 346 3885 
C 346 3678 410 3594 646 3594 
L 979 3594 
C 1286 3594 1286 3730 1286 4034 
C 1286 4344 1286 4480 979 4480 
L 653 4480 
z
M 1242 2634 
C 1242 2841 1197 2944 934 2944 
L 698 2944 
C 467 2944 390 2873 390 2634 
L 390 292 
C 390 60 461 -18 698 -18 
L 934 -18 
C 1178 -18 1242 66 1242 292 
L 1242 2634 
z
" transform="scale(0.015625)"/>
      <path id="CMSSBX10-6f" d="M 3315 1459 
C 3315 2517 2803 3072 1760 3072 
C 691 3072 198 2497 198 1459 
C 198 407 749 -64 1754 -64 
C 2758 -64 3315 401 3315 1459 
z
M 1760 440 
C 1069 440 1069 1020 1069 1536 
C 1069 2033 1069 2606 1754 2606 
C 2445 2606 2445 2039 2445 1536 
C 2445 1027 2445 440 1760 440 
z
" transform="scale(0.015625)"/>
      <path id="CMSSBX10-70" d="M 1261 242 
C 1549 -82 1901 -82 1990 -82 
C 3347 -82 3347 1154 3347 1476 
C 3347 1791 3347 3008 2189 3008 
C 1811 3008 1472 2853 1242 2633 
C 1242 2872 1152 2937 934 2937 
L 698 2937 
C 467 2937 390 2866 390 2627 
L 390 -969 
C 390 -1202 461 -1280 698 -1280 
L 954 -1280 
C 1197 -1280 1261 -1195 1261 -966 
L 1261 242 
z
M 1261 2292 
C 1331 2356 1542 2504 1818 2504 
C 2470 2504 2477 1746 2477 1463 
C 2477 1206 2477 384 1754 384 
C 1606 384 1491 435 1414 492 
C 1261 602 1261 634 1261 750 
L 1261 2292 
z
" transform="scale(0.015625)"/>
      <path id="CMSSBX10-74" d="M 1395 2496 
L 1965 2496 
C 2042 2496 2272 2496 2272 2729 
C 2272 2962 2042 2962 1965 2962 
L 1395 2962 
L 1395 3498 
C 1395 3705 1350 3808 1088 3808 
L 890 3808 
C 659 3808 582 3737 582 3498 
L 582 2962 
L 435 2962 
C 365 2962 128 2962 128 2729 
C 128 2496 358 2496 435 2496 
L 563 2496 
L 563 864 
C 563 213 794 -64 1235 -64 
C 1293 -64 1574 -64 1907 39 
C 2016 72 2387 188 2387 311 
C 2387 330 2374 376 2336 510 
C 2304 639 2291 678 2234 678 
C 2202 678 2195 671 2157 632 
C 2086 582 1914 440 1645 440 
C 1491 440 1395 550 1395 975 
L 1395 2496 
z
" transform="scale(0.015625)"/>
      <path id="CMSSBX10-6d" d="M 5158 2096 
C 5158 2761 4877 3025 4224 3025 
C 3770 3025 3418 2812 3187 2386 
C 3085 3012 2541 3012 2272 3012 
C 2150 3012 1882 3012 1594 2803 
C 1395 2658 1267 2455 1222 2360 
L 1216 2360 
L 1216 2687 
C 1216 2896 1171 3001 909 3001 
L 691 3001 
C 461 3001 384 2930 384 2690 
L 384 310 
C 384 78 454 0 691 0 
L 947 0 
C 1190 0 1254 84 1254 309 
L 1254 1735 
C 1254 2315 1645 2560 1958 2560 
C 2266 2560 2336 2424 2336 2082 
L 2336 309 
C 2336 78 2406 0 2643 0 
L 2899 0 
C 3142 0 3206 84 3206 309 
L 3206 1735 
C 3206 2315 3597 2560 3910 2560 
C 4218 2560 4288 2424 4288 2082 
L 4288 309 
C 4288 78 4358 0 4595 0 
L 4851 0 
C 5094 0 5158 84 5158 309 
L 5158 2096 
z
" transform="scale(0.015625)"/>
      <path id="CMSSBX10-61" d="M 2970 2050 
C 2970 3072 1997 3072 1677 3072 
C 1376 3072 1056 3046 627 2868 
C 493 2811 461 2792 461 2722 
C 461 2677 499 2300 506 2248 
C 512 2209 544 2177 589 2177 
C 621 2177 640 2196 659 2216 
C 934 2508 1254 2651 1651 2651 
C 1997 2651 2099 2435 2099 2049 
L 2099 1820 
C 1875 1820 198 1820 198 868 
C 198 415 557 -64 1120 -64 
C 1338 -64 1818 1 2118 447 
L 2118 317 
C 2118 110 2163 7 2426 7 
L 2662 7 
C 2906 7 2970 91 2970 317 
L 2970 2050 
z
M 2099 988 
C 2099 402 1491 402 1472 402 
C 1203 402 1030 639 1030 889 
C 1030 1536 1920 1536 2099 1536 
L 2099 988 
z
" transform="scale(0.015625)"/>
      <path id="CMSSBX10-6c" d="M 1242 4170 
C 1242 4377 1197 4480 934 4480 
L 698 4480 
C 467 4480 390 4409 390 4170 
L 390 302 
C 390 70 461 -8 698 -8 
L 934 -8 
C 1178 -8 1242 76 1242 302 
L 1242 4170 
z
" transform="scale(0.015625)"/>
      <path id="CMSSBX10-53" d="M 1728 2867 
C 1587 2899 1190 3049 1190 3418 
C 1190 3968 1734 3968 1952 3968 
C 2310 3968 2630 3884 2944 3574 
C 3046 3477 3053 3471 3078 3471 
C 3117 3471 3149 3490 3168 3587 
L 3264 4152 
C 3277 4203 3277 4216 3277 4236 
C 3277 4288 3270 4295 3110 4380 
C 2656 4608 2278 4641 1952 4641 
C 1382 4641 390 4505 390 3290 
C 390 2829 627 2531 749 2401 
C 1075 2063 1376 1998 1875 1882 
C 2234 1798 2374 1765 2515 1635 
C 2579 1571 2714 1434 2714 1187 
C 2714 577 2163 577 1952 577 
C 1414 577 947 795 627 1083 
C 550 1159 538 1159 512 1159 
C 474 1159 442 1140 422 1042 
L 326 476 
C 314 424 314 411 314 392 
C 314 255 979 21 1011 8 
C 1440 -128 1786 -128 1952 -128 
C 2912 -128 3514 305 3514 1308 
C 3514 2033 2982 2576 2342 2725 
L 1728 2867 
z
" transform="scale(0.015625)"/>
      <path id="CMSSBX10-76" d="M 2995 2671 
C 3027 2762 3027 2775 3027 2794 
C 3027 2976 2867 2976 2771 2976 
L 2637 2976 
C 2368 2976 2298 2879 2240 2697 
L 1606 734 
L 973 2697 
C 928 2833 883 2976 576 2976 
L 422 2976 
C 326 2976 166 2976 166 2794 
C 166 2775 166 2762 198 2670 
L 960 273 
C 1050 0 1248 0 1363 0 
L 1830 0 
C 1946 0 2144 0 2234 273 
L 2995 2671 
z
" transform="scale(0.015625)"/>
      <path id="CMSSBX10-75" d="M 3200 2652 
C 3200 2859 3155 2962 2893 2962 
L 2637 2962 
C 2394 2962 2330 2878 2330 2653 
L 2330 1124 
C 2330 698 2106 330 1651 330 
C 1293 330 1254 421 1254 763 
L 1254 2653 
C 1254 2859 1210 2962 947 2962 
L 691 2962 
C 461 2962 384 2891 384 2653 
L 384 820 
C 384 130 755 -64 1421 -64 
C 1594 -64 2048 -64 2349 485 
L 2349 314 
C 2349 104 2394 0 2656 0 
L 2893 0 
C 3136 0 3200 84 3200 310 
L 3200 2652 
z
" transform="scale(0.015625)"/>
      <path id="CMSSBX10-66" d="M 1402 2496 
L 1709 2496 
C 1786 2496 2016 2496 2016 2729 
C 2016 2962 1786 2962 1709 2962 
L 1382 2962 
L 1382 3668 
C 1382 3837 1382 4096 1798 4096 
C 2003 4096 2131 4038 2259 3915 
C 2304 3863 2323 3850 2355 3850 
C 2438 3850 2438 3915 2438 4018 
L 2438 4316 
C 2438 4471 2432 4477 2214 4523 
C 2029 4561 1894 4561 1798 4561 
C 1318 4561 550 4452 550 3480 
L 550 2962 
C 416 2962 192 2962 192 2729 
C 192 2496 410 2496 550 2496 
L 550 310 
C 550 78 621 0 858 0 
L 1094 0 
C 1338 0 1402 84 1402 310 
L 1402 2496 
z
" transform="scale(0.015625)"/>
      <path id="CMSSBX10-2d" d="M 1645 1280 
C 1722 1280 1952 1280 1952 1513 
C 1952 1746 1722 1746 1645 1746 
L 384 1746 
C 307 1746 77 1746 77 1513 
C 77 1280 307 1280 384 1280 
L 1645 1280 
z
" transform="scale(0.015625)"/>
      <path id="CMSSBX10-b" d="M 1402 2496 
L 1715 2496 
C 1792 2496 2022 2496 2022 2729 
C 2022 2962 1792 2962 1715 2962 
L 1382 2962 
L 1382 3668 
C 1382 3837 1382 4096 1805 4096 
C 2010 4096 2138 4038 2266 3915 
C 2310 3863 2330 3850 2362 3850 
C 2445 3850 2445 3915 2445 4018 
L 2445 4316 
C 2445 4471 2438 4477 2221 4523 
C 2035 4561 1901 4561 1805 4561 
C 1261 4561 550 4413 550 3480 
L 550 2962 
C 416 2962 192 2962 192 2729 
C 192 2496 410 2496 550 2496 
L 550 310 
C 550 78 621 0 858 0 
L 1094 0 
C 1338 0 1402 84 1402 310 
L 1402 2496 
z
M 3354 2496 
L 3667 2496 
C 3744 2496 3974 2496 3974 2729 
C 3974 2962 3744 2962 3667 2962 
L 3334 2962 
L 3334 3668 
C 3334 3837 3334 4096 3757 4096 
C 3962 4096 4090 4038 4218 3915 
C 4262 3863 4282 3850 4314 3850 
C 4397 3850 4397 3915 4397 4018 
L 4397 4316 
C 4397 4471 4390 4477 4173 4523 
C 3987 4561 3853 4561 3757 4561 
C 3213 4561 2502 4413 2502 3481 
L 2502 310 
C 2502 103 2547 0 2810 0 
L 3046 0 
C 3290 0 3354 84 3354 310 
L 3354 2496 
z
" transform="scale(0.015625)"/>
      <path id="CMSSBX10-52" d="M 3091 2059 
C 3494 2156 4102 2402 4102 3205 
C 4102 4480 2714 4480 2426 4480 
L 890 4480 
C 659 4480 582 4409 582 4170 
L 582 298 
C 582 66 653 -12 890 -12 
L 1197 -12 
C 1440 -12 1504 71 1504 296 
L 1504 1984 
L 2214 1984 
L 3264 142 
C 3354 -12 3424 -12 3565 -12 
L 3942 -12 
C 4070 -12 4179 -12 4179 181 
L 3091 2059 
z
M 1504 2450 
L 1504 3924 
L 2336 3924 
C 3078 3924 3213 3623 3213 3191 
C 3213 2804 3123 2450 2336 2450 
L 1504 2450 
z
" transform="scale(0.015625)"/>
      <path id="CMSSBX10-6b" d="M 2003 1751 
L 2989 2676 
C 3066 2747 3085 2766 3085 2818 
C 3085 2954 2957 2954 2867 2954 
L 2496 2954 
C 2381 2954 2259 2954 2112 2818 
L 1190 1952 
L 1190 4170 
C 1190 4377 1146 4480 883 4480 
L 749 4480 
C 518 4480 442 4409 442 4170 
L 442 302 
C 442 70 512 -8 749 -8 
L 864 -8 
C 1107 -8 1171 76 1171 302 
L 1171 975 
L 1472 1253 
L 2304 154 
C 2413 11 2458 -8 2643 -8 
L 2950 -8 
C 3040 -8 3181 -8 3181 134 
C 3181 147 3181 192 3117 277 
L 2003 1751 
z
" transform="scale(0.015625)"/>
      <path id="CMSSBX10-73" d="M 2534 902 
C 2534 1267 2342 1496 2227 1600 
C 1971 1836 1747 1875 1478 1927 
C 1126 1992 870 2045 870 2299 
C 870 2566 1082 2619 1331 2619 
C 1760 2619 1990 2456 2157 2313 
C 2221 2248 2234 2248 2259 2248 
C 2323 2248 2336 2306 2342 2332 
C 2355 2384 2419 2747 2419 2779 
C 2419 2884 2080 2975 2010 3000 
C 1754 3072 1549 3072 1382 3072 
C 1094 3072 237 3072 237 2145 
C 237 1827 378 1633 550 1477 
C 774 1270 1024 1225 1389 1154 
C 1574 1121 1901 1062 1901 778 
C 1901 473 1651 427 1402 427 
C 1120 427 762 512 461 877 
C 429 909 410 928 371 928 
C 307 928 294 871 288 832 
C 275 743 198 378 198 313 
C 198 198 672 51 678 45 
C 1030 -64 1293 -64 1402 -64 
C 1728 -64 2534 -64 2534 902 
z
" transform="scale(0.015625)"/>
     </defs>
     <use xlink:href="#CMSSBX10-45" transform="scale(0.996264)"/>
     <use xlink:href="#CMSSBX10-6e" transform="translate(63.927295 0) scale(0.996264)"/>
     <use xlink:href="#CMSSBX10-65" transform="translate(119.829083 0) scale(0.996264)"/>
     <use xlink:href="#CMSSBX10-72" transform="translate(170.749536 0) scale(0.996264)"/>
     <use xlink:href="#CMSSBX10-67" transform="translate(207.832946 0) scale(0.996264)"/>
     <use xlink:href="#CMSSBX10-69" transform="translate(262.627771 0) scale(0.996264)"/>
     <use xlink:href="#CMSSBX10-65" transform="translate(288.08799 0) scale(0.996264)"/>
     <use xlink:href="#CMSSBX10-6f" transform="translate(339.008442 0) scale(0.996264)"/>
     <use xlink:href="#CMSSBX10-70" transform="translate(393.803267 0) scale(0.996264)"/>
     <use xlink:href="#CMSSBX10-74" transform="translate(449.705055 0) scale(0.996264)"/>
     <use xlink:href="#CMSSBX10-69" transform="translate(489.970959 0) scale(0.996264)"/>
     <use xlink:href="#CMSSBX10-6d" transform="translate(515.431177 0) scale(0.996264)"/>
     <use xlink:href="#CMSSBX10-61" transform="translate(601.774534 0) scale(0.996264)"/>
     <use xlink:href="#CMSSBX10-6c" transform="translate(654.078729 0) scale(0.996264)"/>
     <use xlink:href="#CMSSBX10-65" transform="translate(679.538948 0) scale(0.996264)"/>
     <use xlink:href="#CMSSBX10-53" transform="translate(766.989284 0) scale(0.996264)"/>
     <use xlink:href="#CMSSBX10-74" transform="translate(827.872422 0) scale(0.996264)"/>
     <use xlink:href="#CMSSBX10-72" transform="translate(868.138326 0) scale(0.996264)"/>
     <use xlink:href="#CMSSBX10-6f" transform="translate(905.221736 0) scale(0.996264)"/>
     <use xlink:href="#CMSSBX10-6d" transform="translate(960.016561 0) scale(0.996264)"/>
     <use xlink:href="#CMSSBX10-76" transform="translate(1046.359918 0) scale(0.996264)"/>
     <use xlink:href="#CMSSBX10-65" transform="translate(1096.173392 0) scale(0.996264)"/>
     <use xlink:href="#CMSSBX10-72" transform="translate(1147.093845 0) scale(0.996264)"/>
     <use xlink:href="#CMSSBX10-6c" transform="translate(1184.177255 0) scale(0.996264)"/>
     <use xlink:href="#CMSSBX10-61" transform="translate(1209.637474 0) scale(0.996264)"/>
     <use xlink:href="#CMSSBX10-75" transform="translate(1261.941669 0) scale(0.996264)"/>
     <use xlink:href="#CMSSBX10-66" transform="translate(1317.843457 0) scale(0.996264)"/>
     <use xlink:href="#CMSSBX10-2d" transform="translate(1387.859066 0) scale(0.996264)"/>
     <use xlink:href="#CMSSBX10-6f" transform="translate(1460.918832 0) scale(0.996264)"/>
     <use xlink:href="#CMSSBX10-b" transform="translate(1515.713657 0) scale(0.996264)"/>
     <use xlink:href="#CMSSBX10-65" transform="translate(1579.640952 0) scale(0.996264)"/>
     <use xlink:href="#CMSSBX10-6e" transform="translate(1630.561405 0) scale(0.996264)"/>
     <use xlink:href="#CMSSBX10-65" transform="translate(1686.463193 0) scale(0.996264)"/>
     <use xlink:href="#CMSSBX10-72" transform="translate(1737.383646 0) scale(0.996264)"/>
     <use xlink:href="#CMSSBX10-52" transform="translate(1810.996939 0) scale(0.996264)"/>
     <use xlink:href="#CMSSBX10-65" transform="translate(1881.012548 0) scale(0.996264)"/>
     <use xlink:href="#CMSSBX10-67" transform="translate(1931.933001 0) scale(0.996264)"/>
     <use xlink:href="#CMSSBX10-65" transform="translate(1986.727825 0) scale(0.996264)"/>
     <use xlink:href="#CMSSBX10-6c" transform="translate(2037.648278 0) scale(0.996264)"/>
     <use xlink:href="#CMSSBX10-6b" transform="translate(2063.108497 0) scale(0.996264)"/>
     <use xlink:href="#CMSSBX10-72" transform="translate(2115.966128 0) scale(0.996264)"/>
     <use xlink:href="#CMSSBX10-65" transform="translate(2153.049538 0) scale(0.996264)"/>
     <use xlink:href="#CMSSBX10-69" transform="translate(2203.969991 0) scale(0.996264)"/>
     <use xlink:href="#CMSSBX10-73" transform="translate(2229.43021 0) scale(0.996264)"/>
    </g>
   </g>
   <g id="legend_1">
    <g id="patch_7">
     <path d="M 335.595618 160.931762 
L 758 160.931762 
Q 763.6 160.931762 763.6 155.331762 
L 763.6 80.08 
Q 763.6 74.48 758 74.48 
L 335.595618 74.48 
Q 329.995618 74.48 329.995618 80.08 
L 329.995618 155.331762 
Q 329.995618 160.931762 335.595618 160.931762 
z
" style="fill: #ffffff; opacity: 0.8; stroke: #cccccc; stroke-linejoin: miter"/>
    </g>
    <g id="line2d_21">
     <path d="M 341.195618 95.48 
L 369.195618 95.48 
L 397.195618 95.48 
" style="fill: none; stroke: #ff0000; stroke-width: 2; stroke-linecap: square"/>
    </g>
    <g id="text_13">
     <!-- Referenzwert der Vorbereitung -->
     <g transform="translate(419.595618 105.28) scale(0.28 -0.28)">
      <defs>
       <path id="CMSS17-52" d="M 2522 2109 
L 2534 2115 
C 3533 2459 3539 3147 3539 3268 
C 3539 3873 2925 4453 2003 4453 
L 570 4453 
L 570 32 
L 1094 32 
L 1094 2048 
L 2035 2048 
L 3168 32 
L 3706 32 
L 2522 2109 
z
M 1094 2437 
L 1094 4096 
L 1933 4096 
C 2746 4096 3034 3637 3034 3267 
C 3034 2922 2778 2437 1933 2437 
L 1094 2437 
z
" transform="scale(0.015625)"/>
       <path id="CMSS17-66" d="M 1075 2368 
L 1722 2368 
L 1722 2737 
L 1062 2737 
L 1062 3559 
C 1062 4014 1408 4092 1606 4092 
C 1670 4092 1850 4092 2080 4009 
L 2080 4429 
C 1933 4461 1754 4480 1613 4480 
C 1018 4480 602 3993 602 3359 
L 602 2737 
L 160 2737 
L 160 2368 
L 602 2368 
L 602 0 
L 1075 0 
L 1075 2368 
z
" transform="scale(0.015625)"/>
       <path id="CMSS17-7a" d="M 2400 2502 
L 2400 2750 
L 250 2750 
L 250 2368 
L 1069 2368 
C 1146 2368 1222 2368 1299 2368 
L 1747 2368 
L 166 261 
L 166 0 
L 2419 0 
L 2419 395 
L 1549 395 
C 1472 395 1395 395 1318 395 
L 826 395 
L 2400 2502 
z
" transform="scale(0.015625)"/>
       <path id="CMSS17-77" d="M 4013 2752 
L 3526 2752 
L 3187 1601 
C 3117 1358 2918 685 2893 371 
L 2886 371 
C 2874 564 2765 1024 2586 1633 
L 2259 2752 
L 1818 2752 
L 1498 1658 
C 1338 1101 1216 627 1203 371 
L 1197 371 
C 1171 749 909 1633 870 1773 
L 582 2752 
L 83 2752 
L 915 0 
L 1402 0 
C 1734 1096 1990 1943 2010 2370 
C 2022 2160 2131 1707 2195 1484 
L 2618 0 
L 3181 0 
L 4013 2752 
z
" transform="scale(0.015625)"/>
       <path id="CMSS17-64" d="M 2611 4416 
L 2138 4416 
L 2138 2438 
C 1939 2603 1613 2756 1254 2756 
C 672 2756 211 2131 211 1347 
C 211 562 666 -64 1235 -64 
C 1677 -64 1971 172 2125 306 
L 2125 -13 
L 2611 -13 
L 2611 4416 
z
M 2125 836 
C 2125 747 2125 653 1926 482 
C 1798 375 1645 325 1498 325 
C 1152 325 698 576 698 1340 
C 698 2134 1210 2368 1562 2368 
C 1798 2368 1990 2254 2125 2065 
L 2125 836 
z
" transform="scale(0.015625)"/>
       <path id="CMSS17-56" d="M 3910 4416 
L 3411 4416 
L 2304 1362 
C 2272 1273 2074 688 2035 484 
L 2029 484 
C 1978 726 1773 1292 1664 1604 
L 922 3672 
L 646 4416 
L 83 4416 
L 1715 0 
L 2278 0 
L 3910 4416 
z
" transform="scale(0.015625)"/>
       <path id="CMSS17-62" d="M 954 4416 
L 480 4416 
L 480 -13 
L 966 -13 
L 966 274 
C 1210 38 1504 -64 1766 -64 
C 2381 -64 2880 549 2880 1352 
C 2880 2086 2496 2756 1926 2756 
C 1523 2756 1165 2591 954 2419 
L 954 4416 
z
M 966 2046 
C 1107 2222 1306 2368 1587 2368 
C 1965 2368 2394 2097 2394 1352 
C 2394 558 1882 325 1530 325 
C 1402 325 1267 356 1139 464 
C 966 615 966 709 966 797 
L 966 2046 
z
" transform="scale(0.015625)"/>
       <path id="CMSS17-75" d="M 2618 2739 
L 2131 2739 
L 2131 972 
C 2131 498 1786 306 1421 306 
C 998 306 960 447 960 709 
L 960 2739 
L 474 2739 
L 474 678 
C 474 179 646 -64 1088 -64 
C 1306 -64 1798 -13 2144 306 
L 2144 0 
L 2618 0 
L 2618 2739 
z
" transform="scale(0.015625)"/>
       <path id="CMSS17-67" d="M 2848 2808 
C 2483 2808 2170 2738 1914 2617 
C 1702 2777 1485 2808 1338 2808 
C 781 2808 358 2349 358 1814 
C 358 1468 550 1207 563 1195 
C 448 1035 384 863 384 672 
C 384 448 474 289 544 200 
C 211 -3 166 -314 166 -435 
C 166 -898 749 -1280 1498 -1280 
C 2253 -1280 2835 -898 2835 -428 
C 2835 448 1856 448 1587 448 
L 1069 448 
C 973 448 717 448 717 791 
C 717 921 774 1004 781 1010 
C 877 940 1075 832 1338 832 
C 1869 832 2310 1278 2310 1827 
C 2310 2132 2170 2355 2112 2432 
L 2131 2432 
C 2150 2432 2419 2432 2515 2432 
C 2720 2432 2739 2429 2918 2419 
L 2848 2808 
z
M 1338 1182 
C 1120 1182 813 1315 813 1823 
C 813 2375 1165 2464 1331 2464 
C 1549 2464 1856 2331 1856 1823 
C 1856 1271 1504 1182 1338 1182 
z
M 1581 -10 
C 1734 -10 2381 -10 2381 -442 
C 2381 -714 1984 -929 1504 -929 
C 1018 -929 621 -720 621 -435 
C 621 -403 621 -10 1062 -10 
L 1581 -10 
z
" transform="scale(0.015625)"/>
      </defs>
      <use xlink:href="#CMSS17-52" transform="scale(0.996264)"/>
      <use xlink:href="#CMSS17-65" transform="translate(60.416155 0) scale(0.996264)"/>
      <use xlink:href="#CMSS17-66" transform="translate(102.054977 0) scale(0.996264)"/>
      <use xlink:href="#CMSS17-65" transform="translate(130.681636 0) scale(0.996264)"/>
      <use xlink:href="#CMSS17-72" transform="translate(172.320458 0) scale(0.996264)"/>
      <use xlink:href="#CMSS17-65" transform="translate(204.23023 0) scale(0.996264)"/>
      <use xlink:href="#CMSS17-6e" transform="translate(245.869052 0) scale(0.996264)"/>
      <use xlink:href="#CMSS17-7a" transform="translate(294.073996 0) scale(0.996264)"/>
      <use xlink:href="#CMSS17-77" transform="translate(334.751867 0) scale(0.996264)"/>
      <use xlink:href="#CMSS17-65" transform="translate(395.968959 0) scale(0.996264)"/>
      <use xlink:href="#CMSS17-72" transform="translate(437.607781 0) scale(0.996264)"/>
      <use xlink:href="#CMSS17-74" transform="translate(469.517553 0) scale(0.996264)"/>
      <use xlink:href="#CMSS17-64" transform="translate(534.578233 0) scale(0.996264)"/>
      <use xlink:href="#CMSS17-65" transform="translate(582.783176 0) scale(0.996264)"/>
      <use xlink:href="#CMSS17-72" transform="translate(624.421998 0) scale(0.996264)"/>
      <use xlink:href="#CMSS17-56" transform="translate(687.560883 0) scale(0.996264)"/>
      <use xlink:href="#CMSS17-6f" transform="translate(747.176284 0) scale(0.996264)"/>
      <use xlink:href="#CMSS17-72" transform="translate(791.417454 0) scale(0.996264)"/>
      <use xlink:href="#CMSS17-62" transform="translate(823.327226 0) scale(0.996264)"/>
      <use xlink:href="#CMSS17-65" transform="translate(874.134608 0) scale(0.996264)"/>
      <use xlink:href="#CMSS17-72" transform="translate(915.77343 0) scale(0.996264)"/>
      <use xlink:href="#CMSS17-65" transform="translate(947.683203 0) scale(0.996264)"/>
      <use xlink:href="#CMSS17-69" transform="translate(989.322025 0) scale(0.996264)"/>
      <use xlink:href="#CMSS17-74" transform="translate(1011.502748 0) scale(0.996264)"/>
      <use xlink:href="#CMSS17-75" transform="translate(1045.334315 0) scale(0.996264)"/>
      <use xlink:href="#CMSS17-6e" transform="translate(1093.539258 0) scale(0.996264)"/>
      <use xlink:href="#CMSS17-67" transform="translate(1141.744201 0) scale(0.996264)"/>
     </g>
    </g>
    <g id="line2d_22">
     <path d="M 341.195618 134.505881 
L 369.195618 134.505881 
L 397.195618 134.505881 
" style="fill: none; stroke-dasharray: 7.4,3.2; stroke-dashoffset: 0; stroke: #008000; stroke-width: 2"/>
    </g>
    <g id="text_14">
     <!-- Messung -->
     <g transform="translate(419.595618 144.305881) scale(0.28 -0.28)">
      <defs>
       <path id="CMSS17-4d" d="M 3194 2371 
L 2886 1473 
C 2835 1307 2662 791 2624 587 
L 2618 587 
C 2598 715 2560 849 2458 1174 
C 2400 1365 2336 1562 2272 1741 
L 1325 4416 
L 576 4416 
L 576 0 
L 1075 0 
L 1075 3900 
L 1082 3900 
C 1082 3894 1139 3613 1530 2499 
L 2374 96 
L 2848 96 
L 3610 2231 
C 3661 2378 3821 2843 3891 3066 
C 3955 3257 4115 3728 4154 3913 
L 4160 3913 
L 4160 0 
L 4666 0 
L 4666 4416 
L 3923 4416 
L 3194 2371 
z
" transform="scale(0.015625)"/>
      </defs>
      <use xlink:href="#CMSS17-4d" transform="scale(0.996264)"/>
      <use xlink:href="#CMSS17-65" transform="translate(81.67603 0) scale(0.996264)"/>
      <use xlink:href="#CMSS17-73" transform="translate(123.314852 0) scale(0.996264)"/>
      <use xlink:href="#CMSS17-73" transform="translate(159.228394 0) scale(0.996264)"/>
      <use xlink:href="#CMSS17-75" transform="translate(195.141936 0) scale(0.996264)"/>
      <use xlink:href="#CMSS17-6e" transform="translate(243.346879 0) scale(0.996264)"/>
      <use xlink:href="#CMSS17-67" transform="translate(291.551822 0) scale(0.996264)"/>
     </g>
    </g>
   </g>
  </g>
 </g>
 <defs>
  <clipPath id="p55ebbe9361">
   <rect x="108" y="60.48" width="669.6" height="388.08"/>
  </clipPath>
 </defs>
</svg>
