<?xml version="1.0" encoding="utf-8" standalone="no"?>
<!DOCTYPE svg PUBLIC "-//W3C//DTD SVG 1.1//EN"
  "http://www.w3.org/Graphics/SVG/1.1/DTD/svg11.dtd">
<svg xmlns:xlink="http://www.w3.org/1999/xlink" width="864pt" height="504pt" viewBox="0 0 864 504" xmlns="http://www.w3.org/2000/svg" version="1.1">
 <metadata>
  <rdf:RDF xmlns:dc="http://purl.org/dc/elements/1.1/" xmlns:cc="http://creativecommons.org/ns#" xmlns:rdf="http://www.w3.org/1999/02/22-rdf-syntax-ns#">
   <cc:Work>
    <dc:type rdf:resource="http://purl.org/dc/dcmitype/StillImage"/>
    <dc:date>2023-05-23T15:32:22.156960</dc:date>
    <dc:format>image/svg+xml</dc:format>
    <dc:creator>
     <cc:Agent>
      <dc:title>Matplotlib v3.7.1, https://matplotlib.org/</dc:title>
     </cc:Agent>
    </dc:creator>
   </cc:Work>
  </rdf:RDF>
 </metadata>
 <defs>
  <style type="text/css">*{stroke-linejoin: round; stroke-linecap: butt}</style>
 </defs>
 <g id="figure_1">
  <g id="patch_1">
   <path d="M 0 504 
L 864 504 
L 864 0 
L 0 0 
z
" style="fill: #ffffff"/>
  </g>
  <g id="axes_1">
   <g id="patch_2">
    <path d="M 108 448.56 
L 777.6 448.56 
L 777.6 60.48 
L 108 60.48 
z
" style="fill: #ffffff"/>
   </g>
   <g id="matplotlib.axis_1">
    <g id="xtick_1">
     <g id="line2d_1">
      <path d="M 156.716462 448.56 
L 156.716462 60.48 
" clip-path="url(#pe922524b10)" style="fill: none; stroke: #b0b0b0; stroke-width: 0.8; stroke-linecap: square"/>
     </g>
     <g id="line2d_2">
      <defs>
       <path id="m5d2c10ab35" d="M 0 0 
L 0 3.5 
" style="stroke: #000000; stroke-width: 0.8"/>
      </defs>
      <g>
       <use xlink:href="#m5d2c10ab35" x="156.716462" y="448.56" style="stroke: #000000; stroke-width: 0.8"/>
      </g>
     </g>
     <g id="text_1">
      <!-- $\mathdefault{2.0}$ -->
      <g transform="translate(147.367936 465.937725) scale(0.15 -0.15)">
       <defs>
        <path id="CMR17-32" d="M 2669 989 
L 2554 989 
C 2490 536 2438 459 2413 420 
C 2381 369 1920 369 1830 369 
L 602 369 
C 832 619 1280 1072 1824 1597 
C 2214 1967 2669 2402 2669 3035 
C 2669 3790 2067 4224 1395 4224 
C 691 4224 262 3604 262 3030 
C 262 2780 448 2748 525 2748 
C 589 2748 781 2787 781 3010 
C 781 3207 614 3264 525 3264 
C 486 3264 448 3258 422 3245 
C 544 3790 915 4058 1306 4058 
C 1862 4058 2227 3617 2227 3035 
C 2227 2479 1901 2000 1536 1584 
L 262 146 
L 262 0 
L 2515 0 
L 2669 989 
z
" transform="scale(0.015625)"/>
        <path id="CMMI12-3a" d="M 1178 307 
C 1178 492 1024 619 870 619 
C 685 619 557 466 557 313 
C 557 128 710 0 864 0 
C 1050 0 1178 153 1178 307 
z
" transform="scale(0.015625)"/>
        <path id="CMR17-30" d="M 2688 2025 
C 2688 2416 2682 3080 2413 3591 
C 2176 4039 1798 4198 1466 4198 
C 1158 4198 768 4058 525 3597 
C 269 3118 243 2524 243 2025 
C 243 1661 250 1106 448 619 
C 723 -39 1216 -128 1466 -128 
C 1760 -128 2208 -7 2470 600 
C 2662 1042 2688 1559 2688 2025 
z
M 1466 -26 
C 1056 -26 813 325 723 812 
C 653 1188 653 1738 653 2096 
C 653 2588 653 2997 736 3387 
C 858 3929 1216 4096 1466 4096 
C 1728 4096 2067 3923 2189 3400 
C 2272 3036 2278 2607 2278 2096 
C 2278 1680 2278 1169 2202 792 
C 2067 95 1690 -26 1466 -26 
z
" transform="scale(0.015625)"/>
       </defs>
       <use xlink:href="#CMR17-32" transform="scale(0.996264)"/>
       <use xlink:href="#CMMI12-3a" transform="translate(45.690477 0) scale(0.996264)"/>
       <use xlink:href="#CMR17-30" transform="translate(72.787654 0) scale(0.996264)"/>
      </g>
     </g>
    </g>
    <g id="xtick_2">
     <g id="line2d_3">
      <path d="M 278.583784 448.56 
L 278.583784 60.48 
" clip-path="url(#pe922524b10)" style="fill: none; stroke: #b0b0b0; stroke-width: 0.8; stroke-linecap: square"/>
     </g>
     <g id="line2d_4">
      <g>
       <use xlink:href="#m5d2c10ab35" x="278.583784" y="448.56" style="stroke: #000000; stroke-width: 0.8"/>
      </g>
     </g>
     <g id="text_2">
      <!-- $\mathdefault{2.2}$ -->
      <g transform="translate(269.235258 465.937725) scale(0.15 -0.15)">
       <use xlink:href="#CMR17-32" transform="scale(0.996264)"/>
       <use xlink:href="#CMMI12-3a" transform="translate(45.690477 0) scale(0.996264)"/>
       <use xlink:href="#CMR17-32" transform="translate(72.787654 0) scale(0.996264)"/>
      </g>
     </g>
    </g>
    <g id="xtick_3">
     <g id="line2d_5">
      <path d="M 400.451106 448.56 
L 400.451106 60.48 
" clip-path="url(#pe922524b10)" style="fill: none; stroke: #b0b0b0; stroke-width: 0.8; stroke-linecap: square"/>
     </g>
     <g id="line2d_6">
      <g>
       <use xlink:href="#m5d2c10ab35" x="400.451106" y="448.56" style="stroke: #000000; stroke-width: 0.8"/>
      </g>
     </g>
     <g id="text_3">
      <!-- $\mathdefault{2.4}$ -->
      <g transform="translate(391.10258 465.937725) scale(0.15 -0.15)">
       <defs>
        <path id="CMR17-34" d="M 2150 4122 
C 2150 4256 2144 4256 2029 4256 
L 128 1254 
L 128 1088 
L 1779 1088 
L 1779 457 
C 1779 224 1766 160 1318 160 
L 1197 160 
L 1197 0 
C 1402 0 1747 0 1965 0 
C 2182 0 2528 0 2733 0 
L 2733 160 
L 2611 160 
C 2163 160 2150 224 2150 457 
L 2150 1088 
L 2803 1088 
L 2803 1254 
L 2150 1254 
L 2150 4122 
z
M 1798 3703 
L 1798 1254 
L 256 1254 
L 1798 3703 
z
" transform="scale(0.015625)"/>
       </defs>
       <use xlink:href="#CMR17-32" transform="scale(0.996264)"/>
       <use xlink:href="#CMMI12-3a" transform="translate(45.690477 0) scale(0.996264)"/>
       <use xlink:href="#CMR17-34" transform="translate(72.787654 0) scale(0.996264)"/>
      </g>
     </g>
    </g>
    <g id="xtick_4">
     <g id="line2d_7">
      <path d="M 522.318428 448.56 
L 522.318428 60.48 
" clip-path="url(#pe922524b10)" style="fill: none; stroke: #b0b0b0; stroke-width: 0.8; stroke-linecap: square"/>
     </g>
     <g id="line2d_8">
      <g>
       <use xlink:href="#m5d2c10ab35" x="522.318428" y="448.56" style="stroke: #000000; stroke-width: 0.8"/>
      </g>
     </g>
     <g id="text_4">
      <!-- $\mathdefault{2.6}$ -->
      <g transform="translate(512.969901 465.937725) scale(0.15 -0.15)">
       <defs>
        <path id="CMR17-36" d="M 678 2176 
C 678 3690 1395 4032 1811 4032 
C 1946 4032 2272 4009 2400 3776 
C 2298 3776 2106 3776 2106 3553 
C 2106 3381 2246 3323 2336 3323 
C 2394 3323 2566 3348 2566 3560 
C 2566 3954 2246 4179 1805 4179 
C 1043 4179 243 3390 243 1984 
C 243 253 966 -128 1478 -128 
C 2099 -128 2688 427 2688 1283 
C 2688 2081 2170 2662 1517 2662 
C 1126 2662 838 2407 678 1960 
L 678 2176 
z
M 1478 25 
C 691 25 691 1200 691 1436 
C 691 1896 909 2560 1504 2560 
C 1613 2560 1926 2560 2138 2120 
C 2253 1870 2253 1609 2253 1289 
C 2253 944 2253 690 2118 434 
C 1978 171 1773 25 1478 25 
z
" transform="scale(0.015625)"/>
       </defs>
       <use xlink:href="#CMR17-32" transform="scale(0.996264)"/>
       <use xlink:href="#CMMI12-3a" transform="translate(45.690477 0) scale(0.996264)"/>
       <use xlink:href="#CMR17-36" transform="translate(72.787654 0) scale(0.996264)"/>
      </g>
     </g>
    </g>
    <g id="xtick_5">
     <g id="line2d_9">
      <path d="M 644.185749 448.56 
L 644.185749 60.48 
" clip-path="url(#pe922524b10)" style="fill: none; stroke: #b0b0b0; stroke-width: 0.8; stroke-linecap: square"/>
     </g>
     <g id="line2d_10">
      <g>
       <use xlink:href="#m5d2c10ab35" x="644.185749" y="448.56" style="stroke: #000000; stroke-width: 0.8"/>
      </g>
     </g>
     <g id="text_5">
      <!-- $\mathdefault{2.8}$ -->
      <g transform="translate(634.837223 465.937725) scale(0.15 -0.15)">
       <defs>
        <path id="CMR17-38" d="M 1741 2264 
C 2144 2467 2554 2773 2554 3263 
C 2554 3841 1990 4179 1472 4179 
C 890 4179 378 3759 378 3180 
C 378 3021 416 2747 666 2505 
C 730 2442 998 2251 1171 2130 
C 883 1983 211 1634 211 934 
C 211 279 838 -128 1459 -128 
C 2144 -128 2720 362 2720 1010 
C 2720 1590 2330 1857 2074 2029 
L 1741 2264 
z
M 902 2822 
C 851 2854 595 3051 595 3351 
C 595 3739 998 4032 1459 4032 
C 1965 4032 2336 3676 2336 3262 
C 2336 2669 1670 2331 1638 2331 
C 1632 2331 1626 2331 1574 2370 
L 902 2822 
z
M 2080 1519 
C 2176 1449 2483 1240 2483 851 
C 2483 381 2010 25 1472 25 
C 890 25 448 438 448 940 
C 448 1443 838 1862 1280 2060 
L 2080 1519 
z
" transform="scale(0.015625)"/>
       </defs>
       <use xlink:href="#CMR17-32" transform="scale(0.996264)"/>
       <use xlink:href="#CMMI12-3a" transform="translate(45.690477 0) scale(0.996264)"/>
       <use xlink:href="#CMR17-38" transform="translate(72.787654 0) scale(0.996264)"/>
      </g>
     </g>
    </g>
    <g id="xtick_6">
     <g id="line2d_11">
      <path d="M 766.053071 448.56 
L 766.053071 60.48 
" clip-path="url(#pe922524b10)" style="fill: none; stroke: #b0b0b0; stroke-width: 0.8; stroke-linecap: square"/>
     </g>
     <g id="line2d_12">
      <g>
       <use xlink:href="#m5d2c10ab35" x="766.053071" y="448.56" style="stroke: #000000; stroke-width: 0.8"/>
      </g>
     </g>
     <g id="text_6">
      <!-- $\mathdefault{3.0}$ -->
      <g transform="translate(756.704545 465.937725) scale(0.15 -0.15)">
       <defs>
        <path id="CMR17-33" d="M 1414 2157 
C 1984 2157 2234 1662 2234 1090 
C 2234 320 1824 25 1453 25 
C 1114 25 563 194 390 693 
C 422 680 454 680 486 680 
C 640 680 755 782 755 948 
C 755 1133 614 1216 486 1216 
C 378 1216 211 1165 211 926 
C 211 335 787 -128 1466 -128 
C 2176 -128 2720 430 2720 1085 
C 2720 1707 2208 2157 1600 2227 
C 2086 2328 2554 2756 2554 3329 
C 2554 3820 2048 4179 1472 4179 
C 890 4179 378 3829 378 3329 
C 378 3110 544 3072 627 3072 
C 762 3072 877 3155 877 3321 
C 877 3486 762 3569 627 3569 
C 602 3569 570 3569 544 3557 
C 730 3959 1235 4032 1459 4032 
C 1683 4032 2106 3925 2106 3320 
C 2106 3143 2080 2828 1862 2550 
C 1670 2304 1453 2304 1242 2284 
C 1210 2284 1062 2269 1037 2269 
C 992 2263 966 2257 966 2208 
C 966 2163 973 2157 1101 2157 
L 1414 2157 
z
" transform="scale(0.015625)"/>
       </defs>
       <use xlink:href="#CMR17-33" transform="scale(0.996264)"/>
       <use xlink:href="#CMMI12-3a" transform="translate(45.690477 0) scale(0.996264)"/>
       <use xlink:href="#CMR17-30" transform="translate(72.787654 0) scale(0.996264)"/>
      </g>
     </g>
    </g>
    <g id="text_7">
     <!-- Zeit t in s -->
     <g transform="translate(412.477438 483.221194) scale(0.15 -0.15)">
      <defs>
       <path id="CMSS17-5a" d="M 3341 4155 
L 3341 4416 
L 416 4416 
L 416 4015 
L 1613 4015 
C 1690 4015 1766 4015 1843 4015 
L 2662 4015 
L 333 274 
L 333 0 
L 3373 0 
L 3373 414 
L 2803 414 
C 2272 414 1734 414 1203 414 
L 1011 414 
L 3341 4155 
z
" transform="scale(0.015625)"/>
       <path id="CMSS17-65" d="M 2502 1377 
C 2502 1590 2490 2003 2285 2345 
C 2061 2713 1696 2816 1421 2816 
C 755 2816 192 2188 192 1375 
C 192 582 774 -64 1510 -64 
C 1798 -64 2150 19 2470 248 
C 2470 274 2458 414 2451 420 
C 2451 433 2432 630 2432 656 
C 2125 407 1773 325 1517 325 
C 1107 325 666 667 646 1377 
L 2502 1377 
z
M 698 1728 
C 781 2084 1062 2421 1421 2421 
C 1517 2421 1965 2421 2080 1728 
L 698 1728 
z
" transform="scale(0.015625)"/>
       <path id="CMSS17-69" d="M 979 4183 
L 442 4183 
L 442 3648 
L 979 3648 
L 979 4183 
z
M 947 2739 
L 474 2739 
L 474 0 
L 947 0 
L 947 2739 
z
" transform="scale(0.015625)"/>
       <path id="CMSS17-74" d="M 1069 2368 
L 1901 2368 
L 1901 2737 
L 1069 2737 
L 1069 3520 
L 614 3520 
L 614 2737 
L 109 2737 
L 109 2368 
L 602 2368 
L 602 749 
C 602 384 685 -64 1107 -64 
C 1427 -64 1722 25 2003 172 
L 1901 548 
C 1747 414 1562 337 1363 337 
C 1082 337 1069 696 1069 856 
L 1069 2368 
z
" transform="scale(0.015625)"/>
       <path id="CMSS17-6e" d="M 2618 1877 
C 2618 2283 2522 2816 1798 2816 
C 1389 2816 1120 2606 941 2389 
L 941 2758 
L 474 2758 
L 474 0 
L 960 0 
L 960 1559 
C 960 1964 1114 2428 1549 2428 
C 2112 2428 2131 2048 2131 1829 
L 2131 0 
L 2618 0 
L 2618 1877 
z
" transform="scale(0.015625)"/>
       <path id="CMSS17-73" d="M 2061 2627 
C 1683 2807 1389 2807 1197 2807 
C 742 2807 198 2648 198 2003 
C 198 1359 902 1218 1094 1179 
C 1389 1122 1715 1058 1715 740 
C 1715 337 1254 337 1171 337 
C 915 337 563 407 243 638 
L 166 210 
C 531 0 883 -64 1178 -64 
C 1965 -64 2163 416 2163 781 
C 2163 1094 1984 1305 1862 1401 
C 1651 1568 1574 1587 1050 1696 
C 960 1709 646 1779 646 2066 
C 646 2432 1050 2432 1139 2432 
C 1555 2432 1811 2303 1984 2208 
L 2061 2627 
z
" transform="scale(0.015625)"/>
      </defs>
      <use xlink:href="#CMSS17-5a" transform="scale(0.996264)"/>
      <use xlink:href="#CMSS17-65" transform="translate(57.253333 0) scale(0.996264)"/>
      <use xlink:href="#CMSS17-69" transform="translate(98.892155 0) scale(0.996264)"/>
      <use xlink:href="#CMSS17-74" transform="translate(121.072878 0) scale(0.996264)"/>
      <use xlink:href="#CMSS17-74" transform="translate(186.133557 0) scale(0.996264)"/>
      <use xlink:href="#CMSS17-69" transform="translate(251.194237 0) scale(0.996264)"/>
      <use xlink:href="#CMSS17-6e" transform="translate(273.37496 0) scale(0.996264)"/>
      <use xlink:href="#CMSS17-73" transform="translate(352.809016 0) scale(0.996264)"/>
     </g>
    </g>
   </g>
   <g id="matplotlib.axis_2">
    <g id="ytick_1">
     <g id="line2d_13">
      <path d="M 108 430.92 
L 777.6 430.92 
" clip-path="url(#pe922524b10)" style="fill: none; stroke: #b0b0b0; stroke-width: 0.8; stroke-linecap: square"/>
     </g>
     <g id="line2d_14">
      <defs>
       <path id="mcc04349a5a" d="M 0 0 
L -3.5 0 
" style="stroke: #000000; stroke-width: 0.8"/>
      </defs>
      <g>
       <use xlink:href="#mcc04349a5a" x="108" y="430.92" style="stroke: #000000; stroke-width: 0.8"/>
      </g>
     </g>
     <g id="text_8">
      <!-- $\mathdefault{0}$ -->
      <g transform="translate(93.683762 436.108862) scale(0.15 -0.15)">
       <use xlink:href="#CMR17-30" transform="scale(0.996264)"/>
      </g>
     </g>
    </g>
    <g id="ytick_2">
     <g id="line2d_15">
      <path d="M 108 386.202904 
L 777.6 386.202904 
" clip-path="url(#pe922524b10)" style="fill: none; stroke: #b0b0b0; stroke-width: 0.8; stroke-linecap: square"/>
     </g>
     <g id="line2d_16">
      <g>
       <use xlink:href="#mcc04349a5a" x="108" y="386.202904" style="stroke: #000000; stroke-width: 0.8"/>
      </g>
     </g>
     <g id="text_9">
      <!-- $\mathdefault{20}$ -->
      <g transform="translate(86.367524 391.391766) scale(0.15 -0.15)">
       <use xlink:href="#CMR17-32" transform="scale(0.996264)"/>
       <use xlink:href="#CMR17-30" transform="translate(45.690477 0) scale(0.996264)"/>
      </g>
     </g>
    </g>
    <g id="ytick_3">
     <g id="line2d_17">
      <path d="M 108 341.485808 
L 777.6 341.485808 
" clip-path="url(#pe922524b10)" style="fill: none; stroke: #b0b0b0; stroke-width: 0.8; stroke-linecap: square"/>
     </g>
     <g id="line2d_18">
      <g>
       <use xlink:href="#mcc04349a5a" x="108" y="341.485808" style="stroke: #000000; stroke-width: 0.8"/>
      </g>
     </g>
     <g id="text_10">
      <!-- $\mathdefault{40}$ -->
      <g transform="translate(86.367524 346.674671) scale(0.15 -0.15)">
       <use xlink:href="#CMR17-34" transform="scale(0.996264)"/>
       <use xlink:href="#CMR17-30" transform="translate(45.690477 0) scale(0.996264)"/>
      </g>
     </g>
    </g>
    <g id="ytick_4">
     <g id="line2d_19">
      <path d="M 108 296.768712 
L 777.6 296.768712 
" clip-path="url(#pe922524b10)" style="fill: none; stroke: #b0b0b0; stroke-width: 0.8; stroke-linecap: square"/>
     </g>
     <g id="line2d_20">
      <g>
       <use xlink:href="#mcc04349a5a" x="108" y="296.768712" style="stroke: #000000; stroke-width: 0.8"/>
      </g>
     </g>
     <g id="text_11">
      <!-- $\mathdefault{60}$ -->
      <g transform="translate(86.367524 301.957575) scale(0.15 -0.15)">
       <use xlink:href="#CMR17-36" transform="scale(0.996264)"/>
       <use xlink:href="#CMR17-30" transform="translate(45.690477 0) scale(0.996264)"/>
      </g>
     </g>
    </g>
    <g id="ytick_5">
     <g id="line2d_21">
      <path d="M 108 252.051616 
L 777.6 252.051616 
" clip-path="url(#pe922524b10)" style="fill: none; stroke: #b0b0b0; stroke-width: 0.8; stroke-linecap: square"/>
     </g>
     <g id="line2d_22">
      <g>
       <use xlink:href="#mcc04349a5a" x="108" y="252.051616" style="stroke: #000000; stroke-width: 0.8"/>
      </g>
     </g>
     <g id="text_12">
      <!-- $\mathdefault{80}$ -->
      <g transform="translate(86.367524 257.240479) scale(0.15 -0.15)">
       <use xlink:href="#CMR17-38" transform="scale(0.996264)"/>
       <use xlink:href="#CMR17-30" transform="translate(45.690477 0) scale(0.996264)"/>
      </g>
     </g>
    </g>
    <g id="ytick_6">
     <g id="line2d_23">
      <path d="M 108 207.33452 
L 777.6 207.33452 
" clip-path="url(#pe922524b10)" style="fill: none; stroke: #b0b0b0; stroke-width: 0.8; stroke-linecap: square"/>
     </g>
     <g id="line2d_24">
      <g>
       <use xlink:href="#mcc04349a5a" x="108" y="207.33452" style="stroke: #000000; stroke-width: 0.8"/>
      </g>
     </g>
     <g id="text_13">
      <!-- $\mathdefault{100}$ -->
      <g transform="translate(79.051287 212.523383) scale(0.15 -0.15)">
       <defs>
        <path id="CMR17-31" d="M 1702 4058 
C 1702 4192 1696 4192 1606 4192 
C 1357 3916 979 3827 621 3827 
C 602 3827 570 3827 563 3808 
C 557 3795 557 3782 557 3648 
C 755 3648 1088 3686 1344 3839 
L 1344 461 
C 1344 236 1331 160 781 160 
L 589 160 
L 589 0 
C 896 0 1216 0 1523 0 
C 1830 0 2150 0 2458 0 
L 2458 160 
L 2266 160 
C 1715 160 1702 230 1702 458 
L 1702 4058 
z
" transform="scale(0.015625)"/>
       </defs>
       <use xlink:href="#CMR17-31" transform="scale(0.996264)"/>
       <use xlink:href="#CMR17-30" transform="translate(45.690477 0) scale(0.996264)"/>
       <use xlink:href="#CMR17-30" transform="translate(91.380954 0) scale(0.996264)"/>
      </g>
     </g>
    </g>
    <g id="ytick_7">
     <g id="line2d_25">
      <path d="M 108 162.617424 
L 777.6 162.617424 
" clip-path="url(#pe922524b10)" style="fill: none; stroke: #b0b0b0; stroke-width: 0.8; stroke-linecap: square"/>
     </g>
     <g id="line2d_26">
      <g>
       <use xlink:href="#mcc04349a5a" x="108" y="162.617424" style="stroke: #000000; stroke-width: 0.8"/>
      </g>
     </g>
     <g id="text_14">
      <!-- $\mathdefault{120}$ -->
      <g transform="translate(79.051287 167.806287) scale(0.15 -0.15)">
       <use xlink:href="#CMR17-31" transform="scale(0.996264)"/>
       <use xlink:href="#CMR17-32" transform="translate(45.690477 0) scale(0.996264)"/>
       <use xlink:href="#CMR17-30" transform="translate(91.380954 0) scale(0.996264)"/>
      </g>
     </g>
    </g>
    <g id="ytick_8">
     <g id="line2d_27">
      <path d="M 108 117.900329 
L 777.6 117.900329 
" clip-path="url(#pe922524b10)" style="fill: none; stroke: #b0b0b0; stroke-width: 0.8; stroke-linecap: square"/>
     </g>
     <g id="line2d_28">
      <g>
       <use xlink:href="#mcc04349a5a" x="108" y="117.900329" style="stroke: #000000; stroke-width: 0.8"/>
      </g>
     </g>
     <g id="text_15">
      <!-- $\mathdefault{140}$ -->
      <g transform="translate(79.051287 123.089191) scale(0.15 -0.15)">
       <use xlink:href="#CMR17-31" transform="scale(0.996264)"/>
       <use xlink:href="#CMR17-34" transform="translate(45.690477 0) scale(0.996264)"/>
       <use xlink:href="#CMR17-30" transform="translate(91.380954 0) scale(0.996264)"/>
      </g>
     </g>
    </g>
    <g id="ytick_9">
     <g id="line2d_29">
      <path d="M 108 73.183233 
L 777.6 73.183233 
" clip-path="url(#pe922524b10)" style="fill: none; stroke: #b0b0b0; stroke-width: 0.8; stroke-linecap: square"/>
     </g>
     <g id="line2d_30">
      <g>
       <use xlink:href="#mcc04349a5a" x="108" y="73.183233" style="stroke: #000000; stroke-width: 0.8"/>
      </g>
     </g>
     <g id="text_16">
      <!-- $\mathdefault{160}$ -->
      <g transform="translate(79.051287 78.372095) scale(0.15 -0.15)">
       <use xlink:href="#CMR17-31" transform="scale(0.996264)"/>
       <use xlink:href="#CMR17-36" transform="translate(45.690477 0) scale(0.996264)"/>
       <use xlink:href="#CMR17-30" transform="translate(91.380954 0) scale(0.996264)"/>
      </g>
     </g>
    </g>
    <g id="text_17">
     <!-- Winkelstellung $Phi_ {1}$ in ° -->
     <g transform="translate(72.145542 328.952054) rotate(-90) scale(0.15 -0.15)">
      <defs>
       <path id="CMSS17-57" d="M 5581 4416 
L 5094 4416 
L 4557 2437 
C 4474 2118 4397 1801 4320 1482 
C 4205 1011 4122 681 4109 515 
L 4102 515 
C 4090 687 4006 1049 3904 1457 
C 3827 1795 3744 2131 3654 2462 
L 3123 4416 
L 2586 4416 
L 2080 2562 
L 1824 1549 
C 1632 747 1626 632 1613 505 
L 1606 505 
C 1606 543 1581 753 1402 1498 
C 1312 1868 1222 2244 1126 2601 
L 634 4416 
L 83 4416 
L 1299 0 
L 1830 0 
L 2336 1839 
L 2592 2851 
C 2765 3564 2803 3742 2816 3901 
L 2822 3901 
C 2822 3876 2880 3474 3130 2545 
L 3808 0 
L 4365 0 
L 5581 4416 
z
" transform="scale(0.015625)"/>
       <path id="CMSS17-6b" d="M 1696 1688 
L 2688 2739 
L 2074 2739 
L 954 1554 
L 954 4416 
L 480 4416 
L 480 0 
L 947 0 
L 947 892 
L 1376 1344 
L 2278 0 
L 2822 0 
L 1696 1688 
z
" transform="scale(0.015625)"/>
       <path id="CMSS17-6c" d="M 947 4416 
L 474 4416 
L 474 0 
L 947 0 
L 947 4416 
z
" transform="scale(0.015625)"/>
       <path id="CMSS17-75" d="M 2618 2739 
L 2131 2739 
L 2131 972 
C 2131 498 1786 306 1421 306 
C 998 306 960 447 960 709 
L 960 2739 
L 474 2739 
L 474 678 
C 474 179 646 -64 1088 -64 
C 1306 -64 1798 -13 2144 306 
L 2144 0 
L 2618 0 
L 2618 2739 
z
" transform="scale(0.015625)"/>
       <path id="CMSS17-67" d="M 2848 2808 
C 2483 2808 2170 2738 1914 2617 
C 1702 2777 1485 2808 1338 2808 
C 781 2808 358 2349 358 1814 
C 358 1468 550 1207 563 1195 
C 448 1035 384 863 384 672 
C 384 448 474 289 544 200 
C 211 -3 166 -314 166 -435 
C 166 -898 749 -1280 1498 -1280 
C 2253 -1280 2835 -898 2835 -428 
C 2835 448 1856 448 1587 448 
L 1069 448 
C 973 448 717 448 717 791 
C 717 921 774 1004 781 1010 
C 877 940 1075 832 1338 832 
C 1869 832 2310 1278 2310 1827 
C 2310 2132 2170 2355 2112 2432 
L 2131 2432 
C 2150 2432 2419 2432 2515 2432 
C 2720 2432 2739 2429 2918 2419 
L 2848 2808 
z
M 1338 1182 
C 1120 1182 813 1315 813 1823 
C 813 2375 1165 2464 1331 2464 
C 1549 2464 1856 2331 1856 1823 
C 1856 1271 1504 1182 1338 1182 
z
M 1581 -10 
C 1734 -10 2381 -10 2381 -442 
C 2381 -714 1984 -929 1504 -929 
C 1018 -929 621 -720 621 -435 
C 621 -403 621 -10 1062 -10 
L 1581 -10 
z
" transform="scale(0.015625)"/>
       <path id="CMMI12-50" d="M 1894 2023 
L 2970 2023 
C 3853 2023 4736 2673 4736 3401 
C 4736 3898 4314 4352 3507 4352 
L 1530 4352 
C 1408 4352 1350 4352 1350 4231 
C 1350 4167 1408 4167 1504 4167 
C 1894 4167 1894 4116 1894 4046 
C 1894 4034 1894 3995 1869 3899 
L 1005 472 
C 947 249 934 185 486 185 
C 365 185 301 185 301 70 
C 301 0 358 0 397 0 
C 518 0 646 0 768 0 
L 1517 0 
C 1638 0 1773 0 1894 0 
C 1946 0 2016 0 2016 121 
C 2016 185 1958 185 1862 185 
C 1478 185 1472 230 1472 293 
C 1472 325 1478 369 1485 401 
L 1894 2023 
z
M 2355 3930 
C 2413 4167 2438 4167 2688 4167 
L 3322 4167 
C 3802 4167 4198 4013 4198 3535 
C 4198 3369 4115 2827 3821 2534 
C 3712 2419 3405 2176 2822 2176 
L 1920 2176 
L 2355 3930 
z
" transform="scale(0.015625)"/>
       <path id="CMMI12-68" d="M 1798 4257 
C 1805 4283 1818 4321 1818 4352 
C 1818 4416 1754 4416 1741 4416 
C 1734 4416 1421 4388 1389 4380 
C 1280 4373 1184 4358 1069 4358 
C 909 4345 864 4339 864 4224 
C 864 4160 915 4160 1005 4160 
C 1318 4160 1325 4103 1325 4040 
C 1325 4002 1312 3951 1306 3932 
L 378 248 
C 352 152 352 140 352 101 
C 352 -38 461 -64 525 -64 
C 634 -64 717 19 749 89 
L 1037 1245 
C 1069 1386 1107 1520 1139 1660 
C 1210 1929 1210 1935 1331 2120 
C 1453 2305 1741 2689 2234 2689 
C 2490 2689 2579 2497 2579 2242 
C 2579 1884 2330 1188 2189 805 
C 2131 651 2099 568 2099 453 
C 2099 166 2298 -64 2605 -64 
C 3200 -64 3424 875 3424 913 
C 3424 945 3398 971 3360 971 
C 3302 971 3296 952 3264 843 
C 3117 332 2880 64 2624 64 
C 2560 64 2458 64 2458 269 
C 2458 436 2534 640 2560 710 
C 2675 1018 2963 1773 2963 2145 
C 2963 2528 2739 2816 2253 2816 
C 1888 2816 1568 2644 1306 2312 
L 1798 4257 
z
" transform="scale(0.015625)"/>
       <path id="CMMI12-69" d="M 1811 913 
C 1811 945 1786 971 1747 971 
C 1690 971 1683 952 1651 843 
C 1485 262 1222 64 1011 64 
C 934 64 845 83 845 275 
C 845 447 922 639 992 830 
L 1440 2018 
C 1459 2069 1504 2184 1504 2305 
C 1504 2574 1312 2816 998 2816 
C 410 2816 173 1890 173 1839 
C 173 1814 198 1782 243 1782 
C 301 1782 307 1807 333 1896 
C 486 2428 730 2682 979 2682 
C 1037 2682 1146 2682 1146 2478 
C 1146 2312 1062 2101 1011 1961 
L 563 773 
C 525 671 486 568 486 453 
C 486 166 685 -64 992 -64 
C 1581 -64 1811 869 1811 913 
z
M 1760 4013 
C 1760 4109 1683 4224 1542 4224 
C 1395 4224 1229 4083 1229 3917 
C 1229 3758 1363 3707 1440 3707 
C 1613 3707 1760 3873 1760 4013 
z
" transform="scale(0.015625)"/>
       <path id="SFSS3583-b0" d="M 890 4352 
C 544 4307 326 4016 326 3712 
C 326 3389 576 3072 960 3072 
L 1018 3072 
C 1357 3117 1587 3408 1587 3712 
C 1587 4042 1312 4352 947 4352 
L 890 4352 
z
M 525 3673 
L 525 3712 
C 525 3939 723 4139 947 4139 
C 1178 4139 1338 3960 1382 3751 
L 1382 3711 
C 1382 3482 1184 3278 960 3278 
C 730 3278 570 3460 525 3673 
z
" transform="scale(0.015625)"/>
      </defs>
      <use xlink:href="#CMSS17-57" transform="scale(0.996264)"/>
      <use xlink:href="#CMSS17-69" transform="translate(88.242166 0) scale(0.996264)"/>
      <use xlink:href="#CMSS17-6e" transform="translate(110.422889 0) scale(0.996264)"/>
      <use xlink:href="#CMSS17-6b" transform="translate(158.627832 0) scale(0.996264)"/>
      <use xlink:href="#CMSS17-65" transform="translate(201.627868 0) scale(0.996264)"/>
      <use xlink:href="#CMSS17-6c" transform="translate(243.26669 0) scale(0.996264)"/>
      <use xlink:href="#CMSS17-73" transform="translate(265.447413 0) scale(0.996264)"/>
      <use xlink:href="#CMSS17-74" transform="translate(301.360955 0) scale(0.996264)"/>
      <use xlink:href="#CMSS17-65" transform="translate(335.192521 0) scale(0.996264)"/>
      <use xlink:href="#CMSS17-6c" transform="translate(376.831344 0) scale(0.996264)"/>
      <use xlink:href="#CMSS17-6c" transform="translate(399.012067 0) scale(0.996264)"/>
      <use xlink:href="#CMSS17-75" transform="translate(421.19279 0) scale(0.996264)"/>
      <use xlink:href="#CMSS17-6e" transform="translate(469.397733 0) scale(0.996264)"/>
      <use xlink:href="#CMSS17-67" transform="translate(517.602676 0) scale(0.996264)"/>
      <use xlink:href="#CMMI12-50" transform="translate(595.675412 0) scale(0.996264)"/>
      <use xlink:href="#CMMI12-68" transform="translate(672.101233 0) scale(0.996264)"/>
      <use xlink:href="#CMMI12-69" transform="translate(728.255857 0) scale(0.996264)"/>
      <use xlink:href="#CMR17-31" transform="translate(761.534459 -14.943915) scale(0.697382)"/>
      <use xlink:href="#CMSS17-69" transform="translate(825.244886 0) scale(0.996264)"/>
      <use xlink:href="#CMSS17-6e" transform="translate(847.425609 0) scale(0.996264)"/>
      <use xlink:href="#SFSS3583-b0" transform="translate(926.859664 0) scale(0.996264)"/>
     </g>
    </g>
   </g>
   <g id="line2d_31">
    <path d="M 138.436364 430.796215 
L 146.35774 430.256389 
L 152.451106 429.604658 
L 159.153808 428.669366 
L 165.247174 427.639263 
L 171.949877 426.331512 
L 178.65258 424.858777 
L 185.355283 423.238475 
L 192.057985 421.486146 
L 204.854054 417.810647 
L 218.259459 413.589017 
L 231.664865 409.066263 
L 245.07027 404.302372 
L 259.085012 399.118096 
L 280.411794 390.911391 
L 301.738575 382.439513 
L 332.205405 370.023141 
L 373.030958 353.05032 
L 437.011302 326.14382 
L 500.991646 299.313115 
L 533.286486 285.979595 
L 561.925307 274.4124 
L 581.424079 266.751467 
L 596.657494 260.944282 
L 612.500246 255.113619 
L 628.952334 249.373286 
L 639.311057 245.959583 
L 650.888452 242.371259 
L 661.856511 239.235697 
L 673.433907 236.268717 
L 684.401966 233.865844 
L 689.885995 232.831091 
L 695.979361 231.82585 
L 701.463391 231.071473 
L 706.94742 230.46891 
L 713.040786 229.99625 
L 718.524816 229.765957 
L 727.055528 229.693068 
L 747.163636 229.693068 
L 747.163636 229.693068 
" clip-path="url(#pe922524b10)" style="fill: none; stroke: #ff0000; stroke-width: 2; stroke-linecap: square"/>
   </g>
   <g id="line2d_32">
    <path d="M 138.436364 430.92 
L 140.264373 430.92 
L 140.87371 430.723489 
L 142.092383 430.723489 
L 142.70172 430.526979 
L 143.311057 430.526979 
L 143.920393 430.330468 
L 144.52973 430.330468 
L 145.139066 430.133958 
L 145.748403 430.133958 
L 146.35774 429.937447 
L 147.576413 429.937447 
L 148.185749 429.740935 
L 148.795086 429.740935 
L 150.013759 429.347915 
L 150.623096 429.347915 
L 151.232432 429.151403 
L 151.841769 429.151403 
L 153.060442 428.758382 
L 153.669779 428.758382 
L 154.888452 428.365357 
L 155.497789 428.365357 
L 157.325799 427.775829 
L 157.935135 427.775829 
L 160.372482 426.989792 
L 160.981818 426.989792 
L 166.465848 425.221186 
L 167.075184 425.221186 
L 167.684521 424.828168 
L 174.387224 422.666543 
L 174.99656 422.273525 
L 176.215233 421.880506 
L 176.82457 421.487488 
L 178.65258 420.89796 
L 179.261916 420.504941 
L 181.089926 419.915391 
L 181.699263 419.522372 
L 182.3086 419.325863 
L 182.917936 418.932845 
L 183.527273 418.736335 
L 184.136609 418.343317 
L 185.355283 417.950298 
L 185.964619 417.55728 
L 187.183292 417.164261 
L 187.792629 416.77122 
L 188.401966 416.574711 
L 189.011302 416.181692 
L 190.229975 415.788674 
L 190.839312 415.395655 
L 191.448649 415.199146 
L 192.667322 414.413109 
L 193.276658 414.2166 
L 193.885995 413.823581 
L 194.495332 413.627072 
L 195.714005 412.841012 
L 196.323342 412.644503 
L 196.932678 412.251484 
L 197.542015 412.054975 
L 198.760688 411.268938 
L 199.370025 411.072429 
L 200.588698 410.286369 
L 201.198034 410.08986 
L 203.026044 408.910804 
L 203.635381 408.714295 
L 204.244717 408.321321 
L 204.854054 408.12479 
L 206.072727 407.338663 
L 206.682064 407.142131 
L 209.11941 405.570102 
L 209.728747 405.37357 
L 211.556757 404.194604 
L 212.166093 403.998072 
L 213.384767 403.211946 
L 213.994103 403.015414 
L 215.822113 401.836448 
L 216.43145 401.639916 
L 217.040786 401.246853 
L 217.650123 401.050321 
L 218.868796 400.264418 
L 219.478133 400.067887 
L 220.087469 399.478292 
L 220.696806 399.28176 
L 224.352826 396.923604 
L 224.962162 396.727073 
L 229.227518 393.976077 
L 229.836855 393.779545 
L 230.446192 393.18995 
L 231.055528 392.993419 
L 233.492875 391.421389 
L 234.102211 390.831794 
L 234.711548 390.635263 
L 235.320885 390.045668 
L 235.930221 389.84936 
L 236.539558 389.259765 
L 237.148894 389.063233 
L 237.758231 388.473638 
L 238.367568 388.277107 
L 238.976904 387.687735 
L 239.586241 387.491204 
L 243.24226 385.133048 
L 243.851597 384.543453 
L 244.460934 384.346921 
L 245.07027 383.75755 
L 249.944963 380.613267 
L 250.5543 380.416735 
L 251.163636 379.827141 
L 251.772973 379.630609 
L 252.38231 379.041238 
L 252.991646 378.844706 
L 253.600983 378.255111 
L 265.787715 370.39474 
L 266.397052 369.805145 
L 270.662408 367.053926 
L 271.271744 366.464554 
L 271.881081 366.268023 
L 272.490418 365.678428 
L 274.318428 364.499462 
L 274.927764 363.909867 
L 276.755774 362.7309 
L 277.365111 362.141306 
L 279.19312 360.962116 
L 279.802457 360.372744 
L 281.630467 359.193555 
L 282.239803 358.604183 
L 283.458477 357.818057 
L 284.067813 357.228462 
L 284.67715 356.835398 
L 285.286486 356.246027 
L 287.114496 355.066837 
L 287.723833 354.477242 
L 288.942506 353.691339 
L 289.551843 353.101745 
L 290.161179 352.708681 
L 290.770516 352.11931 
L 291.989189 351.333183 
L 292.598526 350.743589 
L 294.426536 349.564622 
L 295.035872 348.975027 
L 296.254545 348.188901 
L 296.863882 347.59953 
L 297.473219 347.206466 
L 298.082555 346.616871 
L 299.301229 345.830968 
L 299.910565 345.241373 
L 300.519902 344.84831 
L 301.129238 344.258715 
L 301.738575 343.865876 
L 302.347912 343.276281 
L 302.957248 342.883217 
L 303.566585 342.293622 
L 304.175921 341.900559 
L 304.785258 341.311188 
L 306.003931 340.525061 
L 306.613268 339.935466 
L 307.222604 339.542627 
L 307.831941 338.953032 
L 309.659951 337.773842 
L 310.269287 337.184471 
L 310.878624 336.791407 
L 311.487961 336.201813 
L 312.706634 335.41591 
L 313.315971 334.826315 
L 314.534644 334.040188 
L 315.14398 333.450817 
L 316.362654 332.66469 
L 316.97199 332.075095 
L 317.581327 331.682032 
L 318.190663 331.092661 
L 319.409337 330.306534 
L 320.018673 329.716939 
L 320.62801 329.323876 
L 321.237346 328.734505 
L 321.846683 328.341441 
L 322.45602 327.751846 
L 323.674693 326.965944 
L 324.284029 326.376349 
L 324.893366 325.983285 
L 325.502703 325.39369 
L 326.721376 324.607787 
L 327.330713 324.018193 
L 329.158722 322.839226 
L 329.768059 322.249631 
L 330.986732 321.463505 
L 331.596069 320.874134 
L 332.205405 320.48107 
L 332.814742 319.891475 
L 334.033415 319.105349 
L 334.642752 318.515977 
L 335.252088 318.122914 
L 335.861425 317.533319 
L 337.080098 316.747193 
L 337.689435 316.157821 
L 338.298771 315.764758 
L 338.908108 315.175163 
L 340.126781 314.38926 
L 340.736118 313.799665 
L 341.345455 313.406602 
L 341.954791 312.817007 
L 343.173464 312.031104 
L 343.782801 311.441509 
L 345.001474 310.655383 
L 345.610811 310.066011 
L 346.220147 309.672948 
L 346.829484 309.083353 
L 347.438821 308.69029 
L 348.048157 308.100919 
L 348.657494 307.707855 
L 349.26683 307.11826 
L 350.485504 306.332134 
L 351.09484 305.742763 
L 351.704177 305.349699 
L 352.313514 304.760104 
L 353.532187 303.974201 
L 354.141523 303.384607 
L 355.360197 302.59848 
L 355.969533 302.009109 
L 357.188206 301.222982 
L 357.797543 300.633387 
L 358.40688 300.240324 
L 359.016216 299.650953 
L 359.625553 299.257889 
L 360.234889 298.668294 
L 361.453563 297.882168 
L 362.062899 297.292797 
L 362.672236 296.899733 
L 363.281572 296.310138 
L 363.890909 295.917075 
L 364.500246 295.327704 
L 365.109582 294.934641 
L 365.718919 294.345046 
L 366.328256 293.951982 
L 366.937592 293.362611 
L 368.156265 292.576484 
L 368.765602 291.98689 
L 369.374939 291.593826 
L 369.984275 291.004455 
L 371.812285 289.825265 
L 372.421622 289.235894 
L 373.640295 288.449767 
L 374.249631 287.860172 
L 375.468305 287.074269 
L 376.077641 286.484675 
L 376.686978 286.091611 
L 377.296314 285.502016 
L 378.514988 284.716113 
L 379.124324 284.126518 
L 379.733661 283.733455 
L 380.342998 283.144084 
L 381.561671 282.357957 
L 382.171007 281.768362 
L 382.780344 281.375299 
L 383.389681 280.785928 
L 384.608354 279.999801 
L 385.21769 279.410206 
L 385.827027 279.017143 
L 386.436364 278.427772 
L 387.655037 277.641645 
L 388.264373 277.05205 
L 389.483047 276.266147 
L 390.092383 275.676552 
L 391.311057 274.890426 
L 391.920393 274.301055 
L 392.52973 273.907991 
L 393.139066 273.318396 
L 394.35774 272.532493 
L 394.967076 271.942898 
L 395.576413 271.549835 
L 396.185749 270.96024 
L 396.795086 270.567401 
L 397.404423 269.977806 
L 398.013759 269.584742 
L 398.623096 268.995148 
L 399.841769 268.209245 
L 400.451106 267.61965 
L 401.060442 267.226586 
L 401.669779 266.636991 
L 402.888452 265.851089 
L 403.497789 265.261494 
L 404.716462 264.475367 
L 405.325799 263.885996 
L 406.544472 263.099869 
L 407.153808 262.510274 
L 408.372482 261.724371 
L 408.981818 261.134776 
L 409.591155 260.741713 
L 410.200491 260.152118 
L 410.809828 259.759279 
L 411.419165 259.169684 
L 412.637838 258.383557 
L 413.856511 257.204591 
L 415.075184 256.418464 
L 415.684521 255.829093 
L 416.293857 255.43603 
L 416.903194 254.846435 
L 418.121867 254.060308 
L 418.731204 253.470937 
L 419.340541 253.077874 
L 419.949877 252.488279 
L 421.16855 251.702376 
L 421.777887 251.112781 
L 422.99656 250.326654 
L 423.605897 249.737059 
L 424.82457 248.951156 
L 425.433907 248.361562 
L 426.043243 247.968498 
L 426.65258 247.379127 
L 427.871253 246.593 
L 428.48059 246.003405 
L 429.089926 245.610342 
L 429.699263 245.020971 
L 430.917936 244.234844 
L 432.136609 243.055878 
L 433.355283 242.269752 
L 433.964619 241.680157 
L 434.573956 241.287093 
L 435.183292 240.697722 
L 436.401966 239.911596 
L 437.011302 239.322001 
L 437.620639 238.929161 
L 438.229975 238.339566 
L 440.057985 237.160376 
L 440.667322 236.571005 
L 441.885995 235.784878 
L 442.495332 235.195283 
L 443.714005 234.40938 
L 444.323342 233.819786 
L 444.932678 233.426722 
L 445.542015 232.837351 
L 446.760688 232.051224 
L 447.370025 231.461629 
L 447.979361 231.068566 
L 448.588698 230.479195 
L 449.198034 230.086132 
L 449.807371 229.496537 
L 451.026044 228.71041 
L 451.635381 228.121039 
L 452.244717 227.727976 
L 452.854054 227.138381 
L 454.072727 226.352478 
L 454.682064 225.762883 
L 455.900737 224.976756 
L 456.510074 224.387385 
L 457.11941 223.994322 
L 457.728747 223.404727 
L 458.94742 222.6186 
L 459.556757 222.029229 
L 460.166093 221.636166 
L 460.77543 221.046571 
L 461.994103 220.260668 
L 462.60344 219.671073 
L 463.822113 218.884946 
L 464.43145 218.295351 
L 465.650123 217.509448 
L 466.259459 216.919853 
L 466.868796 216.52679 
L 467.478133 215.937419 
L 468.087469 215.544356 
L 468.696806 214.954761 
L 469.306143 214.561697 
L 469.915479 213.972326 
L 471.134152 213.1862 
L 471.743489 212.596605 
L 472.352826 212.203541 
L 472.962162 211.61417 
L 474.180835 210.828044 
L 474.790172 210.238449 
L 475.399509 209.845385 
L 476.008845 209.256014 
L 477.227518 208.469887 
L 477.836855 207.880293 
L 478.446192 207.487453 
L 479.055528 206.898529 
L 480.883538 205.717997 
L 481.492875 205.129968 
L 482.102211 204.736457 
L 482.711548 204.146191 
L 483.320885 203.752681 
L 483.930221 203.164651 
L 484.539558 202.771141 
L 485.148894 202.180875 
L 486.367568 201.39609 
L 486.976904 200.805824 
L 487.586241 200.412314 
L 488.195577 199.824284 
L 489.414251 199.037263 
L 490.023587 198.446998 
L 491.24226 197.662213 
L 491.851597 197.071947 
L 493.07027 196.287162 
L 493.679607 195.696896 
L 494.288943 195.303386 
L 494.89828 194.71312 
L 496.116953 193.928335 
L 496.72629 193.338069 
L 497.944963 192.553284 
L 498.5543 191.963019 
L 499.163636 191.569508 
L 499.772973 190.981478 
L 500.991646 190.194458 
L 501.600983 189.604192 
L 502.210319 189.212917 
L 502.819656 188.622652 
L 503.428993 188.229141 
L 504.038329 187.638875 
L 505.257002 186.85409 
L 505.866339 186.263825 
L 507.085012 185.47904 
L 507.694349 184.888774 
L 508.303686 184.495264 
L 508.913022 183.904998 
L 510.131695 183.120213 
L 510.741032 182.529947 
L 511.959705 181.745162 
L 512.569042 181.154897 
L 513.178378 180.761386 
L 513.787715 180.173356 
L 515.006388 179.386335 
L 515.615725 178.79607 
L 516.225061 178.404795 
L 516.834398 177.81453 
L 518.053071 177.027509 
L 518.662408 176.439479 
L 519.271744 176.045968 
L 519.881081 175.455703 
L 521.099754 174.670918 
L 521.709091 174.080652 
L 522.318428 173.687142 
L 522.927764 173.099112 
L 524.146437 172.312091 
L 524.755774 171.721825 
L 525.365111 171.328315 
L 525.974447 170.740285 
L 526.583784 170.346774 
L 527.19312 169.756509 
L 528.411794 168.971724 
L 529.02113 168.381458 
L 529.630467 167.987948 
L 530.239803 167.399918 
L 531.458477 166.612897 
L 532.067813 166.022631 
L 533.286486 165.237846 
L 533.895823 164.647581 
L 535.114496 163.862796 
L 535.723833 163.27253 
L 536.942506 162.485509 
L 537.551843 161.897479 
L 538.161179 161.503969 
L 538.770516 160.913703 
L 539.989189 160.128918 
L 540.598526 159.538652 
L 541.207862 159.145142 
L 541.817199 158.557112 
L 543.035872 157.770091 
L 543.645209 157.179826 
L 544.254545 156.788551 
L 544.863882 156.198285 
L 546.082555 155.411264 
L 546.691892 154.823235 
L 547.301229 154.429724 
L 547.910565 153.839459 
L 549.129238 153.054673 
L 549.738575 152.464408 
L 550.957248 151.677387 
L 551.566585 151.089357 
L 553.394595 149.908826 
L 554.003931 149.320796 
L 557.659951 146.961969 
L 558.269287 146.371704 
L 566.190663 141.262775 
L 566.8 140.674745 
L 570.45602 138.315919 
L 571.065356 137.725653 
L 571.674693 137.528898 
L 572.284029 136.940868 
L 575.330713 134.975552 
L 575.940049 134.385286 
L 582.033415 130.454653 
L 582.642752 129.866623 
L 583.252088 129.669868 
L 583.861425 129.079603 
L 589.954791 125.14897 
L 590.564128 124.56094 
L 594.829484 121.808603 
L 595.438821 121.218337 
L 596.048157 121.021582 
L 596.657494 120.433552 
L 607.625553 113.359307 
L 608.234889 113.162552 
L 611.890909 110.803725 
L 612.500246 110.60697 
L 615.546929 108.641654 
L 616.156265 108.444899 
L 618.593612 106.873093 
L 619.202948 106.676337 
L 622.249631 104.713257 
L 622.858968 104.516502 
L 625.296314 102.944696 
L 625.905651 102.747941 
L 627.733661 101.567409 
L 628.342998 101.370654 
L 630.171007 100.192359 
L 630.780344 99.995603 
L 631.999017 99.210818 
L 632.608354 99.014063 
L 633.827027 98.227042 
L 634.436364 98.030287 
L 636.264373 96.851991 
L 636.87371 96.655236 
L 637.483047 96.261726 
L 638.092383 96.064971 
L 639.311057 95.280186 
L 640.52973 94.886675 
L 641.139066 94.493165 
L 641.748403 94.296409 
L 642.967076 93.511624 
L 643.576413 93.314869 
L 644.185749 92.921359 
L 645.404423 92.527848 
L 646.013759 92.136574 
L 646.623096 91.939818 
L 647.232432 91.546308 
L 648.451106 91.152798 
L 649.060442 90.759287 
L 649.669779 90.562532 
L 650.279115 90.171257 
L 650.888452 89.974502 
L 651.497789 89.580992 
L 652.716462 89.187481 
L 653.325799 88.793971 
L 654.544472 88.402696 
L 655.153808 88.009186 
L 656.372482 87.615675 
L 656.981818 87.222165 
L 658.809828 86.634135 
L 659.419165 86.240625 
L 661.247174 85.650359 
L 661.856511 85.256849 
L 663.684521 84.668819 
L 664.293857 84.275308 
L 672.215233 81.719726 
L 672.82457 81.719726 
L 675.261916 80.934941 
L 675.871253 80.934941 
L 678.3086 80.14792 
L 678.917936 80.14792 
L 680.745946 79.55989 
L 681.355283 79.55989 
L 681.964619 79.363135 
L 682.573956 79.363135 
L 683.183292 79.16638 
L 684.401966 79.16638 
L 685.011302 78.969625 
L 687.448649 78.969625 
L 688.057985 78.77287 
L 747.163636 78.77287 
L 747.163636 78.77287 
" clip-path="url(#pe922524b10)" style="fill: none; stroke-dasharray: 7.4,3.2; stroke-dashoffset: 0; stroke: #008000; stroke-width: 2"/>
   </g>
   <g id="line2d_33">
    <path d="M 138.436364 430.772716 
L 142.092383 430.611926 
L 146.35774 430.074109 
L 151.232432 429.2737 
L 154.279115 428.661653 
L 162.200491 426.693832 
L 167.075184 425.221253 
L 175.605897 422.265252 
L 179.261916 420.786458 
L 185.355283 418.1346 
L 196.932678 412.558825 
L 201.198034 410.308102 
L 210.338084 405.236512 
L 217.650123 401.103311 
L 222.524816 398.344266 
L 234.102211 391.261749 
L 238.367568 388.495997 
L 241.414251 386.541636 
L 246.288943 383.312615 
L 252.38231 379.311329 
L 255.428993 377.314263 
L 274.318428 364.736462 
L 288.942506 354.017104 
L 365.109582 295.276726 
L 371.202948 290.480594 
L 379.124324 284.467486 
L 392.52973 274.170481 
L 405.325799 264.228752 
L 416.293857 255.754415 
L 421.777887 251.473648 
L 460.166093 221.920566 
L 465.040786 218.175957 
L 469.306143 214.889474 
L 474.790172 210.611613 
L 508.303686 184.792632 
L 513.787715 180.573574 
L 557.050614 147.487395 
L 569.846683 138.836873 
L 575.940049 134.698306 
L 581.424079 131.000202 
L 591.173464 124.46927 
L 602.141523 117.111072 
L 608.844226 112.838353 
L 620.421622 105.992166 
L 630.171007 100.382406 
L 641.139066 94.522231 
L 653.935135 88.572621 
L 666.121867 83.62691 
L 670.99656 81.974614 
L 674.65258 80.921526 
L 678.3086 79.980231 
L 684.401966 78.705794 
L 686.839312 78.406189 
L 691.714005 78.128943 
L 696.588698 78.166953 
L 731.320885 78.824294 
L 747.163636 78.786285 
L 747.163636 78.786285 
" clip-path="url(#pe922524b10)" style="fill: none; stroke-dasharray: 2,3.3; stroke-dashoffset: 0; stroke: #0000ff; stroke-width: 2"/>
   </g>
   <g id="patch_3">
    <path d="M 108 448.56 
L 108 60.48 
" style="fill: none; stroke: #000000; stroke-width: 0.8; stroke-linejoin: miter; stroke-linecap: square"/>
   </g>
   <g id="patch_4">
    <path d="M 777.6 448.56 
L 777.6 60.48 
" style="fill: none; stroke: #000000; stroke-width: 0.8; stroke-linejoin: miter; stroke-linecap: square"/>
   </g>
   <g id="patch_5">
    <path d="M 108 448.56 
L 777.6 448.56 
" style="fill: none; stroke: #000000; stroke-width: 0.8; stroke-linejoin: miter; stroke-linecap: square"/>
   </g>
   <g id="patch_6">
    <path d="M 108 60.48 
L 777.6 60.48 
" style="fill: none; stroke: #000000; stroke-width: 0.8; stroke-linejoin: miter; stroke-linecap: square"/>
   </g>
   <g id="text_18">
    <!-- \textbf{Energieoptimale Trajektorie - offener Regelkreis} -->
    <g transform="translate(279.436835 54.48) scale(0.15 -0.15)">
     <defs>
      <path id="CMSSBX10-45" d="M 1523 2016 
L 3206 2016 
C 3405 2016 3514 2062 3514 2320 
C 3514 2560 3430 2624 3206 2624 
L 1523 2624 
L 1523 3814 
L 1837 3814 
C 2336 3814 2842 3814 3341 3814 
C 3565 3814 3712 3814 3712 4122 
L 3712 4173 
C 3712 4377 3667 4480 3405 4480 
L 890 4480 
C 659 4480 582 4409 582 4170 
L 582 316 
C 582 84 653 6 890 6 
L 3501 6 
C 3744 6 3808 88 3808 310 
L 3808 400 
C 3808 704 3661 704 3450 704 
C 3117 704 2790 704 2458 704 
C 2298 704 1638 704 1523 704 
L 1523 2016 
z
" transform="scale(0.015625)"/>
      <path id="CMSSBX10-6e" d="M 3200 2096 
C 3200 2761 2918 3025 2266 3025 
C 1594 3025 1306 2535 1222 2360 
L 1216 2360 
L 1216 2687 
C 1216 2896 1171 3001 909 3001 
L 691 3001 
C 461 3001 384 2930 384 2690 
L 384 310 
C 384 78 454 0 691 0 
L 947 0 
C 1190 0 1254 84 1254 309 
L 1254 1735 
C 1254 2295 1626 2560 1958 2560 
C 2266 2560 2330 2411 2330 2082 
L 2330 309 
C 2330 103 2374 0 2637 0 
L 2893 0 
C 3136 0 3200 84 3200 309 
L 3200 2096 
z
" transform="scale(0.015625)"/>
      <path id="CMSSBX10-65" d="M 2758 1385 
C 2906 1385 3066 1385 3066 1678 
C 3066 2514 2682 3072 1728 3072 
C 704 3072 198 2491 198 1510 
C 198 452 806 -64 1811 -64 
C 2054 -64 2419 -32 2842 182 
C 2982 253 3027 272 3027 350 
C 3027 395 3008 582 3002 633 
C 2976 833 2970 839 2912 839 
C 2886 839 2874 839 2803 775 
C 2426 447 2042 402 1837 402 
C 1114 402 1037 974 1018 1385 
L 2758 1385 
z
M 1024 1728 
C 1043 2122 1171 2606 1728 2606 
C 2240 2606 2336 2231 2355 1728 
L 1024 1728 
z
" transform="scale(0.015625)"/>
      <path id="CMSSBX10-72" d="M 1242 1496 
C 1242 2115 1747 2368 2150 2368 
C 2266 2368 2278 2368 2278 2555 
L 2278 2860 
C 2278 2989 2278 3034 2163 3034 
C 1984 3034 1517 2970 1216 2271 
L 1210 2271 
L 1210 2690 
C 1210 2897 1165 3001 902 3001 
L 698 3001 
C 467 3001 390 2930 390 2690 
L 390 310 
C 390 78 461 0 698 0 
L 934 0 
C 1178 0 1242 84 1242 312 
L 1242 1496 
z
" transform="scale(0.015625)"/>
      <path id="CMSSBX10-67" d="M 1280 577 
C 1050 577 960 577 870 656 
C 845 681 736 779 736 949 
C 736 994 742 1007 749 1046 
C 1050 878 1427 878 1562 878 
C 1830 878 2848 878 2848 1950 
C 2848 2326 2707 2553 2650 2624 
C 2758 2624 2982 2624 3245 2553 
C 3270 2540 3315 2527 3334 2527 
C 3386 2527 3418 2566 3418 2611 
C 3418 2637 3386 2792 3373 2857 
C 3347 3012 3347 3025 3232 3025 
C 3034 3025 2714 2948 2470 2799 
C 2170 2999 1837 3025 1562 3025 
C 1293 3025 275 3025 275 1954 
C 275 1694 346 1370 589 1156 
C 416 915 416 663 416 630 
C 416 507 454 293 589 118 
C 493 79 160 -37 160 -451 
C 160 -652 256 -988 659 -1176 
C 1024 -1344 1453 -1344 1754 -1344 
C 2131 -1344 3354 -1344 3354 -429 
C 3354 577 2451 577 1587 577 
L 1280 577 
z
M 1562 1344 
C 1114 1344 1094 1591 1094 1949 
C 1094 2306 1114 2560 1562 2560 
C 2010 2560 2029 2313 2029 1955 
C 2029 1597 2010 1344 1562 1344 
z
M 1907 -128 
C 2426 -128 2694 -217 2694 -448 
C 2694 -879 1965 -879 1760 -879 
C 1504 -879 819 -879 819 -430 
C 819 -128 1018 -128 1165 -128 
L 1907 -128 
z
" transform="scale(0.015625)"/>
      <path id="CMSSBX10-69" d="M 653 4480 
C 448 4480 346 4441 346 4182 
L 346 3885 
C 346 3678 410 3594 646 3594 
L 979 3594 
C 1286 3594 1286 3730 1286 4034 
C 1286 4344 1286 4480 979 4480 
L 653 4480 
z
M 1242 2634 
C 1242 2841 1197 2944 934 2944 
L 698 2944 
C 467 2944 390 2873 390 2634 
L 390 292 
C 390 60 461 -18 698 -18 
L 934 -18 
C 1178 -18 1242 66 1242 292 
L 1242 2634 
z
" transform="scale(0.015625)"/>
      <path id="CMSSBX10-6f" d="M 3315 1459 
C 3315 2517 2803 3072 1760 3072 
C 691 3072 198 2497 198 1459 
C 198 407 749 -64 1754 -64 
C 2758 -64 3315 401 3315 1459 
z
M 1760 440 
C 1069 440 1069 1020 1069 1536 
C 1069 2033 1069 2606 1754 2606 
C 2445 2606 2445 2039 2445 1536 
C 2445 1027 2445 440 1760 440 
z
" transform="scale(0.015625)"/>
      <path id="CMSSBX10-70" d="M 1261 242 
C 1549 -82 1901 -82 1990 -82 
C 3347 -82 3347 1154 3347 1476 
C 3347 1791 3347 3008 2189 3008 
C 1811 3008 1472 2853 1242 2633 
C 1242 2872 1152 2937 934 2937 
L 698 2937 
C 467 2937 390 2866 390 2627 
L 390 -969 
C 390 -1202 461 -1280 698 -1280 
L 954 -1280 
C 1197 -1280 1261 -1195 1261 -966 
L 1261 242 
z
M 1261 2292 
C 1331 2356 1542 2504 1818 2504 
C 2470 2504 2477 1746 2477 1463 
C 2477 1206 2477 384 1754 384 
C 1606 384 1491 435 1414 492 
C 1261 602 1261 634 1261 750 
L 1261 2292 
z
" transform="scale(0.015625)"/>
      <path id="CMSSBX10-74" d="M 1395 2496 
L 1965 2496 
C 2042 2496 2272 2496 2272 2729 
C 2272 2962 2042 2962 1965 2962 
L 1395 2962 
L 1395 3498 
C 1395 3705 1350 3808 1088 3808 
L 890 3808 
C 659 3808 582 3737 582 3498 
L 582 2962 
L 435 2962 
C 365 2962 128 2962 128 2729 
C 128 2496 358 2496 435 2496 
L 563 2496 
L 563 864 
C 563 213 794 -64 1235 -64 
C 1293 -64 1574 -64 1907 39 
C 2016 72 2387 188 2387 311 
C 2387 330 2374 376 2336 510 
C 2304 639 2291 678 2234 678 
C 2202 678 2195 671 2157 632 
C 2086 582 1914 440 1645 440 
C 1491 440 1395 550 1395 975 
L 1395 2496 
z
" transform="scale(0.015625)"/>
      <path id="CMSSBX10-6d" d="M 5158 2096 
C 5158 2761 4877 3025 4224 3025 
C 3770 3025 3418 2812 3187 2386 
C 3085 3012 2541 3012 2272 3012 
C 2150 3012 1882 3012 1594 2803 
C 1395 2658 1267 2455 1222 2360 
L 1216 2360 
L 1216 2687 
C 1216 2896 1171 3001 909 3001 
L 691 3001 
C 461 3001 384 2930 384 2690 
L 384 310 
C 384 78 454 0 691 0 
L 947 0 
C 1190 0 1254 84 1254 309 
L 1254 1735 
C 1254 2315 1645 2560 1958 2560 
C 2266 2560 2336 2424 2336 2082 
L 2336 309 
C 2336 78 2406 0 2643 0 
L 2899 0 
C 3142 0 3206 84 3206 309 
L 3206 1735 
C 3206 2315 3597 2560 3910 2560 
C 4218 2560 4288 2424 4288 2082 
L 4288 309 
C 4288 78 4358 0 4595 0 
L 4851 0 
C 5094 0 5158 84 5158 309 
L 5158 2096 
z
" transform="scale(0.015625)"/>
      <path id="CMSSBX10-61" d="M 2970 2050 
C 2970 3072 1997 3072 1677 3072 
C 1376 3072 1056 3046 627 2868 
C 493 2811 461 2792 461 2722 
C 461 2677 499 2300 506 2248 
C 512 2209 544 2177 589 2177 
C 621 2177 640 2196 659 2216 
C 934 2508 1254 2651 1651 2651 
C 1997 2651 2099 2435 2099 2049 
L 2099 1820 
C 1875 1820 198 1820 198 868 
C 198 415 557 -64 1120 -64 
C 1338 -64 1818 1 2118 447 
L 2118 317 
C 2118 110 2163 7 2426 7 
L 2662 7 
C 2906 7 2970 91 2970 317 
L 2970 2050 
z
M 2099 988 
C 2099 402 1491 402 1472 402 
C 1203 402 1030 639 1030 889 
C 1030 1536 1920 1536 2099 1536 
L 2099 988 
z
" transform="scale(0.015625)"/>
      <path id="CMSSBX10-6c" d="M 1242 4170 
C 1242 4377 1197 4480 934 4480 
L 698 4480 
C 467 4480 390 4409 390 4170 
L 390 302 
C 390 70 461 -8 698 -8 
L 934 -8 
C 1178 -8 1242 76 1242 302 
L 1242 4170 
z
" transform="scale(0.015625)"/>
      <path id="CMSSBX10-54" d="M 1875 3776 
L 1875 308 
C 1875 78 1946 0 2182 0 
L 2509 0 
C 2752 0 2816 84 2816 308 
L 2816 3776 
C 3098 3776 3814 3776 4096 3776 
C 4275 3776 4429 3776 4429 4083 
L 4429 4135 
C 4429 4340 4384 4443 4122 4443 
L 563 4443 
C 333 4443 256 4372 256 4135 
L 256 4083 
C 256 3776 410 3776 589 3776 
L 1875 3776 
z
" transform="scale(0.015625)"/>
      <path id="CMSSBX10-6a" d="M 1434 4169 
C 1434 4376 1389 4480 1126 4480 
L 800 4480 
C 557 4480 493 4396 493 4169 
L 493 3904 
C 493 3697 538 3594 800 3594 
L 1126 3594 
C 1370 3594 1434 3678 1434 3904 
L 1434 4169 
z
M 582 -374 
C 582 -542 582 -801 186 -801 
C 109 -801 -64 -781 -198 -704 
C -262 -658 -275 -658 -294 -658 
C -358 -658 -365 -704 -397 -826 
C -442 -969 -454 -1020 -454 -1040 
C -454 -1163 77 -1344 480 -1344 
C 1184 -1344 1434 -865 1434 -224 
L 1434 2637 
C 1434 2844 1389 2947 1126 2947 
L 890 2947 
C 646 2947 582 2863 582 2637 
L 582 -374 
z
" transform="scale(0.015625)"/>
      <path id="CMSSBX10-6b" d="M 2003 1751 
L 2989 2676 
C 3066 2747 3085 2766 3085 2818 
C 3085 2954 2957 2954 2867 2954 
L 2496 2954 
C 2381 2954 2259 2954 2112 2818 
L 1190 1952 
L 1190 4170 
C 1190 4377 1146 4480 883 4480 
L 749 4480 
C 518 4480 442 4409 442 4170 
L 442 302 
C 442 70 512 -8 749 -8 
L 864 -8 
C 1107 -8 1171 76 1171 302 
L 1171 975 
L 1472 1253 
L 2304 154 
C 2413 11 2458 -8 2643 -8 
L 2950 -8 
C 3040 -8 3181 -8 3181 134 
C 3181 147 3181 192 3117 277 
L 2003 1751 
z
" transform="scale(0.015625)"/>
      <path id="CMSSBX10-2d" d="M 1645 1280 
C 1722 1280 1952 1280 1952 1513 
C 1952 1746 1722 1746 1645 1746 
L 384 1746 
C 307 1746 77 1746 77 1513 
C 77 1280 307 1280 384 1280 
L 1645 1280 
z
" transform="scale(0.015625)"/>
      <path id="CMSSBX10-b" d="M 1402 2496 
L 1715 2496 
C 1792 2496 2022 2496 2022 2729 
C 2022 2962 1792 2962 1715 2962 
L 1382 2962 
L 1382 3668 
C 1382 3837 1382 4096 1805 4096 
C 2010 4096 2138 4038 2266 3915 
C 2310 3863 2330 3850 2362 3850 
C 2445 3850 2445 3915 2445 4018 
L 2445 4316 
C 2445 4471 2438 4477 2221 4523 
C 2035 4561 1901 4561 1805 4561 
C 1261 4561 550 4413 550 3480 
L 550 2962 
C 416 2962 192 2962 192 2729 
C 192 2496 410 2496 550 2496 
L 550 310 
C 550 78 621 0 858 0 
L 1094 0 
C 1338 0 1402 84 1402 310 
L 1402 2496 
z
M 3354 2496 
L 3667 2496 
C 3744 2496 3974 2496 3974 2729 
C 3974 2962 3744 2962 3667 2962 
L 3334 2962 
L 3334 3668 
C 3334 3837 3334 4096 3757 4096 
C 3962 4096 4090 4038 4218 3915 
C 4262 3863 4282 3850 4314 3850 
C 4397 3850 4397 3915 4397 4018 
L 4397 4316 
C 4397 4471 4390 4477 4173 4523 
C 3987 4561 3853 4561 3757 4561 
C 3213 4561 2502 4413 2502 3481 
L 2502 310 
C 2502 103 2547 0 2810 0 
L 3046 0 
C 3290 0 3354 84 3354 310 
L 3354 2496 
z
" transform="scale(0.015625)"/>
      <path id="CMSSBX10-52" d="M 3091 2059 
C 3494 2156 4102 2402 4102 3205 
C 4102 4480 2714 4480 2426 4480 
L 890 4480 
C 659 4480 582 4409 582 4170 
L 582 298 
C 582 66 653 -12 890 -12 
L 1197 -12 
C 1440 -12 1504 71 1504 296 
L 1504 1984 
L 2214 1984 
L 3264 142 
C 3354 -12 3424 -12 3565 -12 
L 3942 -12 
C 4070 -12 4179 -12 4179 181 
L 3091 2059 
z
M 1504 2450 
L 1504 3924 
L 2336 3924 
C 3078 3924 3213 3623 3213 3191 
C 3213 2804 3123 2450 2336 2450 
L 1504 2450 
z
" transform="scale(0.015625)"/>
      <path id="CMSSBX10-73" d="M 2534 902 
C 2534 1267 2342 1496 2227 1600 
C 1971 1836 1747 1875 1478 1927 
C 1126 1992 870 2045 870 2299 
C 870 2566 1082 2619 1331 2619 
C 1760 2619 1990 2456 2157 2313 
C 2221 2248 2234 2248 2259 2248 
C 2323 2248 2336 2306 2342 2332 
C 2355 2384 2419 2747 2419 2779 
C 2419 2884 2080 2975 2010 3000 
C 1754 3072 1549 3072 1382 3072 
C 1094 3072 237 3072 237 2145 
C 237 1827 378 1633 550 1477 
C 774 1270 1024 1225 1389 1154 
C 1574 1121 1901 1062 1901 778 
C 1901 473 1651 427 1402 427 
C 1120 427 762 512 461 877 
C 429 909 410 928 371 928 
C 307 928 294 871 288 832 
C 275 743 198 378 198 313 
C 198 198 672 51 678 45 
C 1030 -64 1293 -64 1402 -64 
C 1728 -64 2534 -64 2534 902 
z
" transform="scale(0.015625)"/>
     </defs>
     <use xlink:href="#CMSSBX10-45" transform="scale(0.996264)"/>
     <use xlink:href="#CMSSBX10-6e" transform="translate(63.927295 0) scale(0.996264)"/>
     <use xlink:href="#CMSSBX10-65" transform="translate(119.829083 0) scale(0.996264)"/>
     <use xlink:href="#CMSSBX10-72" transform="translate(170.749536 0) scale(0.996264)"/>
     <use xlink:href="#CMSSBX10-67" transform="translate(207.832946 0) scale(0.996264)"/>
     <use xlink:href="#CMSSBX10-69" transform="translate(262.627771 0) scale(0.996264)"/>
     <use xlink:href="#CMSSBX10-65" transform="translate(288.08799 0) scale(0.996264)"/>
     <use xlink:href="#CMSSBX10-6f" transform="translate(339.008442 0) scale(0.996264)"/>
     <use xlink:href="#CMSSBX10-70" transform="translate(393.803267 0) scale(0.996264)"/>
     <use xlink:href="#CMSSBX10-74" transform="translate(449.705055 0) scale(0.996264)"/>
     <use xlink:href="#CMSSBX10-69" transform="translate(489.970959 0) scale(0.996264)"/>
     <use xlink:href="#CMSSBX10-6d" transform="translate(515.431177 0) scale(0.996264)"/>
     <use xlink:href="#CMSSBX10-61" transform="translate(601.774534 0) scale(0.996264)"/>
     <use xlink:href="#CMSSBX10-6c" transform="translate(654.078729 0) scale(0.996264)"/>
     <use xlink:href="#CMSSBX10-65" transform="translate(679.538948 0) scale(0.996264)"/>
     <use xlink:href="#CMSSBX10-54" transform="translate(766.989284 0) scale(0.996264)"/>
     <use xlink:href="#CMSSBX10-72" transform="translate(830.916579 0) scale(0.996264)"/>
     <use xlink:href="#CMSSBX10-61" transform="translate(867.99999 0) scale(0.996264)"/>
     <use xlink:href="#CMSSBX10-6a" transform="translate(920.304185 0) scale(0.996264)"/>
     <use xlink:href="#CMSSBX10-65" transform="translate(948.80856 0) scale(0.996264)"/>
     <use xlink:href="#CMSSBX10-6b" transform="translate(999.729013 0) scale(0.996264)"/>
     <use xlink:href="#CMSSBX10-74" transform="translate(1052.586644 0) scale(0.996264)"/>
     <use xlink:href="#CMSSBX10-6f" transform="translate(1092.852548 0) scale(0.996264)"/>
     <use xlink:href="#CMSSBX10-72" transform="translate(1144.603215 0) scale(0.996264)"/>
     <use xlink:href="#CMSSBX10-69" transform="translate(1181.686626 0) scale(0.996264)"/>
     <use xlink:href="#CMSSBX10-65" transform="translate(1207.146844 0) scale(0.996264)"/>
     <use xlink:href="#CMSSBX10-2d" transform="translate(1294.59718 0) scale(0.996264)"/>
     <use xlink:href="#CMSSBX10-6f" transform="translate(1367.656946 0) scale(0.996264)"/>
     <use xlink:href="#CMSSBX10-b" transform="translate(1422.451771 0) scale(0.996264)"/>
     <use xlink:href="#CMSSBX10-65" transform="translate(1486.379066 0) scale(0.996264)"/>
     <use xlink:href="#CMSSBX10-6e" transform="translate(1537.299519 0) scale(0.996264)"/>
     <use xlink:href="#CMSSBX10-65" transform="translate(1593.201307 0) scale(0.996264)"/>
     <use xlink:href="#CMSSBX10-72" transform="translate(1644.12176 0) scale(0.996264)"/>
     <use xlink:href="#CMSSBX10-52" transform="translate(1717.735053 0) scale(0.996264)"/>
     <use xlink:href="#CMSSBX10-65" transform="translate(1787.750662 0) scale(0.996264)"/>
     <use xlink:href="#CMSSBX10-67" transform="translate(1838.671115 0) scale(0.996264)"/>
     <use xlink:href="#CMSSBX10-65" transform="translate(1893.465939 0) scale(0.996264)"/>
     <use xlink:href="#CMSSBX10-6c" transform="translate(1944.386392 0) scale(0.996264)"/>
     <use xlink:href="#CMSSBX10-6b" transform="translate(1969.846611 0) scale(0.996264)"/>
     <use xlink:href="#CMSSBX10-72" transform="translate(2022.704242 0) scale(0.996264)"/>
     <use xlink:href="#CMSSBX10-65" transform="translate(2059.787652 0) scale(0.996264)"/>
     <use xlink:href="#CMSSBX10-69" transform="translate(2110.708105 0) scale(0.996264)"/>
     <use xlink:href="#CMSSBX10-73" transform="translate(2136.168324 0) scale(0.996264)"/>
    </g>
   </g>
   <g id="legend_1">
    <g id="patch_7">
     <path d="M 118.5 135.197234 
L 351.853022 135.197234 
Q 354.853022 135.197234 354.853022 132.197234 
L 354.853022 70.98 
Q 354.853022 67.98 351.853022 67.98 
L 118.5 67.98 
Q 115.5 67.98 115.5 70.98 
L 115.5 132.197234 
Q 115.5 135.197234 118.5 135.197234 
z
" style="fill: #ffffff; opacity: 0.8; stroke: #cccccc; stroke-linejoin: miter"/>
    </g>
    <g id="line2d_34">
     <path d="M 121.5 79.23 
L 136.5 79.23 
L 151.5 79.23 
" style="fill: none; stroke: #ff0000; stroke-width: 2; stroke-linecap: square"/>
    </g>
    <g id="text_19">
     <!-- Referenzwert der Vorbereitung -->
     <g transform="translate(163.5 84.48) scale(0.15 -0.15)">
      <defs>
       <path id="CMSS17-52" d="M 2522 2109 
L 2534 2115 
C 3533 2459 3539 3147 3539 3268 
C 3539 3873 2925 4453 2003 4453 
L 570 4453 
L 570 32 
L 1094 32 
L 1094 2048 
L 2035 2048 
L 3168 32 
L 3706 32 
L 2522 2109 
z
M 1094 2437 
L 1094 4096 
L 1933 4096 
C 2746 4096 3034 3637 3034 3267 
C 3034 2922 2778 2437 1933 2437 
L 1094 2437 
z
" transform="scale(0.015625)"/>
       <path id="CMSS17-66" d="M 1075 2368 
L 1722 2368 
L 1722 2737 
L 1062 2737 
L 1062 3559 
C 1062 4014 1408 4092 1606 4092 
C 1670 4092 1850 4092 2080 4009 
L 2080 4429 
C 1933 4461 1754 4480 1613 4480 
C 1018 4480 602 3993 602 3359 
L 602 2737 
L 160 2737 
L 160 2368 
L 602 2368 
L 602 0 
L 1075 0 
L 1075 2368 
z
" transform="scale(0.015625)"/>
       <path id="CMSS17-72" d="M 954 1363 
C 954 1965 1395 2368 1958 2368 
L 1958 2789 
C 1549 2789 1165 2585 934 2253 
L 934 2758 
L 480 2758 
L 480 0 
L 954 0 
L 954 1363 
z
" transform="scale(0.015625)"/>
       <path id="CMSS17-7a" d="M 2400 2502 
L 2400 2750 
L 250 2750 
L 250 2368 
L 1069 2368 
C 1146 2368 1222 2368 1299 2368 
L 1747 2368 
L 166 261 
L 166 0 
L 2419 0 
L 2419 395 
L 1549 395 
C 1472 395 1395 395 1318 395 
L 826 395 
L 2400 2502 
z
" transform="scale(0.015625)"/>
       <path id="CMSS17-77" d="M 4013 2752 
L 3526 2752 
L 3187 1601 
C 3117 1358 2918 685 2893 371 
L 2886 371 
C 2874 564 2765 1024 2586 1633 
L 2259 2752 
L 1818 2752 
L 1498 1658 
C 1338 1101 1216 627 1203 371 
L 1197 371 
C 1171 749 909 1633 870 1773 
L 582 2752 
L 83 2752 
L 915 0 
L 1402 0 
C 1734 1096 1990 1943 2010 2370 
C 2022 2160 2131 1707 2195 1484 
L 2618 0 
L 3181 0 
L 4013 2752 
z
" transform="scale(0.015625)"/>
       <path id="CMSS17-64" d="M 2611 4416 
L 2138 4416 
L 2138 2438 
C 1939 2603 1613 2756 1254 2756 
C 672 2756 211 2131 211 1347 
C 211 562 666 -64 1235 -64 
C 1677 -64 1971 172 2125 306 
L 2125 -13 
L 2611 -13 
L 2611 4416 
z
M 2125 836 
C 2125 747 2125 653 1926 482 
C 1798 375 1645 325 1498 325 
C 1152 325 698 576 698 1340 
C 698 2134 1210 2368 1562 2368 
C 1798 2368 1990 2254 2125 2065 
L 2125 836 
z
" transform="scale(0.015625)"/>
       <path id="CMSS17-56" d="M 3910 4416 
L 3411 4416 
L 2304 1362 
C 2272 1273 2074 688 2035 484 
L 2029 484 
C 1978 726 1773 1292 1664 1604 
L 922 3672 
L 646 4416 
L 83 4416 
L 1715 0 
L 2278 0 
L 3910 4416 
z
" transform="scale(0.015625)"/>
       <path id="CMSS17-6f" d="M 2829 1356 
C 2829 2176 2221 2816 1504 2816 
C 768 2816 173 2157 173 1356 
C 173 544 787 -64 1498 -64 
C 2227 -64 2829 563 2829 1356 
z
M 1504 337 
C 1050 337 659 709 659 1408 
C 659 2151 1114 2427 1498 2427 
C 1914 2427 2342 2126 2342 1408 
C 2342 683 1926 337 1504 337 
z
" transform="scale(0.015625)"/>
       <path id="CMSS17-62" d="M 954 4416 
L 480 4416 
L 480 -13 
L 966 -13 
L 966 274 
C 1210 38 1504 -64 1766 -64 
C 2381 -64 2880 549 2880 1352 
C 2880 2086 2496 2756 1926 2756 
C 1523 2756 1165 2591 954 2419 
L 954 4416 
z
M 966 2046 
C 1107 2222 1306 2368 1587 2368 
C 1965 2368 2394 2097 2394 1352 
C 2394 558 1882 325 1530 325 
C 1402 325 1267 356 1139 464 
C 966 615 966 709 966 797 
L 966 2046 
z
" transform="scale(0.015625)"/>
      </defs>
      <use xlink:href="#CMSS17-52" transform="scale(0.996264)"/>
      <use xlink:href="#CMSS17-65" transform="translate(60.416155 0) scale(0.996264)"/>
      <use xlink:href="#CMSS17-66" transform="translate(102.054977 0) scale(0.996264)"/>
      <use xlink:href="#CMSS17-65" transform="translate(130.681636 0) scale(0.996264)"/>
      <use xlink:href="#CMSS17-72" transform="translate(172.320458 0) scale(0.996264)"/>
      <use xlink:href="#CMSS17-65" transform="translate(204.23023 0) scale(0.996264)"/>
      <use xlink:href="#CMSS17-6e" transform="translate(245.869052 0) scale(0.996264)"/>
      <use xlink:href="#CMSS17-7a" transform="translate(294.073996 0) scale(0.996264)"/>
      <use xlink:href="#CMSS17-77" transform="translate(334.751867 0) scale(0.996264)"/>
      <use xlink:href="#CMSS17-65" transform="translate(395.968959 0) scale(0.996264)"/>
      <use xlink:href="#CMSS17-72" transform="translate(437.607781 0) scale(0.996264)"/>
      <use xlink:href="#CMSS17-74" transform="translate(469.517553 0) scale(0.996264)"/>
      <use xlink:href="#CMSS17-64" transform="translate(534.578233 0) scale(0.996264)"/>
      <use xlink:href="#CMSS17-65" transform="translate(582.783176 0) scale(0.996264)"/>
      <use xlink:href="#CMSS17-72" transform="translate(624.421998 0) scale(0.996264)"/>
      <use xlink:href="#CMSS17-56" transform="translate(687.560883 0) scale(0.996264)"/>
      <use xlink:href="#CMSS17-6f" transform="translate(747.176284 0) scale(0.996264)"/>
      <use xlink:href="#CMSS17-72" transform="translate(791.417454 0) scale(0.996264)"/>
      <use xlink:href="#CMSS17-62" transform="translate(823.327226 0) scale(0.996264)"/>
      <use xlink:href="#CMSS17-65" transform="translate(874.134608 0) scale(0.996264)"/>
      <use xlink:href="#CMSS17-72" transform="translate(915.77343 0) scale(0.996264)"/>
      <use xlink:href="#CMSS17-65" transform="translate(947.683203 0) scale(0.996264)"/>
      <use xlink:href="#CMSS17-69" transform="translate(989.322025 0) scale(0.996264)"/>
      <use xlink:href="#CMSS17-74" transform="translate(1011.502748 0) scale(0.996264)"/>
      <use xlink:href="#CMSS17-75" transform="translate(1045.334315 0) scale(0.996264)"/>
      <use xlink:href="#CMSS17-6e" transform="translate(1093.539258 0) scale(0.996264)"/>
      <use xlink:href="#CMSS17-67" transform="translate(1141.744201 0) scale(0.996264)"/>
     </g>
    </g>
    <g id="line2d_35">
     <path d="M 121.5 100.135745 
L 136.5 100.135745 
L 151.5 100.135745 
" style="fill: none; stroke-dasharray: 7.4,3.2; stroke-dashoffset: 0; stroke: #008000; stroke-width: 2"/>
    </g>
    <g id="text_20">
     <!-- Messung -->
     <g transform="translate(163.5 105.385745) scale(0.15 -0.15)">
      <defs>
       <path id="CMSS17-4d" d="M 3194 2371 
L 2886 1473 
C 2835 1307 2662 791 2624 587 
L 2618 587 
C 2598 715 2560 849 2458 1174 
C 2400 1365 2336 1562 2272 1741 
L 1325 4416 
L 576 4416 
L 576 0 
L 1075 0 
L 1075 3900 
L 1082 3900 
C 1082 3894 1139 3613 1530 2499 
L 2374 96 
L 2848 96 
L 3610 2231 
C 3661 2378 3821 2843 3891 3066 
C 3955 3257 4115 3728 4154 3913 
L 4160 3913 
L 4160 0 
L 4666 0 
L 4666 4416 
L 3923 4416 
L 3194 2371 
z
" transform="scale(0.015625)"/>
      </defs>
      <use xlink:href="#CMSS17-4d" transform="scale(0.996264)"/>
      <use xlink:href="#CMSS17-65" transform="translate(81.67603 0) scale(0.996264)"/>
      <use xlink:href="#CMSS17-73" transform="translate(123.314852 0) scale(0.996264)"/>
      <use xlink:href="#CMSS17-73" transform="translate(159.228394 0) scale(0.996264)"/>
      <use xlink:href="#CMSS17-75" transform="translate(195.141936 0) scale(0.996264)"/>
      <use xlink:href="#CMSS17-6e" transform="translate(243.346879 0) scale(0.996264)"/>
      <use xlink:href="#CMSS17-67" transform="translate(291.551822 0) scale(0.996264)"/>
     </g>
    </g>
    <g id="line2d_36">
     <path d="M 121.5 121.041489 
L 136.5 121.041489 
L 151.5 121.041489 
" style="fill: none; stroke-dasharray: 2,3.3; stroke-dashoffset: 0; stroke: #0000ff; stroke-width: 2"/>
    </g>
    <g id="text_21">
     <!-- Beobachter -->
     <g transform="translate(163.5 126.291489) scale(0.15 -0.15)">
      <defs>
       <path id="CMSS17-42" d="M 570 4416 
L 570 0 
L 2163 0 
C 3034 0 3667 574 3667 1200 
C 3667 1685 3251 2176 2502 2317 
C 3334 2558 3501 3040 3501 3313 
C 3501 3883 2874 4416 1997 4416 
L 570 4416 
z
M 1088 2496 
L 1088 4059 
L 1824 4059 
C 2483 4059 3002 3724 3002 3306 
C 3002 2926 2592 2496 1766 2496 
L 1088 2496 
z
M 1088 357 
L 1088 2107 
L 1939 2107 
C 2630 2107 3162 1679 3162 1206 
C 3162 772 2694 357 1984 357 
L 1088 357 
z
" transform="scale(0.015625)"/>
       <path id="CMSS17-61" d="M 2406 1791 
C 2406 2392 1978 2808 1402 2808 
C 1120 2808 813 2757 461 2553 
L 499 2135 
C 659 2248 934 2432 1395 2432 
C 1722 2432 1920 2180 1920 1782 
L 1920 1536 
C 896 1536 256 1238 256 726 
C 256 461 416 -64 947 -64 
C 1043 -64 1562 -64 1933 217 
L 1933 -19 
L 2406 -19 
L 2406 1791 
z
M 1920 816 
C 1920 701 1920 548 1728 434 
C 1562 325 1350 325 1261 325 
C 941 325 723 511 723 744 
C 723 1211 1722 1211 1920 1211 
L 1920 816 
z
" transform="scale(0.015625)"/>
       <path id="CMSS17-63" d="M 2464 2541 
C 2464 2585 2170 2714 2093 2739 
C 1882 2816 1613 2816 1542 2816 
C 710 2816 211 2093 211 1363 
C 211 595 768 -64 1517 -64 
C 1946 -64 2253 76 2502 242 
L 2464 664 
C 2189 453 1869 337 1523 337 
C 1024 337 698 774 698 1369 
C 698 1831 909 2414 1549 2414 
C 1901 2414 2099 2343 2394 2145 
L 2464 2541 
z
" transform="scale(0.015625)"/>
       <path id="CMSS17-68" d="M 2618 1891 
C 2618 2292 2522 2820 1798 2820 
C 1395 2820 1133 2623 947 2407 
L 947 4448 
L 474 4448 
L 474 32 
L 960 32 
L 960 1573 
C 960 1973 1114 2432 1549 2432 
C 2112 2432 2131 2056 2131 1839 
L 2131 32 
L 2618 32 
L 2618 1891 
z
" transform="scale(0.015625)"/>
      </defs>
      <use xlink:href="#CMSS17-42" transform="scale(0.996264)"/>
      <use xlink:href="#CMSS17-65" transform="translate(62.33804 0) scale(0.996264)"/>
      <use xlink:href="#CMSS17-6f" transform="translate(103.976862 0) scale(0.996264)"/>
      <use xlink:href="#CMSS17-62" transform="translate(150.820486 0) scale(0.996264)"/>
      <use xlink:href="#CMSS17-61" transform="translate(199.025429 0) scale(0.996264)"/>
      <use xlink:href="#CMSS17-63" transform="translate(243.94735 0) scale(0.996264)"/>
      <use xlink:href="#CMSS17-68" transform="translate(285.586172 0) scale(0.996264)"/>
      <use xlink:href="#CMSS17-74" transform="translate(333.791115 0) scale(0.996264)"/>
      <use xlink:href="#CMSS17-65" transform="translate(367.622681 0) scale(0.996264)"/>
      <use xlink:href="#CMSS17-72" transform="translate(409.261503 0) scale(0.996264)"/>
     </g>
    </g>
   </g>
  </g>
 </g>
 <defs>
  <clipPath id="pe922524b10">
   <rect x="108" y="60.48" width="669.6" height="388.08"/>
  </clipPath>
 </defs>
</svg>
