<?xml version="1.0" encoding="utf-8" standalone="no"?>
<!DOCTYPE svg PUBLIC "-//W3C//DTD SVG 1.1//EN"
  "http://www.w3.org/Graphics/SVG/1.1/DTD/svg11.dtd">
<svg xmlns:xlink="http://www.w3.org/1999/xlink" width="864pt" height="504pt" viewBox="0 0 864 504" xmlns="http://www.w3.org/2000/svg" version="1.1">
 <metadata>
  <rdf:RDF xmlns:dc="http://purl.org/dc/elements/1.1/" xmlns:cc="http://creativecommons.org/ns#" xmlns:rdf="http://www.w3.org/1999/02/22-rdf-syntax-ns#">
   <cc:Work>
    <dc:type rdf:resource="http://purl.org/dc/dcmitype/StillImage"/>
    <dc:date>2023-06-05T20:44:24.529913</dc:date>
    <dc:format>image/svg+xml</dc:format>
    <dc:creator>
     <cc:Agent>
      <dc:title>Matplotlib v3.7.1, https://matplotlib.org/</dc:title>
     </cc:Agent>
    </dc:creator>
   </cc:Work>
  </rdf:RDF>
 </metadata>
 <defs>
  <style type="text/css">*{stroke-linejoin: round; stroke-linecap: butt}</style>
 </defs>
 <g id="figure_1">
  <g id="patch_1">
   <path d="M 0 504 
L 864 504 
L 864 0 
L 0 0 
z
" style="fill: #ffffff"/>
  </g>
  <g id="axes_1">
   <g id="patch_2">
    <path d="M 108 448.56 
L 777.6 448.56 
L 777.6 60.48 
L 108 60.48 
z
" style="fill: #ffffff"/>
   </g>
   <g id="matplotlib.axis_1">
    <g id="xtick_1">
     <g id="line2d_1">
      <path d="M 245.871463 448.56 
L 245.871463 60.48 
" clip-path="url(#pd07956d125)" style="fill: none; stroke: #b0b0b0; stroke-width: 0.8; stroke-linecap: square"/>
     </g>
     <g id="line2d_2">
      <defs>
       <path id="m14b5b10cc9" d="M 0 0 
L 0 3.5 
" style="stroke: #000000; stroke-width: 0.8"/>
      </defs>
      <g>
       <use xlink:href="#m14b5b10cc9" x="245.871463" y="448.56" style="stroke: #000000; stroke-width: 0.8"/>
      </g>
     </g>
     <g id="text_1">
      <!-- $\mathdefault{6}$ -->
      <g transform="translate(241.302415 469.396997) scale(0.2 -0.2)">
       <defs>
        <path id="CMR17-36" d="M 678 2176 
C 678 3690 1395 4032 1811 4032 
C 1946 4032 2272 4009 2400 3776 
C 2298 3776 2106 3776 2106 3553 
C 2106 3381 2246 3323 2336 3323 
C 2394 3323 2566 3348 2566 3560 
C 2566 3954 2246 4179 1805 4179 
C 1043 4179 243 3390 243 1984 
C 243 253 966 -128 1478 -128 
C 2099 -128 2688 427 2688 1283 
C 2688 2081 2170 2662 1517 2662 
C 1126 2662 838 2407 678 1960 
L 678 2176 
z
M 1478 25 
C 691 25 691 1200 691 1436 
C 691 1896 909 2560 1504 2560 
C 1613 2560 1926 2560 2138 2120 
C 2253 1870 2253 1609 2253 1289 
C 2253 944 2253 690 2118 434 
C 1978 171 1773 25 1478 25 
z
" transform="scale(0.015625)"/>
       </defs>
       <use xlink:href="#CMR17-36" transform="scale(0.996264)"/>
      </g>
     </g>
    </g>
    <g id="xtick_2">
     <g id="line2d_3">
      <path d="M 389.118262 448.56 
L 389.118262 60.48 
" clip-path="url(#pd07956d125)" style="fill: none; stroke: #b0b0b0; stroke-width: 0.8; stroke-linecap: square"/>
     </g>
     <g id="line2d_4">
      <g>
       <use xlink:href="#m14b5b10cc9" x="389.118262" y="448.56" style="stroke: #000000; stroke-width: 0.8"/>
      </g>
     </g>
     <g id="text_2">
      <!-- $\mathdefault{8}$ -->
      <g transform="translate(384.549214 469.396997) scale(0.2 -0.2)">
       <defs>
        <path id="CMR17-38" d="M 1741 2264 
C 2144 2467 2554 2773 2554 3263 
C 2554 3841 1990 4179 1472 4179 
C 890 4179 378 3759 378 3180 
C 378 3021 416 2747 666 2505 
C 730 2442 998 2251 1171 2130 
C 883 1983 211 1634 211 934 
C 211 279 838 -128 1459 -128 
C 2144 -128 2720 362 2720 1010 
C 2720 1590 2330 1857 2074 2029 
L 1741 2264 
z
M 902 2822 
C 851 2854 595 3051 595 3351 
C 595 3739 998 4032 1459 4032 
C 1965 4032 2336 3676 2336 3262 
C 2336 2669 1670 2331 1638 2331 
C 1632 2331 1626 2331 1574 2370 
L 902 2822 
z
M 2080 1519 
C 2176 1449 2483 1240 2483 851 
C 2483 381 2010 25 1472 25 
C 890 25 448 438 448 940 
C 448 1443 838 1862 1280 2060 
L 2080 1519 
z
" transform="scale(0.015625)"/>
       </defs>
       <use xlink:href="#CMR17-38" transform="scale(0.996264)"/>
      </g>
     </g>
    </g>
    <g id="xtick_3">
     <g id="line2d_5">
      <path d="M 532.365061 448.56 
L 532.365061 60.48 
" clip-path="url(#pd07956d125)" style="fill: none; stroke: #b0b0b0; stroke-width: 0.8; stroke-linecap: square"/>
     </g>
     <g id="line2d_6">
      <g>
       <use xlink:href="#m14b5b10cc9" x="532.365061" y="448.56" style="stroke: #000000; stroke-width: 0.8"/>
      </g>
     </g>
     <g id="text_3">
      <!-- $\mathdefault{10}$ -->
      <g transform="translate(523.226966 469.396997) scale(0.2 -0.2)">
       <defs>
        <path id="CMR17-31" d="M 1702 4058 
C 1702 4192 1696 4192 1606 4192 
C 1357 3916 979 3827 621 3827 
C 602 3827 570 3827 563 3808 
C 557 3795 557 3782 557 3648 
C 755 3648 1088 3686 1344 3839 
L 1344 461 
C 1344 236 1331 160 781 160 
L 589 160 
L 589 0 
C 896 0 1216 0 1523 0 
C 1830 0 2150 0 2458 0 
L 2458 160 
L 2266 160 
C 1715 160 1702 230 1702 458 
L 1702 4058 
z
" transform="scale(0.015625)"/>
        <path id="CMR17-30" d="M 2688 2025 
C 2688 2416 2682 3080 2413 3591 
C 2176 4039 1798 4198 1466 4198 
C 1158 4198 768 4058 525 3597 
C 269 3118 243 2524 243 2025 
C 243 1661 250 1106 448 619 
C 723 -39 1216 -128 1466 -128 
C 1760 -128 2208 -7 2470 600 
C 2662 1042 2688 1559 2688 2025 
z
M 1466 -26 
C 1056 -26 813 325 723 812 
C 653 1188 653 1738 653 2096 
C 653 2588 653 2997 736 3387 
C 858 3929 1216 4096 1466 4096 
C 1728 4096 2067 3923 2189 3400 
C 2272 3036 2278 2607 2278 2096 
C 2278 1680 2278 1169 2202 792 
C 2067 95 1690 -26 1466 -26 
z
" transform="scale(0.015625)"/>
       </defs>
       <use xlink:href="#CMR17-31" transform="scale(0.996264)"/>
       <use xlink:href="#CMR17-30" transform="translate(45.690477 0) scale(0.996264)"/>
      </g>
     </g>
    </g>
    <g id="xtick_4">
     <g id="line2d_7">
      <path d="M 675.61186 448.56 
L 675.61186 60.48 
" clip-path="url(#pd07956d125)" style="fill: none; stroke: #b0b0b0; stroke-width: 0.8; stroke-linecap: square"/>
     </g>
     <g id="line2d_8">
      <g>
       <use xlink:href="#m14b5b10cc9" x="675.61186" y="448.56" style="stroke: #000000; stroke-width: 0.8"/>
      </g>
     </g>
     <g id="text_4">
      <!-- $\mathdefault{12}$ -->
      <g transform="translate(666.473765 469.396997) scale(0.2 -0.2)">
       <defs>
        <path id="CMR17-32" d="M 2669 989 
L 2554 989 
C 2490 536 2438 459 2413 420 
C 2381 369 1920 369 1830 369 
L 602 369 
C 832 619 1280 1072 1824 1597 
C 2214 1967 2669 2402 2669 3035 
C 2669 3790 2067 4224 1395 4224 
C 691 4224 262 3604 262 3030 
C 262 2780 448 2748 525 2748 
C 589 2748 781 2787 781 3010 
C 781 3207 614 3264 525 3264 
C 486 3264 448 3258 422 3245 
C 544 3790 915 4058 1306 4058 
C 1862 4058 2227 3617 2227 3035 
C 2227 2479 1901 2000 1536 1584 
L 262 146 
L 262 0 
L 2515 0 
L 2669 989 
z
" transform="scale(0.015625)"/>
       </defs>
       <use xlink:href="#CMR17-31" transform="scale(0.996264)"/>
       <use xlink:href="#CMR17-32" transform="translate(45.690477 0) scale(0.996264)"/>
      </g>
     </g>
    </g>
    <g id="text_5">
     <!-- Zeit t in s -->
     <g transform="translate(403.927758 491.109627) scale(0.2 -0.2)">
      <defs>
       <path id="CMSS17-5a" d="M 3341 4155 
L 3341 4416 
L 416 4416 
L 416 4015 
L 1613 4015 
C 1690 4015 1766 4015 1843 4015 
L 2662 4015 
L 333 274 
L 333 0 
L 3373 0 
L 3373 414 
L 2803 414 
C 2272 414 1734 414 1203 414 
L 1011 414 
L 3341 4155 
z
" transform="scale(0.015625)"/>
       <path id="CMSS17-65" d="M 2502 1377 
C 2502 1590 2490 2003 2285 2345 
C 2061 2713 1696 2816 1421 2816 
C 755 2816 192 2188 192 1375 
C 192 582 774 -64 1510 -64 
C 1798 -64 2150 19 2470 248 
C 2470 274 2458 414 2451 420 
C 2451 433 2432 630 2432 656 
C 2125 407 1773 325 1517 325 
C 1107 325 666 667 646 1377 
L 2502 1377 
z
M 698 1728 
C 781 2084 1062 2421 1421 2421 
C 1517 2421 1965 2421 2080 1728 
L 698 1728 
z
" transform="scale(0.015625)"/>
       <path id="CMSS17-69" d="M 979 4183 
L 442 4183 
L 442 3648 
L 979 3648 
L 979 4183 
z
M 947 2739 
L 474 2739 
L 474 0 
L 947 0 
L 947 2739 
z
" transform="scale(0.015625)"/>
       <path id="CMSS17-74" d="M 1069 2368 
L 1901 2368 
L 1901 2737 
L 1069 2737 
L 1069 3520 
L 614 3520 
L 614 2737 
L 109 2737 
L 109 2368 
L 602 2368 
L 602 749 
C 602 384 685 -64 1107 -64 
C 1427 -64 1722 25 2003 172 
L 1901 548 
C 1747 414 1562 337 1363 337 
C 1082 337 1069 696 1069 856 
L 1069 2368 
z
" transform="scale(0.015625)"/>
       <path id="CMSS17-6e" d="M 2618 1877 
C 2618 2283 2522 2816 1798 2816 
C 1389 2816 1120 2606 941 2389 
L 941 2758 
L 474 2758 
L 474 0 
L 960 0 
L 960 1559 
C 960 1964 1114 2428 1549 2428 
C 2112 2428 2131 2048 2131 1829 
L 2131 0 
L 2618 0 
L 2618 1877 
z
" transform="scale(0.015625)"/>
       <path id="CMSS17-73" d="M 2061 2627 
C 1683 2807 1389 2807 1197 2807 
C 742 2807 198 2648 198 2003 
C 198 1359 902 1218 1094 1179 
C 1389 1122 1715 1058 1715 740 
C 1715 337 1254 337 1171 337 
C 915 337 563 407 243 638 
L 166 210 
C 531 0 883 -64 1178 -64 
C 1965 -64 2163 416 2163 781 
C 2163 1094 1984 1305 1862 1401 
C 1651 1568 1574 1587 1050 1696 
C 960 1709 646 1779 646 2066 
C 646 2432 1050 2432 1139 2432 
C 1555 2432 1811 2303 1984 2208 
L 2061 2627 
z
" transform="scale(0.015625)"/>
      </defs>
      <use xlink:href="#CMSS17-5a" transform="scale(0.996264)"/>
      <use xlink:href="#CMSS17-65" transform="translate(57.253333 0) scale(0.996264)"/>
      <use xlink:href="#CMSS17-69" transform="translate(98.892155 0) scale(0.996264)"/>
      <use xlink:href="#CMSS17-74" transform="translate(121.072878 0) scale(0.996264)"/>
      <use xlink:href="#CMSS17-74" transform="translate(186.133557 0) scale(0.996264)"/>
      <use xlink:href="#CMSS17-69" transform="translate(251.194237 0) scale(0.996264)"/>
      <use xlink:href="#CMSS17-6e" transform="translate(273.37496 0) scale(0.996264)"/>
      <use xlink:href="#CMSS17-73" transform="translate(352.809016 0) scale(0.996264)"/>
     </g>
    </g>
   </g>
   <g id="matplotlib.axis_2">
    <g id="ytick_1">
     <g id="line2d_9">
      <path d="M 108 416.925862 
L 777.6 416.925862 
" clip-path="url(#pd07956d125)" style="fill: none; stroke: #b0b0b0; stroke-width: 0.8; stroke-linecap: square"/>
     </g>
     <g id="line2d_10">
      <defs>
       <path id="m877b8a1e9b" d="M 0 0 
L -3.5 0 
" style="stroke: #000000; stroke-width: 0.8"/>
      </defs>
      <g>
       <use xlink:href="#m877b8a1e9b" x="108" y="416.925862" style="stroke: #000000; stroke-width: 0.8"/>
      </g>
     </g>
     <g id="text_6">
      <!-- $\mathdefault{−2}$ -->
      <g transform="translate(76.364417 423.844361) scale(0.2 -0.2)">
       <defs>
        <path id="CMSY10-0" d="M 4218 1472 
C 4326 1472 4442 1472 4442 1600 
C 4442 1728 4326 1728 4218 1728 
L 755 1728 
C 646 1728 531 1728 531 1600 
C 531 1472 646 1472 755 1472 
L 4218 1472 
z
" transform="scale(0.015625)"/>
       </defs>
       <use xlink:href="#CMSY10-0" transform="scale(0.996264)"/>
       <use xlink:href="#CMR17-32" transform="translate(77.487468 0) scale(0.996264)"/>
      </g>
     </g>
    </g>
    <g id="ytick_2">
     <g id="line2d_11">
      <path d="M 108 335.663813 
L 777.6 335.663813 
" clip-path="url(#pd07956d125)" style="fill: none; stroke: #b0b0b0; stroke-width: 0.8; stroke-linecap: square"/>
     </g>
     <g id="line2d_12">
      <g>
       <use xlink:href="#m877b8a1e9b" x="108" y="335.663813" style="stroke: #000000; stroke-width: 0.8"/>
      </g>
     </g>
     <g id="text_7">
      <!-- $\mathdefault{−1}$ -->
      <g transform="translate(76.364417 342.582311) scale(0.2 -0.2)">
       <use xlink:href="#CMSY10-0" transform="scale(0.996264)"/>
       <use xlink:href="#CMR17-31" transform="translate(77.487468 0) scale(0.996264)"/>
      </g>
     </g>
    </g>
    <g id="ytick_3">
     <g id="line2d_13">
      <path d="M 108 254.401764 
L 777.6 254.401764 
" clip-path="url(#pd07956d125)" style="fill: none; stroke: #b0b0b0; stroke-width: 0.8; stroke-linecap: square"/>
     </g>
     <g id="line2d_14">
      <g>
       <use xlink:href="#m877b8a1e9b" x="108" y="254.401764" style="stroke: #000000; stroke-width: 0.8"/>
      </g>
     </g>
     <g id="text_8">
      <!-- $\mathdefault{0}$ -->
      <g transform="translate(91.861905 261.320262) scale(0.2 -0.2)">
       <use xlink:href="#CMR17-30" transform="scale(0.996264)"/>
      </g>
     </g>
    </g>
    <g id="ytick_4">
     <g id="line2d_15">
      <path d="M 108 173.139714 
L 777.6 173.139714 
" clip-path="url(#pd07956d125)" style="fill: none; stroke: #b0b0b0; stroke-width: 0.8; stroke-linecap: square"/>
     </g>
     <g id="line2d_16">
      <g>
       <use xlink:href="#m877b8a1e9b" x="108" y="173.139714" style="stroke: #000000; stroke-width: 0.8"/>
      </g>
     </g>
     <g id="text_9">
      <!-- $\mathdefault{1}$ -->
      <g transform="translate(91.861905 180.058213) scale(0.2 -0.2)">
       <use xlink:href="#CMR17-31" transform="scale(0.996264)"/>
      </g>
     </g>
    </g>
    <g id="ytick_5">
     <g id="line2d_17">
      <path d="M 108 91.877665 
L 777.6 91.877665 
" clip-path="url(#pd07956d125)" style="fill: none; stroke: #b0b0b0; stroke-width: 0.8; stroke-linecap: square"/>
     </g>
     <g id="line2d_18">
      <g>
       <use xlink:href="#m877b8a1e9b" x="108" y="91.877665" style="stroke: #000000; stroke-width: 0.8"/>
      </g>
     </g>
     <g id="text_10">
      <!-- $\mathdefault{2}$ -->
      <g transform="translate(91.861905 98.796163) scale(0.2 -0.2)">
       <use xlink:href="#CMR17-32" transform="scale(0.996264)"/>
      </g>
     </g>
    </g>
    <g id="text_11">
     <!-- Strom $I$ in A -->
     <g transform="translate(68.488784 306.120991) rotate(-90) scale(0.2 -0.2)">
      <defs>
       <path id="CMSS17-53" d="M 2797 4169 
C 2515 4334 2208 4480 1690 4480 
C 864 4480 333 3879 333 3266 
C 333 3025 403 2753 653 2475 
C 902 2196 1184 2121 1542 2033 
C 1690 1994 1939 1924 1984 1906 
C 2342 1767 2515 1444 2515 1140 
C 2515 742 2202 318 1645 318 
C 1453 318 890 318 358 819 
L 269 318 
C 794 -64 1363 -128 1651 -128 
C 2438 -128 3002 488 3002 1186 
C 3002 1440 2925 1763 2656 2061 
C 2394 2347 2163 2410 1638 2549 
C 1338 2626 1146 2677 986 2873 
C 877 3013 819 3146 819 3317 
C 819 3673 1126 4060 1690 4060 
C 1971 4060 2336 4002 2707 3660 
L 2797 4169 
z
" transform="scale(0.015625)"/>
       <path id="CMSS17-72" d="M 954 1363 
C 954 1965 1395 2368 1958 2368 
L 1958 2789 
C 1549 2789 1165 2585 934 2253 
L 934 2758 
L 480 2758 
L 480 0 
L 954 0 
L 954 1363 
z
" transform="scale(0.015625)"/>
       <path id="CMSS17-6f" d="M 2829 1356 
C 2829 2176 2221 2816 1504 2816 
C 768 2816 173 2157 173 1356 
C 173 544 787 -64 1498 -64 
C 2227 -64 2829 563 2829 1356 
z
M 1504 337 
C 1050 337 659 709 659 1408 
C 659 2151 1114 2427 1498 2427 
C 1914 2427 2342 2126 2342 1408 
C 2342 683 1926 337 1504 337 
z
" transform="scale(0.015625)"/>
       <path id="CMSS17-6d" d="M 4288 1877 
C 4288 2308 4179 2816 3462 2816 
C 2982 2816 2694 2516 2566 2331 
C 2451 2670 2182 2816 1798 2816 
C 1363 2816 1088 2568 941 2389 
L 941 2758 
L 474 2758 
L 474 0 
L 960 0 
L 960 1559 
C 960 1939 1101 2428 1555 2428 
C 2138 2428 2138 2016 2138 1829 
L 2138 0 
L 2624 0 
L 2624 1559 
C 2624 1939 2765 2428 3219 2428 
C 3802 2428 3802 2016 3802 1829 
L 3802 0 
L 4288 0 
L 4288 1877 
z
" transform="scale(0.015625)"/>
       <path id="CMMI12-49" d="M 2355 3880 
C 2413 4103 2426 4167 2893 4167 
C 3034 4167 3085 4167 3085 4288 
C 3085 4352 3014 4352 2995 4352 
C 2880 4352 2739 4352 2624 4352 
L 1837 4352 
C 1709 4352 1562 4352 1434 4352 
C 1382 4352 1312 4352 1312 4231 
C 1312 4167 1363 4167 1491 4167 
C 1888 4167 1888 4116 1888 4046 
C 1888 4002 1875 3963 1862 3906 
L 998 472 
C 941 249 928 185 461 185 
C 320 185 262 185 262 64 
C 262 0 326 0 358 0 
C 474 0 614 0 730 0 
L 1517 0 
C 1645 0 1786 0 1914 0 
C 1965 0 2042 0 2042 115 
C 2042 185 2003 185 1862 185 
C 1466 185 1466 236 1466 312 
C 1466 325 1466 357 1491 459 
L 2355 3880 
z
" transform="scale(0.015625)"/>
       <path id="CMSS17-41" d="M 2272 4416 
L 1722 4416 
L 166 0 
L 653 0 
L 1101 1280 
L 2816 1280 
L 3270 0 
L 3827 0 
L 2272 4416 
z
M 2694 1637 
L 1222 1637 
C 1530 2528 1914 3638 1958 3925 
L 1965 3925 
C 2010 3663 2138 3281 2246 2956 
L 2694 1637 
z
" transform="scale(0.015625)"/>
      </defs>
      <use xlink:href="#CMSS17-53" transform="scale(0.996264)"/>
      <use xlink:href="#CMSS17-74" transform="translate(52.048516 0) scale(0.996264)"/>
      <use xlink:href="#CMSS17-72" transform="translate(85.880083 0) scale(0.996264)"/>
      <use xlink:href="#CMSS17-6f" transform="translate(117.789855 0) scale(0.996264)"/>
      <use xlink:href="#CMSS17-6d" transform="translate(164.633479 0) scale(0.996264)"/>
      <use xlink:href="#CMMI12-49" transform="translate(270.091846 0) scale(0.996264)"/>
      <use xlink:href="#CMSS17-69" transform="translate(352.177473 0) scale(0.996264)"/>
      <use xlink:href="#CMSS17-6e" transform="translate(374.358196 0) scale(0.996264)"/>
      <use xlink:href="#CMSS17-41" transform="translate(453.792252 0) scale(0.996264)"/>
     </g>
    </g>
   </g>
   <g id="line2d_19">
    <path d="M 138.436364 254.401764 
L 747.163636 254.401764 
L 747.163636 254.401764 
" clip-path="url(#pd07956d125)" style="fill: none; stroke: #ff0000; stroke-width: 2; stroke-linecap: square"/>
   </g>
   <g id="line2d_20">
    <path d="M 138.436364 254.401764 
L 164.149164 254.402175 
L 164.435658 78.12 
L 164.507281 83.091612 
L 166.011372 165.189848 
L 166.79923 186.934841 
L 167.515464 200.040866 
L 167.873581 203.888949 
L 167.945204 204.224561 
L 168.374945 210.572752 
L 168.589815 212.964863 
L 168.876308 216.291081 
L 168.947932 216.521703 
L 169.306049 221.633167 
L 169.592542 268.377942 
L 169.879036 412.030637 
L 169.950659 406.027809 
L 170.16553 387.257088 
L 170.738517 190.537269 
L 170.881764 193.306598 
L 171.454751 210.795004 
L 172.027738 224.683582 
L 172.242608 228.624304 
L 172.672349 236.019882 
L 173.102089 240.823444 
L 173.173712 240.711221 
L 173.245336 241.108999 
L 173.388583 239.862195 
L 173.531829 238.568422 
L 173.603453 238.707868 
L 174.534557 342.224911 
L 174.749427 346.558616 
L 175.035921 342.178592 
L 176.110272 291.641723 
L 176.325142 287.334753 
L 176.396765 286.791435 
L 176.754882 280.836471 
L 176.898129 280.026126 
L 177.184623 278.109642 
L 177.399493 277.865043 
L 177.54274 278.258189 
L 177.829233 281.909455 
L 177.900857 282.450416 
L 178.044104 282.026635 
L 178.330597 284.056317 
L 178.688714 287.460059 
L 178.760338 287.228381 
L 178.831961 287.331178 
L 178.903584 287.497277 
L 178.975208 288.04092 
L 179.118455 287.592598 
L 179.190078 287.847923 
L 179.404948 286.836454 
L 179.476572 286.879117 
L 179.691442 285.835387 
L 179.763065 285.96947 
L 179.906312 284.827982 
L 180.121182 283.361852 
L 180.837416 277.062255 
L 181.33878 268.838129 
L 181.55365 267.663243 
L 181.625274 267.903128 
L 181.76852 267.028911 
L 181.840144 267.444485 
L 181.983391 266.932453 
L 182.484754 263.457363 
L 182.986118 261.160572 
L 183.200988 259.788812 
L 183.487482 257.943936 
L 183.559105 258.245142 
L 183.773976 257.521853 
L 183.845599 257.623089 
L 184.060469 256.633821 
L 184.132093 256.993259 
L 184.203716 256.488768 
L 184.275339 256.695125 
L 184.346963 256.428919 
L 184.418586 256.797661 
L 184.633456 260.143244 
L 184.70508 260.709495 
L 185.206444 257.930129 
L 185.278067 257.951038 
L 185.421314 257.027089 
L 185.492937 257.234063 
L 185.636184 256.444684 
L 185.707807 256.72377 
L 186.065924 256.106235 
L 186.137548 256.434696 
L 186.352418 255.545088 
L 186.424041 255.868527 
L 186.495665 255.782479 
L 186.567288 255.476422 
L 186.710535 256.042818 
L 186.782158 255.869917 
L 186.853782 256.463219 
L 186.925405 256.339295 
L 187.068652 255.558878 
L 187.140275 256.041177 
L 187.211899 255.948286 
L 187.283522 255.813732 
L 187.355146 255.387001 
L 187.426769 255.728001 
L 187.498392 255.638223 
L 187.641639 255.146772 
L 187.784886 255.717307 
L 187.999756 254.662268 
L 188.07138 255.107713 
L 188.143003 255.164731 
L 188.28625 254.686772 
L 188.50112 253.563026 
L 188.859237 248.852159 
L 189.002484 248.684223 
L 189.288977 249.192493 
L 189.575471 250.24274 
L 190.005211 250.97847 
L 190.220082 249.583412 
L 190.291705 249.411673 
L 190.363328 249.480591 
L 190.793069 250.674631 
L 190.936316 249.759978 
L 191.079562 249.714179 
L 191.437679 250.771439 
L 191.580926 249.816967 
L 191.652549 249.862978 
L 191.724173 249.869446 
L 192.153913 251.424672 
L 192.368783 250.451518 
L 192.440407 250.40814 
L 192.655277 251.147739 
L 192.941771 254.788655 
L 193.299888 257.006797 
L 193.371511 256.997916 
L 194.087745 254.475296 
L 194.230992 254.442937 
L 194.660732 253.906977 
L 194.947226 253.968409 
L 195.090473 254.062161 
L 195.233719 253.806572 
L 195.376966 253.938342 
L 195.520213 253.792749 
L 195.591836 253.884981 
L 195.735083 253.788281 
L 195.806707 253.906097 
L 196.021577 253.714751 
L 196.30807 253.889581 
L 196.522941 253.706598 
L 196.594564 253.771237 
L 196.666187 253.659636 
L 197.024304 250.757193 
L 197.095928 250.691469 
L 197.239175 249.506895 
L 197.310798 249.413412 
L 197.597292 250.866044 
L 197.812162 251.906011 
L 197.955409 252.273047 
L 198.241902 253.046061 
L 198.385149 253.413512 
L 198.456772 253.321027 
L 198.600019 253.458514 
L 198.958136 253.898199 
L 199.24463 253.934339 
L 199.602747 253.819224 
L 199.745994 254.129291 
L 200.032487 254.166405 
L 200.175734 254.143589 
L 200.390604 252.63147 
L 200.462228 252.513209 
L 200.820345 253.324497 
L 200.963591 253.390051 
L 201.321708 255.006317 
L 201.536579 255.924606 
L 201.608202 255.931343 
L 201.894696 258.12242 
L 201.966319 258.393534 
L 202.037942 258.32013 
L 202.109566 258.316222 
L 202.324436 257.263504 
L 202.61093 256.192389 
L 203.112293 254.89114 
L 203.183917 254.810982 
L 203.327164 255.070706 
L 203.542034 254.935778 
L 203.828527 254.745402 
L 204.043398 254.340773 
L 204.401515 254.649103 
L 204.544761 254.388726 
L 204.759632 254.557839 
L 204.831255 254.634979 
L 204.974502 254.399961 
L 205.189372 254.582785 
L 205.404242 252.802258 
L 205.547489 252.956892 
L 205.690736 251.603091 
L 205.762359 251.571561 
L 206.048853 252.268879 
L 206.263723 251.375199 
L 206.40697 251.755538 
L 206.83671 253.304352 
L 206.908334 253.299932 
L 207.266451 254.096305 
L 207.409697 253.960643 
L 208.125931 254.491599 
L 208.913789 254.333318 
L 208.985412 254.320598 
L 209.128659 254.659358 
L 209.343529 254.553054 
L 209.486776 254.423923 
L 209.630023 254.687682 
L 209.844893 254.531992 
L 209.98814 254.760568 
L 210.274633 254.490955 
L 210.346257 254.687197 
L 210.489504 254.714172 
L 210.704374 254.527474 
L 210.919244 256.384095 
L 210.990867 256.386118 
L 211.134114 256.109835 
L 211.348984 257.529036 
L 211.492231 257.217291 
L 211.921972 255.660919 
L 212.065218 255.702997 
L 212.781452 254.785265 
L 213.282816 254.750509 
L 213.927427 254.807351 
L 214.142297 254.449575 
L 214.643661 254.795719 
L 214.715284 254.558632 
L 214.930154 252.912173 
L 215.073401 253.02629 
L 215.216648 253.370248 
L 215.288271 253.293301 
L 215.431518 253.512562 
L 215.718012 254.17256 
L 215.861259 254.034295 
L 216.147752 254.403752 
L 216.362622 252.642741 
L 216.434246 252.617469 
L 216.649116 253.115564 
L 216.863986 253.693113 
L 217.007233 253.615325 
L 217.723467 254.471179 
L 218.224831 254.493522 
L 218.726195 254.444562 
L 218.941065 254.799875 
L 219.442429 254.451027 
L 219.585675 254.773052 
L 219.800546 254.677615 
L 220.087039 254.492072 
L 220.301909 254.819911 
L 220.51678 254.676846 
L 220.73165 256.163793 
L 220.874897 256.136643 
L 221.018143 255.888234 
L 221.089767 256.004934 
L 221.233014 255.84475 
L 221.734377 254.940426 
L 222.092494 254.739846 
L 222.737105 254.712969 
L 223.310092 254.734634 
L 223.524962 254.369022 
L 224.31282 254.75196 
L 224.52769 254.372658 
L 224.95743 254.627181 
L 225.1723 253.07291 
L 225.458794 252.948798 
L 226.389898 254.452556 
L 226.891262 254.535097 
L 228.10886 254.522933 
L 228.32373 254.892409 
L 229.254834 254.520464 
L 229.541328 254.547055 
L 229.756198 254.940574 
L 229.971068 254.806927 
L 230.185938 256.277381 
L 230.329185 256.234385 
L 231.260289 254.877811 
L 231.833277 254.695791 
L 232.621134 254.646523 
L 232.836004 254.27282 
L 233.552238 254.642338 
L 233.767108 253.041437 
L 233.910355 253.029118 
L 234.984706 254.433389 
L 235.70094 254.599293 
L 237.491525 254.63711 
L 317.566486 254.637795 
L 654.482957 254.637384 
L 654.769451 430.92 
L 654.841074 426.843083 
L 655.342438 395.519813 
L 656.130296 352.179512 
L 656.560036 336.812046 
L 656.918153 325.990297 
L 657.634387 312.552236 
L 658.064127 306.690154 
L 658.350621 303.27276 
L 658.780361 298.358925 
L 658.995232 296.15323 
L 659.496595 290.412635 
L 659.639842 288.404731 
L 659.926336 241.792413 
L 660.212829 96.065911 
L 660.284453 101.65674 
L 660.499323 120.9451 
L 661.07231 318.979252 
L 661.358804 312.003636 
L 661.788544 299.552502 
L 662.289908 287.001091 
L 662.791272 276.716891 
L 663.006142 273.544421 
L 663.292635 269.898762 
L 663.364259 268.998053 
L 663.435882 269.125228 
L 663.579129 268.214606 
L 663.650752 268.376723 
L 663.722376 268.297818 
L 663.937246 270.047959 
L 664.86835 165.510833 
L 665.08322 161.942617 
L 665.512961 174.222775 
L 665.799454 187.435578 
L 666.515688 219.10478 
L 666.730559 223.741836 
L 666.873805 225.212679 
L 667.303546 230.500645 
L 667.518416 230.100592 
L 667.661663 230.408087 
L 667.876533 230.031356 
L 668.091403 228.888568 
L 668.521144 225.47158 
L 668.950884 221.515987 
L 669.022507 221.882479 
L 669.094131 221.807718 
L 669.309001 220.7158 
L 669.380624 221.099357 
L 669.452248 221.187851 
L 669.595495 221.890037 
L 669.667118 221.503229 
L 669.881988 222.58759 
L 669.953612 222.619851 
L 670.526599 226.154832 
L 671.027963 230.481386 
L 671.171209 232.06502 
L 671.529326 239.181057 
L 671.81582 240.516355 
L 672.03069 241.576743 
L 672.102314 242.228871 
L 672.173937 241.844583 
L 672.24556 242.06269 
L 672.818548 245.660893 
L 673.033418 246.381069 
L 673.105041 246.310851 
L 673.176665 246.387099 
L 673.534782 249.177158 
L 673.606405 249.109711 
L 673.964522 251.573072 
L 674.036145 251.564231 
L 674.107769 251.180357 
L 674.537509 252.748122 
L 674.680756 251.79439 
L 675.110496 247.78119 
L 675.683484 251.865299 
L 675.755107 251.821092 
L 675.898354 252.513217 
L 675.969977 252.160191 
L 676.041601 252.299116 
L 676.113224 252.951399 
L 676.184847 252.656807 
L 676.256471 252.700258 
L 676.328094 252.937243 
L 676.471341 252.594349 
L 676.542964 252.984927 
L 676.614588 252.675449 
L 676.686211 252.823021 
L 676.757835 252.944825 
L 676.901081 252.428746 
L 676.972705 252.709514 
L 677.044328 252.227281 
L 677.115952 252.455757 
L 677.187575 252.784625 
L 677.259198 252.256186 
L 677.330822 252.398792 
L 677.402445 252.627919 
L 677.474069 252.274169 
L 677.545692 252.44846 
L 677.975432 253.477904 
L 678.118679 252.970105 
L 678.261926 253.643634 
L 678.405173 253.208691 
L 678.54842 253.806872 
L 679.264654 260.123181 
L 679.479524 259.975674 
L 679.622771 259.796922 
L 679.909264 258.8902 
L 680.410628 258.034462 
L 680.482251 257.847201 
L 680.553875 257.943879 
L 680.768745 257.753514 
L 680.840368 257.674008 
L 681.055239 259.163679 
L 681.556602 257.898811 
L 681.771473 259.090161 
L 682.057966 258.188315 
L 682.34446 257.19821 
L 682.416083 257.158197 
L 682.630953 258.337244 
L 682.7742 257.978147 
L 683.275564 252.099772 
L 683.347187 251.853841 
L 683.633681 252.735575 
L 683.920175 253.694895 
L 684.135045 254.261592 
L 684.349915 252.927044 
L 684.421538 252.935333 
L 685.209396 254.55682 
L 685.424266 254.558138 
L 685.567513 254.881176 
L 685.782383 253.479773 
L 685.92563 253.279567 
L 686.35537 254.413379 
L 686.426994 254.384745 
L 686.641864 254.787183 
L 686.713487 254.795097 
L 686.785111 254.972123 
L 687.143228 258.08534 
L 687.214851 258.174736 
L 687.358098 259.392424 
L 687.644591 258.536848 
L 688.074332 256.648212 
L 688.360825 255.866008 
L 688.504072 255.509422 
L 688.575696 255.606904 
L 688.718942 255.477909 
L 689.077059 255.046993 
L 689.363553 255.01134 
L 689.5068 255.048858 
L 689.72167 256.72494 
L 689.864917 256.775469 
L 690.079787 256.067489 
L 690.15141 255.970227 
L 690.366281 255.416255 
L 690.437904 255.403717 
L 690.581151 255.066504 
L 690.652774 255.067814 
L 690.796021 254.800972 
L 690.867644 254.840197 
L 691.010891 254.637674 
L 691.082515 254.70092 
L 691.225761 254.530609 
L 691.369008 254.704137 
L 691.512255 254.528654 
L 691.727125 252.779107 
L 691.798749 252.783243 
L 692.085242 250.12543 
L 692.228489 250.189025 
L 692.729853 252.577829 
L 692.944723 253.183442 
L 693.231217 253.75317 
L 693.589334 254.192491 
L 693.947451 254.233992 
L 694.448814 254.126416 
L 694.592061 254.457064 
L 694.806931 254.337663 
L 694.950178 254.199731 
L 695.093425 254.455001 
L 695.308295 254.287395 
L 695.451542 254.50844 
L 695.594789 254.389436 
L 695.666412 254.564619 
L 695.881282 256.041445 
L 695.952906 256.259203 
L 696.096152 257.435 
L 696.167776 257.426435 
L 696.597516 256.014482 
L 696.740763 257.18689 
L 696.812386 257.189491 
L 697.886737 254.613616 
L 698.029984 254.857214 
L 698.244854 254.710104 
L 698.602971 254.494816 
L 699.032712 254.512965 
L 699.175959 254.179913 
L 699.319205 254.233255 
L 699.534076 254.443245 
L 699.677322 254.190421 
L 699.892193 254.359845 
L 699.963816 254.434202 
L 700.107063 254.191081 
L 700.321933 254.357924 
L 700.46518 254.12589 
L 700.751673 254.376515 
L 700.823297 254.174756 
L 701.038167 252.589474 
L 701.181414 252.708799 
L 701.253037 252.865748 
L 701.467907 251.401203 
L 701.611154 251.762226 
L 701.754401 250.944892 
L 701.969271 251.111333 
L 702.542258 253.391376 
L 702.613882 253.289879 
L 702.757129 253.417266 
L 703.258492 254.088544 
L 703.616609 254.186911 
L 704.26122 254.13828 
L 704.47609 254.490209 
L 705.049077 254.109862 
L 705.263948 256.050116 
L 705.335571 256.064564 
L 705.550441 255.602703 
L 705.622065 255.409763 
L 705.836935 256.885839 
L 705.980182 256.559084 
L 706.338299 255.667412 
L 706.696416 254.770076 
L 706.839662 254.89722 
L 707.341026 254.316558 
L 707.555896 256.211453 
L 707.62752 256.220246 
L 707.84239 255.757987 
L 708.27213 254.860835 
L 708.630247 254.556565 
L 709.131611 254.433823 
L 709.704598 254.411087 
L 709.919469 254.038601 
L 710.349209 254.335322 
L 710.492456 254.025824 
L 710.707326 254.13223 
L 711.137066 254.357602 
L 711.351937 252.398589 
L 711.42356 252.32898 
L 711.495183 252.406073 
L 712.283041 253.925346 
L 712.712781 254.117243 
L 713.214145 254.165884 
L 713.429015 252.569735 
L 713.572262 252.570158 
L 714.216873 253.714441 
L 714.431743 255.529559 
L 714.57499 255.628422 
L 714.861483 255.203261 
L 715.362847 254.546534 
L 715.43447 254.491396 
L 715.577717 254.763662 
L 715.792587 254.591753 
L 716.222328 254.245174 
L 716.437198 254.199316 
L 716.652068 254.566753 
L 717.439926 254.249757 
L 717.654796 255.870112 
L 717.798043 255.889964 
L 718.944017 254.457658 
L 719.588628 254.324355 
L 719.875121 254.305548 
L 720.089991 253.926661 
L 721.021096 254.285524 
L 724.100902 254.160995 
L 747.163636 254.165732 
L 747.163636 254.165732 
" clip-path="url(#pd07956d125)" style="fill: none; stroke-dasharray: 7.4,3.2; stroke-dashoffset: 0; stroke: #008000; stroke-width: 2"/>
   </g>
   <g id="patch_3">
    <path d="M 108 448.56 
L 108 60.48 
" style="fill: none; stroke: #000000; stroke-width: 0.8; stroke-linejoin: miter; stroke-linecap: square"/>
   </g>
   <g id="patch_4">
    <path d="M 777.6 448.56 
L 777.6 60.48 
" style="fill: none; stroke: #000000; stroke-width: 0.8; stroke-linejoin: miter; stroke-linecap: square"/>
   </g>
   <g id="patch_5">
    <path d="M 108 448.56 
L 777.6 448.56 
" style="fill: none; stroke: #000000; stroke-width: 0.8; stroke-linejoin: miter; stroke-linecap: square"/>
   </g>
   <g id="patch_6">
    <path d="M 108 60.48 
L 777.6 60.48 
" style="fill: none; stroke: #000000; stroke-width: 0.8; stroke-linejoin: miter; stroke-linecap: square"/>
   </g>
   <g id="text_12">
    <!-- \textbf{allgemein quadratische Stromverlauf - offener Regelkreis} -->
    <g transform="translate(249.469904 54.48) scale(0.15 -0.15)">
     <defs>
      <path id="CMSSBX10-61" d="M 2970 2050 
C 2970 3072 1997 3072 1677 3072 
C 1376 3072 1056 3046 627 2868 
C 493 2811 461 2792 461 2722 
C 461 2677 499 2300 506 2248 
C 512 2209 544 2177 589 2177 
C 621 2177 640 2196 659 2216 
C 934 2508 1254 2651 1651 2651 
C 1997 2651 2099 2435 2099 2049 
L 2099 1820 
C 1875 1820 198 1820 198 868 
C 198 415 557 -64 1120 -64 
C 1338 -64 1818 1 2118 447 
L 2118 317 
C 2118 110 2163 7 2426 7 
L 2662 7 
C 2906 7 2970 91 2970 317 
L 2970 2050 
z
M 2099 988 
C 2099 402 1491 402 1472 402 
C 1203 402 1030 639 1030 889 
C 1030 1536 1920 1536 2099 1536 
L 2099 988 
z
" transform="scale(0.015625)"/>
      <path id="CMSSBX10-6c" d="M 1242 4170 
C 1242 4377 1197 4480 934 4480 
L 698 4480 
C 467 4480 390 4409 390 4170 
L 390 302 
C 390 70 461 -8 698 -8 
L 934 -8 
C 1178 -8 1242 76 1242 302 
L 1242 4170 
z
" transform="scale(0.015625)"/>
      <path id="CMSSBX10-67" d="M 1280 577 
C 1050 577 960 577 870 656 
C 845 681 736 779 736 949 
C 736 994 742 1007 749 1046 
C 1050 878 1427 878 1562 878 
C 1830 878 2848 878 2848 1950 
C 2848 2326 2707 2553 2650 2624 
C 2758 2624 2982 2624 3245 2553 
C 3270 2540 3315 2527 3334 2527 
C 3386 2527 3418 2566 3418 2611 
C 3418 2637 3386 2792 3373 2857 
C 3347 3012 3347 3025 3232 3025 
C 3034 3025 2714 2948 2470 2799 
C 2170 2999 1837 3025 1562 3025 
C 1293 3025 275 3025 275 1954 
C 275 1694 346 1370 589 1156 
C 416 915 416 663 416 630 
C 416 507 454 293 589 118 
C 493 79 160 -37 160 -451 
C 160 -652 256 -988 659 -1176 
C 1024 -1344 1453 -1344 1754 -1344 
C 2131 -1344 3354 -1344 3354 -429 
C 3354 577 2451 577 1587 577 
L 1280 577 
z
M 1562 1344 
C 1114 1344 1094 1591 1094 1949 
C 1094 2306 1114 2560 1562 2560 
C 2010 2560 2029 2313 2029 1955 
C 2029 1597 2010 1344 1562 1344 
z
M 1907 -128 
C 2426 -128 2694 -217 2694 -448 
C 2694 -879 1965 -879 1760 -879 
C 1504 -879 819 -879 819 -430 
C 819 -128 1018 -128 1165 -128 
L 1907 -128 
z
" transform="scale(0.015625)"/>
      <path id="CMSSBX10-65" d="M 2758 1385 
C 2906 1385 3066 1385 3066 1678 
C 3066 2514 2682 3072 1728 3072 
C 704 3072 198 2491 198 1510 
C 198 452 806 -64 1811 -64 
C 2054 -64 2419 -32 2842 182 
C 2982 253 3027 272 3027 350 
C 3027 395 3008 582 3002 633 
C 2976 833 2970 839 2912 839 
C 2886 839 2874 839 2803 775 
C 2426 447 2042 402 1837 402 
C 1114 402 1037 974 1018 1385 
L 2758 1385 
z
M 1024 1728 
C 1043 2122 1171 2606 1728 2606 
C 2240 2606 2336 2231 2355 1728 
L 1024 1728 
z
" transform="scale(0.015625)"/>
      <path id="CMSSBX10-6d" d="M 5158 2096 
C 5158 2761 4877 3025 4224 3025 
C 3770 3025 3418 2812 3187 2386 
C 3085 3012 2541 3012 2272 3012 
C 2150 3012 1882 3012 1594 2803 
C 1395 2658 1267 2455 1222 2360 
L 1216 2360 
L 1216 2687 
C 1216 2896 1171 3001 909 3001 
L 691 3001 
C 461 3001 384 2930 384 2690 
L 384 310 
C 384 78 454 0 691 0 
L 947 0 
C 1190 0 1254 84 1254 309 
L 1254 1735 
C 1254 2315 1645 2560 1958 2560 
C 2266 2560 2336 2424 2336 2082 
L 2336 309 
C 2336 78 2406 0 2643 0 
L 2899 0 
C 3142 0 3206 84 3206 309 
L 3206 1735 
C 3206 2315 3597 2560 3910 2560 
C 4218 2560 4288 2424 4288 2082 
L 4288 309 
C 4288 78 4358 0 4595 0 
L 4851 0 
C 5094 0 5158 84 5158 309 
L 5158 2096 
z
" transform="scale(0.015625)"/>
      <path id="CMSSBX10-69" d="M 653 4480 
C 448 4480 346 4441 346 4182 
L 346 3885 
C 346 3678 410 3594 646 3594 
L 979 3594 
C 1286 3594 1286 3730 1286 4034 
C 1286 4344 1286 4480 979 4480 
L 653 4480 
z
M 1242 2634 
C 1242 2841 1197 2944 934 2944 
L 698 2944 
C 467 2944 390 2873 390 2634 
L 390 292 
C 390 60 461 -18 698 -18 
L 934 -18 
C 1178 -18 1242 66 1242 292 
L 1242 2634 
z
" transform="scale(0.015625)"/>
      <path id="CMSSBX10-6e" d="M 3200 2096 
C 3200 2761 2918 3025 2266 3025 
C 1594 3025 1306 2535 1222 2360 
L 1216 2360 
L 1216 2687 
C 1216 2896 1171 3001 909 3001 
L 691 3001 
C 461 3001 384 2930 384 2690 
L 384 310 
C 384 78 454 0 691 0 
L 947 0 
C 1190 0 1254 84 1254 309 
L 1254 1735 
C 1254 2295 1626 2560 1958 2560 
C 2266 2560 2330 2411 2330 2082 
L 2330 309 
C 2330 103 2374 0 2637 0 
L 2893 0 
C 3136 0 3200 84 3200 309 
L 3200 2096 
z
" transform="scale(0.015625)"/>
      <path id="CMSSBX10-71" d="M 3194 2698 
C 3194 2905 3149 3008 2886 3008 
L 2650 3008 
C 2406 3008 2342 2924 2342 2698 
L 2342 2575 
C 2061 3008 1683 3008 1574 3008 
C 339 3008 237 1972 237 1457 
C 237 954 339 -82 1530 -82 
C 1869 -82 2106 47 2323 300 
L 2323 -966 
C 2323 -1175 2368 -1280 2630 -1280 
L 2886 -1280 
C 3130 -1280 3194 -1196 3194 -969 
L 3194 2698 
z
M 2342 731 
C 2227 570 2054 384 1760 384 
C 1107 384 1107 1200 1107 1450 
C 1107 1707 1107 2504 1824 2504 
C 1926 2504 2061 2478 2176 2356 
C 2342 2195 2342 2080 2342 2002 
L 2342 731 
z
" transform="scale(0.015625)"/>
      <path id="CMSSBX10-75" d="M 3200 2652 
C 3200 2859 3155 2962 2893 2962 
L 2637 2962 
C 2394 2962 2330 2878 2330 2653 
L 2330 1124 
C 2330 698 2106 330 1651 330 
C 1293 330 1254 421 1254 763 
L 1254 2653 
C 1254 2859 1210 2962 947 2962 
L 691 2962 
C 461 2962 384 2891 384 2653 
L 384 820 
C 384 130 755 -64 1421 -64 
C 1594 -64 2048 -64 2349 485 
L 2349 314 
C 2349 104 2394 0 2656 0 
L 2893 0 
C 3136 0 3200 84 3200 310 
L 3200 2652 
z
" transform="scale(0.015625)"/>
      <path id="CMSSBX10-64" d="M 3194 4170 
C 3194 4377 3149 4480 2886 4480 
L 2650 4480 
C 2406 4480 2342 4396 2342 4170 
L 2342 2702 
C 2054 2980 1734 3025 1536 3025 
C 237 3025 237 1782 237 1465 
C 237 1167 237 -82 1504 -82 
C 1773 -82 2048 -5 2323 294 
C 2323 57 2413 -8 2630 -8 
L 2886 -8 
C 3130 -8 3194 76 3194 302 
L 3194 4170 
z
M 2323 798 
C 2323 687 2323 629 2138 500 
C 1978 396 1830 384 1754 384 
C 1107 384 1107 980 1107 1465 
C 1107 1951 1107 2560 1824 2560 
C 2010 2560 2182 2495 2323 2359 
L 2323 798 
z
" transform="scale(0.015625)"/>
      <path id="CMSSBX10-72" d="M 1242 1496 
C 1242 2115 1747 2368 2150 2368 
C 2266 2368 2278 2368 2278 2555 
L 2278 2860 
C 2278 2989 2278 3034 2163 3034 
C 1984 3034 1517 2970 1216 2271 
L 1210 2271 
L 1210 2690 
C 1210 2897 1165 3001 902 3001 
L 698 3001 
C 467 3001 390 2930 390 2690 
L 390 310 
C 390 78 461 0 698 0 
L 934 0 
C 1178 0 1242 84 1242 312 
L 1242 1496 
z
" transform="scale(0.015625)"/>
      <path id="CMSSBX10-74" d="M 1395 2496 
L 1965 2496 
C 2042 2496 2272 2496 2272 2729 
C 2272 2962 2042 2962 1965 2962 
L 1395 2962 
L 1395 3498 
C 1395 3705 1350 3808 1088 3808 
L 890 3808 
C 659 3808 582 3737 582 3498 
L 582 2962 
L 435 2962 
C 365 2962 128 2962 128 2729 
C 128 2496 358 2496 435 2496 
L 563 2496 
L 563 864 
C 563 213 794 -64 1235 -64 
C 1293 -64 1574 -64 1907 39 
C 2016 72 2387 188 2387 311 
C 2387 330 2374 376 2336 510 
C 2304 639 2291 678 2234 678 
C 2202 678 2195 671 2157 632 
C 2086 582 1914 440 1645 440 
C 1491 440 1395 550 1395 975 
L 1395 2496 
z
" transform="scale(0.015625)"/>
      <path id="CMSSBX10-73" d="M 2534 902 
C 2534 1267 2342 1496 2227 1600 
C 1971 1836 1747 1875 1478 1927 
C 1126 1992 870 2045 870 2299 
C 870 2566 1082 2619 1331 2619 
C 1760 2619 1990 2456 2157 2313 
C 2221 2248 2234 2248 2259 2248 
C 2323 2248 2336 2306 2342 2332 
C 2355 2384 2419 2747 2419 2779 
C 2419 2884 2080 2975 2010 3000 
C 1754 3072 1549 3072 1382 3072 
C 1094 3072 237 3072 237 2145 
C 237 1827 378 1633 550 1477 
C 774 1270 1024 1225 1389 1154 
C 1574 1121 1901 1062 1901 778 
C 1901 473 1651 427 1402 427 
C 1120 427 762 512 461 877 
C 429 909 410 928 371 928 
C 307 928 294 871 288 832 
C 275 743 198 378 198 313 
C 198 198 672 51 678 45 
C 1030 -64 1293 -64 1402 -64 
C 1728 -64 2534 -64 2534 902 
z
" transform="scale(0.015625)"/>
      <path id="CMSSBX10-63" d="M 2925 330 
C 2925 402 2899 698 2886 782 
C 2886 801 2874 866 2810 866 
C 2784 866 2771 866 2707 801 
C 2598 704 2298 440 1773 440 
C 1107 440 1107 1092 1107 1503 
C 1107 2026 1139 2568 1792 2568 
C 2208 2568 2381 2464 2611 2271 
C 2688 2200 2701 2200 2726 2200 
C 2790 2200 2803 2258 2810 2284 
C 2822 2336 2886 2697 2886 2729 
C 2886 2787 2842 2813 2733 2865 
C 2426 3007 2234 3072 1786 3072 
C 832 3072 237 2620 237 1491 
C 237 420 787 -64 1754 -64 
C 1926 -64 2310 -64 2739 159 
C 2918 258 2925 265 2925 330 
z
" transform="scale(0.015625)"/>
      <path id="CMSSBX10-68" d="M 3200 2094 
C 3200 2760 2918 3025 2266 3025 
C 1626 3025 1331 2579 1242 2398 
L 1235 2398 
L 1235 4170 
C 1235 4377 1190 4480 928 4480 
L 691 4480 
C 461 4480 384 4409 384 4170 
L 384 302 
C 384 70 454 -8 691 -8 
L 947 -8 
C 1190 -8 1254 76 1254 302 
L 1254 1732 
C 1254 2294 1626 2560 1958 2560 
C 2266 2560 2330 2411 2330 2081 
L 2330 302 
C 2330 95 2374 -8 2637 -8 
L 2893 -8 
C 3136 -8 3200 76 3200 302 
L 3200 2094 
z
" transform="scale(0.015625)"/>
      <path id="CMSSBX10-53" d="M 1728 2867 
C 1587 2899 1190 3049 1190 3418 
C 1190 3968 1734 3968 1952 3968 
C 2310 3968 2630 3884 2944 3574 
C 3046 3477 3053 3471 3078 3471 
C 3117 3471 3149 3490 3168 3587 
L 3264 4152 
C 3277 4203 3277 4216 3277 4236 
C 3277 4288 3270 4295 3110 4380 
C 2656 4608 2278 4641 1952 4641 
C 1382 4641 390 4505 390 3290 
C 390 2829 627 2531 749 2401 
C 1075 2063 1376 1998 1875 1882 
C 2234 1798 2374 1765 2515 1635 
C 2579 1571 2714 1434 2714 1187 
C 2714 577 2163 577 1952 577 
C 1414 577 947 795 627 1083 
C 550 1159 538 1159 512 1159 
C 474 1159 442 1140 422 1042 
L 326 476 
C 314 424 314 411 314 392 
C 314 255 979 21 1011 8 
C 1440 -128 1786 -128 1952 -128 
C 2912 -128 3514 305 3514 1308 
C 3514 2033 2982 2576 2342 2725 
L 1728 2867 
z
" transform="scale(0.015625)"/>
      <path id="CMSSBX10-6f" d="M 3315 1459 
C 3315 2517 2803 3072 1760 3072 
C 691 3072 198 2497 198 1459 
C 198 407 749 -64 1754 -64 
C 2758 -64 3315 401 3315 1459 
z
M 1760 440 
C 1069 440 1069 1020 1069 1536 
C 1069 2033 1069 2606 1754 2606 
C 2445 2606 2445 2039 2445 1536 
C 2445 1027 2445 440 1760 440 
z
" transform="scale(0.015625)"/>
      <path id="CMSSBX10-76" d="M 2995 2671 
C 3027 2762 3027 2775 3027 2794 
C 3027 2976 2867 2976 2771 2976 
L 2637 2976 
C 2368 2976 2298 2879 2240 2697 
L 1606 734 
L 973 2697 
C 928 2833 883 2976 576 2976 
L 422 2976 
C 326 2976 166 2976 166 2794 
C 166 2775 166 2762 198 2670 
L 960 273 
C 1050 0 1248 0 1363 0 
L 1830 0 
C 1946 0 2144 0 2234 273 
L 2995 2671 
z
" transform="scale(0.015625)"/>
      <path id="CMSSBX10-66" d="M 1402 2496 
L 1709 2496 
C 1786 2496 2016 2496 2016 2729 
C 2016 2962 1786 2962 1709 2962 
L 1382 2962 
L 1382 3668 
C 1382 3837 1382 4096 1798 4096 
C 2003 4096 2131 4038 2259 3915 
C 2304 3863 2323 3850 2355 3850 
C 2438 3850 2438 3915 2438 4018 
L 2438 4316 
C 2438 4471 2432 4477 2214 4523 
C 2029 4561 1894 4561 1798 4561 
C 1318 4561 550 4452 550 3480 
L 550 2962 
C 416 2962 192 2962 192 2729 
C 192 2496 410 2496 550 2496 
L 550 310 
C 550 78 621 0 858 0 
L 1094 0 
C 1338 0 1402 84 1402 310 
L 1402 2496 
z
" transform="scale(0.015625)"/>
      <path id="CMSSBX10-2d" d="M 1645 1280 
C 1722 1280 1952 1280 1952 1513 
C 1952 1746 1722 1746 1645 1746 
L 384 1746 
C 307 1746 77 1746 77 1513 
C 77 1280 307 1280 384 1280 
L 1645 1280 
z
" transform="scale(0.015625)"/>
      <path id="CMSSBX10-b" d="M 1402 2496 
L 1715 2496 
C 1792 2496 2022 2496 2022 2729 
C 2022 2962 1792 2962 1715 2962 
L 1382 2962 
L 1382 3668 
C 1382 3837 1382 4096 1805 4096 
C 2010 4096 2138 4038 2266 3915 
C 2310 3863 2330 3850 2362 3850 
C 2445 3850 2445 3915 2445 4018 
L 2445 4316 
C 2445 4471 2438 4477 2221 4523 
C 2035 4561 1901 4561 1805 4561 
C 1261 4561 550 4413 550 3480 
L 550 2962 
C 416 2962 192 2962 192 2729 
C 192 2496 410 2496 550 2496 
L 550 310 
C 550 78 621 0 858 0 
L 1094 0 
C 1338 0 1402 84 1402 310 
L 1402 2496 
z
M 3354 2496 
L 3667 2496 
C 3744 2496 3974 2496 3974 2729 
C 3974 2962 3744 2962 3667 2962 
L 3334 2962 
L 3334 3668 
C 3334 3837 3334 4096 3757 4096 
C 3962 4096 4090 4038 4218 3915 
C 4262 3863 4282 3850 4314 3850 
C 4397 3850 4397 3915 4397 4018 
L 4397 4316 
C 4397 4471 4390 4477 4173 4523 
C 3987 4561 3853 4561 3757 4561 
C 3213 4561 2502 4413 2502 3481 
L 2502 310 
C 2502 103 2547 0 2810 0 
L 3046 0 
C 3290 0 3354 84 3354 310 
L 3354 2496 
z
" transform="scale(0.015625)"/>
      <path id="CMSSBX10-52" d="M 3091 2059 
C 3494 2156 4102 2402 4102 3205 
C 4102 4480 2714 4480 2426 4480 
L 890 4480 
C 659 4480 582 4409 582 4170 
L 582 298 
C 582 66 653 -12 890 -12 
L 1197 -12 
C 1440 -12 1504 71 1504 296 
L 1504 1984 
L 2214 1984 
L 3264 142 
C 3354 -12 3424 -12 3565 -12 
L 3942 -12 
C 4070 -12 4179 -12 4179 181 
L 3091 2059 
z
M 1504 2450 
L 1504 3924 
L 2336 3924 
C 3078 3924 3213 3623 3213 3191 
C 3213 2804 3123 2450 2336 2450 
L 1504 2450 
z
" transform="scale(0.015625)"/>
      <path id="CMSSBX10-6b" d="M 2003 1751 
L 2989 2676 
C 3066 2747 3085 2766 3085 2818 
C 3085 2954 2957 2954 2867 2954 
L 2496 2954 
C 2381 2954 2259 2954 2112 2818 
L 1190 1952 
L 1190 4170 
C 1190 4377 1146 4480 883 4480 
L 749 4480 
C 518 4480 442 4409 442 4170 
L 442 302 
C 442 70 512 -8 749 -8 
L 864 -8 
C 1107 -8 1171 76 1171 302 
L 1171 975 
L 1472 1253 
L 2304 154 
C 2413 11 2458 -8 2643 -8 
L 2950 -8 
C 3040 -8 3181 -8 3181 134 
C 3181 147 3181 192 3117 277 
L 2003 1751 
z
" transform="scale(0.015625)"/>
     </defs>
     <use xlink:href="#CMSSBX10-61" transform="scale(0.996264)"/>
     <use xlink:href="#CMSSBX10-6c" transform="translate(52.304195 0) scale(0.996264)"/>
     <use xlink:href="#CMSSBX10-6c" transform="translate(77.764414 0) scale(0.996264)"/>
     <use xlink:href="#CMSSBX10-67" transform="translate(103.224632 0) scale(0.996264)"/>
     <use xlink:href="#CMSSBX10-65" transform="translate(158.019457 0) scale(0.996264)"/>
     <use xlink:href="#CMSSBX10-6d" transform="translate(208.93991 0) scale(0.996264)"/>
     <use xlink:href="#CMSSBX10-65" transform="translate(295.283267 0) scale(0.996264)"/>
     <use xlink:href="#CMSSBX10-69" transform="translate(346.20372 0) scale(0.996264)"/>
     <use xlink:href="#CMSSBX10-6e" transform="translate(371.663938 0) scale(0.996264)"/>
     <use xlink:href="#CMSSBX10-71" transform="translate(464.095609 0) scale(0.996264)"/>
     <use xlink:href="#CMSSBX10-75" transform="translate(519.997397 0) scale(0.996264)"/>
     <use xlink:href="#CMSSBX10-61" transform="translate(575.899185 0) scale(0.996264)"/>
     <use xlink:href="#CMSSBX10-64" transform="translate(628.20338 0) scale(0.996264)"/>
     <use xlink:href="#CMSSBX10-72" transform="translate(684.105168 0) scale(0.996264)"/>
     <use xlink:href="#CMSSBX10-61" transform="translate(721.188579 0) scale(0.996264)"/>
     <use xlink:href="#CMSSBX10-74" transform="translate(773.492774 0) scale(0.996264)"/>
     <use xlink:href="#CMSSBX10-69" transform="translate(813.758677 0) scale(0.996264)"/>
     <use xlink:href="#CMSSBX10-73" transform="translate(839.218896 0) scale(0.996264)"/>
     <use xlink:href="#CMSSBX10-63" transform="translate(881.228261 0) scale(0.996264)"/>
     <use xlink:href="#CMSSBX10-68" transform="translate(929.934772 0) scale(0.996264)"/>
     <use xlink:href="#CMSSBX10-65" transform="translate(985.83656 0) scale(0.996264)"/>
     <use xlink:href="#CMSSBX10-53" transform="translate(1073.286896 0) scale(0.996264)"/>
     <use xlink:href="#CMSSBX10-74" transform="translate(1134.170034 0) scale(0.996264)"/>
     <use xlink:href="#CMSSBX10-72" transform="translate(1174.435938 0) scale(0.996264)"/>
     <use xlink:href="#CMSSBX10-6f" transform="translate(1211.519348 0) scale(0.996264)"/>
     <use xlink:href="#CMSSBX10-6d" transform="translate(1266.314173 0) scale(0.996264)"/>
     <use xlink:href="#CMSSBX10-76" transform="translate(1352.65753 0) scale(0.996264)"/>
     <use xlink:href="#CMSSBX10-65" transform="translate(1402.471004 0) scale(0.996264)"/>
     <use xlink:href="#CMSSBX10-72" transform="translate(1453.391457 0) scale(0.996264)"/>
     <use xlink:href="#CMSSBX10-6c" transform="translate(1490.474867 0) scale(0.996264)"/>
     <use xlink:href="#CMSSBX10-61" transform="translate(1515.935086 0) scale(0.996264)"/>
     <use xlink:href="#CMSSBX10-75" transform="translate(1568.239281 0) scale(0.996264)"/>
     <use xlink:href="#CMSSBX10-66" transform="translate(1624.141069 0) scale(0.996264)"/>
     <use xlink:href="#CMSSBX10-2d" transform="translate(1694.156678 0) scale(0.996264)"/>
     <use xlink:href="#CMSSBX10-6f" transform="translate(1767.216444 0) scale(0.996264)"/>
     <use xlink:href="#CMSSBX10-b" transform="translate(1822.011269 0) scale(0.996264)"/>
     <use xlink:href="#CMSSBX10-65" transform="translate(1885.938564 0) scale(0.996264)"/>
     <use xlink:href="#CMSSBX10-6e" transform="translate(1936.859017 0) scale(0.996264)"/>
     <use xlink:href="#CMSSBX10-65" transform="translate(1992.760805 0) scale(0.996264)"/>
     <use xlink:href="#CMSSBX10-72" transform="translate(2043.681258 0) scale(0.996264)"/>
     <use xlink:href="#CMSSBX10-52" transform="translate(2117.294551 0) scale(0.996264)"/>
     <use xlink:href="#CMSSBX10-65" transform="translate(2187.31016 0) scale(0.996264)"/>
     <use xlink:href="#CMSSBX10-67" transform="translate(2238.230613 0) scale(0.996264)"/>
     <use xlink:href="#CMSSBX10-65" transform="translate(2293.025437 0) scale(0.996264)"/>
     <use xlink:href="#CMSSBX10-6c" transform="translate(2343.94589 0) scale(0.996264)"/>
     <use xlink:href="#CMSSBX10-6b" transform="translate(2369.406109 0) scale(0.996264)"/>
     <use xlink:href="#CMSSBX10-72" transform="translate(2422.26374 0) scale(0.996264)"/>
     <use xlink:href="#CMSSBX10-65" transform="translate(2459.34715 0) scale(0.996264)"/>
     <use xlink:href="#CMSSBX10-69" transform="translate(2510.267603 0) scale(0.996264)"/>
     <use xlink:href="#CMSSBX10-73" transform="translate(2535.727822 0) scale(0.996264)"/>
    </g>
   </g>
   <g id="legend_1">
    <g id="patch_7">
     <path d="M 291.941262 438.56 
L 593.658738 438.56 
Q 597.658738 438.56 597.658738 434.56 
L 597.658738 380.808733 
Q 597.658738 376.808733 593.658738 376.808733 
L 291.941262 376.808733 
Q 287.941262 376.808733 287.941262 380.808733 
L 287.941262 434.56 
Q 287.941262 438.56 291.941262 438.56 
z
" style="fill: #ffffff; opacity: 0.8; stroke: #cccccc; stroke-linejoin: miter"/>
    </g>
    <g id="line2d_21">
     <path d="M 295.941262 391.808733 
L 315.941262 391.808733 
L 335.941262 391.808733 
" style="fill: none; stroke: #ff0000; stroke-width: 2; stroke-linecap: square"/>
    </g>
    <g id="text_13">
     <!-- Referenzwert der Vorbereitung -->
     <g transform="translate(351.941262 398.808733) scale(0.2 -0.2)">
      <defs>
       <path id="CMSS17-52" d="M 2522 2109 
L 2534 2115 
C 3533 2459 3539 3147 3539 3268 
C 3539 3873 2925 4453 2003 4453 
L 570 4453 
L 570 32 
L 1094 32 
L 1094 2048 
L 2035 2048 
L 3168 32 
L 3706 32 
L 2522 2109 
z
M 1094 2437 
L 1094 4096 
L 1933 4096 
C 2746 4096 3034 3637 3034 3267 
C 3034 2922 2778 2437 1933 2437 
L 1094 2437 
z
" transform="scale(0.015625)"/>
       <path id="CMSS17-66" d="M 1075 2368 
L 1722 2368 
L 1722 2737 
L 1062 2737 
L 1062 3559 
C 1062 4014 1408 4092 1606 4092 
C 1670 4092 1850 4092 2080 4009 
L 2080 4429 
C 1933 4461 1754 4480 1613 4480 
C 1018 4480 602 3993 602 3359 
L 602 2737 
L 160 2737 
L 160 2368 
L 602 2368 
L 602 0 
L 1075 0 
L 1075 2368 
z
" transform="scale(0.015625)"/>
       <path id="CMSS17-7a" d="M 2400 2502 
L 2400 2750 
L 250 2750 
L 250 2368 
L 1069 2368 
C 1146 2368 1222 2368 1299 2368 
L 1747 2368 
L 166 261 
L 166 0 
L 2419 0 
L 2419 395 
L 1549 395 
C 1472 395 1395 395 1318 395 
L 826 395 
L 2400 2502 
z
" transform="scale(0.015625)"/>
       <path id="CMSS17-77" d="M 4013 2752 
L 3526 2752 
L 3187 1601 
C 3117 1358 2918 685 2893 371 
L 2886 371 
C 2874 564 2765 1024 2586 1633 
L 2259 2752 
L 1818 2752 
L 1498 1658 
C 1338 1101 1216 627 1203 371 
L 1197 371 
C 1171 749 909 1633 870 1773 
L 582 2752 
L 83 2752 
L 915 0 
L 1402 0 
C 1734 1096 1990 1943 2010 2370 
C 2022 2160 2131 1707 2195 1484 
L 2618 0 
L 3181 0 
L 4013 2752 
z
" transform="scale(0.015625)"/>
       <path id="CMSS17-64" d="M 2611 4416 
L 2138 4416 
L 2138 2438 
C 1939 2603 1613 2756 1254 2756 
C 672 2756 211 2131 211 1347 
C 211 562 666 -64 1235 -64 
C 1677 -64 1971 172 2125 306 
L 2125 -13 
L 2611 -13 
L 2611 4416 
z
M 2125 836 
C 2125 747 2125 653 1926 482 
C 1798 375 1645 325 1498 325 
C 1152 325 698 576 698 1340 
C 698 2134 1210 2368 1562 2368 
C 1798 2368 1990 2254 2125 2065 
L 2125 836 
z
" transform="scale(0.015625)"/>
       <path id="CMSS17-56" d="M 3910 4416 
L 3411 4416 
L 2304 1362 
C 2272 1273 2074 688 2035 484 
L 2029 484 
C 1978 726 1773 1292 1664 1604 
L 922 3672 
L 646 4416 
L 83 4416 
L 1715 0 
L 2278 0 
L 3910 4416 
z
" transform="scale(0.015625)"/>
       <path id="CMSS17-62" d="M 954 4416 
L 480 4416 
L 480 -13 
L 966 -13 
L 966 274 
C 1210 38 1504 -64 1766 -64 
C 2381 -64 2880 549 2880 1352 
C 2880 2086 2496 2756 1926 2756 
C 1523 2756 1165 2591 954 2419 
L 954 4416 
z
M 966 2046 
C 1107 2222 1306 2368 1587 2368 
C 1965 2368 2394 2097 2394 1352 
C 2394 558 1882 325 1530 325 
C 1402 325 1267 356 1139 464 
C 966 615 966 709 966 797 
L 966 2046 
z
" transform="scale(0.015625)"/>
       <path id="CMSS17-75" d="M 2618 2739 
L 2131 2739 
L 2131 972 
C 2131 498 1786 306 1421 306 
C 998 306 960 447 960 709 
L 960 2739 
L 474 2739 
L 474 678 
C 474 179 646 -64 1088 -64 
C 1306 -64 1798 -13 2144 306 
L 2144 0 
L 2618 0 
L 2618 2739 
z
" transform="scale(0.015625)"/>
       <path id="CMSS17-67" d="M 2848 2808 
C 2483 2808 2170 2738 1914 2617 
C 1702 2777 1485 2808 1338 2808 
C 781 2808 358 2349 358 1814 
C 358 1468 550 1207 563 1195 
C 448 1035 384 863 384 672 
C 384 448 474 289 544 200 
C 211 -3 166 -314 166 -435 
C 166 -898 749 -1280 1498 -1280 
C 2253 -1280 2835 -898 2835 -428 
C 2835 448 1856 448 1587 448 
L 1069 448 
C 973 448 717 448 717 791 
C 717 921 774 1004 781 1010 
C 877 940 1075 832 1338 832 
C 1869 832 2310 1278 2310 1827 
C 2310 2132 2170 2355 2112 2432 
L 2131 2432 
C 2150 2432 2419 2432 2515 2432 
C 2720 2432 2739 2429 2918 2419 
L 2848 2808 
z
M 1338 1182 
C 1120 1182 813 1315 813 1823 
C 813 2375 1165 2464 1331 2464 
C 1549 2464 1856 2331 1856 1823 
C 1856 1271 1504 1182 1338 1182 
z
M 1581 -10 
C 1734 -10 2381 -10 2381 -442 
C 2381 -714 1984 -929 1504 -929 
C 1018 -929 621 -720 621 -435 
C 621 -403 621 -10 1062 -10 
L 1581 -10 
z
" transform="scale(0.015625)"/>
      </defs>
      <use xlink:href="#CMSS17-52" transform="scale(0.996264)"/>
      <use xlink:href="#CMSS17-65" transform="translate(60.416155 0) scale(0.996264)"/>
      <use xlink:href="#CMSS17-66" transform="translate(102.054977 0) scale(0.996264)"/>
      <use xlink:href="#CMSS17-65" transform="translate(130.681636 0) scale(0.996264)"/>
      <use xlink:href="#CMSS17-72" transform="translate(172.320458 0) scale(0.996264)"/>
      <use xlink:href="#CMSS17-65" transform="translate(204.23023 0) scale(0.996264)"/>
      <use xlink:href="#CMSS17-6e" transform="translate(245.869052 0) scale(0.996264)"/>
      <use xlink:href="#CMSS17-7a" transform="translate(294.073996 0) scale(0.996264)"/>
      <use xlink:href="#CMSS17-77" transform="translate(334.751867 0) scale(0.996264)"/>
      <use xlink:href="#CMSS17-65" transform="translate(395.968959 0) scale(0.996264)"/>
      <use xlink:href="#CMSS17-72" transform="translate(437.607781 0) scale(0.996264)"/>
      <use xlink:href="#CMSS17-74" transform="translate(469.517553 0) scale(0.996264)"/>
      <use xlink:href="#CMSS17-64" transform="translate(534.578233 0) scale(0.996264)"/>
      <use xlink:href="#CMSS17-65" transform="translate(582.783176 0) scale(0.996264)"/>
      <use xlink:href="#CMSS17-72" transform="translate(624.421998 0) scale(0.996264)"/>
      <use xlink:href="#CMSS17-56" transform="translate(687.560883 0) scale(0.996264)"/>
      <use xlink:href="#CMSS17-6f" transform="translate(747.176284 0) scale(0.996264)"/>
      <use xlink:href="#CMSS17-72" transform="translate(791.417454 0) scale(0.996264)"/>
      <use xlink:href="#CMSS17-62" transform="translate(823.327226 0) scale(0.996264)"/>
      <use xlink:href="#CMSS17-65" transform="translate(874.134608 0) scale(0.996264)"/>
      <use xlink:href="#CMSS17-72" transform="translate(915.77343 0) scale(0.996264)"/>
      <use xlink:href="#CMSS17-65" transform="translate(947.683203 0) scale(0.996264)"/>
      <use xlink:href="#CMSS17-69" transform="translate(989.322025 0) scale(0.996264)"/>
      <use xlink:href="#CMSS17-74" transform="translate(1011.502748 0) scale(0.996264)"/>
      <use xlink:href="#CMSS17-75" transform="translate(1045.334315 0) scale(0.996264)"/>
      <use xlink:href="#CMSS17-6e" transform="translate(1093.539258 0) scale(0.996264)"/>
      <use xlink:href="#CMSS17-67" transform="translate(1141.744201 0) scale(0.996264)"/>
     </g>
    </g>
    <g id="line2d_22">
     <path d="M 295.941262 419.684366 
L 315.941262 419.684366 
L 335.941262 419.684366 
" style="fill: none; stroke-dasharray: 7.4,3.2; stroke-dashoffset: 0; stroke: #008000; stroke-width: 2"/>
    </g>
    <g id="text_14">
     <!-- Messung -->
     <g transform="translate(351.941262 426.684366) scale(0.2 -0.2)">
      <defs>
       <path id="CMSS17-4d" d="M 3194 2371 
L 2886 1473 
C 2835 1307 2662 791 2624 587 
L 2618 587 
C 2598 715 2560 849 2458 1174 
C 2400 1365 2336 1562 2272 1741 
L 1325 4416 
L 576 4416 
L 576 0 
L 1075 0 
L 1075 3900 
L 1082 3900 
C 1082 3894 1139 3613 1530 2499 
L 2374 96 
L 2848 96 
L 3610 2231 
C 3661 2378 3821 2843 3891 3066 
C 3955 3257 4115 3728 4154 3913 
L 4160 3913 
L 4160 0 
L 4666 0 
L 4666 4416 
L 3923 4416 
L 3194 2371 
z
" transform="scale(0.015625)"/>
      </defs>
      <use xlink:href="#CMSS17-4d" transform="scale(0.996264)"/>
      <use xlink:href="#CMSS17-65" transform="translate(81.67603 0) scale(0.996264)"/>
      <use xlink:href="#CMSS17-73" transform="translate(123.314852 0) scale(0.996264)"/>
      <use xlink:href="#CMSS17-73" transform="translate(159.228394 0) scale(0.996264)"/>
      <use xlink:href="#CMSS17-75" transform="translate(195.141936 0) scale(0.996264)"/>
      <use xlink:href="#CMSS17-6e" transform="translate(243.346879 0) scale(0.996264)"/>
      <use xlink:href="#CMSS17-67" transform="translate(291.551822 0) scale(0.996264)"/>
     </g>
    </g>
   </g>
  </g>
 </g>
 <defs>
  <clipPath id="pd07956d125">
   <rect x="108" y="60.48" width="669.6" height="388.08"/>
  </clipPath>
 </defs>
</svg>
