<?xml version="1.0" encoding="utf-8" standalone="no"?>
<!DOCTYPE svg PUBLIC "-//W3C//DTD SVG 1.1//EN"
  "http://www.w3.org/Graphics/SVG/1.1/DTD/svg11.dtd">
<svg xmlns:xlink="http://www.w3.org/1999/xlink" width="864pt" height="504pt" viewBox="0 0 864 504" xmlns="http://www.w3.org/2000/svg" version="1.1">
 <metadata>
  <rdf:RDF xmlns:dc="http://purl.org/dc/elements/1.1/" xmlns:cc="http://creativecommons.org/ns#" xmlns:rdf="http://www.w3.org/1999/02/22-rdf-syntax-ns#">
   <cc:Work>
    <dc:type rdf:resource="http://purl.org/dc/dcmitype/StillImage"/>
    <dc:date>2023-06-05T20:42:51.109749</dc:date>
    <dc:format>image/svg+xml</dc:format>
    <dc:creator>
     <cc:Agent>
      <dc:title>Matplotlib v3.7.1, https://matplotlib.org/</dc:title>
     </cc:Agent>
    </dc:creator>
   </cc:Work>
  </rdf:RDF>
 </metadata>
 <defs>
  <style type="text/css">*{stroke-linejoin: round; stroke-linecap: butt}</style>
 </defs>
 <g id="figure_1">
  <g id="patch_1">
   <path d="M 0 504 
L 864 504 
L 864 0 
L 0 0 
z
" style="fill: #ffffff"/>
  </g>
  <g id="axes_1">
   <g id="patch_2">
    <path d="M 108 448.56 
L 777.6 448.56 
L 777.6 60.48 
L 108 60.48 
z
" style="fill: #ffffff"/>
   </g>
   <g id="matplotlib.axis_1">
    <g id="xtick_1">
     <g id="line2d_1">
      <path d="M 245.871463 448.56 
L 245.871463 60.48 
" clip-path="url(#p39d8844bee)" style="fill: none; stroke: #b0b0b0; stroke-width: 0.8; stroke-linecap: square"/>
     </g>
     <g id="line2d_2">
      <defs>
       <path id="m01cd9ab5c1" d="M 0 0 
L 0 3.5 
" style="stroke: #000000; stroke-width: 0.8"/>
      </defs>
      <g>
       <use xlink:href="#m01cd9ab5c1" x="245.871463" y="448.56" style="stroke: #000000; stroke-width: 0.8"/>
      </g>
     </g>
     <g id="text_1">
      <!-- $\mathdefault{6}$ -->
      <g transform="translate(241.302415 469.396997) scale(0.2 -0.2)">
       <defs>
        <path id="CMR17-36" d="M 678 2176 
C 678 3690 1395 4032 1811 4032 
C 1946 4032 2272 4009 2400 3776 
C 2298 3776 2106 3776 2106 3553 
C 2106 3381 2246 3323 2336 3323 
C 2394 3323 2566 3348 2566 3560 
C 2566 3954 2246 4179 1805 4179 
C 1043 4179 243 3390 243 1984 
C 243 253 966 -128 1478 -128 
C 2099 -128 2688 427 2688 1283 
C 2688 2081 2170 2662 1517 2662 
C 1126 2662 838 2407 678 1960 
L 678 2176 
z
M 1478 25 
C 691 25 691 1200 691 1436 
C 691 1896 909 2560 1504 2560 
C 1613 2560 1926 2560 2138 2120 
C 2253 1870 2253 1609 2253 1289 
C 2253 944 2253 690 2118 434 
C 1978 171 1773 25 1478 25 
z
" transform="scale(0.015625)"/>
       </defs>
       <use xlink:href="#CMR17-36" transform="scale(0.996264)"/>
      </g>
     </g>
    </g>
    <g id="xtick_2">
     <g id="line2d_3">
      <path d="M 389.118262 448.56 
L 389.118262 60.48 
" clip-path="url(#p39d8844bee)" style="fill: none; stroke: #b0b0b0; stroke-width: 0.8; stroke-linecap: square"/>
     </g>
     <g id="line2d_4">
      <g>
       <use xlink:href="#m01cd9ab5c1" x="389.118262" y="448.56" style="stroke: #000000; stroke-width: 0.8"/>
      </g>
     </g>
     <g id="text_2">
      <!-- $\mathdefault{8}$ -->
      <g transform="translate(384.549214 469.396997) scale(0.2 -0.2)">
       <defs>
        <path id="CMR17-38" d="M 1741 2264 
C 2144 2467 2554 2773 2554 3263 
C 2554 3841 1990 4179 1472 4179 
C 890 4179 378 3759 378 3180 
C 378 3021 416 2747 666 2505 
C 730 2442 998 2251 1171 2130 
C 883 1983 211 1634 211 934 
C 211 279 838 -128 1459 -128 
C 2144 -128 2720 362 2720 1010 
C 2720 1590 2330 1857 2074 2029 
L 1741 2264 
z
M 902 2822 
C 851 2854 595 3051 595 3351 
C 595 3739 998 4032 1459 4032 
C 1965 4032 2336 3676 2336 3262 
C 2336 2669 1670 2331 1638 2331 
C 1632 2331 1626 2331 1574 2370 
L 902 2822 
z
M 2080 1519 
C 2176 1449 2483 1240 2483 851 
C 2483 381 2010 25 1472 25 
C 890 25 448 438 448 940 
C 448 1443 838 1862 1280 2060 
L 2080 1519 
z
" transform="scale(0.015625)"/>
       </defs>
       <use xlink:href="#CMR17-38" transform="scale(0.996264)"/>
      </g>
     </g>
    </g>
    <g id="xtick_3">
     <g id="line2d_5">
      <path d="M 532.365061 448.56 
L 532.365061 60.48 
" clip-path="url(#p39d8844bee)" style="fill: none; stroke: #b0b0b0; stroke-width: 0.8; stroke-linecap: square"/>
     </g>
     <g id="line2d_6">
      <g>
       <use xlink:href="#m01cd9ab5c1" x="532.365061" y="448.56" style="stroke: #000000; stroke-width: 0.8"/>
      </g>
     </g>
     <g id="text_3">
      <!-- $\mathdefault{10}$ -->
      <g transform="translate(523.226966 469.396997) scale(0.2 -0.2)">
       <defs>
        <path id="CMR17-31" d="M 1702 4058 
C 1702 4192 1696 4192 1606 4192 
C 1357 3916 979 3827 621 3827 
C 602 3827 570 3827 563 3808 
C 557 3795 557 3782 557 3648 
C 755 3648 1088 3686 1344 3839 
L 1344 461 
C 1344 236 1331 160 781 160 
L 589 160 
L 589 0 
C 896 0 1216 0 1523 0 
C 1830 0 2150 0 2458 0 
L 2458 160 
L 2266 160 
C 1715 160 1702 230 1702 458 
L 1702 4058 
z
" transform="scale(0.015625)"/>
        <path id="CMR17-30" d="M 2688 2025 
C 2688 2416 2682 3080 2413 3591 
C 2176 4039 1798 4198 1466 4198 
C 1158 4198 768 4058 525 3597 
C 269 3118 243 2524 243 2025 
C 243 1661 250 1106 448 619 
C 723 -39 1216 -128 1466 -128 
C 1760 -128 2208 -7 2470 600 
C 2662 1042 2688 1559 2688 2025 
z
M 1466 -26 
C 1056 -26 813 325 723 812 
C 653 1188 653 1738 653 2096 
C 653 2588 653 2997 736 3387 
C 858 3929 1216 4096 1466 4096 
C 1728 4096 2067 3923 2189 3400 
C 2272 3036 2278 2607 2278 2096 
C 2278 1680 2278 1169 2202 792 
C 2067 95 1690 -26 1466 -26 
z
" transform="scale(0.015625)"/>
       </defs>
       <use xlink:href="#CMR17-31" transform="scale(0.996264)"/>
       <use xlink:href="#CMR17-30" transform="translate(45.690477 0) scale(0.996264)"/>
      </g>
     </g>
    </g>
    <g id="xtick_4">
     <g id="line2d_7">
      <path d="M 675.61186 448.56 
L 675.61186 60.48 
" clip-path="url(#p39d8844bee)" style="fill: none; stroke: #b0b0b0; stroke-width: 0.8; stroke-linecap: square"/>
     </g>
     <g id="line2d_8">
      <g>
       <use xlink:href="#m01cd9ab5c1" x="675.61186" y="448.56" style="stroke: #000000; stroke-width: 0.8"/>
      </g>
     </g>
     <g id="text_4">
      <!-- $\mathdefault{12}$ -->
      <g transform="translate(666.473765 469.396997) scale(0.2 -0.2)">
       <defs>
        <path id="CMR17-32" d="M 2669 989 
L 2554 989 
C 2490 536 2438 459 2413 420 
C 2381 369 1920 369 1830 369 
L 602 369 
C 832 619 1280 1072 1824 1597 
C 2214 1967 2669 2402 2669 3035 
C 2669 3790 2067 4224 1395 4224 
C 691 4224 262 3604 262 3030 
C 262 2780 448 2748 525 2748 
C 589 2748 781 2787 781 3010 
C 781 3207 614 3264 525 3264 
C 486 3264 448 3258 422 3245 
C 544 3790 915 4058 1306 4058 
C 1862 4058 2227 3617 2227 3035 
C 2227 2479 1901 2000 1536 1584 
L 262 146 
L 262 0 
L 2515 0 
L 2669 989 
z
" transform="scale(0.015625)"/>
       </defs>
       <use xlink:href="#CMR17-31" transform="scale(0.996264)"/>
       <use xlink:href="#CMR17-32" transform="translate(45.690477 0) scale(0.996264)"/>
      </g>
     </g>
    </g>
    <g id="text_5">
     <!-- Zeit t in s -->
     <g transform="translate(403.927758 491.109627) scale(0.2 -0.2)">
      <defs>
       <path id="CMSS17-5a" d="M 3341 4155 
L 3341 4416 
L 416 4416 
L 416 4015 
L 1613 4015 
C 1690 4015 1766 4015 1843 4015 
L 2662 4015 
L 333 274 
L 333 0 
L 3373 0 
L 3373 414 
L 2803 414 
C 2272 414 1734 414 1203 414 
L 1011 414 
L 3341 4155 
z
" transform="scale(0.015625)"/>
       <path id="CMSS17-65" d="M 2502 1377 
C 2502 1590 2490 2003 2285 2345 
C 2061 2713 1696 2816 1421 2816 
C 755 2816 192 2188 192 1375 
C 192 582 774 -64 1510 -64 
C 1798 -64 2150 19 2470 248 
C 2470 274 2458 414 2451 420 
C 2451 433 2432 630 2432 656 
C 2125 407 1773 325 1517 325 
C 1107 325 666 667 646 1377 
L 2502 1377 
z
M 698 1728 
C 781 2084 1062 2421 1421 2421 
C 1517 2421 1965 2421 2080 1728 
L 698 1728 
z
" transform="scale(0.015625)"/>
       <path id="CMSS17-69" d="M 979 4183 
L 442 4183 
L 442 3648 
L 979 3648 
L 979 4183 
z
M 947 2739 
L 474 2739 
L 474 0 
L 947 0 
L 947 2739 
z
" transform="scale(0.015625)"/>
       <path id="CMSS17-74" d="M 1069 2368 
L 1901 2368 
L 1901 2737 
L 1069 2737 
L 1069 3520 
L 614 3520 
L 614 2737 
L 109 2737 
L 109 2368 
L 602 2368 
L 602 749 
C 602 384 685 -64 1107 -64 
C 1427 -64 1722 25 2003 172 
L 1901 548 
C 1747 414 1562 337 1363 337 
C 1082 337 1069 696 1069 856 
L 1069 2368 
z
" transform="scale(0.015625)"/>
       <path id="CMSS17-6e" d="M 2618 1877 
C 2618 2283 2522 2816 1798 2816 
C 1389 2816 1120 2606 941 2389 
L 941 2758 
L 474 2758 
L 474 0 
L 960 0 
L 960 1559 
C 960 1964 1114 2428 1549 2428 
C 2112 2428 2131 2048 2131 1829 
L 2131 0 
L 2618 0 
L 2618 1877 
z
" transform="scale(0.015625)"/>
       <path id="CMSS17-73" d="M 2061 2627 
C 1683 2807 1389 2807 1197 2807 
C 742 2807 198 2648 198 2003 
C 198 1359 902 1218 1094 1179 
C 1389 1122 1715 1058 1715 740 
C 1715 337 1254 337 1171 337 
C 915 337 563 407 243 638 
L 166 210 
C 531 0 883 -64 1178 -64 
C 1965 -64 2163 416 2163 781 
C 2163 1094 1984 1305 1862 1401 
C 1651 1568 1574 1587 1050 1696 
C 960 1709 646 1779 646 2066 
C 646 2432 1050 2432 1139 2432 
C 1555 2432 1811 2303 1984 2208 
L 2061 2627 
z
" transform="scale(0.015625)"/>
      </defs>
      <use xlink:href="#CMSS17-5a" transform="scale(0.996264)"/>
      <use xlink:href="#CMSS17-65" transform="translate(57.253333 0) scale(0.996264)"/>
      <use xlink:href="#CMSS17-69" transform="translate(98.892155 0) scale(0.996264)"/>
      <use xlink:href="#CMSS17-74" transform="translate(121.072878 0) scale(0.996264)"/>
      <use xlink:href="#CMSS17-74" transform="translate(186.133557 0) scale(0.996264)"/>
      <use xlink:href="#CMSS17-69" transform="translate(251.194237 0) scale(0.996264)"/>
      <use xlink:href="#CMSS17-6e" transform="translate(273.37496 0) scale(0.996264)"/>
      <use xlink:href="#CMSS17-73" transform="translate(352.809016 0) scale(0.996264)"/>
     </g>
    </g>
   </g>
   <g id="matplotlib.axis_2">
    <g id="ytick_1">
     <g id="line2d_9">
      <path d="M 108 422.195716 
L 777.6 422.195716 
" clip-path="url(#p39d8844bee)" style="fill: none; stroke: #b0b0b0; stroke-width: 0.8; stroke-linecap: square"/>
     </g>
     <g id="line2d_10">
      <defs>
       <path id="mefe7bed969" d="M 0 0 
L -3.5 0 
" style="stroke: #000000; stroke-width: 0.8"/>
      </defs>
      <g>
       <use xlink:href="#mefe7bed969" x="108" y="422.195716" style="stroke: #000000; stroke-width: 0.8"/>
      </g>
     </g>
     <g id="text_6">
      <!-- $\mathdefault{0}$ -->
      <g transform="translate(91.861905 429.114214) scale(0.2 -0.2)">
       <use xlink:href="#CMR17-30" transform="scale(0.996264)"/>
      </g>
     </g>
    </g>
    <g id="ytick_2">
     <g id="line2d_11">
      <path d="M 108 350.153137 
L 777.6 350.153137 
" clip-path="url(#p39d8844bee)" style="fill: none; stroke: #b0b0b0; stroke-width: 0.8; stroke-linecap: square"/>
     </g>
     <g id="line2d_12">
      <g>
       <use xlink:href="#mefe7bed969" x="108" y="350.153137" style="stroke: #000000; stroke-width: 0.8"/>
      </g>
     </g>
     <g id="text_7">
      <!-- $\mathdefault{20}$ -->
      <g transform="translate(82.723809 357.071636) scale(0.2 -0.2)">
       <use xlink:href="#CMR17-32" transform="scale(0.996264)"/>
       <use xlink:href="#CMR17-30" transform="translate(45.690477 0) scale(0.996264)"/>
      </g>
     </g>
    </g>
    <g id="ytick_3">
     <g id="line2d_13">
      <path d="M 108 278.110559 
L 777.6 278.110559 
" clip-path="url(#p39d8844bee)" style="fill: none; stroke: #b0b0b0; stroke-width: 0.8; stroke-linecap: square"/>
     </g>
     <g id="line2d_14">
      <g>
       <use xlink:href="#mefe7bed969" x="108" y="278.110559" style="stroke: #000000; stroke-width: 0.8"/>
      </g>
     </g>
     <g id="text_8">
      <!-- $\mathdefault{40}$ -->
      <g transform="translate(82.723809 285.029057) scale(0.2 -0.2)">
       <defs>
        <path id="CMR17-34" d="M 2150 4122 
C 2150 4256 2144 4256 2029 4256 
L 128 1254 
L 128 1088 
L 1779 1088 
L 1779 457 
C 1779 224 1766 160 1318 160 
L 1197 160 
L 1197 0 
C 1402 0 1747 0 1965 0 
C 2182 0 2528 0 2733 0 
L 2733 160 
L 2611 160 
C 2163 160 2150 224 2150 457 
L 2150 1088 
L 2803 1088 
L 2803 1254 
L 2150 1254 
L 2150 4122 
z
M 1798 3703 
L 1798 1254 
L 256 1254 
L 1798 3703 
z
" transform="scale(0.015625)"/>
       </defs>
       <use xlink:href="#CMR17-34" transform="scale(0.996264)"/>
       <use xlink:href="#CMR17-30" transform="translate(45.690477 0) scale(0.996264)"/>
      </g>
     </g>
    </g>
    <g id="ytick_4">
     <g id="line2d_15">
      <path d="M 108 206.06798 
L 777.6 206.06798 
" clip-path="url(#p39d8844bee)" style="fill: none; stroke: #b0b0b0; stroke-width: 0.8; stroke-linecap: square"/>
     </g>
     <g id="line2d_16">
      <g>
       <use xlink:href="#mefe7bed969" x="108" y="206.06798" style="stroke: #000000; stroke-width: 0.8"/>
      </g>
     </g>
     <g id="text_9">
      <!-- $\mathdefault{60}$ -->
      <g transform="translate(82.723809 212.986478) scale(0.2 -0.2)">
       <use xlink:href="#CMR17-36" transform="scale(0.996264)"/>
       <use xlink:href="#CMR17-30" transform="translate(45.690477 0) scale(0.996264)"/>
      </g>
     </g>
    </g>
    <g id="ytick_5">
     <g id="line2d_17">
      <path d="M 108 134.025401 
L 777.6 134.025401 
" clip-path="url(#p39d8844bee)" style="fill: none; stroke: #b0b0b0; stroke-width: 0.8; stroke-linecap: square"/>
     </g>
     <g id="line2d_18">
      <g>
       <use xlink:href="#mefe7bed969" x="108" y="134.025401" style="stroke: #000000; stroke-width: 0.8"/>
      </g>
     </g>
     <g id="text_10">
      <!-- $\mathdefault{80}$ -->
      <g transform="translate(82.723809 140.9439) scale(0.2 -0.2)">
       <use xlink:href="#CMR17-38" transform="scale(0.996264)"/>
       <use xlink:href="#CMR17-30" transform="translate(45.690477 0) scale(0.996264)"/>
      </g>
     </g>
    </g>
    <g id="ytick_6">
     <g id="line2d_19">
      <path d="M 108 61.982823 
L 777.6 61.982823 
" clip-path="url(#p39d8844bee)" style="fill: none; stroke: #b0b0b0; stroke-width: 0.8; stroke-linecap: square"/>
     </g>
     <g id="line2d_20">
      <g>
       <use xlink:href="#mefe7bed969" x="108" y="61.982823" style="stroke: #000000; stroke-width: 0.8"/>
      </g>
     </g>
     <g id="text_11">
      <!-- $\mathdefault{100}$ -->
      <g transform="translate(73.585714 68.901321) scale(0.2 -0.2)">
       <use xlink:href="#CMR17-31" transform="scale(0.996264)"/>
       <use xlink:href="#CMR17-30" transform="translate(45.690477 0) scale(0.996264)"/>
       <use xlink:href="#CMR17-30" transform="translate(91.380954 0) scale(0.996264)"/>
      </g>
     </g>
    </g>
    <g id="text_12">
     <!-- Winkelstellung $Phi_ {2}$ in ° -->
     <g transform="translate(65.71008 350.743262) rotate(-90) scale(0.2 -0.2)">
      <defs>
       <path id="CMSS17-57" d="M 5581 4416 
L 5094 4416 
L 4557 2437 
C 4474 2118 4397 1801 4320 1482 
C 4205 1011 4122 681 4109 515 
L 4102 515 
C 4090 687 4006 1049 3904 1457 
C 3827 1795 3744 2131 3654 2462 
L 3123 4416 
L 2586 4416 
L 2080 2562 
L 1824 1549 
C 1632 747 1626 632 1613 505 
L 1606 505 
C 1606 543 1581 753 1402 1498 
C 1312 1868 1222 2244 1126 2601 
L 634 4416 
L 83 4416 
L 1299 0 
L 1830 0 
L 2336 1839 
L 2592 2851 
C 2765 3564 2803 3742 2816 3901 
L 2822 3901 
C 2822 3876 2880 3474 3130 2545 
L 3808 0 
L 4365 0 
L 5581 4416 
z
" transform="scale(0.015625)"/>
       <path id="CMSS17-6b" d="M 1696 1688 
L 2688 2739 
L 2074 2739 
L 954 1554 
L 954 4416 
L 480 4416 
L 480 0 
L 947 0 
L 947 892 
L 1376 1344 
L 2278 0 
L 2822 0 
L 1696 1688 
z
" transform="scale(0.015625)"/>
       <path id="CMSS17-6c" d="M 947 4416 
L 474 4416 
L 474 0 
L 947 0 
L 947 4416 
z
" transform="scale(0.015625)"/>
       <path id="CMSS17-75" d="M 2618 2739 
L 2131 2739 
L 2131 972 
C 2131 498 1786 306 1421 306 
C 998 306 960 447 960 709 
L 960 2739 
L 474 2739 
L 474 678 
C 474 179 646 -64 1088 -64 
C 1306 -64 1798 -13 2144 306 
L 2144 0 
L 2618 0 
L 2618 2739 
z
" transform="scale(0.015625)"/>
       <path id="CMSS17-67" d="M 2848 2808 
C 2483 2808 2170 2738 1914 2617 
C 1702 2777 1485 2808 1338 2808 
C 781 2808 358 2349 358 1814 
C 358 1468 550 1207 563 1195 
C 448 1035 384 863 384 672 
C 384 448 474 289 544 200 
C 211 -3 166 -314 166 -435 
C 166 -898 749 -1280 1498 -1280 
C 2253 -1280 2835 -898 2835 -428 
C 2835 448 1856 448 1587 448 
L 1069 448 
C 973 448 717 448 717 791 
C 717 921 774 1004 781 1010 
C 877 940 1075 832 1338 832 
C 1869 832 2310 1278 2310 1827 
C 2310 2132 2170 2355 2112 2432 
L 2131 2432 
C 2150 2432 2419 2432 2515 2432 
C 2720 2432 2739 2429 2918 2419 
L 2848 2808 
z
M 1338 1182 
C 1120 1182 813 1315 813 1823 
C 813 2375 1165 2464 1331 2464 
C 1549 2464 1856 2331 1856 1823 
C 1856 1271 1504 1182 1338 1182 
z
M 1581 -10 
C 1734 -10 2381 -10 2381 -442 
C 2381 -714 1984 -929 1504 -929 
C 1018 -929 621 -720 621 -435 
C 621 -403 621 -10 1062 -10 
L 1581 -10 
z
" transform="scale(0.015625)"/>
       <path id="CMMI12-50" d="M 1894 2023 
L 2970 2023 
C 3853 2023 4736 2673 4736 3401 
C 4736 3898 4314 4352 3507 4352 
L 1530 4352 
C 1408 4352 1350 4352 1350 4231 
C 1350 4167 1408 4167 1504 4167 
C 1894 4167 1894 4116 1894 4046 
C 1894 4034 1894 3995 1869 3899 
L 1005 472 
C 947 249 934 185 486 185 
C 365 185 301 185 301 70 
C 301 0 358 0 397 0 
C 518 0 646 0 768 0 
L 1517 0 
C 1638 0 1773 0 1894 0 
C 1946 0 2016 0 2016 121 
C 2016 185 1958 185 1862 185 
C 1478 185 1472 230 1472 293 
C 1472 325 1478 369 1485 401 
L 1894 2023 
z
M 2355 3930 
C 2413 4167 2438 4167 2688 4167 
L 3322 4167 
C 3802 4167 4198 4013 4198 3535 
C 4198 3369 4115 2827 3821 2534 
C 3712 2419 3405 2176 2822 2176 
L 1920 2176 
L 2355 3930 
z
" transform="scale(0.015625)"/>
       <path id="CMMI12-68" d="M 1798 4257 
C 1805 4283 1818 4321 1818 4352 
C 1818 4416 1754 4416 1741 4416 
C 1734 4416 1421 4388 1389 4380 
C 1280 4373 1184 4358 1069 4358 
C 909 4345 864 4339 864 4224 
C 864 4160 915 4160 1005 4160 
C 1318 4160 1325 4103 1325 4040 
C 1325 4002 1312 3951 1306 3932 
L 378 248 
C 352 152 352 140 352 101 
C 352 -38 461 -64 525 -64 
C 634 -64 717 19 749 89 
L 1037 1245 
C 1069 1386 1107 1520 1139 1660 
C 1210 1929 1210 1935 1331 2120 
C 1453 2305 1741 2689 2234 2689 
C 2490 2689 2579 2497 2579 2242 
C 2579 1884 2330 1188 2189 805 
C 2131 651 2099 568 2099 453 
C 2099 166 2298 -64 2605 -64 
C 3200 -64 3424 875 3424 913 
C 3424 945 3398 971 3360 971 
C 3302 971 3296 952 3264 843 
C 3117 332 2880 64 2624 64 
C 2560 64 2458 64 2458 269 
C 2458 436 2534 640 2560 710 
C 2675 1018 2963 1773 2963 2145 
C 2963 2528 2739 2816 2253 2816 
C 1888 2816 1568 2644 1306 2312 
L 1798 4257 
z
" transform="scale(0.015625)"/>
       <path id="CMMI12-69" d="M 1811 913 
C 1811 945 1786 971 1747 971 
C 1690 971 1683 952 1651 843 
C 1485 262 1222 64 1011 64 
C 934 64 845 83 845 275 
C 845 447 922 639 992 830 
L 1440 2018 
C 1459 2069 1504 2184 1504 2305 
C 1504 2574 1312 2816 998 2816 
C 410 2816 173 1890 173 1839 
C 173 1814 198 1782 243 1782 
C 301 1782 307 1807 333 1896 
C 486 2428 730 2682 979 2682 
C 1037 2682 1146 2682 1146 2478 
C 1146 2312 1062 2101 1011 1961 
L 563 773 
C 525 671 486 568 486 453 
C 486 166 685 -64 992 -64 
C 1581 -64 1811 869 1811 913 
z
M 1760 4013 
C 1760 4109 1683 4224 1542 4224 
C 1395 4224 1229 4083 1229 3917 
C 1229 3758 1363 3707 1440 3707 
C 1613 3707 1760 3873 1760 4013 
z
" transform="scale(0.015625)"/>
       <path id="SFSS3583-b0" d="M 890 4352 
C 544 4307 326 4016 326 3712 
C 326 3389 576 3072 960 3072 
L 1018 3072 
C 1357 3117 1587 3408 1587 3712 
C 1587 4042 1312 4352 947 4352 
L 890 4352 
z
M 525 3673 
L 525 3712 
C 525 3939 723 4139 947 4139 
C 1178 4139 1338 3960 1382 3751 
L 1382 3711 
C 1382 3482 1184 3278 960 3278 
C 730 3278 570 3460 525 3673 
z
" transform="scale(0.015625)"/>
      </defs>
      <use xlink:href="#CMSS17-57" transform="scale(0.996264)"/>
      <use xlink:href="#CMSS17-69" transform="translate(88.242166 0) scale(0.996264)"/>
      <use xlink:href="#CMSS17-6e" transform="translate(110.422889 0) scale(0.996264)"/>
      <use xlink:href="#CMSS17-6b" transform="translate(158.627832 0) scale(0.996264)"/>
      <use xlink:href="#CMSS17-65" transform="translate(201.627868 0) scale(0.996264)"/>
      <use xlink:href="#CMSS17-6c" transform="translate(243.26669 0) scale(0.996264)"/>
      <use xlink:href="#CMSS17-73" transform="translate(265.447413 0) scale(0.996264)"/>
      <use xlink:href="#CMSS17-74" transform="translate(301.360955 0) scale(0.996264)"/>
      <use xlink:href="#CMSS17-65" transform="translate(335.192521 0) scale(0.996264)"/>
      <use xlink:href="#CMSS17-6c" transform="translate(376.831344 0) scale(0.996264)"/>
      <use xlink:href="#CMSS17-6c" transform="translate(399.012067 0) scale(0.996264)"/>
      <use xlink:href="#CMSS17-75" transform="translate(421.19279 0) scale(0.996264)"/>
      <use xlink:href="#CMSS17-6e" transform="translate(469.397733 0) scale(0.996264)"/>
      <use xlink:href="#CMSS17-67" transform="translate(517.602676 0) scale(0.996264)"/>
      <use xlink:href="#CMMI12-50" transform="translate(595.675412 0) scale(0.996264)"/>
      <use xlink:href="#CMMI12-68" transform="translate(672.101233 0) scale(0.996264)"/>
      <use xlink:href="#CMMI12-69" transform="translate(728.255857 0) scale(0.996264)"/>
      <use xlink:href="#CMR17-32" transform="translate(761.534459 -14.943915) scale(0.697382)"/>
      <use xlink:href="#CMSS17-69" transform="translate(825.244886 0) scale(0.996264)"/>
      <use xlink:href="#CMSS17-6e" transform="translate(847.425609 0) scale(0.996264)"/>
      <use xlink:href="#SFSS3583-b0" transform="translate(926.859664 0) scale(0.996264)"/>
     </g>
    </g>
   </g>
   <g id="line2d_21">
    <path d="M 138.436364 422.195716 
L 164.435658 422.141546 
L 164.578904 421.635278 
L 164.722151 419.981386 
L 164.937021 413.671398 
L 165.223515 395.032237 
L 165.581632 353.802842 
L 166.727606 205.010412 
L 167.300594 166.723087 
L 167.873581 141.657357 
L 168.446568 125.809877 
L 169.019555 115.701262 
L 169.592542 109.270125 
L 170.16553 105.175606 
L 170.738517 102.569278 
L 171.311504 100.910151 
L 171.884491 99.854006 
L 172.529102 99.117055 
L 173.245336 98.63693 
L 174.17644 98.307869 
L 175.465661 98.114054 
L 177.900857 98.020211 
L 188.143003 98.004112 
L 661.28718 98.114054 
L 662.719648 98.34418 
L 663.650752 98.712576 
L 664.366986 99.250093 
L 664.939974 99.961452 
L 665.512961 101.07894 
L 666.014325 102.569278 
L 666.515688 104.781936 
L 667.017052 108.067186 
L 667.518416 112.944226 
L 668.01978 120.186495 
L 668.521144 130.938462 
L 669.022507 146.879021 
L 669.523871 170.719824 
L 670.025235 205.010412 
L 670.454975 248.864292 
L 671.81582 413.671398 
L 672.102314 421.000531 
L 672.317184 422.141546 
L 672.532054 422.195716 
L 747.163636 422.195716 
L 747.163636 422.195716 
" clip-path="url(#p39d8844bee)" style="fill: none; stroke: #ff0000; stroke-width: 2; stroke-linecap: square"/>
   </g>
   <g id="line2d_22">
    <path d="M 138.436364 422.195716 
L 165.223515 422.195716 
L 165.438385 421.56253 
L 165.510009 421.56253 
L 166.082996 418.713188 
L 166.655983 412.69791 
L 167.085723 405.73287 
L 167.515464 396.551656 
L 168.446568 369.324748 
L 171.741244 255.984121 
L 172.600725 239.204684 
L 173.531829 224.641637 
L 173.96157 217.676561 
L 175.465661 182.217924 
L 176.468389 152.774843 
L 177.256246 131.246359 
L 178.115727 114.466922 
L 178.760338 107.185218 
L 179.118455 104.969188 
L 179.476572 103.70268 
L 179.619818 103.70268 
L 179.763065 103.386053 
L 180.049559 103.386053 
L 180.192806 103.70268 
L 180.336052 103.70268 
L 180.550923 104.335934 
L 180.694169 104.335934 
L 180.837416 104.652561 
L 180.90904 104.652561 
L 181.052286 104.969188 
L 181.195533 104.969188 
L 181.33878 105.285816 
L 181.76852 105.285816 
L 181.983391 104.652561 
L 182.055014 104.652561 
L 182.986118 100.220142 
L 184.70508 85.973722 
L 184.848327 85.02384 
L 185.278067 82.174556 
L 186.137548 78.692018 
L 186.209171 78.692018 
L 186.352418 78.375391 
L 186.853782 78.375391 
L 187.068652 79.008645 
L 187.140275 79.008645 
L 187.570016 80.591421 
L 187.641639 80.591421 
L 189.503848 88.506379 
L 189.575471 88.506379 
L 189.861965 89.45626 
L 190.005211 89.45626 
L 190.148458 89.772527 
L 190.220082 89.772527 
L 190.363328 90.089154 
L 190.864692 90.089154 
L 191.007939 89.772527 
L 191.079562 89.772527 
L 191.222809 89.45626 
L 191.294433 89.45626 
L 191.509303 88.823006 
L 191.580926 88.823006 
L 191.795796 88.189751 
L 191.86742 88.189751 
L 192.225537 86.923243 
L 192.29716 86.923243 
L 192.583654 85.973722 
L 192.655277 85.973722 
L 192.941771 85.02384 
L 193.013394 85.02384 
L 193.228264 84.390586 
L 193.299888 84.390586 
L 193.514758 83.757332 
L 193.586381 83.757332 
L 193.729628 83.440705 
L 193.801251 83.440705 
L 193.944498 83.124078 
L 194.087745 83.124078 
L 194.230992 82.807811 
L 195.090473 82.807811 
L 195.233719 83.124078 
L 195.376966 83.124078 
L 195.520213 83.440705 
L 195.591836 83.440705 
L 195.735083 83.757332 
L 195.806707 83.757332 
L 196.021577 84.390586 
L 196.164824 84.390586 
L 196.379694 85.02384 
L 196.451317 85.02384 
L 196.666187 85.657095 
L 196.809434 85.657095 
L 197.024304 86.289989 
L 197.095928 86.289989 
L 197.310798 86.923243 
L 197.454045 86.923243 
L 197.597292 87.23987 
L 197.668915 87.23987 
L 197.883785 87.873124 
L 198.098655 87.873124 
L 198.241902 88.189751 
L 198.385149 88.189751 
L 198.528396 88.506379 
L 199.602747 88.506379 
L 199.745994 88.189751 
L 199.960864 88.189751 
L 200.104111 87.873124 
L 200.247357 87.873124 
L 200.390604 87.556497 
L 200.462228 87.556497 
L 200.605474 87.23987 
L 200.677098 87.23987 
L 200.820345 86.923243 
L 200.963591 86.923243 
L 201.106838 86.606616 
L 201.178462 86.606616 
L 201.321708 86.289989 
L 201.464955 86.289989 
L 201.608202 85.973722 
L 201.751449 85.973722 
L 201.894696 85.657095 
L 202.037942 85.657095 
L 202.181189 85.340467 
L 202.467683 85.340467 
L 202.61093 85.02384 
L 203.183917 85.02384 
L 203.327164 84.707213 
L 203.828527 84.707213 
L 203.971774 85.02384 
L 204.401515 85.02384 
L 204.544761 85.340467 
L 204.831255 85.340467 
L 204.974502 85.657095 
L 205.189372 85.657095 
L 205.332619 85.973722 
L 205.547489 85.973722 
L 205.690736 86.289989 
L 205.833983 86.289989 
L 205.977229 86.606616 
L 206.1921 86.606616 
L 206.335346 86.923243 
L 206.478593 86.923243 
L 206.62184 87.23987 
L 206.83671 87.23987 
L 206.979957 87.556497 
L 207.266451 87.556497 
L 207.409697 87.873124 
L 208.985412 87.873124 
L 209.128659 87.556497 
L 209.486776 87.556497 
L 209.630023 87.23987 
L 209.844893 87.23987 
L 209.98814 86.923243 
L 210.274633 86.923243 
L 210.41788 86.606616 
L 210.704374 86.606616 
L 210.847621 86.289989 
L 211.205738 86.289989 
L 211.348984 85.973722 
L 211.921972 85.973722 
L 212.065218 85.657095 
L 213.927427 85.657095 
L 214.070674 85.973722 
L 214.643661 85.973722 
L 214.786908 86.289989 
L 215.216648 86.289989 
L 215.359895 86.606616 
L 215.718012 86.606616 
L 215.861259 86.923243 
L 216.219376 86.923243 
L 216.362622 87.23987 
L 216.863986 87.23987 
L 217.007233 87.556497 
L 218.726195 87.556497 
L 218.869441 87.23987 
L 219.442429 87.23987 
L 219.585675 86.923243 
L 220.087039 86.923243 
L 220.230286 86.606616 
L 221.018143 86.606616 
L 221.16139 86.289989 
L 223.310092 86.289989 
L 223.453339 86.606616 
L 224.31282 86.606616 
L 224.456066 86.923243 
L 225.315547 86.923243 
L 225.458794 87.23987 
L 228.10886 87.23987 
L 228.252107 86.923243 
L 229.541328 86.923243 
L 229.684575 86.606616 
L 232.621134 86.606616 
L 232.764381 86.923243 
L 655.270815 86.923243 
L 655.414062 87.23987 
L 655.557308 87.23987 
L 655.700555 87.556497 
L 655.772179 87.556497 
L 656.488413 91.039035 
L 656.989776 96.420976 
L 657.419517 103.069786 
L 658.350621 125.864418 
L 659.353349 159.739919 
L 661.07231 224.008383 
L 662.146661 254.084719 
L 662.934518 269.28102 
L 663.579129 279.095381 
L 665.226467 310.121598 
L 666.658935 350.962175 
L 667.590039 376.606452 
L 668.163027 388.953397 
L 668.807637 398.451202 
L 669.165754 401.933741 
L 669.881988 404.783097 
L 669.953612 404.783097 
L 670.096858 405.099688 
L 670.383352 405.099688 
L 670.526599 404.783097 
L 670.669846 404.783097 
L 670.884716 404.149878 
L 671.027963 404.149878 
L 671.242833 403.516696 
L 671.457703 403.516696 
L 671.60095 403.200105 
L 672.102314 403.200105 
L 672.24556 403.516696 
L 672.317184 403.516696 
L 673.319911 408.265599 
L 675.325367 425.045057 
L 675.540237 426.311436 
L 675.898354 428.527574 
L 676.328094 430.110566 
L 676.399718 430.110566 
L 676.542964 430.427157 
L 676.686211 430.427157 
L 676.829458 430.743748 
L 677.044328 430.743748 
L 677.187575 430.427157 
L 677.259198 430.427157 
L 677.545692 429.477347 
L 677.617315 429.477347 
L 679.622771 420.929344 
L 679.694394 420.929344 
L 679.980888 419.979564 
L 680.052511 419.979564 
L 680.267381 419.346374 
L 680.482251 419.346374 
L 680.625498 419.029783 
L 681.055239 419.029783 
L 681.198485 419.346374 
L 681.270109 419.346374 
L 681.413356 419.662969 
L 681.484979 419.662969 
L 681.699849 420.296155 
L 681.771473 420.296155 
L 682.12959 421.56253 
L 682.201213 421.56253 
L 682.55933 422.828902 
L 682.630953 422.828902 
L 682.98907 424.095277 
L 683.060694 424.095277 
L 683.347187 425.045057 
L 683.418811 425.045057 
L 683.633681 425.678243 
L 683.705304 425.678243 
L 683.920175 426.311436 
L 684.063421 426.311436 
L 684.206668 426.628027 
L 684.278292 426.628027 
L 684.421538 426.944618 
L 685.424266 426.944618 
L 685.567513 426.628027 
L 685.639136 426.628027 
L 685.782383 426.311436 
L 685.92563 426.311436 
L 686.1405 425.678243 
L 686.212123 425.678243 
L 686.35537 425.361649 
L 686.426994 425.361649 
L 686.641864 424.728463 
L 686.713487 424.728463 
L 686.856734 424.411868 
L 686.928357 424.411868 
L 687.143228 423.778682 
L 687.214851 423.778682 
L 687.358098 423.462087 
L 687.429721 423.462087 
L 687.644591 422.828902 
L 687.716215 422.828902 
L 687.859462 422.512309 
L 687.931085 422.512309 
L 688.074332 422.195716 
L 688.217579 422.195716 
L 688.360825 421.879122 
L 688.504072 421.879122 
L 688.647319 421.56253 
L 689.864917 421.56253 
L 690.008164 421.879122 
L 690.15141 421.879122 
L 690.294657 422.195716 
L 690.437904 422.195716 
L 690.581151 422.512309 
L 690.652774 422.512309 
L 690.796021 422.828902 
L 690.867644 422.828902 
L 691.010891 423.145496 
L 691.082515 423.145496 
L 691.225761 423.462087 
L 691.369008 423.462087 
L 691.512255 423.778682 
L 691.583878 423.778682 
L 691.727125 424.095277 
L 691.870372 424.095277 
L 692.013619 424.411868 
L 692.156866 424.411868 
L 692.300112 424.728463 
L 692.443359 424.728463 
L 692.586606 425.045057 
L 692.8731 425.045057 
L 693.016346 425.361649 
L 694.448814 425.361649 
L 694.592061 425.045057 
L 694.950178 425.045057 
L 695.093425 424.728463 
L 695.308295 424.728463 
L 695.451542 424.411868 
L 695.594789 424.411868 
L 695.738035 424.095277 
L 695.881282 424.095277 
L 696.024529 423.778682 
L 696.239399 423.778682 
L 696.382646 423.462087 
L 696.597516 423.462087 
L 696.740763 423.145496 
L 696.88401 423.145496 
L 697.027257 422.828902 
L 697.242127 422.828902 
L 697.385374 422.512309 
L 697.886737 422.512309 
L 698.029984 422.195716 
L 699.032712 422.195716 
L 699.175959 422.512309 
L 699.534076 422.512309 
L 699.677322 422.828902 
L 699.963816 422.828902 
L 700.107063 423.145496 
L 700.321933 423.145496 
L 700.46518 423.462087 
L 700.751673 423.462087 
L 700.89492 423.778682 
L 701.253037 423.778682 
L 701.396284 424.095277 
L 701.826024 424.095277 
L 701.969271 424.411868 
L 702.542258 424.411868 
L 702.685505 424.728463 
L 704.26122 424.728463 
L 704.404467 424.411868 
L 705.049077 424.411868 
L 705.192324 424.095277 
L 705.622065 424.095277 
L 705.765311 423.778682 
L 706.195052 423.778682 
L 706.338299 423.462087 
L 706.696416 423.462087 
L 706.839662 423.145496 
L 707.341026 423.145496 
L 707.484273 422.828902 
L 709.704598 422.828902 
L 709.847845 423.145496 
L 710.349209 423.145496 
L 710.492456 423.462087 
L 711.20869 423.462087 
L 711.351937 423.778682 
L 715.43447 423.778682 
L 715.577717 423.462087 
L 716.437198 423.462087 
L 716.580445 423.145496 
L 719.875121 423.145496 
L 720.018368 423.462087 
L 747.163636 423.462087 
L 747.163636 423.462087 
" clip-path="url(#p39d8844bee)" style="fill: none; stroke-dasharray: 7.4,3.2; stroke-dashoffset: 0; stroke: #008000; stroke-width: 2"/>
   </g>
   <g id="line2d_23">
    <path d="M 138.436364 422.195716 
L 165.080268 422.090452 
L 165.223515 422.048104 
L 165.653255 420.835393 
L 166.082996 418.391183 
L 166.512736 414.087756 
L 167.0141 406.244985 
L 167.587087 393.458904 
L 168.446568 367.335292 
L 169.879036 313.366756 
L 171.096634 270.555093 
L 171.812868 252.228542 
L 172.600725 237.644602 
L 174.749427 200.01064 
L 175.608908 176.44227 
L 177.614363 121.55411 
L 178.258974 111.1137 
L 178.760338 106.147085 
L 179.118455 104.155467 
L 179.476572 103.222516 
L 179.834689 103.09356 
L 180.049559 103.231161 
L 180.407676 103.916646 
L 181.410403 105.446471 
L 181.76852 105.348493 
L 182.413131 103.3983 
L 182.914495 100.458963 
L 183.559105 95.453805 
L 184.991573 83.455473 
L 185.492937 80.467507 
L 185.994301 78.659599 
L 186.209171 78.300827 
L 186.424041 78.12 
L 186.853782 78.358461 
L 187.498392 80.315137 
L 188.859237 86.352305 
L 189.503848 88.807877 
L 189.790341 89.495163 
L 190.076835 89.985052 
L 190.506575 90.304922 
L 190.864692 90.185331 
L 192.51203 86.172199 
L 193.013394 84.743955 
L 193.514758 83.667639 
L 194.302615 82.700827 
L 194.660732 82.751617 
L 195.162096 83.007008 
L 196.021577 84.408597 
L 196.666187 85.731659 
L 198.027032 88.073763 
L 198.098655 88.095015 
L 198.313526 88.360492 
L 198.385149 88.37418 
L 198.600019 88.638216 
L 198.958136 88.615523 
L 199.67437 88.355449 
L 200.175734 87.821254 
L 200.247357 87.803603 
L 200.605474 87.208532 
L 200.748721 86.96971 
L 201.393332 86.152027 
L 201.464955 86.127893 
L 201.679825 85.838642 
L 201.751449 85.815948 
L 201.966319 85.524896 
L 202.037942 85.507966 
L 202.252813 85.24321 
L 202.539306 85.101646 
L 202.754176 84.959722 
L 203.25554 84.862105 
L 203.542034 84.689923 
L 203.828527 84.700369 
L 204.115021 85.0577 
L 204.473138 85.252215 
L 204.759632 85.447811 
L 204.831255 85.454295 
L 205.046125 85.740664 
L 205.260995 85.944905 
L 205.475866 86.118888 
L 205.547489 86.126812 
L 205.762359 86.423988 
L 205.833983 86.44524 
L 206.048853 86.730529 
L 206.335346 87.006812 
L 206.83671 87.386116 
L 207.05158 87.658798 
L 207.338074 87.822694 
L 207.624568 87.982629 
L 208.985412 87.871683 
L 209.271906 87.538126 
L 209.558399 87.361262 
L 210.059763 86.878937 
L 210.346257 86.696669 
L 210.63275 86.527369 
L 210.704374 86.526649 
L 210.919244 86.232355 
L 211.348984 85.975523 
L 211.635478 85.904201 
L 211.921972 85.939862 
L 212.136842 85.670422 
L 212.494959 85.628998 
L 213.99905 85.840443 
L 214.285544 86.046125 
L 214.715284 86.19021 
L 214.930154 86.384725 
L 215.288271 86.52881 
L 215.574765 86.704233 
L 215.718012 86.706035 
L 215.932882 86.981958 
L 216.290999 87.182596 
L 216.505869 87.34073 
L 216.93561 87.46032 
L 217.222103 87.634303 
L 218.153207 87.574868 
L 218.726195 87.56118 
L 219.012688 87.229784 
L 219.585675 86.977635 
L 219.872169 86.872453 
L 220.087039 86.881098 
L 220.301909 86.605535 
L 220.73165 86.54682 
L 221.018143 86.584283 
L 221.233014 86.310521 
L 221.591131 86.261532 
L 223.381715 86.464332 
L 223.668209 86.669653 
L 224.384443 86.795728 
L 224.670937 86.989162 
L 225.387171 87.119559 
L 225.673664 87.303267 
L 226.461522 87.270128 
L 228.180483 87.106951 
L 228.466977 86.902351 
L 229.183211 86.920361 
L 229.541328 86.933689 
L 229.827821 86.609858 
L 230.329185 86.576718 
L 231.761653 86.628229 
L 232.621134 86.627868 
L 232.907628 86.957103 
L 233.337368 86.980517 
L 235.414447 86.943055 
L 655.270815 87.000689 
L 655.700555 87.727238 
L 655.843802 88.008925 
L 656.273542 89.880591 
L 656.631659 92.685929 
L 656.989776 96.930317 
L 657.49114 105.410809 
L 658.064127 119.000561 
L 658.780361 141.376626 
L 659.783089 178.525742 
L 661.430427 237.915482 
L 662.289908 259.284752 
L 662.934518 270.862715 
L 664.510233 295.680303 
L 665.226467 311.564611 
L 666.229195 340.075101 
L 667.876533 385.136293 
L 668.44952 395.328553 
L 669.094131 402.394741 
L 669.452248 404.386898 
L 669.810365 405.303352 
L 670.168482 405.42125 
L 670.383352 405.28599 
L 670.741469 404.588546 
L 671.171209 403.735057 
L 671.38608 403.304747 
L 671.457703 403.284071 
L 671.672573 403.034875 
L 672.102314 403.162175 
L 672.746924 405.110098 
L 673.248288 408.060241 
L 673.821275 412.467482 
L 675.683484 427.799512 
L 676.328094 430.402338 
L 676.614588 430.80131 
L 676.686211 430.777752 
L 676.901081 430.92 
L 677.044328 430.86867 
L 677.760562 428.806415 
L 679.622771 420.663961 
L 680.482251 419.056334 
L 680.697122 418.849561 
L 681.055239 418.926607 
L 682.487707 422.647988 
L 683.060694 424.386768 
L 683.633681 425.819133 
L 684.063421 426.535849 
L 684.421538 427.066262 
L 684.636409 427.098862 
L 685.424266 426.893108 
L 685.854006 426.22585 
L 685.997253 426.014225 
L 686.212123 425.580564 
L 686.498617 424.982784 
L 686.713487 424.562945 
L 687.071604 423.872878 
L 687.429721 423.189251 
L 688.002708 422.128948 
L 688.432449 421.719536 
L 688.504072 421.706597 
L 688.718942 421.443253 
L 689.077059 421.465064 
L 689.93654 421.718517 
L 692.085242 424.569901 
L 692.156866 424.585325 
L 692.371736 424.844534 
L 692.443359 424.859321 
L 692.658229 425.131296 
L 692.944723 425.282769 
L 693.159593 425.42778 
L 693.73258 425.372304 
L 694.520438 425.1753 
L 694.806931 424.965472 
L 694.950178 424.951582 
L 695.165048 424.663952 
L 695.379918 424.470017 
L 696.167776 423.606072 
L 696.239399 423.601936 
L 696.454269 423.341856 
L 696.597516 423.318146 
L 696.812386 423.025812 
L 696.88401 423.005006 
L 697.09888 422.721068 
L 697.31375 422.551786 
L 697.52862 422.398903 
L 697.958361 422.291445 
L 698.244854 422.125498 
L 699.032712 422.188141 
L 699.319205 422.530914 
L 699.605699 422.712805 
L 699.892193 422.904175 
L 699.963816 422.909514 
L 700.178686 423.192666 
L 700.393556 423.378921 
L 700.608427 423.545934 
L 700.751673 423.557115 
L 701.038167 423.875259 
L 701.253037 423.871556 
L 701.467907 424.153293 
L 702.613882 424.583913 
L 702.900375 424.764808 
L 703.759856 424.717314 
L 704.26122 424.703125 
L 704.547714 424.37089 
L 704.977454 424.345416 
L 705.049077 424.349998 
L 705.263948 424.046083 
L 706.266675 423.549367 
L 706.553169 423.374801 
L 706.696416 423.372902 
L 706.911286 423.097217 
L 707.269403 423.062464 
L 707.341026 423.069913 
L 707.555896 422.776296 
L 707.914013 422.7512 
L 709.418105 422.827018 
L 709.704598 422.828008 
L 709.991092 423.157563 
L 710.420832 423.325088 
L 710.707326 423.511329 
L 711.280313 423.646776 
L 711.566807 423.826472 
L 712.641158 423.766907 
L 715.506094 423.617357 
L 715.792587 423.41169 
L 716.580445 423.19499 
L 716.866938 423.083212 
L 719.875121 423.135461 
L 720.161615 423.464335 
L 720.591355 423.48759 
L 722.883304 423.441271 
L 747.163636 423.440997 
L 747.163636 423.440997 
" clip-path="url(#p39d8844bee)" style="fill: none; stroke-dasharray: 2,3.3; stroke-dashoffset: 0; stroke: #0000ff; stroke-width: 2"/>
   </g>
   <g id="patch_3">
    <path d="M 108 448.56 
L 108 60.48 
" style="fill: none; stroke: #000000; stroke-width: 0.8; stroke-linejoin: miter; stroke-linecap: square"/>
   </g>
   <g id="patch_4">
    <path d="M 777.6 448.56 
L 777.6 60.48 
" style="fill: none; stroke: #000000; stroke-width: 0.8; stroke-linejoin: miter; stroke-linecap: square"/>
   </g>
   <g id="patch_5">
    <path d="M 108 448.56 
L 777.6 448.56 
" style="fill: none; stroke: #000000; stroke-width: 0.8; stroke-linejoin: miter; stroke-linecap: square"/>
   </g>
   <g id="patch_6">
    <path d="M 108 60.48 
L 777.6 60.48 
" style="fill: none; stroke: #000000; stroke-width: 0.8; stroke-linejoin: miter; stroke-linecap: square"/>
   </g>
   <g id="text_13">
    <!-- \textbf{allgemein quadratische Trajektorie - offener Regelkreis} -->
    <g transform="translate(144.662986 54.48) scale(0.24 -0.24)">
     <defs>
      <path id="CMSSBX10-61" d="M 2970 2050 
C 2970 3072 1997 3072 1677 3072 
C 1376 3072 1056 3046 627 2868 
C 493 2811 461 2792 461 2722 
C 461 2677 499 2300 506 2248 
C 512 2209 544 2177 589 2177 
C 621 2177 640 2196 659 2216 
C 934 2508 1254 2651 1651 2651 
C 1997 2651 2099 2435 2099 2049 
L 2099 1820 
C 1875 1820 198 1820 198 868 
C 198 415 557 -64 1120 -64 
C 1338 -64 1818 1 2118 447 
L 2118 317 
C 2118 110 2163 7 2426 7 
L 2662 7 
C 2906 7 2970 91 2970 317 
L 2970 2050 
z
M 2099 988 
C 2099 402 1491 402 1472 402 
C 1203 402 1030 639 1030 889 
C 1030 1536 1920 1536 2099 1536 
L 2099 988 
z
" transform="scale(0.015625)"/>
      <path id="CMSSBX10-6c" d="M 1242 4170 
C 1242 4377 1197 4480 934 4480 
L 698 4480 
C 467 4480 390 4409 390 4170 
L 390 302 
C 390 70 461 -8 698 -8 
L 934 -8 
C 1178 -8 1242 76 1242 302 
L 1242 4170 
z
" transform="scale(0.015625)"/>
      <path id="CMSSBX10-67" d="M 1280 577 
C 1050 577 960 577 870 656 
C 845 681 736 779 736 949 
C 736 994 742 1007 749 1046 
C 1050 878 1427 878 1562 878 
C 1830 878 2848 878 2848 1950 
C 2848 2326 2707 2553 2650 2624 
C 2758 2624 2982 2624 3245 2553 
C 3270 2540 3315 2527 3334 2527 
C 3386 2527 3418 2566 3418 2611 
C 3418 2637 3386 2792 3373 2857 
C 3347 3012 3347 3025 3232 3025 
C 3034 3025 2714 2948 2470 2799 
C 2170 2999 1837 3025 1562 3025 
C 1293 3025 275 3025 275 1954 
C 275 1694 346 1370 589 1156 
C 416 915 416 663 416 630 
C 416 507 454 293 589 118 
C 493 79 160 -37 160 -451 
C 160 -652 256 -988 659 -1176 
C 1024 -1344 1453 -1344 1754 -1344 
C 2131 -1344 3354 -1344 3354 -429 
C 3354 577 2451 577 1587 577 
L 1280 577 
z
M 1562 1344 
C 1114 1344 1094 1591 1094 1949 
C 1094 2306 1114 2560 1562 2560 
C 2010 2560 2029 2313 2029 1955 
C 2029 1597 2010 1344 1562 1344 
z
M 1907 -128 
C 2426 -128 2694 -217 2694 -448 
C 2694 -879 1965 -879 1760 -879 
C 1504 -879 819 -879 819 -430 
C 819 -128 1018 -128 1165 -128 
L 1907 -128 
z
" transform="scale(0.015625)"/>
      <path id="CMSSBX10-65" d="M 2758 1385 
C 2906 1385 3066 1385 3066 1678 
C 3066 2514 2682 3072 1728 3072 
C 704 3072 198 2491 198 1510 
C 198 452 806 -64 1811 -64 
C 2054 -64 2419 -32 2842 182 
C 2982 253 3027 272 3027 350 
C 3027 395 3008 582 3002 633 
C 2976 833 2970 839 2912 839 
C 2886 839 2874 839 2803 775 
C 2426 447 2042 402 1837 402 
C 1114 402 1037 974 1018 1385 
L 2758 1385 
z
M 1024 1728 
C 1043 2122 1171 2606 1728 2606 
C 2240 2606 2336 2231 2355 1728 
L 1024 1728 
z
" transform="scale(0.015625)"/>
      <path id="CMSSBX10-6d" d="M 5158 2096 
C 5158 2761 4877 3025 4224 3025 
C 3770 3025 3418 2812 3187 2386 
C 3085 3012 2541 3012 2272 3012 
C 2150 3012 1882 3012 1594 2803 
C 1395 2658 1267 2455 1222 2360 
L 1216 2360 
L 1216 2687 
C 1216 2896 1171 3001 909 3001 
L 691 3001 
C 461 3001 384 2930 384 2690 
L 384 310 
C 384 78 454 0 691 0 
L 947 0 
C 1190 0 1254 84 1254 309 
L 1254 1735 
C 1254 2315 1645 2560 1958 2560 
C 2266 2560 2336 2424 2336 2082 
L 2336 309 
C 2336 78 2406 0 2643 0 
L 2899 0 
C 3142 0 3206 84 3206 309 
L 3206 1735 
C 3206 2315 3597 2560 3910 2560 
C 4218 2560 4288 2424 4288 2082 
L 4288 309 
C 4288 78 4358 0 4595 0 
L 4851 0 
C 5094 0 5158 84 5158 309 
L 5158 2096 
z
" transform="scale(0.015625)"/>
      <path id="CMSSBX10-69" d="M 653 4480 
C 448 4480 346 4441 346 4182 
L 346 3885 
C 346 3678 410 3594 646 3594 
L 979 3594 
C 1286 3594 1286 3730 1286 4034 
C 1286 4344 1286 4480 979 4480 
L 653 4480 
z
M 1242 2634 
C 1242 2841 1197 2944 934 2944 
L 698 2944 
C 467 2944 390 2873 390 2634 
L 390 292 
C 390 60 461 -18 698 -18 
L 934 -18 
C 1178 -18 1242 66 1242 292 
L 1242 2634 
z
" transform="scale(0.015625)"/>
      <path id="CMSSBX10-6e" d="M 3200 2096 
C 3200 2761 2918 3025 2266 3025 
C 1594 3025 1306 2535 1222 2360 
L 1216 2360 
L 1216 2687 
C 1216 2896 1171 3001 909 3001 
L 691 3001 
C 461 3001 384 2930 384 2690 
L 384 310 
C 384 78 454 0 691 0 
L 947 0 
C 1190 0 1254 84 1254 309 
L 1254 1735 
C 1254 2295 1626 2560 1958 2560 
C 2266 2560 2330 2411 2330 2082 
L 2330 309 
C 2330 103 2374 0 2637 0 
L 2893 0 
C 3136 0 3200 84 3200 309 
L 3200 2096 
z
" transform="scale(0.015625)"/>
      <path id="CMSSBX10-71" d="M 3194 2698 
C 3194 2905 3149 3008 2886 3008 
L 2650 3008 
C 2406 3008 2342 2924 2342 2698 
L 2342 2575 
C 2061 3008 1683 3008 1574 3008 
C 339 3008 237 1972 237 1457 
C 237 954 339 -82 1530 -82 
C 1869 -82 2106 47 2323 300 
L 2323 -966 
C 2323 -1175 2368 -1280 2630 -1280 
L 2886 -1280 
C 3130 -1280 3194 -1196 3194 -969 
L 3194 2698 
z
M 2342 731 
C 2227 570 2054 384 1760 384 
C 1107 384 1107 1200 1107 1450 
C 1107 1707 1107 2504 1824 2504 
C 1926 2504 2061 2478 2176 2356 
C 2342 2195 2342 2080 2342 2002 
L 2342 731 
z
" transform="scale(0.015625)"/>
      <path id="CMSSBX10-75" d="M 3200 2652 
C 3200 2859 3155 2962 2893 2962 
L 2637 2962 
C 2394 2962 2330 2878 2330 2653 
L 2330 1124 
C 2330 698 2106 330 1651 330 
C 1293 330 1254 421 1254 763 
L 1254 2653 
C 1254 2859 1210 2962 947 2962 
L 691 2962 
C 461 2962 384 2891 384 2653 
L 384 820 
C 384 130 755 -64 1421 -64 
C 1594 -64 2048 -64 2349 485 
L 2349 314 
C 2349 104 2394 0 2656 0 
L 2893 0 
C 3136 0 3200 84 3200 310 
L 3200 2652 
z
" transform="scale(0.015625)"/>
      <path id="CMSSBX10-64" d="M 3194 4170 
C 3194 4377 3149 4480 2886 4480 
L 2650 4480 
C 2406 4480 2342 4396 2342 4170 
L 2342 2702 
C 2054 2980 1734 3025 1536 3025 
C 237 3025 237 1782 237 1465 
C 237 1167 237 -82 1504 -82 
C 1773 -82 2048 -5 2323 294 
C 2323 57 2413 -8 2630 -8 
L 2886 -8 
C 3130 -8 3194 76 3194 302 
L 3194 4170 
z
M 2323 798 
C 2323 687 2323 629 2138 500 
C 1978 396 1830 384 1754 384 
C 1107 384 1107 980 1107 1465 
C 1107 1951 1107 2560 1824 2560 
C 2010 2560 2182 2495 2323 2359 
L 2323 798 
z
" transform="scale(0.015625)"/>
      <path id="CMSSBX10-72" d="M 1242 1496 
C 1242 2115 1747 2368 2150 2368 
C 2266 2368 2278 2368 2278 2555 
L 2278 2860 
C 2278 2989 2278 3034 2163 3034 
C 1984 3034 1517 2970 1216 2271 
L 1210 2271 
L 1210 2690 
C 1210 2897 1165 3001 902 3001 
L 698 3001 
C 467 3001 390 2930 390 2690 
L 390 310 
C 390 78 461 0 698 0 
L 934 0 
C 1178 0 1242 84 1242 312 
L 1242 1496 
z
" transform="scale(0.015625)"/>
      <path id="CMSSBX10-74" d="M 1395 2496 
L 1965 2496 
C 2042 2496 2272 2496 2272 2729 
C 2272 2962 2042 2962 1965 2962 
L 1395 2962 
L 1395 3498 
C 1395 3705 1350 3808 1088 3808 
L 890 3808 
C 659 3808 582 3737 582 3498 
L 582 2962 
L 435 2962 
C 365 2962 128 2962 128 2729 
C 128 2496 358 2496 435 2496 
L 563 2496 
L 563 864 
C 563 213 794 -64 1235 -64 
C 1293 -64 1574 -64 1907 39 
C 2016 72 2387 188 2387 311 
C 2387 330 2374 376 2336 510 
C 2304 639 2291 678 2234 678 
C 2202 678 2195 671 2157 632 
C 2086 582 1914 440 1645 440 
C 1491 440 1395 550 1395 975 
L 1395 2496 
z
" transform="scale(0.015625)"/>
      <path id="CMSSBX10-73" d="M 2534 902 
C 2534 1267 2342 1496 2227 1600 
C 1971 1836 1747 1875 1478 1927 
C 1126 1992 870 2045 870 2299 
C 870 2566 1082 2619 1331 2619 
C 1760 2619 1990 2456 2157 2313 
C 2221 2248 2234 2248 2259 2248 
C 2323 2248 2336 2306 2342 2332 
C 2355 2384 2419 2747 2419 2779 
C 2419 2884 2080 2975 2010 3000 
C 1754 3072 1549 3072 1382 3072 
C 1094 3072 237 3072 237 2145 
C 237 1827 378 1633 550 1477 
C 774 1270 1024 1225 1389 1154 
C 1574 1121 1901 1062 1901 778 
C 1901 473 1651 427 1402 427 
C 1120 427 762 512 461 877 
C 429 909 410 928 371 928 
C 307 928 294 871 288 832 
C 275 743 198 378 198 313 
C 198 198 672 51 678 45 
C 1030 -64 1293 -64 1402 -64 
C 1728 -64 2534 -64 2534 902 
z
" transform="scale(0.015625)"/>
      <path id="CMSSBX10-63" d="M 2925 330 
C 2925 402 2899 698 2886 782 
C 2886 801 2874 866 2810 866 
C 2784 866 2771 866 2707 801 
C 2598 704 2298 440 1773 440 
C 1107 440 1107 1092 1107 1503 
C 1107 2026 1139 2568 1792 2568 
C 2208 2568 2381 2464 2611 2271 
C 2688 2200 2701 2200 2726 2200 
C 2790 2200 2803 2258 2810 2284 
C 2822 2336 2886 2697 2886 2729 
C 2886 2787 2842 2813 2733 2865 
C 2426 3007 2234 3072 1786 3072 
C 832 3072 237 2620 237 1491 
C 237 420 787 -64 1754 -64 
C 1926 -64 2310 -64 2739 159 
C 2918 258 2925 265 2925 330 
z
" transform="scale(0.015625)"/>
      <path id="CMSSBX10-68" d="M 3200 2094 
C 3200 2760 2918 3025 2266 3025 
C 1626 3025 1331 2579 1242 2398 
L 1235 2398 
L 1235 4170 
C 1235 4377 1190 4480 928 4480 
L 691 4480 
C 461 4480 384 4409 384 4170 
L 384 302 
C 384 70 454 -8 691 -8 
L 947 -8 
C 1190 -8 1254 76 1254 302 
L 1254 1732 
C 1254 2294 1626 2560 1958 2560 
C 2266 2560 2330 2411 2330 2081 
L 2330 302 
C 2330 95 2374 -8 2637 -8 
L 2893 -8 
C 3136 -8 3200 76 3200 302 
L 3200 2094 
z
" transform="scale(0.015625)"/>
      <path id="CMSSBX10-54" d="M 1875 3776 
L 1875 308 
C 1875 78 1946 0 2182 0 
L 2509 0 
C 2752 0 2816 84 2816 308 
L 2816 3776 
C 3098 3776 3814 3776 4096 3776 
C 4275 3776 4429 3776 4429 4083 
L 4429 4135 
C 4429 4340 4384 4443 4122 4443 
L 563 4443 
C 333 4443 256 4372 256 4135 
L 256 4083 
C 256 3776 410 3776 589 3776 
L 1875 3776 
z
" transform="scale(0.015625)"/>
      <path id="CMSSBX10-6a" d="M 1434 4169 
C 1434 4376 1389 4480 1126 4480 
L 800 4480 
C 557 4480 493 4396 493 4169 
L 493 3904 
C 493 3697 538 3594 800 3594 
L 1126 3594 
C 1370 3594 1434 3678 1434 3904 
L 1434 4169 
z
M 582 -374 
C 582 -542 582 -801 186 -801 
C 109 -801 -64 -781 -198 -704 
C -262 -658 -275 -658 -294 -658 
C -358 -658 -365 -704 -397 -826 
C -442 -969 -454 -1020 -454 -1040 
C -454 -1163 77 -1344 480 -1344 
C 1184 -1344 1434 -865 1434 -224 
L 1434 2637 
C 1434 2844 1389 2947 1126 2947 
L 890 2947 
C 646 2947 582 2863 582 2637 
L 582 -374 
z
" transform="scale(0.015625)"/>
      <path id="CMSSBX10-6b" d="M 2003 1751 
L 2989 2676 
C 3066 2747 3085 2766 3085 2818 
C 3085 2954 2957 2954 2867 2954 
L 2496 2954 
C 2381 2954 2259 2954 2112 2818 
L 1190 1952 
L 1190 4170 
C 1190 4377 1146 4480 883 4480 
L 749 4480 
C 518 4480 442 4409 442 4170 
L 442 302 
C 442 70 512 -8 749 -8 
L 864 -8 
C 1107 -8 1171 76 1171 302 
L 1171 975 
L 1472 1253 
L 2304 154 
C 2413 11 2458 -8 2643 -8 
L 2950 -8 
C 3040 -8 3181 -8 3181 134 
C 3181 147 3181 192 3117 277 
L 2003 1751 
z
" transform="scale(0.015625)"/>
      <path id="CMSSBX10-6f" d="M 3315 1459 
C 3315 2517 2803 3072 1760 3072 
C 691 3072 198 2497 198 1459 
C 198 407 749 -64 1754 -64 
C 2758 -64 3315 401 3315 1459 
z
M 1760 440 
C 1069 440 1069 1020 1069 1536 
C 1069 2033 1069 2606 1754 2606 
C 2445 2606 2445 2039 2445 1536 
C 2445 1027 2445 440 1760 440 
z
" transform="scale(0.015625)"/>
      <path id="CMSSBX10-2d" d="M 1645 1280 
C 1722 1280 1952 1280 1952 1513 
C 1952 1746 1722 1746 1645 1746 
L 384 1746 
C 307 1746 77 1746 77 1513 
C 77 1280 307 1280 384 1280 
L 1645 1280 
z
" transform="scale(0.015625)"/>
      <path id="CMSSBX10-b" d="M 1402 2496 
L 1715 2496 
C 1792 2496 2022 2496 2022 2729 
C 2022 2962 1792 2962 1715 2962 
L 1382 2962 
L 1382 3668 
C 1382 3837 1382 4096 1805 4096 
C 2010 4096 2138 4038 2266 3915 
C 2310 3863 2330 3850 2362 3850 
C 2445 3850 2445 3915 2445 4018 
L 2445 4316 
C 2445 4471 2438 4477 2221 4523 
C 2035 4561 1901 4561 1805 4561 
C 1261 4561 550 4413 550 3480 
L 550 2962 
C 416 2962 192 2962 192 2729 
C 192 2496 410 2496 550 2496 
L 550 310 
C 550 78 621 0 858 0 
L 1094 0 
C 1338 0 1402 84 1402 310 
L 1402 2496 
z
M 3354 2496 
L 3667 2496 
C 3744 2496 3974 2496 3974 2729 
C 3974 2962 3744 2962 3667 2962 
L 3334 2962 
L 3334 3668 
C 3334 3837 3334 4096 3757 4096 
C 3962 4096 4090 4038 4218 3915 
C 4262 3863 4282 3850 4314 3850 
C 4397 3850 4397 3915 4397 4018 
L 4397 4316 
C 4397 4471 4390 4477 4173 4523 
C 3987 4561 3853 4561 3757 4561 
C 3213 4561 2502 4413 2502 3481 
L 2502 310 
C 2502 103 2547 0 2810 0 
L 3046 0 
C 3290 0 3354 84 3354 310 
L 3354 2496 
z
" transform="scale(0.015625)"/>
      <path id="CMSSBX10-52" d="M 3091 2059 
C 3494 2156 4102 2402 4102 3205 
C 4102 4480 2714 4480 2426 4480 
L 890 4480 
C 659 4480 582 4409 582 4170 
L 582 298 
C 582 66 653 -12 890 -12 
L 1197 -12 
C 1440 -12 1504 71 1504 296 
L 1504 1984 
L 2214 1984 
L 3264 142 
C 3354 -12 3424 -12 3565 -12 
L 3942 -12 
C 4070 -12 4179 -12 4179 181 
L 3091 2059 
z
M 1504 2450 
L 1504 3924 
L 2336 3924 
C 3078 3924 3213 3623 3213 3191 
C 3213 2804 3123 2450 2336 2450 
L 1504 2450 
z
" transform="scale(0.015625)"/>
     </defs>
     <use xlink:href="#CMSSBX10-61" transform="scale(0.996264)"/>
     <use xlink:href="#CMSSBX10-6c" transform="translate(52.304195 0) scale(0.996264)"/>
     <use xlink:href="#CMSSBX10-6c" transform="translate(77.764414 0) scale(0.996264)"/>
     <use xlink:href="#CMSSBX10-67" transform="translate(103.224632 0) scale(0.996264)"/>
     <use xlink:href="#CMSSBX10-65" transform="translate(158.019457 0) scale(0.996264)"/>
     <use xlink:href="#CMSSBX10-6d" transform="translate(208.93991 0) scale(0.996264)"/>
     <use xlink:href="#CMSSBX10-65" transform="translate(295.283267 0) scale(0.996264)"/>
     <use xlink:href="#CMSSBX10-69" transform="translate(346.20372 0) scale(0.996264)"/>
     <use xlink:href="#CMSSBX10-6e" transform="translate(371.663938 0) scale(0.996264)"/>
     <use xlink:href="#CMSSBX10-71" transform="translate(464.095609 0) scale(0.996264)"/>
     <use xlink:href="#CMSSBX10-75" transform="translate(519.997397 0) scale(0.996264)"/>
     <use xlink:href="#CMSSBX10-61" transform="translate(575.899185 0) scale(0.996264)"/>
     <use xlink:href="#CMSSBX10-64" transform="translate(628.20338 0) scale(0.996264)"/>
     <use xlink:href="#CMSSBX10-72" transform="translate(684.105168 0) scale(0.996264)"/>
     <use xlink:href="#CMSSBX10-61" transform="translate(721.188579 0) scale(0.996264)"/>
     <use xlink:href="#CMSSBX10-74" transform="translate(773.492774 0) scale(0.996264)"/>
     <use xlink:href="#CMSSBX10-69" transform="translate(813.758677 0) scale(0.996264)"/>
     <use xlink:href="#CMSSBX10-73" transform="translate(839.218896 0) scale(0.996264)"/>
     <use xlink:href="#CMSSBX10-63" transform="translate(881.228261 0) scale(0.996264)"/>
     <use xlink:href="#CMSSBX10-68" transform="translate(929.934772 0) scale(0.996264)"/>
     <use xlink:href="#CMSSBX10-65" transform="translate(985.83656 0) scale(0.996264)"/>
     <use xlink:href="#CMSSBX10-54" transform="translate(1073.286896 0) scale(0.996264)"/>
     <use xlink:href="#CMSSBX10-72" transform="translate(1137.214191 0) scale(0.996264)"/>
     <use xlink:href="#CMSSBX10-61" transform="translate(1174.297602 0) scale(0.996264)"/>
     <use xlink:href="#CMSSBX10-6a" transform="translate(1226.601797 0) scale(0.996264)"/>
     <use xlink:href="#CMSSBX10-65" transform="translate(1255.106172 0) scale(0.996264)"/>
     <use xlink:href="#CMSSBX10-6b" transform="translate(1306.026625 0) scale(0.996264)"/>
     <use xlink:href="#CMSSBX10-74" transform="translate(1358.884256 0) scale(0.996264)"/>
     <use xlink:href="#CMSSBX10-6f" transform="translate(1399.15016 0) scale(0.996264)"/>
     <use xlink:href="#CMSSBX10-72" transform="translate(1450.900827 0) scale(0.996264)"/>
     <use xlink:href="#CMSSBX10-69" transform="translate(1487.984238 0) scale(0.996264)"/>
     <use xlink:href="#CMSSBX10-65" transform="translate(1513.444456 0) scale(0.996264)"/>
     <use xlink:href="#CMSSBX10-2d" transform="translate(1600.894792 0) scale(0.996264)"/>
     <use xlink:href="#CMSSBX10-6f" transform="translate(1673.954558 0) scale(0.996264)"/>
     <use xlink:href="#CMSSBX10-b" transform="translate(1728.749383 0) scale(0.996264)"/>
     <use xlink:href="#CMSSBX10-65" transform="translate(1792.676678 0) scale(0.996264)"/>
     <use xlink:href="#CMSSBX10-6e" transform="translate(1843.597131 0) scale(0.996264)"/>
     <use xlink:href="#CMSSBX10-65" transform="translate(1899.498919 0) scale(0.996264)"/>
     <use xlink:href="#CMSSBX10-72" transform="translate(1950.419372 0) scale(0.996264)"/>
     <use xlink:href="#CMSSBX10-52" transform="translate(2024.032665 0) scale(0.996264)"/>
     <use xlink:href="#CMSSBX10-65" transform="translate(2094.048274 0) scale(0.996264)"/>
     <use xlink:href="#CMSSBX10-67" transform="translate(2144.968727 0) scale(0.996264)"/>
     <use xlink:href="#CMSSBX10-65" transform="translate(2199.763551 0) scale(0.996264)"/>
     <use xlink:href="#CMSSBX10-6c" transform="translate(2250.684004 0) scale(0.996264)"/>
     <use xlink:href="#CMSSBX10-6b" transform="translate(2276.144223 0) scale(0.996264)"/>
     <use xlink:href="#CMSSBX10-72" transform="translate(2329.001854 0) scale(0.996264)"/>
     <use xlink:href="#CMSSBX10-65" transform="translate(2366.085264 0) scale(0.996264)"/>
     <use xlink:href="#CMSSBX10-69" transform="translate(2417.005717 0) scale(0.996264)"/>
     <use xlink:href="#CMSSBX10-73" transform="translate(2442.465936 0) scale(0.996264)"/>
    </g>
   </g>
   <g id="legend_1">
    <g id="patch_7">
     <path d="M 291.941262 438.56 
L 593.658738 438.56 
Q 597.658738 438.56 597.658738 434.56 
L 597.658738 352.933099 
Q 597.658738 348.933099 593.658738 348.933099 
L 291.941262 348.933099 
Q 287.941262 348.933099 287.941262 352.933099 
L 287.941262 434.56 
Q 287.941262 438.56 291.941262 438.56 
z
" style="fill: #ffffff; opacity: 0.8; stroke: #cccccc; stroke-linejoin: miter"/>
    </g>
    <g id="line2d_24">
     <path d="M 295.941262 363.933099 
L 315.941262 363.933099 
L 335.941262 363.933099 
" style="fill: none; stroke: #ff0000; stroke-width: 2; stroke-linecap: square"/>
    </g>
    <g id="text_14">
     <!-- Referenzwert der Vorbereitung -->
     <g transform="translate(351.941262 370.933099) scale(0.2 -0.2)">
      <defs>
       <path id="CMSS17-52" d="M 2522 2109 
L 2534 2115 
C 3533 2459 3539 3147 3539 3268 
C 3539 3873 2925 4453 2003 4453 
L 570 4453 
L 570 32 
L 1094 32 
L 1094 2048 
L 2035 2048 
L 3168 32 
L 3706 32 
L 2522 2109 
z
M 1094 2437 
L 1094 4096 
L 1933 4096 
C 2746 4096 3034 3637 3034 3267 
C 3034 2922 2778 2437 1933 2437 
L 1094 2437 
z
" transform="scale(0.015625)"/>
       <path id="CMSS17-66" d="M 1075 2368 
L 1722 2368 
L 1722 2737 
L 1062 2737 
L 1062 3559 
C 1062 4014 1408 4092 1606 4092 
C 1670 4092 1850 4092 2080 4009 
L 2080 4429 
C 1933 4461 1754 4480 1613 4480 
C 1018 4480 602 3993 602 3359 
L 602 2737 
L 160 2737 
L 160 2368 
L 602 2368 
L 602 0 
L 1075 0 
L 1075 2368 
z
" transform="scale(0.015625)"/>
       <path id="CMSS17-72" d="M 954 1363 
C 954 1965 1395 2368 1958 2368 
L 1958 2789 
C 1549 2789 1165 2585 934 2253 
L 934 2758 
L 480 2758 
L 480 0 
L 954 0 
L 954 1363 
z
" transform="scale(0.015625)"/>
       <path id="CMSS17-7a" d="M 2400 2502 
L 2400 2750 
L 250 2750 
L 250 2368 
L 1069 2368 
C 1146 2368 1222 2368 1299 2368 
L 1747 2368 
L 166 261 
L 166 0 
L 2419 0 
L 2419 395 
L 1549 395 
C 1472 395 1395 395 1318 395 
L 826 395 
L 2400 2502 
z
" transform="scale(0.015625)"/>
       <path id="CMSS17-77" d="M 4013 2752 
L 3526 2752 
L 3187 1601 
C 3117 1358 2918 685 2893 371 
L 2886 371 
C 2874 564 2765 1024 2586 1633 
L 2259 2752 
L 1818 2752 
L 1498 1658 
C 1338 1101 1216 627 1203 371 
L 1197 371 
C 1171 749 909 1633 870 1773 
L 582 2752 
L 83 2752 
L 915 0 
L 1402 0 
C 1734 1096 1990 1943 2010 2370 
C 2022 2160 2131 1707 2195 1484 
L 2618 0 
L 3181 0 
L 4013 2752 
z
" transform="scale(0.015625)"/>
       <path id="CMSS17-64" d="M 2611 4416 
L 2138 4416 
L 2138 2438 
C 1939 2603 1613 2756 1254 2756 
C 672 2756 211 2131 211 1347 
C 211 562 666 -64 1235 -64 
C 1677 -64 1971 172 2125 306 
L 2125 -13 
L 2611 -13 
L 2611 4416 
z
M 2125 836 
C 2125 747 2125 653 1926 482 
C 1798 375 1645 325 1498 325 
C 1152 325 698 576 698 1340 
C 698 2134 1210 2368 1562 2368 
C 1798 2368 1990 2254 2125 2065 
L 2125 836 
z
" transform="scale(0.015625)"/>
       <path id="CMSS17-56" d="M 3910 4416 
L 3411 4416 
L 2304 1362 
C 2272 1273 2074 688 2035 484 
L 2029 484 
C 1978 726 1773 1292 1664 1604 
L 922 3672 
L 646 4416 
L 83 4416 
L 1715 0 
L 2278 0 
L 3910 4416 
z
" transform="scale(0.015625)"/>
       <path id="CMSS17-6f" d="M 2829 1356 
C 2829 2176 2221 2816 1504 2816 
C 768 2816 173 2157 173 1356 
C 173 544 787 -64 1498 -64 
C 2227 -64 2829 563 2829 1356 
z
M 1504 337 
C 1050 337 659 709 659 1408 
C 659 2151 1114 2427 1498 2427 
C 1914 2427 2342 2126 2342 1408 
C 2342 683 1926 337 1504 337 
z
" transform="scale(0.015625)"/>
       <path id="CMSS17-62" d="M 954 4416 
L 480 4416 
L 480 -13 
L 966 -13 
L 966 274 
C 1210 38 1504 -64 1766 -64 
C 2381 -64 2880 549 2880 1352 
C 2880 2086 2496 2756 1926 2756 
C 1523 2756 1165 2591 954 2419 
L 954 4416 
z
M 966 2046 
C 1107 2222 1306 2368 1587 2368 
C 1965 2368 2394 2097 2394 1352 
C 2394 558 1882 325 1530 325 
C 1402 325 1267 356 1139 464 
C 966 615 966 709 966 797 
L 966 2046 
z
" transform="scale(0.015625)"/>
      </defs>
      <use xlink:href="#CMSS17-52" transform="scale(0.996264)"/>
      <use xlink:href="#CMSS17-65" transform="translate(60.416155 0) scale(0.996264)"/>
      <use xlink:href="#CMSS17-66" transform="translate(102.054977 0) scale(0.996264)"/>
      <use xlink:href="#CMSS17-65" transform="translate(130.681636 0) scale(0.996264)"/>
      <use xlink:href="#CMSS17-72" transform="translate(172.320458 0) scale(0.996264)"/>
      <use xlink:href="#CMSS17-65" transform="translate(204.23023 0) scale(0.996264)"/>
      <use xlink:href="#CMSS17-6e" transform="translate(245.869052 0) scale(0.996264)"/>
      <use xlink:href="#CMSS17-7a" transform="translate(294.073996 0) scale(0.996264)"/>
      <use xlink:href="#CMSS17-77" transform="translate(334.751867 0) scale(0.996264)"/>
      <use xlink:href="#CMSS17-65" transform="translate(395.968959 0) scale(0.996264)"/>
      <use xlink:href="#CMSS17-72" transform="translate(437.607781 0) scale(0.996264)"/>
      <use xlink:href="#CMSS17-74" transform="translate(469.517553 0) scale(0.996264)"/>
      <use xlink:href="#CMSS17-64" transform="translate(534.578233 0) scale(0.996264)"/>
      <use xlink:href="#CMSS17-65" transform="translate(582.783176 0) scale(0.996264)"/>
      <use xlink:href="#CMSS17-72" transform="translate(624.421998 0) scale(0.996264)"/>
      <use xlink:href="#CMSS17-56" transform="translate(687.560883 0) scale(0.996264)"/>
      <use xlink:href="#CMSS17-6f" transform="translate(747.176284 0) scale(0.996264)"/>
      <use xlink:href="#CMSS17-72" transform="translate(791.417454 0) scale(0.996264)"/>
      <use xlink:href="#CMSS17-62" transform="translate(823.327226 0) scale(0.996264)"/>
      <use xlink:href="#CMSS17-65" transform="translate(874.134608 0) scale(0.996264)"/>
      <use xlink:href="#CMSS17-72" transform="translate(915.77343 0) scale(0.996264)"/>
      <use xlink:href="#CMSS17-65" transform="translate(947.683203 0) scale(0.996264)"/>
      <use xlink:href="#CMSS17-69" transform="translate(989.322025 0) scale(0.996264)"/>
      <use xlink:href="#CMSS17-74" transform="translate(1011.502748 0) scale(0.996264)"/>
      <use xlink:href="#CMSS17-75" transform="translate(1045.334315 0) scale(0.996264)"/>
      <use xlink:href="#CMSS17-6e" transform="translate(1093.539258 0) scale(0.996264)"/>
      <use xlink:href="#CMSS17-67" transform="translate(1141.744201 0) scale(0.996264)"/>
     </g>
    </g>
    <g id="line2d_25">
     <path d="M 295.941262 391.808733 
L 315.941262 391.808733 
L 335.941262 391.808733 
" style="fill: none; stroke-dasharray: 7.4,3.2; stroke-dashoffset: 0; stroke: #008000; stroke-width: 2"/>
    </g>
    <g id="text_15">
     <!-- Messung -->
     <g transform="translate(351.941262 398.808733) scale(0.2 -0.2)">
      <defs>
       <path id="CMSS17-4d" d="M 3194 2371 
L 2886 1473 
C 2835 1307 2662 791 2624 587 
L 2618 587 
C 2598 715 2560 849 2458 1174 
C 2400 1365 2336 1562 2272 1741 
L 1325 4416 
L 576 4416 
L 576 0 
L 1075 0 
L 1075 3900 
L 1082 3900 
C 1082 3894 1139 3613 1530 2499 
L 2374 96 
L 2848 96 
L 3610 2231 
C 3661 2378 3821 2843 3891 3066 
C 3955 3257 4115 3728 4154 3913 
L 4160 3913 
L 4160 0 
L 4666 0 
L 4666 4416 
L 3923 4416 
L 3194 2371 
z
" transform="scale(0.015625)"/>
      </defs>
      <use xlink:href="#CMSS17-4d" transform="scale(0.996264)"/>
      <use xlink:href="#CMSS17-65" transform="translate(81.67603 0) scale(0.996264)"/>
      <use xlink:href="#CMSS17-73" transform="translate(123.314852 0) scale(0.996264)"/>
      <use xlink:href="#CMSS17-73" transform="translate(159.228394 0) scale(0.996264)"/>
      <use xlink:href="#CMSS17-75" transform="translate(195.141936 0) scale(0.996264)"/>
      <use xlink:href="#CMSS17-6e" transform="translate(243.346879 0) scale(0.996264)"/>
      <use xlink:href="#CMSS17-67" transform="translate(291.551822 0) scale(0.996264)"/>
     </g>
    </g>
    <g id="line2d_26">
     <path d="M 295.941262 419.684366 
L 315.941262 419.684366 
L 335.941262 419.684366 
" style="fill: none; stroke-dasharray: 2,3.3; stroke-dashoffset: 0; stroke: #0000ff; stroke-width: 2"/>
    </g>
    <g id="text_16">
     <!-- Beobachter -->
     <g transform="translate(351.941262 426.684366) scale(0.2 -0.2)">
      <defs>
       <path id="CMSS17-42" d="M 570 4416 
L 570 0 
L 2163 0 
C 3034 0 3667 574 3667 1200 
C 3667 1685 3251 2176 2502 2317 
C 3334 2558 3501 3040 3501 3313 
C 3501 3883 2874 4416 1997 4416 
L 570 4416 
z
M 1088 2496 
L 1088 4059 
L 1824 4059 
C 2483 4059 3002 3724 3002 3306 
C 3002 2926 2592 2496 1766 2496 
L 1088 2496 
z
M 1088 357 
L 1088 2107 
L 1939 2107 
C 2630 2107 3162 1679 3162 1206 
C 3162 772 2694 357 1984 357 
L 1088 357 
z
" transform="scale(0.015625)"/>
       <path id="CMSS17-61" d="M 2406 1791 
C 2406 2392 1978 2808 1402 2808 
C 1120 2808 813 2757 461 2553 
L 499 2135 
C 659 2248 934 2432 1395 2432 
C 1722 2432 1920 2180 1920 1782 
L 1920 1536 
C 896 1536 256 1238 256 726 
C 256 461 416 -64 947 -64 
C 1043 -64 1562 -64 1933 217 
L 1933 -19 
L 2406 -19 
L 2406 1791 
z
M 1920 816 
C 1920 701 1920 548 1728 434 
C 1562 325 1350 325 1261 325 
C 941 325 723 511 723 744 
C 723 1211 1722 1211 1920 1211 
L 1920 816 
z
" transform="scale(0.015625)"/>
       <path id="CMSS17-63" d="M 2464 2541 
C 2464 2585 2170 2714 2093 2739 
C 1882 2816 1613 2816 1542 2816 
C 710 2816 211 2093 211 1363 
C 211 595 768 -64 1517 -64 
C 1946 -64 2253 76 2502 242 
L 2464 664 
C 2189 453 1869 337 1523 337 
C 1024 337 698 774 698 1369 
C 698 1831 909 2414 1549 2414 
C 1901 2414 2099 2343 2394 2145 
L 2464 2541 
z
" transform="scale(0.015625)"/>
       <path id="CMSS17-68" d="M 2618 1891 
C 2618 2292 2522 2820 1798 2820 
C 1395 2820 1133 2623 947 2407 
L 947 4448 
L 474 4448 
L 474 32 
L 960 32 
L 960 1573 
C 960 1973 1114 2432 1549 2432 
C 2112 2432 2131 2056 2131 1839 
L 2131 32 
L 2618 32 
L 2618 1891 
z
" transform="scale(0.015625)"/>
      </defs>
      <use xlink:href="#CMSS17-42" transform="scale(0.996264)"/>
      <use xlink:href="#CMSS17-65" transform="translate(62.33804 0) scale(0.996264)"/>
      <use xlink:href="#CMSS17-6f" transform="translate(103.976862 0) scale(0.996264)"/>
      <use xlink:href="#CMSS17-62" transform="translate(150.820486 0) scale(0.996264)"/>
      <use xlink:href="#CMSS17-61" transform="translate(199.025429 0) scale(0.996264)"/>
      <use xlink:href="#CMSS17-63" transform="translate(243.94735 0) scale(0.996264)"/>
      <use xlink:href="#CMSS17-68" transform="translate(285.586172 0) scale(0.996264)"/>
      <use xlink:href="#CMSS17-74" transform="translate(333.791115 0) scale(0.996264)"/>
      <use xlink:href="#CMSS17-65" transform="translate(367.622681 0) scale(0.996264)"/>
      <use xlink:href="#CMSS17-72" transform="translate(409.261503 0) scale(0.996264)"/>
     </g>
    </g>
   </g>
  </g>
 </g>
 <defs>
  <clipPath id="p39d8844bee">
   <rect x="108" y="60.48" width="669.6" height="388.08"/>
  </clipPath>
 </defs>
</svg>
